<svg xmlns="http://www.w3.org/2000/svg" height="1200" width="1600" version="1.1" xmlns:xlink="http://www.w3.org/1999/xlink" xmlns:svgjs="http://svgjs.com/svgjs"><rect fill="#ffffff" width="1600" height="1200"></rect><g><path d="M231.04 633.11C234.64 638.45 238.49 643.66 242.34 649 225.08 683.77 220.36 724.01 229.18 763.37 242.22 821.12 286.55 859.98 339.45 881.09 361.06 889.66 383.78 894.88 406.63 898.98 438.67 904.56 471.08 908.66 503.25 911.89 560.62 917.6 618.24 920.34 675.86 922.45 790.35 926.79 905.84 932.38 1019.84 918.47 1130.11 905.43 1251.93 879.36 1334.63 799.63 1378.34 757.29 1409.02 698.8 1410.26 636.96 1411 601.19 1401.69 566.17 1383.81 536.12 1387.53 499.12 1386.54 461.36 1381.08 424.86 1369.9 350.72 1324.95 290 1263.35 249.64 1200.64 208.66 1124.77 193.76 1050.88 191.15 972.77 188.17 451.59 150.17 243.71 326.26 219.74 353.33 201.74 385.12 192.17 419.76 172.18 491.66 189.57 571.64 231.04 633.11Z" fill="#deeff7" opacity="1" stroke-width="2" stroke="none"></path></g><g><path d="M556.8 998.2V840" stroke="#333333" stroke-width="2" stroke-linecap="round" stroke-linejoin="round" opacity="1" fill="none"></path><path d="M806.65 998.2V840" stroke="#333333" stroke-width="2" stroke-linecap="round" stroke-linejoin="round" opacity="1" fill="none"></path><path d="M583.13 840H556.8V606.04H806.65V840H589.59" fill="#abedd8" opacity="1" stroke-width="2" stroke="none"></path><path d="M583.13 840H556.8V606.04H806.65V840H589.59" stroke="#333333" stroke-width="2" stroke-linecap="round" stroke-linejoin="round" opacity="1" fill="none"></path></g><g><path d="M1029.21 753.6H901.18V995H1029.21V753.6Z" fill="#48466d" stroke="#333333" stroke-width="2" stroke-linecap="round" stroke-linejoin="round" opacity="1"></path><path d="M924.15 763.04H1028.84C1038.28 763.04 1046.1 755.34 1046.1 745.77V648.91C1046.1 617.74 1021.88 592.41 990.71 592.41H985.87 978.54 870.88L810.78 516.79 772.78 543.48 830.65 615.26C844.43 632.27 865.17 642.08 886.9 642.08H901.43V763.16H924.15V763.04Z" fill="#ffffff" stroke="#333333" stroke-width="2" stroke-linecap="round" stroke-linejoin="round" opacity="1"></path><path d="M1003.63 649.29V720.44H966.5C943.65 720.44 924.77 738.7 923.91 761.42V763.04" stroke="#333333" stroke-width="2" stroke-linecap="round" stroke-linejoin="round" opacity="1" fill="none"></path><path d="M914.09 626.19L997.17 720.44H1003.63V686.91L920.55 592.66H884.66L908.26 619.61" fill="#abedd8" opacity="1" stroke-width="2" stroke="none"></path><path d="M914.09 626.19L997.17 720.44H1003.63V686.91L920.55 592.66H884.66L908.26 619.61" stroke="#333333" stroke-width="2" stroke-linecap="round" stroke-linejoin="round" opacity="1" fill="none"></path><path d="M975.69 668.78L1003.63 700.7" stroke="#333333" stroke-width="2" stroke-linecap="round" stroke-linejoin="round" opacity="1" fill="none"></path><path d="M908.88 592.66L971.84 664.31" stroke="#333333" stroke-width="2" stroke-linecap="round" stroke-linejoin="round" opacity="1" fill="none"></path><path d="M896.71 592.66L1003.63 714.23" stroke="#333333" stroke-width="2" stroke-linecap="round" stroke-linejoin="round" opacity="1" fill="none"></path><path d="M965.13 831.83V813.7" stroke="#333333" stroke-width="2" stroke-linecap="round" stroke-linejoin="round" opacity="1" fill="none"></path><path d="M965.13 995V842.26" stroke="#333333" stroke-width="2" stroke-linecap="round" stroke-linejoin="round" opacity="1" fill="none"></path><path d="M926.89 576.39C926.89 576.39 950.73 556.4 976.06 572.05 982.02 575.77 990.71 584.84 986.99 603.34 982.02 615.26 970.22 623.58 956.44 623.58 941.79 623.58 929.37 614.02 925.15 600.86 924.03 597.75 923.53 594.15 923.53 590.67 923.78 585.58 924.9 580.74 926.89 576.39Z" fill="#ffffff" stroke="#333333" stroke-width="2" stroke-linecap="round" stroke-linejoin="round" opacity="1"></path><path d="M939.55 586.45V598.74" stroke="#333333" stroke-width="2" stroke-linecap="round" stroke-linejoin="round" opacity="1" fill="none"></path><path d="M948.49 598.74C948.49 601.1 946.38 603.22 944.02 603.22 941.54 603.22 939.55 601.1 939.55 598.74" stroke="#333333" stroke-width="2" stroke-linecap="round" stroke-linejoin="round" opacity="1" fill="none"></path><path d="M986.49 576.39C981.15 565.22 969.98 557.52 956.69 557.52H940.42C938.43 552.3 933.34 548.7 927.63 548.7 919.93 548.7 913.85 554.91 913.85 562.48 913.85 569.94 919.68 575.9 927.13 576.27H972.71V588.56C972.71 596.51 979.17 603.09 987.24 603.09 987.61 602.35 987.86 601.48 988.23 600.73 989.35 597.5 989.84 594.03 989.84 590.55 989.72 585.58 988.6 580.74 986.49 576.39Z" fill="#48466d" stroke="#333333" stroke-width="2" stroke-linecap="round" stroke-linejoin="round" opacity="1"></path></g><g><path d="M1045.95 982.18H986.59V997.08H1045.95V982.18Z" fill="#46cdcf" stroke="#333333" stroke-width="2" stroke-linecap="round" stroke-linejoin="round" opacity="1"></path><path d="M997.15 765.36H845.02V783.25H997.15V765.36Z" fill="#46cdcf" stroke="#333333" stroke-width="2" stroke-linecap="round" stroke-linejoin="round" opacity="1"></path><path d="M890.97 765.11V687.13C890.97 679.06 897.43 672.6 905.5 672.6" stroke="#333333" stroke-width="2" stroke-linecap="round" stroke-linejoin="round" opacity="1" fill="none"></path><path d="M907.98 674.84C909.21 674.84 910.22 673.83 910.22 672.6 910.22 671.37 909.21 670.37 907.98 670.37 906.75 670.37 905.75 671.37 905.75 672.6 905.75 673.83 906.75 674.84 907.98 674.84Z" fill="#2b8687" stroke="#333333" stroke-width="2" stroke-linecap="round" stroke-linejoin="round" opacity="1"></path><path d="M997.15 777.78H845.02V997.08H997.15V777.78Z" fill="#46cdcf" stroke="#333333" stroke-width="2" stroke-linecap="round" stroke-linejoin="round" opacity="1"></path><path d="M966.85 806.72H875.57V866.32H966.85V806.72Z" fill="#abedd8" stroke="#333333" stroke-width="2" stroke-linecap="round" stroke-linejoin="round" opacity="1"></path></g><g><path d="M509.74 906.68V331.1" stroke="#333333" stroke-width="2" stroke-linecap="round" opacity="1" fill="none"></path><path d="M509.74 997.08V926.43" stroke="#333333" stroke-width="2" stroke-linecap="round" opacity="1" fill="none"></path><path d="M1088.79 550.78V331.1" stroke="#333333" stroke-width="2" stroke-linecap="round" opacity="1" fill="none"></path><path d="M1088.79 997.08V561.96" stroke="#333333" stroke-width="2" stroke-linecap="round" opacity="1" fill="none"></path><path d="M585.86 485.96H509.74V360.16H1088.79V485.96H624.6" fill="#78c7e0" opacity="1" stroke-width="2" stroke="none"></path><path d="M585.86 485.96H509.74V360.16H1088.79V485.96H624.6" stroke="#333333" stroke-width="2" stroke-linecap="round" stroke-linejoin="round" opacity="1" fill="none"></path><path d="M614.79 485.96H596.29" stroke="#333333" stroke-width="2" stroke-linecap="round" stroke-linejoin="round" opacity="1" fill="none"></path></g><g><path d="M1111.02 997.08H487.38V1042.53H1111.02V997.08Z" fill="#78c7e0" stroke="#333333" stroke-width="2" stroke-linecap="round" stroke-linejoin="round" opacity="1"></path></g><g><path d="M682.45 997.13H529.15V1027.25H682.45V997.13Z" fill="#ffffff" stroke="#333333" stroke-width="2" stroke-linecap="round" stroke-linejoin="round" opacity="1"></path><path d="M665.66 1012.31H515.7V1042.43H665.66V1012.31Z" fill="#ffffff" stroke="#333333" stroke-width="2" stroke-linecap="round" stroke-linejoin="round" opacity="1"></path><path d="M651.96 1027.25H502V1042.43H651.96V1027.25Z" fill="#ffffff" stroke="#333333" stroke-width="2" stroke-linecap="round" stroke-linejoin="round" opacity="1"></path><path d="M665.66 997.13H682.45V1042.43H638.38V1027.25H651.96V1012.31H665.66V997.13Z" fill="#ffffff" stroke="#333333" stroke-width="2" stroke-linecap="round" stroke-linejoin="round" opacity="1"></path></g><g><path d="M1172.76 778.31V828.37H1292.3V789.11 759.57H1172.76V778.31Z" fill="#ffffff" stroke="#333333" stroke-width="2" stroke-linecap="round" stroke-linejoin="round" opacity="1"></path><path d="M1175.13 768.6C1175.13 780.08 1184.33 789.28 1195.81 789.28H1276.09C1294.66 789.28 1309.86 774.25 1309.86 755.51V722.84C1309.86 692.2 1285.04 667.38 1254.39 667.38H1228.98 1197.16C1179.18 667.38 1164.49 681.99 1164.49 700.05V720.73 734.58L1151.57 737.28 1097.12 748.59 1109.2 784.13 1164.57 770.88 1175.13 768.6Z" fill="#ffffff" stroke="#333333" stroke-width="2" stroke-linecap="round" stroke-linejoin="round" opacity="1"></path><path d="M1172.76 818.91H1292.3V1042.53H1172.76V818.91Z" fill="#48466d" stroke="#333333" stroke-width="2" stroke-linecap="round" stroke-linejoin="round" opacity="1"></path><path d="M1176.48 775.61L1166.35 775.77 1144.82 720.73H1223.16L1236.16 753.91 1244.77 775.77 1176.48 775.61Z" fill="#78c7e0" stroke="#333333" stroke-width="2" stroke-linecap="round" stroke-linejoin="round" opacity="1"></path><path d="M1231.35 630.32C1214.3 630.32 1200.03 636.49 1196.48 652.44 1195.89 654.97 1195.64 657.51 1195.64 660.21 1195.64 679.88 1211.59 695.92 1231.35 695.92 1243.84 695.92 1255.15 689.16 1261.57 679.37 1265.28 673.8 1263 667.38 1263 660.21 1263 640.54 1251.1 630.32 1231.35 630.32Z" fill="#ffffff" stroke="#333333" stroke-width="2" stroke-linecap="round" stroke-linejoin="round" opacity="1"></path><path d="M1231.35 624.67C1250.93 624.67 1267.06 640.54 1267.06 660.38 1267.06 667.38 1264.95 673.88 1261.57 679.37 1254.73 679.37 1249.24 673.88 1249.24 667.04V652.36H1196.57C1200.11 636.23 1214.38 624.67 1231.35 624.67Z" fill="#48466d" stroke="#333333" stroke-width="2" stroke-linecap="round" stroke-linejoin="round" opacity="1"></path><path d="M1214.55 663.08V673.88" stroke="#333333" stroke-width="2" stroke-linecap="round" stroke-linejoin="round" opacity="1" fill="none"></path><path d="M1214.55 673.88C1214.55 676.58 1216.66 678.61 1219.28 678.61 1221.98 678.61 1224 676.5 1224 673.88" stroke="#333333" stroke-width="2" stroke-linecap="round" stroke-linejoin="round" opacity="1" fill="none"></path><path d="M1232.53 1042.53V881.3" stroke="#333333" stroke-width="2" stroke-linecap="round" stroke-linejoin="round" opacity="1" fill="none"></path><path d="M1232.53 873.11V858.25" stroke="#333333" stroke-width="2" stroke-linecap="round" stroke-linejoin="round" opacity="1" fill="none"></path><path d="M1309.69 738.29V755.51C1309.69 774.09 1294.66 789.28 1275.92 789.28H1195.64C1184.16 789.28 1174.96 780.08 1174.96 768.6V761.76 753.91H1256.42L1272.29 753.74C1264.86 753.74 1258.87 747.83 1258.87 740.32" fill="#ffffff" opacity="1" stroke-width="2" stroke="none"></path><path d="M1309.69 738.29V755.51C1309.69 774.09 1294.66 789.28 1275.92 789.28H1195.64C1184.16 789.28 1174.96 780.08 1174.96 768.6V761.76 753.91H1256.42L1272.29 753.74C1264.86 753.74 1258.87 747.83 1258.87 740.32" stroke="#333333" stroke-width="2" stroke-linecap="round" stroke-linejoin="round" opacity="1" fill="none"></path></g><g><path d="M349.14 771.52H292.27V1040.5H349.14 405.89V781.02H349.14Z" fill="#48466d" stroke="#333333" stroke-width="2" stroke-linecap="round" stroke-linejoin="round" opacity="1"></path><path d="M324.92 650.57H440.29L449.97 584.5 484.5 587.98 474.07 659.88C471.46 678.26 455.56 691.92 436.94 691.92H406.39V785.9H343.92 338.34L344.3 793.87 313.38 813.74 282.33 772.76C274.26 762.21 269.79 749.17 269.79 735.88V692.29C269.79 669.2 288.29 650.32 311.39 650.32H316.85L324.92 650.57Z" fill="#ffffff" stroke="#333333" stroke-width="2" stroke-linecap="round" stroke-linejoin="round" opacity="1"></path><path d="M305.93 712.04V699.37" stroke="#333333" stroke-width="2" stroke-linecap="round" stroke-linejoin="round" opacity="1" fill="none"></path><path d="M338.34 786.42L305.93 744.45V719.49" stroke="#333333" stroke-width="2" stroke-linecap="round" stroke-linejoin="round" opacity="1" fill="none"></path><path d="M349.14 1040.5V849.88" stroke="#333333" stroke-width="2" stroke-linecap="round" stroke-linejoin="round" opacity="1" fill="none"></path><path d="M349.14 837.21V821.44" stroke="#333333" stroke-width="2" stroke-linecap="round" stroke-linejoin="round" opacity="1" fill="none"></path><path d="M393.6 625.24C393.6 625.24 384.16 618.78 362.68 618.78 341.19 618.78 331.75 625.24 331.75 625.24 329.77 629.71 328.4 634.8 328.4 639.89 328.4 643.61 329.02 647.09 330.14 650.57 330.51 651.56 330.76 652.18 331.13 653.18 336.35 665.47 348.52 674.16 362.8 674.16 378.07 674.16 390.86 664.35 395.34 650.57 396.45 647.22 397.07 643.61 397.07 639.89 396.95 634.8 395.83 629.71 393.6 625.24Z" fill="#ffffff" stroke="#333333" stroke-width="2" stroke-linecap="round" stroke-linejoin="round" opacity="1"></path><path d="M380.43 635.67V648.43" stroke="#333333" stroke-width="2" stroke-linecap="round" opacity="1" fill="none"></path><path d="M371.24 648.58C371.24 651.19 373.36 653.3 375.96 653.3 378.57 653.3 380.43 651.24 380.43 648.46" stroke="#333333" stroke-width="2" stroke-linecap="round" stroke-linejoin="round" opacity="1" fill="none"></path><path d="M362.68 605.74C349.14 605.74 337.34 613.69 331.75 625.36H393.6C388.26 613.69 376.46 605.74 362.68 605.74Z" fill="#48466d" stroke="#333333" stroke-width="2" stroke-linecap="round" stroke-linejoin="round" opacity="1"></path></g><g><path d="M1296.74 216.09H1162.25C1145.99 216.09 1132.66 202.92 1132.66 186.66 1132.66 170.39 1145.99 157.06 1162.25 157.06H1296.74C1313.01 157.06 1326.33 170.23 1326.33 186.66 1326.49 202.92 1313.16 216.09 1296.74 216.09Z" fill="#3d84a8" stroke="#333333" stroke-width="2" stroke-linecap="round" stroke-linejoin="round" opacity="1"></path><path d="M1143.97 243.98H1201.3C1216.95 243.98 1229.5 231.43 1229.5 215.94" stroke="#333333" stroke-width="2" stroke-linecap="round" stroke-linejoin="round" opacity="1" fill="none"></path><path d="M1121.04 243.98H1135.14" stroke="#333333" stroke-width="2" stroke-linecap="round" stroke-linejoin="round" opacity="1" fill="none"></path><path d="M1037.84 243.98H1110.82" stroke="#333333" stroke-width="2" stroke-linecap="round" stroke-linejoin="round" opacity="1" fill="none"></path></g><g><path d="M889.72 268.93H866.17C860.28 268.93 855.48 273.57 855.48 279.62 855.48 285.66 860.13 290.31 866.17 290.31H1000.04 1061.08C1073.63 290.31 1083.86 280.08 1083.86 267.53 1083.86 254.98 1073.63 244.76 1061.08 244.76H1037.69C1043.88 244.76 1049 239.64 1049 233.29 1049 226.94 1043.88 221.98 1037.69 221.98H977.72C971.53 221.98 966.26 227.09 966.26 233.29 966.26 239.49 971.37 244.76 977.72 244.76H933.72C926.91 244.76 921.33 250.33 921.33 257 921.33 263.66 926.91 269.39 933.72 269.39H897.78" fill="#3d84a8" opacity="1" stroke-width="2" stroke="none"></path><path d="M889.72 268.93H866.17C860.28 268.93 855.48 273.57 855.48 279.62 855.48 285.66 860.13 290.31 866.17 290.31H1000.04 1061.08C1073.63 290.31 1083.86 280.08 1083.86 267.53 1083.86 254.98 1073.63 244.76 1061.08 244.76H1037.69C1043.88 244.76 1049 239.64 1049 233.29 1049 226.94 1043.88 221.98 1037.69 221.98H977.72C971.53 221.98 966.26 227.09 966.26 233.29 966.26 239.49 971.37 244.76 977.72 244.76H933.72C926.91 244.76 921.33 250.33 921.33 257 921.33 263.66 926.91 269.39 933.72 269.39H897.78" stroke="#333333" stroke-width="2" stroke-linecap="round" stroke-linejoin="round" opacity="1" fill="none"></path></g><g><path d="M562.45 269.86H498.35C505.43 269.86 511.33 263.97 511.33 256.89 511.33 249.81 505.43 243.91 498.35 243.91H465.32 454.31 364.64C348.91 243.91 336.33 256.49 336.33 272.22 336.33 287.95 349.11 300.54 364.64 300.54H441.33 465.32 562.65C571.11 300.54 577.99 293.66 577.99 285.2 577.79 276.75 571.11 269.86 562.45 269.86Z" fill="#3d84a8" stroke="#333333" stroke-width="2" stroke-linecap="round" stroke-linejoin="round" opacity="1"></path></g><g><path d="M1165.17 1042.5L1515.66 1042.5" stroke="#333333" stroke-width="2" stroke-linecap="round" stroke-linejoin="round" opacity="1" fill="none"></path><path d="M84.34 1042.5L1089.5 1042.5" stroke="#333333" stroke-width="2" stroke-linecap="round" stroke-linejoin="round" opacity="1" fill="none"></path></g><g><path d="M602.99 695.98L605.76 707.03 625.58 699.83 602.99 695.98Z" fill="#3d84a8" stroke="#333333" stroke-width="2" stroke-linecap="round" stroke-linejoin="round" opacity="1"></path><path d="M772.58 663.03L686.45 684.54 656.76 695.98 625.58 699.83 596.48 707.13 599.34 718.57 581.49 723.11 584.94 736.92 602.8 732.38 605.66 743.92 669.19 727.94 667.71 788.22 695.43 781.31 696.81 721.04 731.24 712.45 745.35 768.78 770.6 762.47 756.5 706.04 781.85 699.73 772.58 663.03Z" fill="#46cdcf" stroke="#333333" stroke-width="2" stroke-linecap="round" stroke-linejoin="round" opacity="1"></path><path d="M599.34 718.57L601.61 727.65" stroke="#333333" stroke-width="2" stroke-linecap="round" stroke-linejoin="round" opacity="1" fill="none"></path><path d="M669.19 727.94L685.96 723.8" stroke="#333333" stroke-width="2" stroke-linecap="round" stroke-linejoin="round" opacity="1" fill="none"></path><path d="M731.24 712.45L743.87 709.3" stroke="#333333" stroke-width="2" stroke-linecap="round" stroke-linejoin="round" opacity="1" fill="none"></path><path d="M730.25 685.82L737.56 683.94" stroke="#333333" stroke-width="2" stroke-linecap="round" stroke-linejoin="round" opacity="1" fill="none"></path><path d="M689.31 695.98L724.14 687.3" stroke="#333333" stroke-width="2" stroke-linecap="round" stroke-linejoin="round" opacity="1" fill="none"></path><path d="M686.54 684.56L625.58 699.84 628.47 711.32 689.42 696.05 686.54 684.56Z" fill="#3d84a8" stroke="#333333" stroke-width="2" stroke-linecap="round" stroke-linejoin="round" opacity="1"></path></g></svg>