<svg xmlns="http://www.w3.org/2000/svg" height="1200" width="1600" version="1.1" xmlns:xlink="http://www.w3.org/1999/xlink" xmlns:svgjs="http://svgjs.com/svgjs"><rect fill="#ffffff" width="1600" height="1200"></rect><g><path d="M910.06 1059.74H973.57C991.9 1059.74 1006.65 1044.87 1006.65 1026.65 1006.65 1008.44 991.78 993.57 973.57 993.57H892.77C912.36 993.57 928.27 977.67 928.27 958.07 928.27 938.47 912.36 922.57 892.77 922.57H769.31C749.72 922.57 733.81 938.47 733.81 958.07 733.81 977.67 749.72 993.57 769.31 993.57H682.86C664.53 993.57 649.78 1008.44 649.78 1026.65 649.78 1044.87 664.65 1059.74 682.86 1059.74H850.35" fill="#48466d" opacity="1" stroke-width="2" stroke="none"></path><path d="M910.06 1059.74H973.57C991.9 1059.74 1006.65 1044.87 1006.65 1026.65 1006.65 1008.44 991.78 993.57 973.57 993.57H892.77C912.36 993.57 928.27 977.67 928.27 958.07 928.27 938.47 912.36 922.57 892.77 922.57H769.31C749.72 922.57 733.81 938.47 733.81 958.07 733.81 977.67 749.72 993.57 769.31 993.57H682.86C664.53 993.57 649.78 1008.44 649.78 1026.65 649.78 1044.87 664.65 1059.74 682.86 1059.74H850.35" stroke="#333333" stroke-width="2" stroke-linecap="round" stroke-linejoin="round" opacity="1" fill="none"></path><path d="M892.77 993.46H852.88" stroke="#333333" stroke-width="2" stroke-linecap="round" stroke-linejoin="round" opacity="1" fill="none"></path><path d="M843.32 993.46H830.64" stroke="#333333" stroke-width="2" stroke-linecap="round" stroke-linejoin="round" opacity="1" fill="none"></path></g><g><path d="M174.39 600.05H1427.64" stroke="#333333" stroke-width="2" stroke-linecap="round" stroke-linejoin="round" opacity="1" fill="none"></path><path d="M191.33 600.56C191.64 591.19 184.3 583.34 174.92 583.03 165.55 582.72 157.7 590.06 157.39 599.43 157.08 608.81 164.42 616.67 173.79 616.97 183.17 617.28 191.02 609.94 191.33 600.56Z" fill="#48466d" stroke="#333333" stroke-width="2" stroke-linecap="round" stroke-linejoin="round" opacity="1"></path><path d="M1427.64 617.03C1437.02 617.03 1444.62 609.42 1444.62 600.05 1444.62 590.67 1437.02 583.07 1427.64 583.07 1418.26 583.07 1410.66 590.67 1410.66 600.05 1410.66 609.42 1418.26 617.03 1427.64 617.03Z" fill="#48466d" stroke="#333333" stroke-width="2" stroke-linecap="round" stroke-linejoin="round" opacity="1"></path><path d="M375.07 588.77V611.24" stroke="#333333" stroke-width="2" stroke-linecap="round" stroke-linejoin="round" opacity="1" fill="none"></path><path d="M645.98 588.77V611.24" stroke="#333333" stroke-width="2" stroke-linecap="round" stroke-linejoin="round" opacity="1" fill="none"></path><path d="M956.05 588.77V611.24" stroke="#333333" stroke-width="2" stroke-linecap="round" stroke-linejoin="round" opacity="1" fill="none"></path><path d="M1226.96 588.77V611.24" stroke="#333333" stroke-width="2" stroke-linecap="round" stroke-linejoin="round" opacity="1" fill="none"></path></g><g><path d="M1301.13 347.3L1278.61 368.02 1248.75 361.41 1261.65 389.18 1246.04 415.59 1276.36 411.84 1296.63 434.96 1302.63 404.94 1330.7 392.78 1303.98 377.77 1301.13 347.3Z" fill="#46cdcf" stroke="#333333" stroke-width="2" stroke-linecap="round" stroke-linejoin="round" opacity="1"></path><path d="M1149.24 434.96L1144.13 457.47 1122.67 466.03 1142.48 477.73 1144.13 500.7 1161.39 485.54 1183.76 491.24 1174.6 470.08 1186.91 450.57 1163.94 452.67 1149.24 434.96Z" fill="#abedd8" stroke="#333333" stroke-width="2" stroke-linecap="round" stroke-linejoin="round" opacity="1"></path></g><g><path d="M1029.49 248.05C1026.36 251.19 1021.34 251.19 1018.2 248.05L982.25 212.1 993.54 200.81 1029.49 236.76C1032.69 239.9 1032.69 244.91 1029.49 248.05Z" fill="#46cdcf" stroke="#333333" stroke-width="2" stroke-linecap="round" stroke-linejoin="round" opacity="1"></path><path d="M975.06 189.17C996.01 168.22 996.01 134.25 975.06 113.3 954.11 92.35 920.14 92.35 899.2 113.3 878.25 134.25 878.25 168.22 899.2 189.17 920.14 210.12 954.11 210.12 975.06 189.17Z" fill="#abedd8" stroke="#333333" stroke-width="2" stroke-linecap="round" stroke-linejoin="round" opacity="1"></path><path d="M980.3 146.6C980.43 148.16 980.55 149.73 980.55 151.3 980.55 175.27 961.1 194.72 937.14 194.72 913.17 194.72 893.72 175.27 893.72 151.3 893.72 127.33 913.17 107.88 937.14 107.88 956.34 107.88 972.65 120.37 978.42 137.75" stroke="#333333" stroke-width="2" stroke-linecap="round" stroke-linejoin="round" opacity="1" fill="none"></path><path d="M972.77 191.33L987.83 206.45" stroke="#333333" stroke-width="2" stroke-linecap="round" stroke-linejoin="round" opacity="1" fill="none"></path></g><g><path d="M754.98 171.35H534.4V215.47H754.98V171.35Z" fill="#abedd8" stroke="#333333" stroke-width="2" stroke-linecap="round" stroke-linejoin="round" opacity="1"></path><path d="M754.98 196.83H534.4V324.65H754.98V196.83Z" fill="#abedd8" stroke="#333333" stroke-width="2" stroke-linecap="round" stroke-linejoin="round" opacity="1"></path><path d="M723.96 281.84H668.96V243.87C668.96 237.32 674.2 232.09 680.75 232.09H711.97C718.52 232.09 723.75 237.32 723.75 243.87L723.96 281.84Z" fill="#46cdcf" stroke="#333333" stroke-width="2" stroke-linecap="round" stroke-linejoin="round" opacity="1"></path><path d="M696.56 244.47C705.4 244.47 712.57 237.3 712.57 228.46 712.57 219.62 705.4 212.45 696.56 212.45 687.72 212.45 680.55 219.62 680.55 228.46 680.55 237.3 687.72 244.47 696.56 244.47Z" fill="#46cdcf" stroke="#333333" stroke-width="2" stroke-linecap="round" stroke-linejoin="round" opacity="1"></path><path d="M620.32 281.84H565.32V243.87C565.32 237.32 570.56 232.09 577.11 232.09H608.33C614.88 232.09 620.11 237.32 620.11 243.87V281.84H620.32Z" fill="#46cdcf" stroke="#333333" stroke-width="2" stroke-linecap="round" stroke-linejoin="round" opacity="1"></path><path d="M592.92 244.47C601.76 244.47 608.93 237.3 608.93 228.46 608.93 219.62 601.76 212.45 592.92 212.45 584.08 212.45 576.91 219.62 576.91 228.46 576.91 237.3 584.08 244.47 592.92 244.47Z" fill="#46cdcf" stroke="#333333" stroke-width="2" stroke-linecap="round" stroke-linejoin="round" opacity="1"></path><path d="M676.52 303.9H612.96V259.99C612.96 252.43 619.11 246.29 626.66 246.29H662.82C670.37 246.29 676.52 252.43 676.52 259.99V303.9Z" fill="#46cdcf" stroke="#333333" stroke-width="2" stroke-linecap="round" stroke-linejoin="round" opacity="1"></path><path d="M644.69 260.89C654.98 260.89 663.32 252.55 663.32 242.26 663.32 231.97 654.98 223.63 644.69 223.63 634.4 223.63 626.06 231.97 626.06 242.26 626.06 252.55 634.4 260.89 644.69 260.89Z" fill="#46cdcf" stroke="#333333" stroke-width="2" stroke-linecap="round" stroke-linejoin="round" opacity="1"></path></g><g><path d="M377.01 725.08H151.96C134.53 725.08 120.48 739.26 120.48 756.56 120.48 773.99 134.66 788.04 151.96 788.04H194.63C183.05 788.04 173.81 797.41 173.81 808.86 173.81 820.3 183.18 829.67 194.63 829.67H318.86C330.44 829.67 339.67 820.3 339.67 808.86 339.67 797.41 330.31 788.04 318.86 788.04H377.01C394.44 788.04 408.49 773.86 408.49 756.56 408.49 739.26 394.31 725.08 377.01 725.08Z" fill="#48466d" stroke="#333333" stroke-width="2" stroke-linecap="round" stroke-linejoin="round" opacity="1"></path><path d="M194.5 788.17H235.99" stroke="#333333" stroke-width="2" stroke-linecap="round" stroke-linejoin="round" opacity="1" fill="none"></path></g><g><path d="M1426.43 775.73H1450.65C1464.56 775.73 1475.92 764.37 1475.92 750.46 1475.92 736.55 1464.56 725.19 1450.65 725.19H1297.97C1284.06 725.19 1272.7 736.55 1272.7 750.46 1272.7 764.37 1284.06 775.73 1297.97 775.73H1406.09" fill="#48466d" opacity="1" stroke-width="2" stroke="none"></path><path d="M1426.43 775.73H1450.65C1464.56 775.73 1475.92 764.37 1475.92 750.46 1475.92 736.55 1464.56 725.19 1450.65 725.19H1297.97C1284.06 725.19 1272.7 736.55 1272.7 750.46 1272.7 764.37 1284.06 775.73 1297.97 775.73H1406.09" stroke="#333333" stroke-width="2" stroke-linecap="round" stroke-linejoin="round" opacity="1" fill="none"></path></g><g><path d="M300.98 1071.01C279.52 1071.01 262.13 1053.62 262.13 1032.15 262.13 1010.69 279.52 993.29 300.98 993.29 322.45 993.29 339.84 1010.69 339.84 1032.15 339.84 1053.62 322.45 1071.01 300.98 1071.01Z" fill="#3d84a8" stroke="#333333" stroke-width="2" stroke-linecap="round" stroke-linejoin="round" opacity="1"></path><path d="M304.12 1009.42C302.09 1009.42 300.44 1007.78 300.44 1005.74 300.44 1003.71 302.09 1002.06 304.12 1002.06 306.16 1002.06 307.8 1003.71 307.8 1005.74 307.8 1007.78 306.16 1009.42 304.12 1009.42Z" stroke="#333333" stroke-width="2" stroke-linecap="round" stroke-linejoin="round" opacity="1" fill="none"></path><path d="M315.7 1029.99C314.41 1031.18 313.54 1032.69 313.22 1034.64 312.57 1038.86 315.49 1042.76 319.71 1043.3 323.93 1043.84 327.83 1041.03 328.37 1036.81 328.91 1032.58 326.1 1028.69 321.87 1028.15" stroke="#333333" stroke-width="2" stroke-linecap="round" stroke-linejoin="round" opacity="1" fill="none"></path><path d="M281.07 1041.03C285.83 1042.98 290.81 1044.82 295.9 1046.66 333.89 1059.97 367.01 1064.3 369.82 1056.29 371.66 1050.88 359.54 1041.35 339.84 1031.72" stroke="#333333" stroke-width="2" stroke-linecap="round" stroke-linejoin="round" opacity="1" fill="none"></path><path d="M249.68 1025.87C255.96 1029.66 263.75 1033.56 272.52 1037.46" stroke="#333333" stroke-width="2" stroke-linecap="round" stroke-linejoin="round" opacity="1" fill="none"></path><path d="M270.89 1007.47C249.46 1002.82 233.98 1002.6 232.14 1007.91 231.06 1011.05 234.74 1015.59 241.89 1020.79" stroke="#333333" stroke-width="2" stroke-linecap="round" stroke-linejoin="round" opacity="1" fill="none"></path></g><g><path d="M457.92 821.91L523.48 845.61C523.48 845.61 548.82 853.51 548.82 874.95 548.82 896.39 523.48 904.29 523.48 904.29L457.92 927.99V821.91Z" fill="#46cdcf" stroke="#333333" stroke-width="2" stroke-linecap="round" stroke-linejoin="round" opacity="1"></path><path d="M537.84 723.31H483.26L523.48 807.13C523.48 807.13 533.74 827.86 564.11 827.86 594.48 827.86 618.28 807.13 618.28 807.13L537.84 723.31Z" fill="#46cdcf" stroke="#333333" stroke-width="2" stroke-linecap="round" stroke-linejoin="round" opacity="1"></path><path d="M537.84 1026.69H483.26L523.48 942.87C523.48 942.87 531.48 921.22 564.83 921.22 598.17 921.22 618.28 942.87 618.28 942.87L537.84 1026.69Z" fill="#46cdcf" stroke="#333333" stroke-width="2" stroke-linecap="round" stroke-linejoin="round" opacity="1"></path><path d="M1270.08 867.46L1165.64 861.41 1136.7 874.95 1165.64 888.49 1270.08 882.44V867.46Z" fill="#abedd8" stroke="#333333" stroke-width="2" stroke-linecap="round" stroke-linejoin="round" opacity="1"></path><path d="M1165.64 861.41L1054.63 807.13 1015.74 874.95 1054.63 942.87 1165.64 888.49V861.41Z" fill="#abedd8" stroke="#333333" stroke-width="2" stroke-linecap="round" stroke-linejoin="round" opacity="1"></path><path d="M808.08 807.13H1054.63V942.87H523.48V807.13H705.28" fill="#abedd8" opacity="1" stroke-width="2" stroke="none"></path><path d="M808.08 807.13H1054.63V942.87H523.48V807.13H705.28" stroke="#333333" stroke-width="2" stroke-linecap="round" stroke-linejoin="round" opacity="1" fill="none"></path><path d="M725.49 807.13H790.54" stroke="#333333" stroke-width="2" stroke-linecap="round" stroke-linejoin="round" opacity="1" fill="none"></path><path d="M923.92 847.04C932.53 853.3 938.08 863.46 938.08 874.95 938.08 894.03 922.58 909.42 903.6 909.42 884.52 909.42 869.13 893.93 869.13 874.95 869.13 855.87 884.62 840.48 903.6 840.48 908.53 840.48 913.14 841.5 917.35 843.35" fill="#78c7e0" opacity="1" stroke-width="2" stroke="none"></path><path d="M923.92 847.04C932.53 853.3 938.08 863.46 938.08 874.95 938.08 894.03 922.58 909.42 903.6 909.42 884.52 909.42 869.13 893.93 869.13 874.95 869.13 855.87 884.62 840.48 903.6 840.48 908.53 840.48 913.14 841.5 917.35 843.35" stroke="#333333" stroke-width="2" stroke-linecap="round" stroke-linejoin="round" opacity="1" fill="none"></path></g><g><path d="M1165.97 712.01C1182.45 712.01 1195.8 698.66 1195.8 682.19 1195.8 665.71 1182.45 652.36 1165.97 652.36 1149.5 652.36 1136.15 665.71 1136.15 682.19 1136.15 698.66 1149.5 712.01 1165.97 712.01Z" fill="#3d84a8" stroke="#333333" stroke-width="2" stroke-linecap="round" stroke-linejoin="round" opacity="1"></path><path d="M1158.63 701.92L1142.2 718.35C1138.73 721.83 1133.17 721.83 1129.81 718.35 1126.33 714.87 1126.33 709.32 1129.81 705.96L1136.03 699.74" stroke="#333333" stroke-width="2" stroke-linecap="round" stroke-linejoin="round" opacity="1" fill="none"></path><path d="M1184.31 651.46L1189.86 645.91C1193.33 642.44 1198.88 642.44 1202.25 645.91 1205.72 649.39 1205.72 654.94 1202.25 658.3L1165.19 695.36" stroke="#333333" stroke-width="2" stroke-linecap="round" stroke-linejoin="round" opacity="1" fill="none"></path></g><g><path d="M1271.15 956.91C1278.16 956.91 1283.84 962.59 1283.84 969.6 1283.84 976.61 1278.16 982.29 1271.15 982.29 1264.14 982.29 1258.46 976.61 1258.46 969.6 1258.46 962.59 1264.14 956.91 1271.15 956.91Z" fill="#3d84a8" stroke="#333333" stroke-width="2" stroke-linecap="round" stroke-linejoin="round" opacity="1"></path><path d="M1481.2 860.54C1486.15 860.54 1490.16 864.55 1490.16 869.5 1490.16 874.44 1486.15 878.46 1481.2 878.46 1476.25 878.46 1472.24 874.44 1472.24 869.5 1472.24 864.55 1476.25 860.54 1481.2 860.54Z" fill="#78c7e0" stroke="#333333" stroke-width="2" stroke-linecap="round" stroke-linejoin="round" opacity="1"></path></g><g><path d="M1246 163C1247.76 164.81 1248.8 167.29 1248.8 170 1248.8 175.6 1244.28 180.12 1238.68 180.12 1233.08 180.12 1228.57 175.6 1228.57 170 1228.57 164.4 1233.08 159.88 1238.68 159.88 1240.4 159.88 1242.02 160.29 1243.42 161.06" fill="#3d84a8" opacity="1" stroke-width="2" stroke="none"></path><path d="M1246 163C1247.76 164.81 1248.8 167.29 1248.8 170 1248.8 175.6 1244.28 180.12 1238.68 180.12 1233.08 180.12 1228.57 175.6 1228.57 170 1228.57 164.4 1233.08 159.88 1238.68 159.88 1240.4 159.88 1242.02 160.29 1243.42 161.06" stroke="#333333" stroke-width="2" stroke-linecap="round" stroke-linejoin="round" opacity="1" fill="none"></path></g><g><path d="M645.79 347.53V635.05" stroke="#333333" stroke-width="2" stroke-linecap="round" stroke-linejoin="round" opacity="1" fill="none"></path></g><g><path d="M1226.73 531.07V635.02" stroke="#333333" stroke-width="2" stroke-linecap="round" stroke-linejoin="round" opacity="1" fill="none"></path></g><g><path d="M374.81 531.77V635.73" stroke="#333333" stroke-width="2" stroke-linecap="round" stroke-linejoin="round" opacity="1" fill="none"></path></g><g><path d="M955.87 291.94V633.45" stroke="#333333" stroke-width="2" stroke-linecap="round" stroke-linejoin="round" opacity="1" fill="none"></path></g><g><path d="M1152.03 281.05C1133.77 281.05 1118.98 266.26 1118.98 248 1118.98 229.74 1133.77 214.95 1152.03 214.95 1170.29 214.95 1185.08 229.74 1185.08 248 1185.08 266.26 1170.29 281.05 1152.03 281.05Z" fill="#48466d" stroke="#333333" stroke-width="2" stroke-linecap="round" stroke-linejoin="round" opacity="1"></path><path d="M1154.7 228.67C1152.97 228.67 1151.57 227.27 1151.57 225.54 1151.57 223.81 1152.97 222.41 1154.7 222.41 1156.43 222.41 1157.83 223.81 1157.83 225.54 1157.83 227.27 1156.43 228.67 1154.7 228.67Z" stroke="#333333" stroke-width="2" stroke-linecap="round" stroke-linejoin="round" opacity="1" fill="none"></path><path d="M1164.55 246.16C1163.45 247.17 1162.71 248.46 1162.43 250.12 1161.88 253.71 1164.37 257.02 1167.96 257.48 1171.55 257.94 1174.86 255.55 1175.32 251.96 1175.78 248.37 1173.39 245.05 1169.8 244.59" stroke="#333333" stroke-width="2" stroke-linecap="round" stroke-linejoin="round" opacity="1" fill="none"></path><path d="M1135.09 255.55C1139.14 257.21 1143.38 258.77 1147.7 260.34 1180.02 271.66 1208.19 275.34 1210.58 268.53 1212.15 263.93 1201.84 255.83 1185.08 247.63" stroke="#333333" stroke-width="2" stroke-linecap="round" stroke-linejoin="round" opacity="1" fill="none"></path><path d="M1108.39 242.66C1113.73 245.88 1120.36 249.2 1127.82 252.51" stroke="#333333" stroke-width="2" stroke-linecap="round" stroke-linejoin="round" opacity="1" fill="none"></path><path d="M1126.44 227.01C1108.21 223.05 1095.04 222.87 1093.48 227.38 1092.56 230.05 1095.69 233.91 1101.76 238.33" stroke="#333333" stroke-width="2" stroke-linecap="round" stroke-linejoin="round" opacity="1" fill="none"></path></g><g><path d="M423.05 205.13C442.45 205.13 458.18 189.41 458.18 170 458.18 150.59 442.45 134.87 423.05 134.87 403.64 134.87 387.92 150.59 387.92 170 387.92 189.41 403.64 205.13 423.05 205.13Z" fill="#3d84a8" stroke="#333333" stroke-width="2" stroke-linecap="round" stroke-linejoin="round" opacity="1"></path><path d="M420.21 149.45C422.05 149.45 423.54 147.96 423.54 146.12 423.54 144.28 422.05 142.8 420.21 142.8 418.37 142.8 416.88 144.28 416.88 146.12 416.88 147.96 418.37 149.45 420.21 149.45Z" stroke="#333333" stroke-width="2" stroke-linecap="round" stroke-linejoin="round" opacity="1" fill="none"></path><path d="M409.74 168.04C410.91 169.12 411.69 170.49 411.99 172.25 412.58 176.07 409.93 179.59 406.12 180.08 402.3 180.57 398.78 178.02 398.29 174.21 397.8 170.39 400.34 166.87 404.16 166.38" stroke="#333333" stroke-width="2" stroke-linecap="round" stroke-linejoin="round" opacity="1" fill="none"></path><path d="M441.05 178.02C436.75 179.79 432.24 181.45 427.65 183.11 393.3 195.15 363.35 199.06 360.81 191.82 359.14 186.93 370.11 178.32 387.92 169.61" stroke="#333333" stroke-width="2" stroke-linecap="round" stroke-linejoin="round" opacity="1" fill="none"></path><path d="M469.43 164.32C463.75 167.75 456.71 171.27 448.78 174.8" stroke="#333333" stroke-width="2" stroke-linecap="round" stroke-linejoin="round" opacity="1" fill="none"></path><path d="M450.25 147.69C469.63 143.48 483.62 143.28 485.28 148.08 486.26 150.92 482.93 155.03 476.48 159.72" stroke="#333333" stroke-width="2" stroke-linecap="round" stroke-linejoin="round" opacity="1" fill="none"></path></g><g><path d="M812.88 343.5H863.35V513.59H812.88L812.88 343.5Z" fill="#ffffff" stroke="#333333" stroke-width="2" stroke-linecap="round" stroke-linejoin="round" opacity="1"></path><path d="M787.17 510.82V343.5L837.64 343.5V464.94 510.82H861.8C876.77 510.82 888.92 522.97 888.92 537.94V641.71H787.11V510.82H787.17Z" fill="#ffffff" stroke="#333333" stroke-width="2" stroke-linecap="round" stroke-linejoin="round" opacity="1"></path><path d="M876.37 499.89H889.05V513.66H876.37V499.89Z" fill="#48466d" stroke="#333333" stroke-width="2" stroke-linecap="round" stroke-linejoin="round" opacity="1"></path><path d="M845.47 464.47C867.73 442.95 888.99 472.9 888.99 472.9 890.87 476.95 892.02 481.61 892.02 486.47 892.02 489.91 891.48 493.15 890.54 496.18 886.49 508.73 874.61 517.84 860.72 517.84 855.05 517.84 849.72 516.35 845.06 513.66 845 513.66 831.97 477.56 845.47 464.47Z" fill="#ffffff" stroke="#333333" stroke-width="2" stroke-linecap="round" stroke-linejoin="round" opacity="1"></path><path d="M876.91 480.12V491.46" stroke="#333333" stroke-width="2" stroke-linecap="round" stroke-linejoin="round" opacity="1" fill="none"></path><path d="M868.41 491.32C868.41 493.62 870.3 495.57 872.66 495.57 875.02 495.57 876.91 493.69 876.91 491.32" stroke="#333333" stroke-width="2" stroke-linecap="round" stroke-linejoin="round" opacity="1" fill="none"></path><path d="M837.71 465.01C843.51 458.94 851.61 455.09 860.58 455.09 873.13 455.09 883.86 462.38 889.03 472.99H879.4C874.82 472.97 871.11 469.26 871.11 464.67 871.11 469.26 867.4 472.97 862.81 472.97H845.4V481.95 484.58 513.59H844.86 837.71V465.01Z" fill="#48466d" stroke="#333333" stroke-width="2" stroke-linecap="round" stroke-linejoin="round" opacity="1"></path><path d="M766.46 735.09L787.24 635.57H859.03L834.2 753.71C827.72 784.75 800.33 806.94 768.62 806.94H751.28 624.3V735.09H766.46Z" fill="#48466d" stroke="#333333" stroke-width="2" stroke-linecap="round" stroke-linejoin="round" opacity="1"></path><path d="M799.66 689.14C791.96 680.03 787.31 668.29 787.31 655.48V635.64H949.84 968.73C997.95 635.64 1021.63 659.32 1021.63 688.54V707.49 807.01H949.77V707.49H839.26C826.1 707.49 814.09 702.64 804.99 694.54" fill="#48466d" opacity="1" stroke-width="2" stroke="none"></path><path d="M799.66 689.14C791.96 680.03 787.31 668.29 787.31 655.48V635.64H949.84 968.73C997.95 635.64 1021.63 659.32 1021.63 688.54V707.49 807.01H949.77V707.49H839.26C826.1 707.49 814.09 702.64 804.99 694.54" stroke="#333333" stroke-width="2" stroke-linecap="round" stroke-linejoin="round" opacity="1" fill="none"></path><path d="M766.46 735.09L762.82 751.89" stroke="#333333" stroke-width="2" stroke-linecap="round" stroke-linejoin="round" opacity="1" fill="none"></path><path d="M949.84 707.49H964.08" stroke="#333333" stroke-width="2" stroke-linecap="round" stroke-linejoin="round" opacity="1" fill="none"></path></g><g><path d="M378.69 500.34C362.68 500.34 349.62 487.27 349.62 471.26V423.93H407.76V471.4C407.76 487.27 394.7 500.34 378.69 500.34Z" fill="#46cdcf" stroke="#333333" stroke-width="2" stroke-linecap="round" stroke-linejoin="round" opacity="1"></path><path d="M378.69 423.93V347.66" stroke="#333333" stroke-width="2" stroke-linecap="round" stroke-linejoin="round" opacity="1" fill="none"></path><path d="M378.69 403.28C366.47 403.28 356.5 393.45 356.5 381.09V372.66C368.72 372.66 378.69 382.64 378.69 394.86V403.28Z" fill="#abedd8" stroke="#333333" stroke-width="2" stroke-linecap="round" stroke-linejoin="round" opacity="1"></path><path d="M378.69 379.83C390.91 379.83 400.88 370 400.88 357.64V349.21C388.66 349.21 378.69 359.18 378.69 371.4V379.83Z" fill="#abedd8" stroke="#333333" stroke-width="2" stroke-linecap="round" stroke-linejoin="round" opacity="1"></path></g></svg>