<svg xmlns="http://www.w3.org/2000/svg" height="1200" width="1600" version="1.1" xmlns:xlink="http://www.w3.org/1999/xlink" xmlns:svgjs="http://svgjs.com/svgjs"><rect fill="#ffffff" width="1600" height="1200"></rect><g><path d="M1442.96 318.55C1443.65 343.11 1437.04 368.14 1431.94 392.7 1397.09 553.91 1413.76 723.08 1354.53 879.22 1341.17 914.04 1322.71 949.79 1287.86 971.59 1237.03 1003.41 1169.12 997.42 1109.62 999.61 1033.85 1002.38 958.37 998.22 882.89 996.84 761.53 994.88 640.45 990.84 519.37 985.08 456.56 982.08 393.06 987.27 331.35 976.66 246.09 961.9 221.02 924.88 207.38 856.27 173.22 683.53 140.02 510.32 119.5 335.96 115.64 303.56 113.3 268.16 135.48 241.41 182.03 185.82 287.82 206.81 355.46 209.81 465.38 214.77 575.44 216.84 685.36 218 900.1 220.19 1114.85 218.57 1329.32 228.37 1384.69 230.8 1430.15 246.59 1441.31 296.99 1442 304.37 1442.96 311.4 1442.96 318.55Z" fill="#deeff7" opacity="1" stroke-width="2" stroke="none"></path></g><g><path d="M1151.48 1034.66L1487.85 1034.66" stroke="#333333" stroke-width="2" stroke-linecap="round" stroke-linejoin="round" opacity="1" fill="none"></path><path d="M114.16 1034.66L1078.85 1034.66" stroke="#333333" stroke-width="2" stroke-linecap="round" stroke-linejoin="round" opacity="1" fill="none"></path></g><g><path d="M1023.3 371.9C1034.46 371.9 1043.5 362.86 1043.5 351.7 1043.5 340.54 1034.46 331.5 1023.3 331.5 1012.14 331.5 1003.1 340.54 1003.1 351.7 1003.1 362.86 1012.14 371.9 1023.3 371.9Z" fill="#abedd8" stroke="#333333" stroke-width="2" stroke-linecap="round" stroke-linejoin="round" opacity="1"></path></g><g><path d="M896.35 1034.16C901.05 1034.16 904.44 1029.66 903.15 1025.07L888.26 974.71H873.37L889.66 1029.06C890.46 1032.16 893.25 1034.16 896.35 1034.16Z" fill="#78c7e0" stroke="#333333" stroke-width="2" stroke-linecap="round" stroke-linejoin="round" opacity="1"></path><path d="M648.65 1034.16C643.96 1034.16 640.56 1029.66 641.86 1025.07L656.65 974.81H671.74L655.35 1029.06C654.45 1032.16 651.75 1034.16 648.65 1034.16Z" fill="#78c7e0" stroke="#333333" stroke-width="2" stroke-linecap="round" stroke-linejoin="round" opacity="1"></path><path d="M445.52 1034.16C440.82 1034.16 437.43 1029.66 438.73 1025.07L453.61 975.51H468.2L452.12 1029.06C451.42 1032.16 448.62 1034.16 445.52 1034.16Z" fill="#78c7e0" stroke="#333333" stroke-width="2" stroke-linecap="round" stroke-linejoin="round" opacity="1"></path><path d="M402.76 767.18L384.57 670.06C379.77 644.58 399.36 621 425.34 621L578.61 621C598.6 621 615.68 635.19 619.38 654.87L659.95 872.09 837.6 872.09C872.37 872.09 900.55 900.27 900.55 935.04V978.3H679.73L442.12 978.3 405.15 780.77" fill="#3d84a8" opacity="1" stroke-width="2" stroke="none"></path><path d="M402.76 767.18L384.57 670.06C379.77 644.58 399.36 621 425.34 621L578.61 621C598.6 621 615.68 635.19 619.38 654.87L659.95 872.09 837.6 872.09C872.37 872.09 900.55 900.27 900.55 935.04V978.3H679.73L442.12 978.3 405.15 780.77" stroke="#333333" stroke-width="2" stroke-linecap="round" stroke-linejoin="round" opacity="1" fill="none"></path><path d="M606.29 780.67H785.64C829.61 780.67 865.28 816.34 865.28 860.3V1034.26H773.85V871.99H697.71C647.26 871.99 606.29 831.12 606.29 780.67Z" fill="#48466d" stroke="#333333" stroke-width="2" stroke-linecap="round" stroke-linejoin="round" opacity="1"></path><path d="M618.38 780.67C623.18 799.45 646.76 802.65 665.34 808.24 677.63 808.24 780.75 799.55 793.04 823.23 798.83 834.32 802.23 846.91 802.23 860.3V1034.26H710.8V871.99C700.61 871.99 631.27 872.09 620.68 872.09 620.38 836.32 604.89 802.95 580.31 780.67H618.38V780.67Z" fill="#48466d" stroke="#333333" stroke-width="2" stroke-linecap="round" stroke-linejoin="round" opacity="1"></path><path d="M674.73 600.41H795.43L792.64 720.12 906.44 763.28 884.26 823.23 799.83 790.86V823.23H792.94L673.33 823.23C672.43 823.23 671.54 823.23 670.64 823.13 654.85 822.53 639.56 814.74 629.67 802.75 624.27 796.35 620.48 788.76 618.28 780.67H580.11C569.32 770.87 556.83 762.98 543.14 757.49V731.91C543.24 659.27 602.09 600.41 674.73 600.41Z" fill="#ffffff" stroke="#333333" stroke-width="2" stroke-linecap="round" stroke-linejoin="round" opacity="1"></path><path d="M771.65 760.98V722.81" stroke="#333333" stroke-width="2" stroke-linecap="round" stroke-linejoin="round" opacity="1" fill="none"></path><path d="M771.65 712.42V704.03" stroke="#333333" stroke-width="2" stroke-linecap="round" stroke-linejoin="round" opacity="1" fill="none"></path><path d="M827.91 614.3C827.91 614.3 790.34 581.43 749.67 607.11 741.28 612.4 723.39 629.89 729.59 658.17 737.68 677.65 756.87 691.34 779.25 691.34 803.13 691.34 823.41 675.75 830.41 654.17 832.1 648.87 833.1 643.28 833.1 637.48 833.2 629.19 831.3 621.4 827.91 614.3Z" fill="#ffffff" stroke="#333333" stroke-width="2" stroke-linecap="round" stroke-linejoin="round" opacity="1"></path><path d="M807.12 633.69V650.97" stroke="#333333" stroke-width="2" stroke-linecap="round" stroke-linejoin="round" opacity="1" fill="none"></path><path d="M792.64 650.97C792.64 654.97 795.83 658.17 799.83 658.17 803.83 658.17 807.02 654.97 807.02 650.97" stroke="#333333" stroke-width="2" stroke-linecap="round" stroke-linejoin="round" opacity="1" fill="none"></path><path d="M779.35 583.63C757.86 583.63 739.38 596.12 730.69 614.3 727.29 621.3 725.49 629.19 725.49 637.48 725.49 643.28 726.39 648.87 728.19 654.17 728.59 655.57 729.09 656.87 729.69 658.17 742.78 658.17 753.47 647.58 753.47 634.39V614.3H828.01C819.31 596.22 800.73 583.63 779.35 583.63Z" fill="#48466d" stroke="#333333" stroke-width="2" stroke-linecap="round" stroke-linejoin="round" opacity="1"></path><path d="M795.13 760.98L795.73 758.08C797.13 750.99 803.33 745.79 810.62 745.79H826.91L842.5 747.29 857.68 745.89H873.97C881.26 745.89 887.46 751.09 888.86 758.18L898.25 806.74C899.95 815.24 893.35 823.23 884.66 823.23 879.27 823.23 874.47 820.13 872.17 815.34L863.08 796.15H842.6 842.1 821.61L812.52 815.34C810.22 820.13 805.33 823.23 800.03 823.23V761.08H795.13V760.98Z" fill="#abedd8" stroke="#333333" stroke-width="2" stroke-linecap="round" stroke-linejoin="round" opacity="1"></path><path d="M834.9 753.89H849.69C854.09 753.89 857.68 750.29 857.68 745.89H826.91C826.81 750.29 830.41 753.89 834.9 753.89Z" fill="#78c7e0" stroke="#333333" stroke-width="2" stroke-linecap="round" stroke-linejoin="round" opacity="1"></path><path d="M862.98 796.05L859.08 786.86" stroke="#333333" stroke-width="2" stroke-linecap="round" stroke-linejoin="round" opacity="1" fill="none"></path><path d="M821.51 796.05L825.81 786.86" stroke="#333333" stroke-width="2" stroke-linecap="round" stroke-linejoin="round" opacity="1" fill="none"></path><path d="M674.03 760.98C689.82 760.98 702.61 748.19 702.61 732.41" stroke="#333333" stroke-width="2" stroke-linecap="round" stroke-linejoin="round" opacity="1" fill="none"></path><path d="M679.83 956.32V934.84C679.83 900.07 651.65 871.99 616.98 871.99H535.45" stroke="#333333" stroke-width="2" stroke-linecap="round" stroke-linejoin="round" opacity="1" fill="none"></path><path d="M679.83 978.2V967.01" stroke="#333333" stroke-width="2" stroke-linecap="round" stroke-linejoin="round" opacity="1" fill="none"></path><path d="M497.18 748.49C513.46 748.49 529.05 751.69 543.24 757.39" stroke="#333333" stroke-width="2" stroke-linecap="round" stroke-linejoin="round" opacity="1" fill="none"></path><path d="M673.73 760.98L795.13 760.98H799.93" stroke="#333333" stroke-width="2" stroke-linecap="round" stroke-linejoin="round" opacity="1" fill="none"></path><path d="M618.38 704.03V780.67" stroke="#333333" stroke-width="2" stroke-linecap="round" stroke-linejoin="round" opacity="1" fill="none"></path></g><g><path d="M1305.7 660.7H1163.5L1147.3 639 1231.5 627.4 1321.9 639 1305.7 660.7Z" fill="#48466d" stroke="#333333" stroke-width="2" stroke-linecap="round" stroke-linejoin="round" opacity="1"></path><path d="M1499.5 434.1V607.8L1490 630.5 984.3 629.4 969.7 607.8V303.9H1499.5V414" fill="#abedd8" opacity="1" stroke-width="2" stroke="none"></path><path d="M1499.5 434.1V607.8L1490 630.5 984.3 629.4 969.7 607.8V303.9H1499.5V414" stroke="#333333" stroke-width="2" stroke-linecap="round" stroke-linejoin="round" opacity="1" fill="none"></path><path d="M1032.1 630.5H1007.5V1034.4H1032.1V630.5Z" fill="#48466d" stroke="#333333" stroke-width="2" stroke-linecap="round" stroke-linejoin="round" opacity="1"></path><path d="M1461.7 727V1034.5H1437.1V629.2H1461.7V715" fill="#48466d" opacity="1" stroke-width="2" stroke="none"></path><path d="M1461.7 727V1034.5H1437.1V629.2H1461.7V715" stroke="#333333" stroke-width="2" stroke-linecap="round" stroke-linejoin="round" opacity="1" fill="none"></path><path d="M1499.5 607.8H969.7V639.1H1499.5V607.8Z" fill="#48466d" stroke="#333333" stroke-width="2" stroke-linecap="round" stroke-linejoin="round" opacity="1"></path></g><g><path d="M259.03 697.57C259.03 669.46 286.89 651.38 286.89 628.89 286.89 606.41 259.03 588.32 259.03 560.22V494.1C259.03 471.25 240.33 452.56 217.48 452.56 194.63 452.56 175.93 471.25 175.93 494.1V560.22C175.93 588.32 148.07 606.41 148.07 628.89 148.07 651.38 175.93 669.46 175.93 697.57V763.68C175.93 786.53 194.63 805.23 217.48 805.23 240.33 805.23 259.03 786.53 259.03 763.68V697.57Z" fill="#48466d" stroke="#333333" stroke-width="2" stroke-linecap="round" stroke-linejoin="round" opacity="1"></path><path d="M286.4 876.1H148.68L179.35 1034.96H255.73L286.4 876.1Z" fill="#3d84a8" stroke="#333333" stroke-width="2" stroke-linecap="round" stroke-linejoin="round" opacity="1"></path><path d="M217.48 876.1V628.16" stroke="#333333" stroke-width="2" stroke-linecap="round" stroke-linejoin="round" opacity="1" fill="none"></path><path d="M217.48 610.44V573.66" stroke="#333333" stroke-width="2" stroke-linecap="round" stroke-linejoin="round" opacity="1" fill="none"></path><path d="M284.32 1034.96H134.26" stroke="#333333" stroke-width="2" stroke-linecap="round" stroke-linejoin="round" opacity="1" fill="none"></path></g><g><path d="M1350.75 854.1H1332.69 1234.91V1034.3H1332.69 1350.75 1421.89V854.1H1350.75Z" fill="#3d84a8" stroke="#333333" stroke-width="2" stroke-linecap="round" stroke-linejoin="round" opacity="1"></path><path d="M1328.4 1034.3V854.1" stroke="#333333" stroke-width="2" stroke-linecap="round" stroke-linejoin="round" opacity="1" fill="none"></path><path d="M1281.7 956.97C1288.87 956.97 1294.67 951.16 1294.67 944 1294.67 936.84 1288.87 931.03 1281.7 931.03 1274.54 931.03 1268.73 936.84 1268.73 944 1268.73 951.16 1274.54 956.97 1281.7 956.97Z" fill="#78c7e0" stroke="#333333" stroke-width="2" stroke-linecap="round" stroke-linejoin="round" opacity="1"></path><path d="M1281.7 944.2V964.06" stroke="#333333" stroke-width="2" stroke-linecap="round" stroke-linejoin="round" opacity="1" fill="none"></path><path d="M1363.52 924.24H1386.77" stroke="#333333" stroke-width="2" stroke-linecap="round" stroke-linejoin="round" opacity="1" fill="none"></path><path d="M1363.52 944.2H1386.77" stroke="#333333" stroke-width="2" stroke-linecap="round" stroke-linejoin="round" opacity="1" fill="none"></path><path d="M1363.52 964.06H1386.77" stroke="#333333" stroke-width="2" stroke-linecap="round" stroke-linejoin="round" opacity="1" fill="none"></path></g><g><path d="M903.34 528.3C928.44 528.3 948.78 507.96 948.78 482.86 948.78 457.76 928.44 437.41 903.34 437.41 878.24 437.41 857.89 457.76 857.89 482.86 857.89 507.96 878.24 528.3 903.34 528.3Z" fill="#46cdcf" stroke="#333333" stroke-width="2" stroke-linecap="round" stroke-linejoin="round" opacity="1"></path><path d="M903.34 528.3C903.34 542.35 891.89 553.8 877.84 553.8H858.88" stroke="#333333" stroke-width="2" stroke-linecap="round" stroke-linejoin="round" opacity="1" fill="none"></path><path d="M880.26 484.2L894.66 498.87 926.69 466.85" stroke="#333333" stroke-width="2" stroke-linecap="round" stroke-linejoin="round" opacity="1" fill="none"></path></g><g><path d="M1086.83 790V780.07C1086.83 766.75 1097.3 755.87 1110.22 755.87 1123.13 755.87 1133.6 766.75 1133.6 780.07V951.53H1086.83V799.24" fill="#78c7e0" opacity="1" stroke-width="2" stroke="none"></path><path d="M1086.83 790V780.07C1086.83 766.75 1097.3 755.87 1110.22 755.87 1123.13 755.87 1133.6 766.75 1133.6 780.07V951.53H1086.83V799.24" stroke="#333333" stroke-width="2" stroke-linecap="round" stroke-linejoin="round" opacity="1" fill="none"></path><path d="M1060.59 958.6L1058.48 944.94H1161.89L1148.15 1034.61H1072.28L1065.48 991.3 1063.99 980.97 1062.08 968.32 1060.59 958.6Z" fill="#48466d" stroke="#333333" stroke-width="2" stroke-linecap="round" stroke-linejoin="round" opacity="1"></path><path d="M1098.66 831.4H1058.48" stroke="#333333" stroke-width="2" stroke-linecap="round" stroke-linejoin="round" opacity="1" fill="none"></path><path d="M1124.49 865.19H1142.24" stroke="#333333" stroke-width="2" stroke-linecap="round" stroke-linejoin="round" opacity="1" fill="none"></path></g><g><path d="M1124.79 521.08H1144.06V569.82H1124.79V521.08Z" fill="#3d84a8" stroke="#333333" stroke-width="2" stroke-linecap="round" stroke-linejoin="round" opacity="1"></path><path d="M1124.79 537.26H1134.53" stroke="#333333" stroke-width="2" stroke-linecap="round" stroke-linejoin="round" opacity="1" fill="none"></path><path d="M1124.79 553.43H1139.19" stroke="#333333" stroke-width="2" stroke-linecap="round" stroke-linejoin="round" opacity="1" fill="none"></path><path d="M1164.22 511.78C1164.22 516.87 1160.01 520.86 1155.14 520.86H1113.93C1108.84 520.86 1104.85 516.65 1104.85 511.78" stroke="#333333" stroke-width="2" stroke-linecap="round" stroke-linejoin="round" opacity="1" fill="none"></path><path d="M1117.03 521.08H1151.81L1151.81 348.51 1134.53 328.13 1117.03 348.51V521.08Z" fill="#78c7e0" stroke="#333333" stroke-width="2" stroke-linecap="round" stroke-linejoin="round" opacity="1"></path><path d="M1134.53 434.02V420.73" stroke="#333333" stroke-width="2" stroke-linecap="round" stroke-linejoin="round" opacity="1" fill="none"></path><path d="M1134.53 521.08L1134.53 443.32" stroke="#333333" stroke-width="2" stroke-linecap="round" stroke-linejoin="round" opacity="1" fill="none"></path><path d="M1117.03 545.23H1186.15V608.37H1117.03V545.23Z" fill="#ffffff" stroke="#333333" stroke-width="2" stroke-linecap="round" stroke-linejoin="round" opacity="1"></path><path d="M1175.96 608.15H1358.28V504.47C1358.28 466.81 1327.71 436.24 1290.05 436.24H1221.82C1196.56 436.24 1175.96 456.84 1175.96 482.09V608.15Z" fill="#ffffff" stroke="#333333" stroke-width="2" stroke-linecap="round" stroke-linejoin="round" opacity="1"></path><path d="M1192.58 430.48V406.99L1263.24 385.73 1241.76 452.85H1192.58 1175.96V430.48H1192.58Z" fill="#46cdcf" stroke="#333333" stroke-width="2" stroke-linecap="round" stroke-linejoin="round" opacity="1"></path><path d="M1197.01 384.62C1197.01 384.62 1230.24 355.6 1266.12 378.19 1273.66 382.85 1289.39 398.35 1283.85 423.39 1276.76 440.67 1259.7 452.63 1239.98 452.63 1218.94 452.63 1200.99 438.89 1194.79 419.84 1193.24 415.19 1192.35 410.32 1192.35 405 1192.58 397.91 1194.13 390.82 1197.01 384.62Z" fill="#ffffff" stroke="#333333" stroke-width="2" stroke-linecap="round" stroke-linejoin="round" opacity="1"></path><path d="M1215.39 397.91V417.18" stroke="#333333" stroke-width="2" stroke-linecap="round" stroke-linejoin="round" opacity="1" fill="none"></path><path d="M1228.24 417.18C1228.24 420.73 1225.36 423.61 1221.82 423.61 1218.27 423.61 1215.39 420.73 1215.39 417.18" stroke="#333333" stroke-width="2" stroke-linecap="round" stroke-linejoin="round" opacity="1" fill="none"></path><path d="M1192.58 396.8C1193.46 369.78 1216.72 348.07 1244.41 350.72 1269 352.94 1287.61 374.43 1287.61 399.24V452.85H1226.69V430.7H1243.09V398.13L1193.9 398.35C1193.24 398.13 1192.58 397.47 1192.58 396.8Z" fill="#78c7e0" stroke="#333333" stroke-width="2" stroke-linecap="round" stroke-linejoin="round" opacity="1"></path><path d="M1243.09 397.91H1261.69" stroke="#333333" stroke-width="2" stroke-linecap="round" stroke-linejoin="round" opacity="1" fill="none"></path><path d="M1276.54 397.91H1268.12" stroke="#333333" stroke-width="2" stroke-linecap="round" stroke-linejoin="round" opacity="1" fill="none"></path><path d="M1213.62 608.15V545.23H1314.42" stroke="#333333" stroke-width="2" stroke-linecap="round" stroke-linejoin="round" opacity="1" fill="none"></path><path d="M1295.81 526.4C1295.81 536.59 1304.23 545.01 1314.42 545.01" stroke="#333333" stroke-width="2" stroke-linecap="round" stroke-linejoin="round" opacity="1" fill="none"></path></g></svg>