<svg xmlns="http://www.w3.org/2000/svg" height="1200" width="1600" version="1.1" xmlns:xlink="http://www.w3.org/1999/xlink" xmlns:svgjs="http://svgjs.com/svgjs"><rect fill="#ffffff" width="1600" height="1200"></rect><g><path d="M1482.44 720.1C1476.84 689.32 1465.05 659.8 1450.29 632.34 1444 620.67 1436.67 608.66 1434.39 595.5 1430.38 573.42 1440.22 551.91 1446.86 530.51 1513.45 314.49 1278.21 190.46 1099.03 182.45 984.84 177.3 872.25 212.43 779.8 279.59 601.65 221.24 349.01 238.4 268.92 438.4 262.17 455.11 256.91 472.84 245.92 486.92 232.99 503.85 213.54 514.15 196.5 526.73 153.59 558.43 124.07 607.4 115.83 659.92 95.23 793.1 217.66 937.61 349.13 950.43 392.72 954.66 436.66 948.6 478.99 938.18 488.83 935.89 582.43 898.59 581.51 897.56 737.92 1008.78 944.33 1021.59 1129.58 1017.36 1182.09 1016.22 1236.79 1012.21 1285.99 992.99 1385.19 954.32 1484.39 881.09 1486.45 764.61 1486.45 750.08 1485.3 735.09 1482.44 720.1Z" fill="#deeff7" opacity="1" stroke-width="2" stroke="none"></path></g><g><path d="M1320.92 315.51H1059.71V611.12H1320.92V315.51Z" fill="#78c7e0" stroke="#333333" stroke-width="2" stroke-linecap="round" stroke-linejoin="round" opacity="1"></path><path d="M1320.92 315.51H1059.71V611.12H1320.92V315.51Z" stroke="#333333" stroke-width="2" stroke-linecap="round" stroke-linejoin="round" opacity="1" fill="none"></path></g><g><path d="M689.2 1068.97H343.78C321.21 1068.97 302.92 1050.68 302.92 1028.11V938.87C302.92 938.74 320.82 786.46 320.82 657.66 320.82 561.41 302.92 400.7 302.92 400.7V356.73C302.92 334.16 321.21 315.87 343.78 315.87H689.2C711.77 315.87 730.06 334.16 730.06 356.73V400.7C729.41 403.17 702.43 526.13 702.43 657.92 702.43 754.42 730.06 938.87 730.06 938.87V1028.11C730.06 1050.55 711.77 1068.97 689.2 1068.97Z" fill="#46cdcf" stroke="#333333" stroke-width="2" stroke-linecap="round" stroke-linejoin="round" opacity="1"></path><path d="M730.06 400.7H302.92V938.87H730.06V400.7Z" fill="#abedd8" stroke="#333333" stroke-width="2" stroke-linecap="round" stroke-linejoin="round" opacity="1"></path><path d="M539.38 980.51C545.48 986.47 549.24 994.78 549.24 1003.86 549.24 1021.89 534.58 1036.54 516.55 1036.54 498.52 1036.54 483.87 1021.89 483.87 1003.86 483.87 985.83 498.52 971.17 516.55 971.17 522 971.17 527.06 972.47 531.6 974.8" stroke="#333333" stroke-width="2" stroke-linecap="round" stroke-linejoin="round" opacity="1" fill="none"></path><path d="M473.75 356.86H559.23" stroke="#333333" stroke-width="2" stroke-linecap="round" stroke-linejoin="round" opacity="1" fill="none"></path><path d="M578.94 356.86H596.19" stroke="#333333" stroke-width="2" stroke-linecap="round" stroke-linejoin="round" opacity="1" fill="none"></path></g><g><path d="M1030.01 445.75C1062.13 445.75 1088.16 419.71 1088.16 387.6 1088.16 355.49 1062.13 329.45 1030.01 329.45 997.9 329.45 971.87 355.49 971.87 387.6 971.87 419.71 997.9 445.75 1030.01 445.75Z" fill="#46cdcf" stroke="#333333" stroke-width="2" stroke-linecap="round" stroke-linejoin="round" opacity="1"></path><path d="M1018.03 411.74H1051.51V372.98H1028.78L1037.15 353.07H1024.11L1015.74 372.98H999.71V411.74H1010.98" fill="#abedd8" opacity="1" stroke-width="2" stroke="none"></path><path d="M1018.03 411.74H1051.51V372.98H1028.78L1037.15 353.07H1024.11L1015.74 372.98H999.71V411.74H1010.98" stroke="#333333" stroke-width="2" stroke-linecap="round" stroke-linejoin="round" opacity="1" fill="none"></path><path d="M1028.78 372.98C1033.45 372.98 1037.24 376.76 1037.24 381.43" stroke="#333333" stroke-width="2" stroke-linecap="round" stroke-linejoin="round" opacity="1" fill="none"></path><path d="M1028.78 389.89C1030.54 389.89 1032.13 389.36 1033.54 388.48 1035.83 386.98 1037.24 384.43 1037.24 381.43" stroke="#333333" stroke-width="2" stroke-linecap="round" stroke-linejoin="round" opacity="1" fill="none"></path><path d="M1060.41 372.98H1042.7V382.67H1060.41V372.98Z" fill="#abedd8" stroke="#333333" stroke-width="2" stroke-linecap="round" stroke-linejoin="round" opacity="1"></path><path d="M1060.41 382.67H1042.7V392.36H1060.41V382.67Z" fill="#abedd8" stroke="#333333" stroke-width="2" stroke-linecap="round" stroke-linejoin="round" opacity="1"></path><path d="M1060.41 392.36H1042.7V402.05H1060.41V392.36Z" fill="#abedd8" stroke="#333333" stroke-width="2" stroke-linecap="round" stroke-linejoin="round" opacity="1"></path><path d="M1060.41 402.05H1042.7V411.74H1060.41V402.05Z" fill="#abedd8" stroke="#333333" stroke-width="2" stroke-linecap="round" stroke-linejoin="round" opacity="1"></path></g><g><path d="M684.03 692.22C656.85 625.74 591.32 578.97 514.87 578.97 453.5 578.97 399.37 609.12 366.25 655.42L351.17 680.58C351.17 680.82 350.93 681.06 350.93 681.3 332.65 718.33 360.31 761.66 401.62 761.66H570.19C564.97 761.66 560.34 765.34 559.86 770.57 559.39 776.5 564.02 781.49 569.72 781.49H592.51C592.51 781.49 592.74 781.72 592.51 781.72 587.52 782.67 584.08 787.19 584.55 792.41 585.03 797.63 589.78 801.31 594.88 801.31H620.64L647.35 833.96C649.37 836.45 652.57 837.87 655.78 837.87 663.97 837.87 669.07 829.45 665.63 822.09L636.9 761.78C672.87 761.66 697.57 725.34 684.03 692.22Z" fill="#46cdcf" stroke="#333333" stroke-width="2" stroke-linecap="round" stroke-linejoin="round" opacity="1"></path><path d="M483.41 665.03V645.92H543.24V705.75H483.41V672.39" fill="#78c7e0" opacity="1" stroke-width="2" stroke="none"></path><path d="M483.41 665.03V645.92H543.24V705.75H483.41V672.39" stroke="#333333" stroke-width="2" stroke-linecap="round" stroke-linejoin="round" opacity="1" fill="none"></path><path d="M513.33 705.75V726.29" stroke="#333333" stroke-width="2" stroke-linecap="round" stroke-linejoin="round" opacity="1" fill="none"></path><path d="M483.41 741.36C486.69 741.36 489.35 738.7 489.35 735.43 489.35 732.15 486.69 729.49 483.41 729.49 480.13 729.49 477.48 732.15 477.48 735.43 477.48 738.7 480.13 741.36 483.41 741.36Z" stroke="#333333" stroke-width="2" stroke-linecap="round" stroke-linejoin="round" opacity="1" fill="none"></path><path d="M530.18 741.6C526.98 741.6 524.25 738.87 524.25 735.67 524.25 732.46 526.98 729.73 530.18 729.73 533.39 729.73 536.12 732.46 536.12 735.67 536.12 737.09 535.65 738.4 534.7 739.35" stroke="#333333" stroke-width="2" stroke-linecap="round" stroke-linejoin="round" opacity="1" fill="none"></path><path d="M559.86 626.93C563.14 626.93 565.8 624.27 565.8 620.99 565.8 617.72 563.14 615.06 559.86 615.06 556.57 615.06 553.93 617.72 553.93 620.99 553.93 624.27 556.57 626.93 559.86 626.93Z" stroke="#333333" stroke-width="2" stroke-linecap="round" stroke-linejoin="round" opacity="1" fill="none"></path><path d="M497.3 620.99C500.58 620.99 503.24 618.33 503.24 615.06 503.24 611.78 500.58 609.12 497.3 609.12 494.03 609.12 491.37 611.78 491.37 615.06 491.37 618.33 494.03 620.99 497.3 620.99Z" stroke="#333333" stroke-width="2" stroke-linecap="round" stroke-linejoin="round" opacity="1" fill="none"></path><path d="M487.45 730.8L496.59 721.89V705.75" stroke="#333333" stroke-width="2" stroke-linecap="round" stroke-linejoin="round" opacity="1" fill="none"></path><path d="M450.29 696.13C453.57 696.13 456.23 693.48 456.23 690.2 456.23 686.92 453.57 684.26 450.29 684.26 447.01 684.26 444.36 686.92 444.36 690.2 444.36 693.48 447.01 696.13 450.29 696.13Z" stroke="#333333" stroke-width="2" stroke-linecap="round" stroke-linejoin="round" opacity="1" fill="none"></path><path d="M450.29 667.53C453.57 667.53 456.23 664.87 456.23 661.59 456.23 658.31 453.57 655.65 450.29 655.65 447.01 655.65 444.36 658.31 444.36 661.59 444.36 664.87 447.01 667.53 450.29 667.53Z" stroke="#333333" stroke-width="2" stroke-linecap="round" stroke-linejoin="round" opacity="1" fill="none"></path><path d="M456.23 690.2H483.41" stroke="#333333" stroke-width="2" stroke-linecap="round" stroke-linejoin="round" opacity="1" fill="none"></path><path d="M456.23 661.59H483.41" stroke="#333333" stroke-width="2" stroke-linecap="round" stroke-linejoin="round" opacity="1" fill="none"></path><path d="M576.48 667.53C579.76 667.53 582.42 664.87 582.42 661.59 582.42 658.31 579.76 655.65 576.48 655.65 573.19 655.65 570.55 658.31 570.55 661.59 570.55 664.87 573.19 667.53 576.48 667.53Z" stroke="#333333" stroke-width="2" stroke-linecap="round" stroke-linejoin="round" opacity="1" fill="none"></path><path d="M576.48 696.13C579.76 696.13 582.42 693.48 582.42 690.2 582.42 686.92 579.76 684.26 576.48 684.26 573.19 684.26 570.55 686.92 570.55 690.2 570.55 693.48 573.19 696.13 576.48 696.13Z" stroke="#333333" stroke-width="2" stroke-linecap="round" stroke-linejoin="round" opacity="1" fill="none"></path><path d="M570.55 661.59H543.24" stroke="#333333" stroke-width="2" stroke-linecap="round" stroke-linejoin="round" opacity="1" fill="none"></path><path d="M570.55 690.2H543.24" stroke="#333333" stroke-width="2" stroke-linecap="round" stroke-linejoin="round" opacity="1" fill="none"></path><path d="M530.18 705.75V729.97" stroke="#333333" stroke-width="2" stroke-linecap="round" stroke-linejoin="round" opacity="1" fill="none"></path><path d="M530.18 645.92V620.99H553.69" stroke="#333333" stroke-width="2" stroke-linecap="round" stroke-linejoin="round" opacity="1" fill="none"></path><path d="M497.3 645.92V620.99" stroke="#333333" stroke-width="2" stroke-linecap="round" stroke-linejoin="round" opacity="1" fill="none"></path><path d="M513.33 645.92V628.11" stroke="#333333" stroke-width="2" stroke-linecap="round" stroke-linejoin="round" opacity="1" fill="none"></path><path d="M593.93 761.66H610.55" stroke="#333333" stroke-width="2" stroke-linecap="round" stroke-linejoin="round" opacity="1" fill="none"></path><path d="M570.19 761.66H585.38" stroke="#333333" stroke-width="2" stroke-linecap="round" stroke-linejoin="round" opacity="1" fill="none"></path><path d="M606.63 781.49H592.51" stroke="#333333" stroke-width="2" stroke-linecap="round" stroke-linejoin="round" opacity="1" fill="none"></path><path d="M637.02 761.66H625.39" stroke="#333333" stroke-width="2" stroke-linecap="round" stroke-linejoin="round" opacity="1" fill="none"></path></g><g><path d="M1108.93 460.37L1100.19 499.28C1098.11 508.43 1103.31 518.42 1112.26 520.92 1119.96 523.42 1128.28 520.09 1132.65 513.64L1153.46 482.42H1190.29 1227.12L1247.93 513.64C1251.47 518.84 1257.08 521.96 1263.12 521.96 1274.77 521.96 1283.09 511.14 1280.39 499.9L1264.78 430.19C1263.53 424.16 1258.33 419.79 1251.88 419.79H1190.29 1128.7C1122.66 419.79 1117.04 424.16 1115.79 430.19L1112.67 443.72" fill="#abedd8" opacity="1" stroke-width="2" stroke="none"></path><path d="M1108.93 460.37L1100.19 499.28C1098.11 508.43 1103.31 518.42 1112.26 520.92 1119.96 523.42 1128.28 520.09 1132.65 513.64L1153.46 482.42H1190.29 1227.12L1247.93 513.64C1251.47 518.84 1257.08 521.96 1263.12 521.96 1274.77 521.96 1283.09 511.14 1280.39 499.9L1264.78 430.19C1263.53 424.16 1258.33 419.79 1251.88 419.79H1190.29 1128.7C1122.66 419.79 1117.04 424.16 1115.79 430.19L1112.67 443.72" stroke="#333333" stroke-width="2" stroke-linecap="round" stroke-linejoin="round" opacity="1" fill="none"></path><path d="M1143.26 439.56V462.45" stroke="#333333" stroke-width="2" stroke-linecap="round" stroke-linejoin="round" opacity="1" fill="none"></path><path d="M1154.91 451.21H1132.03" stroke="#333333" stroke-width="2" stroke-linecap="round" stroke-linejoin="round" opacity="1" fill="none"></path><path d="M1246.47 465.15C1249.11 465.15 1251.26 463.01 1251.26 460.37 1251.26 457.72 1249.11 455.58 1246.47 455.58 1243.83 455.58 1241.69 457.72 1241.69 460.37 1241.69 463.01 1243.83 465.15 1246.47 465.15Z" stroke="#333333" stroke-width="2" stroke-linecap="round" stroke-linejoin="round" opacity="1" fill="none"></path><path d="M1234.61 446.43C1237.25 446.43 1239.4 444.28 1239.4 441.64 1239.4 439 1237.25 436.85 1234.61 436.85 1231.97 436.85 1229.82 439 1229.82 441.64 1229.82 444.28 1231.97 446.43 1234.61 446.43Z" stroke="#333333" stroke-width="2" stroke-linecap="round" stroke-linejoin="round" opacity="1" fill="none"></path><path d="M1223.37 465.15C1226.02 465.15 1228.16 463.01 1228.16 460.37 1228.16 457.72 1226.02 455.58 1223.37 455.58 1220.73 455.58 1218.59 457.72 1218.59 460.37 1218.59 463.01 1220.73 465.15 1223.37 465.15Z" stroke="#333333" stroke-width="2" stroke-linecap="round" stroke-linejoin="round" opacity="1" fill="none"></path></g><g><path d="M893.23 547.39H966.1C991.58 547.39 1013.18 566.12 1016.76 591.29L1043.78 779.19H997.32V746.34C997.32 789.63 847.59 789.63 847.59 746.34V725.36C828.14 725.36 812.89 708.58 814.74 689.23L822.1 611.97C825.69 575.33 856.39 547.39 893.23 547.39Z" fill="#ffffff" stroke="#333333" stroke-width="2" stroke-linecap="round" stroke-linejoin="round" opacity="1"></path><path d="M975.31 553.83H978.89C984.42 553.83 988.92 549.33 988.92 543.8V520.88C988.92 515.35 984.42 510.85 978.89 510.85H975.31C971.83 510.85 968.97 513.72 968.97 517.2V547.59C969.07 550.97 971.83 553.83 975.31 553.83Z" fill="#3d84a8" stroke="#333333" stroke-width="2" stroke-linecap="round" stroke-linejoin="round" opacity="1"></path><path d="M975.82 510.75C975.82 510.75 965.08 493.76 949.93 493.76 906.95 493.76 900.6 510.75 900.6 510.75 900.6 510.75 890.26 548.21 911.45 570.52 918.2 574.41 925.98 576.55 934.27 576.55 954.64 576.55 971.93 563.25 977.97 544.83 979.41 540.33 980.22 535.51 980.22 530.6 980.33 523.44 978.69 516.79 975.82 510.75Z" fill="#ffffff" stroke="#333333" stroke-width="2" stroke-linecap="round" stroke-linejoin="round" opacity="1"></path><path d="M912.17 527.94V524.05 510.75H937.75C944.4 510.75 949.83 505.32 949.83 498.67 949.83 505.32 955.25 510.75 961.91 510.75H975.82C968.46 495.29 952.59 484.55 934.27 484.55 915.95 484.55 900.19 495.29 892.72 510.75 889.86 516.79 888.22 523.44 888.22 530.5 888.22 530.91 888.22 531.42 888.32 531.83H888.22V541.14C875.12 541.14 864.37 551.79 864.37 564.99 864.37 578.19 875.02 588.84 888.22 588.84 899.48 588.84 908.89 580.96 911.35 570.52 911.76 568.78 911.96 566.93 911.96 565.09L912.17 527.94Z" fill="#48466d" stroke="#333333" stroke-width="2" stroke-linecap="round" stroke-linejoin="round" opacity="1"></path><path d="M958.02 520.88V542.06" stroke="#333333" stroke-width="2" stroke-linecap="round" stroke-linejoin="round" opacity="1" fill="none"></path><path d="M945.73 542.06C945.73 545.44 948.5 548.21 951.88 548.21 955.25 548.21 958.02 545.44 958.02 542.06" stroke="#333333" stroke-width="2" stroke-linecap="round" stroke-linejoin="round" opacity="1" fill="none"></path><path d="M895.28 553.83H891.7C886.17 553.83 881.67 549.33 881.67 543.8V520.88C881.67 515.35 886.17 510.85 891.7 510.85H895.28C898.76 510.85 901.63 513.72 901.63 517.2V547.59C901.63 550.97 898.76 553.83 895.28 553.83Z" fill="#3d84a8" stroke="#333333" stroke-width="2" stroke-linecap="round" stroke-linejoin="round" opacity="1"></path><path d="M979 510.75V500.92C979 486.39 967.23 474.62 952.69 474.62H918C903.47 474.62 891.7 486.39 891.7 500.92V510.75" stroke="#333333" stroke-width="2" stroke-linecap="round" stroke-linejoin="round" opacity="1" fill="none"></path><path d="M997.32 746.34V613.3" stroke="#333333" stroke-width="2" stroke-linecap="round" stroke-linejoin="round" opacity="1" fill="none"></path><path d="M893.64 643.38C893.64 656.59 882.9 667.33 869.69 667.33" stroke="#333333" stroke-width="2" stroke-linecap="round" stroke-linejoin="round" opacity="1" fill="none"></path><path d="M1031.5 636.53H977.97L969.89 667.23H997.32V712.67H1011.54L1031.5 636.53Z" fill="#abedd8" stroke="#333333" stroke-width="2" stroke-linecap="round" stroke-linejoin="round" opacity="1"></path><path d="M969.89 667.23H869.69" stroke="#333333" stroke-width="2" stroke-linecap="round" stroke-linejoin="round" opacity="1" fill="none"></path><path d="M847.69 725.36H997.32" stroke="#333333" stroke-width="2" stroke-linecap="round" stroke-linejoin="round" opacity="1" fill="none"></path><path d="M997.32 779.19V746.34H847.69V762.82 779.3 891.16L745.55 1009.98 813.81 1068.62 918.2 947.14C930.79 932.5 937.65 913.88 937.65 894.64V853.29L989.74 905.49V1068.62H1079.7V897.61C1079.7 879.08 1072.74 861.27 1060.15 847.66L997.32 779.19Z" fill="#48466d" stroke="#333333" stroke-width="2" stroke-linecap="round" stroke-linejoin="round" opacity="1"></path><path d="M860.38 776.74C852.3 768.65 847.69 757.7 847.69 746.24" stroke="#333333" stroke-width="2" stroke-linecap="round" stroke-linejoin="round" opacity="1" fill="none"></path><path d="M937.65 853.29L876.04 792.29" stroke="#333333" stroke-width="2" stroke-linecap="round" stroke-linejoin="round" opacity="1" fill="none"></path><path d="M847.69 891.16V917.87" stroke="#333333" stroke-width="2" stroke-linecap="round" stroke-linejoin="round" opacity="1" fill="none"></path></g></svg>