<svg xmlns="http://www.w3.org/2000/svg" height="1200" width="1600" version="1.1" xmlns:xlink="http://www.w3.org/1999/xlink" xmlns:svgjs="http://svgjs.com/svgjs"><rect fill="#ffffff" width="1600" height="1200"></rect><g><path d="M1508.73 787.46C1506.66 765.78 1500.57 743.97 1491.19 724.35 1467.55 675.86 1426.74 637.84 1383.73 605.31 1374.22 598.12 1364.35 590.69 1359.6 579.85 1348.76 554.87 1357.53 518.32 1351.44 490.78 1346.08 466.17 1337.06 442.53 1324.88 420.48 1300.27 376.13 1263.35 340.07 1222.29 311.43 1137.73 252.58 1033.44 220.18 931.82 208.84 770.63 191.06 604.07 217.86 457.38 287.55 403.28 313.26 356.86 353.83 326.4 406.35 293.26 463.37 282.9 535.5 307.03 597.03 242.09 612.62 175.44 631.75 123.17 673.66 78.58 709.48 45.19 769.67 51.28 828.04 58.23 893.22 118.42 928.07 176.78 943.91 417.66 1010.43 675.11 1004.58 922.81 993.98 1057.81 988.13 1192.8 979.6 1325.97 957.06 1386.65 946.71 1453.05 929.77 1487.53 878.84 1505.57 852.28 1511.66 819.63 1508.73 787.46Z" fill="#deeff7" opacity="1" stroke-width="2" stroke="none"></path></g><g><path d="M1151.48 1034.66L1487.85 1034.66" stroke="#333333" stroke-width="2" stroke-linecap="round" stroke-linejoin="round" opacity="1" fill="none"></path><path d="M114.16 1034.66L1078.85 1034.66" stroke="#333333" stroke-width="2" stroke-linecap="round" stroke-linejoin="round" opacity="1" fill="none"></path></g><g><path d="M1023.3 371.9C1034.46 371.9 1043.5 362.86 1043.5 351.7 1043.5 340.54 1034.46 331.5 1023.3 331.5 1012.14 331.5 1003.1 340.54 1003.1 351.7 1003.1 362.86 1012.14 371.9 1023.3 371.9Z" fill="#abedd8" stroke="#333333" stroke-width="2" stroke-linecap="round" stroke-linejoin="round" opacity="1"></path></g><g><path d="M616.3 602.28L755.63 671.66 781.49 617.4 630.04 544.1 616.3 602.28Z" fill="#ffffff" stroke="#333333" stroke-width="2" stroke-linecap="round" stroke-linejoin="round" opacity="1"></path><path d="M544.61 756.5L513.44 587.62 592.63 573.07 639.04 629.18 661.55 751.42C668.01 786.4 653.47 821.84 624.38 842.16L434.02 975.37 367.53 880.37 544.61 756.5Z" fill="#48466d" stroke="#333333" stroke-width="2" stroke-linecap="round" stroke-linejoin="round" opacity="1"></path><path d="M486.2 652.38L568.51 640.14 650.81 652.38V685.62L713.61 720.6C740.51 735.61 756.21 764.81 753.9 795.52L735.54 1034.59H619.18L636.5 810.18 532.95 752.92C504.09 736.99 486.2 706.63 486.2 673.62V652.38Z" fill="#48466d" stroke="#333333" stroke-width="2" stroke-linecap="round" stroke-linejoin="round" opacity="1"></path><path d="M650.81 602.63L487.24 554.95 486.2 652.38 650.81 652.38V602.63Z" fill="#ffffff" stroke="#333333" stroke-width="2" stroke-linecap="round" stroke-linejoin="round" opacity="1"></path><path d="M636.5 810.18L653.24 820.22" stroke="#333333" stroke-width="2" stroke-linecap="round" stroke-linejoin="round" opacity="1" fill="none"></path><path d="M479.85 539.94L492.9 473.68C498.32 446.32 522.33 426.59 550.27 426.59L647.58 426.59C672.17 426.59 691.45 447.83 689.02 472.3L681.52 546.75 638.58 536.02 627.84 579.08C645.27 583.58 675.29 591.08 692.72 595.35L703.34 598.01 689.25 656.42 672.52 652.15 642.96 644.53 526.72 614.52C493.82 605.74 473.27 573.19 479.85 539.94Z" fill="#ffffff" stroke="#333333" stroke-width="2" stroke-linecap="round" stroke-linejoin="round" opacity="1"></path><path d="M659.24 389.99C659.24 389.99 621.84 357.21 581.21 382.83 572.78 388.15 555 405.46 561.24 433.74 569.32 453.14 588.48 466.76 610.76 466.76 634.65 466.76 654.85 451.17 661.78 429.7 663.51 424.51 664.44 418.85 664.44 413.08 664.44 404.88 662.59 397.03 659.24 389.99Z" fill="#ffffff" stroke="#333333" stroke-width="2" stroke-linecap="round" stroke-linejoin="round" opacity="1"></path><path d="M638.46 409.39V426.59" stroke="#333333" stroke-width="2" stroke-linecap="round" stroke-linejoin="round" opacity="1" fill="none"></path><path d="M624.03 426.59C624.03 430.51 627.26 433.74 631.19 433.74 635.11 433.74 638.35 430.51 638.35 426.59" stroke="#333333" stroke-width="2" stroke-linecap="round" stroke-linejoin="round" opacity="1" fill="none"></path><path d="M610.76 359.4C589.4 359.4 570.93 371.87 562.27 389.99 558.93 397.03 557.08 404.77 557.08 413.08 557.08 418.85 558 424.51 559.73 429.7 560.2 431.09 560.66 432.36 561.24 433.74 574.28 433.74 584.9 423.12 584.9 410.08V389.99L659.24 389.99C650.58 371.98 632.11 359.4 610.76 359.4Z" fill="#48466d" stroke="#333333" stroke-width="2" stroke-linecap="round" stroke-linejoin="round" opacity="1"></path><path d="M584.21 384.57C587.79 384.57 653.01 384.57 658.78 384.57H668.36C672.4 384.57 675.63 387.8 675.63 391.84V413.19C675.63 417.23 672.4 420.47 668.36 420.47 664.78 420.47 599.56 420.47 593.79 420.47H584.21C580.17 420.47 576.93 417.23 576.93 413.19V391.84C576.93 387.91 580.17 384.57 584.21 384.57Z" fill="#3d84a8" stroke="#333333" stroke-width="2" stroke-linecap="round" stroke-linejoin="round" opacity="1"></path><path d="M586.52 396.57V413.19C586.52 417.23 589.75 420.47 593.79 420.47" stroke="#333333" stroke-width="2" stroke-linecap="round" stroke-linejoin="round" opacity="1" fill="none"></path><path d="M627.73 578.96C627.73 578.96 550.85 560.15 539.88 557.49 553.15 556.34 566.43 545.6 566.43 530.94" stroke="#333333" stroke-width="2" stroke-linecap="round" stroke-linejoin="round" opacity="1" fill="none"></path><path d="M837.01 574.57L833.78 587.16 810.58 579.08 837.01 574.57Z" fill="#3d84a8" stroke="#333333" stroke-width="2" stroke-linecap="round" stroke-linejoin="round" opacity="1"></path><path d="M692.72 595.24L686.95 593.85 657.39 586.46V586.35L627.73 578.96 638.58 536.02 739.35 561.18 770.06 573.77 810.58 579.08 844.63 587.62 841.28 601.01 862.18 606.32 858.14 622.48 837.24 617.17 833.9 630.68 759.56 611.98 761.29 682.51 728.85 674.43 727.23 603.9 703.34 597.89 692.72 595.24Z" fill="#78c7e0" stroke="#333333" stroke-width="2" stroke-linecap="round" stroke-linejoin="round" opacity="1"></path><path d="M672.4 651.92L670.44 659.77 640.89 652.38 642.85 644.3 672.4 651.92Z" fill="#78c7e0" stroke="#333333" stroke-width="2" stroke-linecap="round" stroke-linejoin="round" opacity="1"></path><path d="M787.84 619.13L759.56 611.98 736.01 661.61 761.06 673.27 787.84 619.13Z" fill="#ffffff" stroke="#333333" stroke-width="2" stroke-linecap="round" stroke-linejoin="round" opacity="1"></path><path d="M650.81 685.51L638.23 678.81" stroke="#333333" stroke-width="2" stroke-linecap="round" stroke-linejoin="round" opacity="1" fill="none"></path><path d="M651.62 504.27V494.46" stroke="#333333" stroke-width="2" stroke-linecap="round" stroke-linejoin="round" opacity="1" fill="none"></path><path d="M651.62 539.14V512.59" stroke="#333333" stroke-width="2" stroke-linecap="round" stroke-linejoin="round" opacity="1" fill="none"></path><path d="M739.25 561.22L810.58 579.09 807.21 592.53 735.88 574.66 739.25 561.22Z" fill="#3d84a8" stroke="#333333" stroke-width="2" stroke-linecap="round" stroke-linejoin="round" opacity="1"></path><path d="M841.28 601.01L838.63 611.63" stroke="#333333" stroke-width="2" stroke-linecap="round" stroke-linejoin="round" opacity="1" fill="none"></path><path d="M759.56 611.98L739.93 607.13" stroke="#333333" stroke-width="2" stroke-linecap="round" stroke-linejoin="round" opacity="1" fill="none"></path><path d="M688.1 562.68L679.56 560.49" stroke="#333333" stroke-width="2" stroke-linecap="round" stroke-linejoin="round" opacity="1" fill="none"></path><path d="M736.01 574.57L695.26 564.42" stroke="#333333" stroke-width="2" stroke-linecap="round" stroke-linejoin="round" opacity="1" fill="none"></path></g><g><path d="M1305.7 660.7H1163.5L1147.3 639 1231.5 627.4 1321.9 639 1305.7 660.7Z" fill="#48466d" stroke="#333333" stroke-width="2" stroke-linecap="round" stroke-linejoin="round" opacity="1"></path><path d="M1499.5 434.1V607.8L1490 630.5 984.3 629.4 969.7 607.8V303.9H1499.5V414" fill="#abedd8" opacity="1" stroke-width="2" stroke="none"></path><path d="M1499.5 434.1V607.8L1490 630.5 984.3 629.4 969.7 607.8V303.9H1499.5V414" stroke="#333333" stroke-width="2" stroke-linecap="round" stroke-linejoin="round" opacity="1" fill="none"></path><path d="M1032.1 630.5H1007.5V1034.4H1032.1V630.5Z" fill="#48466d" stroke="#333333" stroke-width="2" stroke-linecap="round" stroke-linejoin="round" opacity="1"></path><path d="M1461.7 727V1034.5H1437.1V629.2H1461.7V715" fill="#48466d" opacity="1" stroke-width="2" stroke="none"></path><path d="M1461.7 727V1034.5H1437.1V629.2H1461.7V715" stroke="#333333" stroke-width="2" stroke-linecap="round" stroke-linejoin="round" opacity="1" fill="none"></path><path d="M1499.5 607.8H969.7V639.1H1499.5V607.8Z" fill="#48466d" stroke="#333333" stroke-width="2" stroke-linecap="round" stroke-linejoin="round" opacity="1"></path></g><g><path d="M309.99 870.15L360.2 878 348.28 954.29 298.07 946.45 309.99 870.15Z" fill="#abedd8" stroke="#333333" stroke-width="2" stroke-linecap="round" stroke-linejoin="round" opacity="1"></path><path d="M264.56 890.88L338.83 904.68 328.16 962.06 253.89 948.26 264.56 890.88Z" fill="#78c7e0" stroke="#333333" stroke-width="2" stroke-linecap="round" stroke-linejoin="round" opacity="1"></path><path d="M279.62 869.36L291.05 945.92 232.35 954.69 220.92 878.12 279.62 869.36Z" fill="#48466d" stroke="#333333" stroke-width="2" stroke-linecap="round" stroke-linejoin="round" opacity="1"></path><path d="M153.63 890.35L230.49 897.72 226.23 942.17 149.37 934.81 153.63 890.35Z" fill="#48466d" stroke="#333333" stroke-width="2" stroke-linecap="round" stroke-linejoin="round" opacity="1"></path><path d="M142.93 918.49H360.19V1034.52H142.93L142.93 918.49Z" fill="#3d84a8" stroke="#333333" stroke-width="2" stroke-linecap="round" stroke-linejoin="round" opacity="1"></path></g><g><path d="M903.46 528.35C928.5 528.35 948.8 508.05 948.8 483.01 948.8 457.98 928.5 437.68 903.46 437.68 878.43 437.68 858.12 457.98 858.12 483.01 858.12 508.05 878.43 528.35 903.46 528.35Z" fill="#46cdcf" stroke="#333333" stroke-width="2" stroke-linecap="round" stroke-linejoin="round" opacity="1"></path><path d="M904.6 528.35V557.09C904.6 572.73 891.93 585.31 876.38 585.31" stroke="#333333" stroke-width="2" stroke-linecap="round" stroke-linejoin="round" opacity="1" fill="none"></path><path d="M915.26 464.93C908.7 471.48 898.05 471.48 891.49 464.93" stroke="#333333" stroke-width="2" stroke-linecap="round" stroke-linejoin="round" opacity="1" fill="none"></path><path d="M921.63 494.98C915.08 488.43 915.08 477.77 921.63 471.22" stroke="#333333" stroke-width="2" stroke-linecap="round" stroke-linejoin="round" opacity="1" fill="none"></path><path d="M891.76 501.1C898.31 494.55 908.97 494.55 915.52 501.1" stroke="#333333" stroke-width="2" stroke-linecap="round" stroke-linejoin="round" opacity="1" fill="none"></path><path d="M885.38 471.05C891.93 477.6 891.93 488.26 885.38 494.81" stroke="#333333" stroke-width="2" stroke-linecap="round" stroke-linejoin="round" opacity="1" fill="none"></path></g><g><path d="M1279.53 349.25C1321.42 366.43 1350.83 407.61 1350.83 455.62 1350.83 519.16 1299.3 570.69 1235.76 570.69 1172.22 570.69 1120.68 519.16 1120.68 455.62 1120.68 392.08 1172.22 340.54 1235.76 340.54 1246.58 340.54 1257.17 341.96 1267.06 344.78" stroke="#333333" stroke-width="2" stroke-linecap="round" stroke-linejoin="round" opacity="1" fill="none"></path><path d="M1348.48 477.97H1328V429.03L1271.53 402.43V451.15H1229.4V504.57H1215.28V418.2H1145.86V490.92H1134.1 1126.1C1140.92 537.04 1184.46 570.46 1235.52 570.46 1291.53 570.69 1338.12 530.92 1348.48 477.97Z" fill="#46cdcf" stroke="#333333" stroke-width="2" stroke-linecap="round" stroke-linejoin="round" opacity="1"></path><path d="M1084.21 455.62H1163.28" stroke="#333333" stroke-width="2" stroke-linecap="round" stroke-linejoin="round" opacity="1" fill="none"></path><path d="M1307.77 455.62H1386.84" stroke="#333333" stroke-width="2" stroke-linecap="round" stroke-linejoin="round" opacity="1" fill="none"></path><path d="M1235.52 304.3V383.37" stroke="#333333" stroke-width="2" stroke-linecap="round" stroke-linejoin="round" opacity="1" fill="none"></path><path d="M1235.52 528.1V606.93" stroke="#333333" stroke-width="2" stroke-linecap="round" stroke-linejoin="round" opacity="1" fill="none"></path><path d="M1204.22 430.91H1187.05V448.09H1204.22V430.91Z" fill="#abedd8" stroke="#333333" stroke-width="2" stroke-linecap="round" stroke-linejoin="round" opacity="1"></path><path d="M1204.22 459.38H1187.05V476.56H1204.22V459.38Z" fill="#abedd8" stroke="#333333" stroke-width="2" stroke-linecap="round" stroke-linejoin="round" opacity="1"></path><path d="M1257.88 487.62H1240.7V504.8H1257.88V487.62Z" fill="#abedd8" stroke="#333333" stroke-width="2" stroke-linecap="round" stroke-linejoin="round" opacity="1"></path></g></svg>