<svg xmlns="http://www.w3.org/2000/svg" height="1200" width="1600" version="1.1" xmlns:xlink="http://www.w3.org/1999/xlink" xmlns:svgjs="http://svgjs.com/svgjs"><rect fill="#ffffff" width="1600" height="1200"></rect><g><path d="M231.04 633.11C234.64 638.45 238.49 643.66 242.34 649 225.08 683.77 220.36 724.01 229.18 763.37 242.22 821.12 286.55 859.98 339.45 881.09 361.06 889.66 383.78 894.88 406.63 898.98 438.67 904.56 471.08 908.66 503.25 911.89 560.62 917.6 618.24 920.34 675.86 922.45 790.35 926.79 905.84 932.38 1019.84 918.47 1130.11 905.43 1251.93 879.36 1334.63 799.63 1378.34 757.29 1409.02 698.8 1410.26 636.96 1411 601.19 1401.69 566.17 1383.81 536.12 1387.53 499.12 1386.54 461.36 1381.08 424.86 1369.9 350.72 1324.95 290 1263.35 249.64 1200.64 208.66 1124.77 193.76 1050.88 191.15 972.77 188.17 451.59 150.17 243.71 326.26 219.74 353.33 201.74 385.12 192.17 419.76 172.18 491.66 189.57 571.64 231.04 633.11Z" fill="#deeff7" opacity="1" stroke-width="2" stroke="none"></path></g><g><path d="M556.8 998.2V840" stroke="#333333" stroke-width="2" stroke-linecap="round" stroke-linejoin="round" opacity="1" fill="none"></path><path d="M806.65 998.2V840" stroke="#333333" stroke-width="2" stroke-linecap="round" stroke-linejoin="round" opacity="1" fill="none"></path><path d="M583.13 840H556.8V606.04H806.65V840H589.59" fill="#abedd8" opacity="1" stroke-width="2" stroke="none"></path><path d="M583.13 840H556.8V606.04H806.65V840H589.59" stroke="#333333" stroke-width="2" stroke-linecap="round" stroke-linejoin="round" opacity="1" fill="none"></path></g><g><path d="M1011.7 749.86H909.23L900.81 764.84V995.22H1011.7L1011.7 749.86Z" fill="#48466d" stroke="#333333" stroke-width="2" stroke-linecap="round" stroke-linejoin="round" opacity="1"></path><path d="M939.7 610.46H959.95C994.25 610.46 1022.17 638.29 1022.17 672.67V800.84H979.78V764.84H900.89L900.89 714.37 830.77 738.8 817.32 701.95 882.76 678.46V667.48C882.68 635.99 908.21 610.46 939.7 610.46Z" fill="#ffffff" stroke="#333333" stroke-width="2" stroke-linecap="round" stroke-linejoin="round" opacity="1"></path><path d="M964.55 593.95V576.84H924.04C919.1 576.84 914.25 577.95 909.83 580.16L906.76 581.7C904.81 586.63 903.96 592.16 904.55 597.87 906.25 615.06 921.06 628.42 938.34 628.59 954.68 628.67 968.38 617.35 971.95 602.12 967.7 601.61 964.55 598.12 964.55 593.95Z" fill="#ffffff" stroke="#333333" stroke-width="2" stroke-linecap="round" stroke-linejoin="round" opacity="1"></path><path d="M921.82 589.07V600.39" stroke="#333333" stroke-width="2" stroke-linecap="round" stroke-linejoin="round" opacity="1" fill="none"></path><path d="M930.85 600.42C930.85 602.89 928.81 604.93 926.34 604.93 923.87 604.93 921.83 602.89 921.83 600.42" stroke="#333333" stroke-width="2" stroke-linecap="round" stroke-linejoin="round" opacity="1" fill="none"></path><path d="M938.51 560.08C952.98 560.08 965.32 569.01 970.34 581.7 971.87 585.61 972.8 589.87 972.8 594.38 972.8 597.01 972.46 599.65 971.97 602.09 962.51 602.12 955.02 594.55 955.02 585.27V581.7H906.76C911.7 569.01 924.04 560.08 938.51 560.08Z" fill="#48466d" stroke="#333333" stroke-width="2" stroke-linecap="round" stroke-linejoin="round" opacity="1"></path><path d="M979.7 764.84V670.37" stroke="#333333" stroke-width="2" stroke-linecap="round" stroke-linejoin="round" opacity="1" fill="none"></path><path d="M900.81 680.59V670.37" stroke="#333333" stroke-width="2" stroke-linecap="round" stroke-linejoin="round" opacity="1" fill="none"></path><path d="M900.81 714.29V689.35" stroke="#333333" stroke-width="2" stroke-linecap="round" stroke-linejoin="round" opacity="1" fill="none"></path><path d="M944.72 847.05V828.07" stroke="#333333" stroke-width="2" stroke-linecap="round" stroke-linejoin="round" opacity="1" fill="none"></path><path d="M944.72 985.26V855.9" stroke="#333333" stroke-width="2" stroke-linecap="round" stroke-linejoin="round" opacity="1" fill="none"></path></g><g><path d="M1045.95 982.18H986.59V997.08H1045.95V982.18Z" fill="#46cdcf" stroke="#333333" stroke-width="2" stroke-linecap="round" stroke-linejoin="round" opacity="1"></path><path d="M997.15 765.36H845.02V783.25H997.15V765.36Z" fill="#46cdcf" stroke="#333333" stroke-width="2" stroke-linecap="round" stroke-linejoin="round" opacity="1"></path><path d="M890.97 765.11V687.13C890.97 679.06 897.43 672.6 905.5 672.6" stroke="#333333" stroke-width="2" stroke-linecap="round" stroke-linejoin="round" opacity="1" fill="none"></path><path d="M907.98 674.84C909.21 674.84 910.22 673.83 910.22 672.6 910.22 671.37 909.21 670.37 907.98 670.37 906.75 670.37 905.75 671.37 905.75 672.6 905.75 673.83 906.75 674.84 907.98 674.84Z" fill="#2b8687" stroke="#333333" stroke-width="2" stroke-linecap="round" stroke-linejoin="round" opacity="1"></path><path d="M997.15 777.78H845.02V997.08H997.15V777.78Z" fill="#46cdcf" stroke="#333333" stroke-width="2" stroke-linecap="round" stroke-linejoin="round" opacity="1"></path><path d="M966.85 806.72H875.57V866.32H966.85V806.72Z" fill="#abedd8" stroke="#333333" stroke-width="2" stroke-linecap="round" stroke-linejoin="round" opacity="1"></path></g><g><path d="M509.74 906.68V331.1" stroke="#333333" stroke-width="2" stroke-linecap="round" opacity="1" fill="none"></path><path d="M509.74 997.08V926.43" stroke="#333333" stroke-width="2" stroke-linecap="round" opacity="1" fill="none"></path><path d="M1088.79 550.78V331.1" stroke="#333333" stroke-width="2" stroke-linecap="round" opacity="1" fill="none"></path><path d="M1088.79 997.08V561.96" stroke="#333333" stroke-width="2" stroke-linecap="round" opacity="1" fill="none"></path><path d="M585.86 485.96H509.74V360.16H1088.79V485.96H624.6" fill="#78c7e0" opacity="1" stroke-width="2" stroke="none"></path><path d="M585.86 485.96H509.74V360.16H1088.79V485.96H624.6" stroke="#333333" stroke-width="2" stroke-linecap="round" stroke-linejoin="round" opacity="1" fill="none"></path><path d="M614.79 485.96H596.29" stroke="#333333" stroke-width="2" stroke-linecap="round" stroke-linejoin="round" opacity="1" fill="none"></path></g><g><path d="M1111.02 997.08H487.38V1042.53H1111.02V997.08Z" fill="#78c7e0" stroke="#333333" stroke-width="2" stroke-linecap="round" stroke-linejoin="round" opacity="1"></path></g><g><path d="M682.45 997.13H529.15V1027.25H682.45V997.13Z" fill="#ffffff" stroke="#333333" stroke-width="2" stroke-linecap="round" stroke-linejoin="round" opacity="1"></path><path d="M665.66 1012.31H515.7V1042.43H665.66V1012.31Z" fill="#ffffff" stroke="#333333" stroke-width="2" stroke-linecap="round" stroke-linejoin="round" opacity="1"></path><path d="M651.96 1027.25H502V1042.43H651.96V1027.25Z" fill="#ffffff" stroke="#333333" stroke-width="2" stroke-linecap="round" stroke-linejoin="round" opacity="1"></path><path d="M665.66 997.13H682.45V1042.43H638.38V1027.25H651.96V1012.31H665.66V997.13Z" fill="#ffffff" stroke="#333333" stroke-width="2" stroke-linecap="round" stroke-linejoin="round" opacity="1"></path></g><g><path d="M1203.2 812.48H1135.72V1042.76H1203.2 1270.8V812.48H1203.2Z" fill="#48466d" stroke="#333333" stroke-width="2" stroke-linecap="round" stroke-linejoin="round" opacity="1"></path><path d="M1235.04 783.43H1274.37C1283.2 783.43 1290.46 776.17 1290.46 767.34V665.67H1219.07V767.34C1218.95 776.28 1226.22 783.43 1235.04 783.43Z" fill="#78c7e0" stroke="#333333" stroke-width="2" stroke-linecap="round" stroke-linejoin="round" opacity="1"></path><path d="M1295.04 671.03H1214.48V655.95C1214.48 646.9 1221.86 639.42 1231.13 639.42H1278.73C1287.78 639.42 1295.26 646.79 1295.26 655.95V671.03H1295.04Z" fill="#3d84a8" stroke="#333333" stroke-width="2" stroke-linecap="round" stroke-linejoin="round" opacity="1"></path><path d="M1135.72 797.06V697.51C1135.72 677.51 1151.8 661.54 1171.69 661.54H1234.71C1254.6 661.54 1270.68 677.63 1270.68 697.51V820.19H1135.72V807.01" fill="#ffffff" opacity="1" stroke-width="2" stroke="none"></path><path d="M1135.72 797.06V697.51C1135.72 677.51 1151.8 661.54 1171.69 661.54H1234.71C1254.6 661.54 1270.68 677.63 1270.68 697.51V820.19H1135.72V807.01" stroke="#333333" stroke-width="2" stroke-linecap="round" stroke-linejoin="round" opacity="1" fill="none"></path><path d="M1169.23 639.86C1169.23 639.86 1184.32 625 1206.78 633.83 1215.38 637.18 1219.07 645.22 1219.07 661.98 1215.04 671.82 1205.32 678.74 1193.93 678.74 1181.86 678.74 1171.58 670.92 1168.12 659.97 1167.22 657.29 1166.78 654.39 1166.78 651.59 1166.55 647.35 1167.56 643.55 1169.23 639.86Z" fill="#ffffff" stroke="#333333" stroke-width="2" stroke-linecap="round" stroke-linejoin="round" opacity="1"></path><path d="M1179.63 646.64V651.78" stroke="#333333" stroke-width="2" stroke-linecap="round" stroke-linejoin="round" opacity="1" fill="none"></path><path d="M1187 651.71C1187 653.72 1185.32 655.39 1183.31 655.39 1181.3 655.39 1179.63 653.72 1179.63 651.71" stroke="#333333" stroke-width="2" stroke-linecap="round" stroke-linejoin="round" opacity="1" fill="none"></path><path d="M1193.81 624.44C1204.76 624.44 1213.93 630.81 1218.4 639.86 1220.07 643.44 1221.08 647.46 1221.08 651.59 1221.08 654.61 1220.63 657.29 1219.74 659.97 1219.51 660.64 1219.18 661.31 1219.07 661.98 1212.36 661.98 1207 656.62 1207 649.92V639.86H1169.23C1173.59 630.81 1182.98 624.44 1193.81 624.44Z" fill="#48466d" stroke="#333333" stroke-width="2" stroke-linecap="round" stroke-linejoin="round" opacity="1"></path><path d="M1172.7 639.86H1150.58" stroke="#333333" stroke-width="2" stroke-linecap="round" stroke-linejoin="round" opacity="1" fill="none"></path><path d="M1270.8 718.3V770.59C1270.8 798.41 1240.63 815.84 1216.5 801.76L1161.52 769.91 1181.97 729.36 1236.5 760.42" stroke="#333333" stroke-width="2" stroke-linecap="round" stroke-linejoin="round" opacity="1" fill="none"></path><path d="M1236.46 760.37C1230.32 756.69 1228.08 748.64 1231.77 742.5" stroke="#333333" stroke-width="2" stroke-linecap="round" stroke-linejoin="round" opacity="1" fill="none"></path><path d="M1203.2 1029.69V853.82" stroke="#333333" stroke-width="2" stroke-linecap="round" stroke-linejoin="round" opacity="1" fill="none"></path><path d="M1228.67 661.65L1181.97 729.47" stroke="#333333" stroke-width="2" stroke-linecap="round" stroke-linejoin="round" opacity="1" fill="none"></path></g><g><path d="M398.8 725.38L459 824.03 425.54 844.52 365.8 746.91 398.8 725.38Z" fill="#ffffff" stroke="#333333" stroke-width="2" stroke-linecap="round" stroke-linejoin="round" opacity="1"></path><path d="M286.02 698.28L286.02 761.04C286.02 773.2 294.35 783.39 305.59 786.28V811.76H410.26V680.92C410.26 663.78 396.36 649.88 379.23 649.88H334.19C307.55 650 286.02 671.54 286.02 698.28Z" fill="#ffffff" stroke="#333333" stroke-width="2" stroke-linecap="round" stroke-linejoin="round" opacity="1"></path><path d="M332.45 649.07C336.96 659.84 347.73 667.48 360.01 667.48 373.44 667.48 384.67 658.8 388.49 646.87 389.42 643.98 389.88 640.85 389.88 637.49 389.88 632.75 388.84 628.46 386.87 624.64 386.87 624.64 381.31 615.96 372.97 613.18 364.64 610.4 351.09 610.05 341.6 616.77 332.1 623.6 332.45 649.07 332.45 649.07Z" fill="#ffffff" stroke="#333333" stroke-width="2" stroke-linecap="round" stroke-linejoin="round" opacity="1"></path><path d="M375.52 632.4V645.14" stroke="#333333" stroke-width="2" stroke-linecap="round" stroke-linejoin="round" opacity="1" fill="none"></path><path d="M367.53 645.14C367.53 647.45 369.27 649.19 371.47 649.19 373.67 649.19 375.41 647.45 375.41 645.14" stroke="#333333" stroke-width="2" stroke-linecap="round" stroke-linejoin="round" opacity="1" fill="none"></path><path d="M330.13 644.56V638.54C330.13 638.19 330.13 637.96 330.13 637.61 330.13 632.86 331.17 628.58 333.03 624.76 337.89 614.68 348.2 607.74 360.12 607.74 372.05 607.74 382.35 614.68 387.22 624.76H378.18C373.78 624.76 370.2 621.28 370.2 616.77 370.2 621.17 366.72 624.76 362.21 624.76H345.53V633.44 635.99 660.07C345.53 668.53 338.59 675.47 330.13 675.47 321.56 675.47 314.62 668.53 314.62 660.07 314.62 651.62 321.45 644.56 330.13 644.56Z" fill="#48466d" stroke="#333333" stroke-width="2" stroke-linecap="round" stroke-linejoin="round" opacity="1"></path><path d="M357.92 807.01H410.26L410.26 1040.21H357.92 305.47V807.01H357.92Z" fill="#48466d" stroke="#333333" stroke-width="2" stroke-linecap="round" stroke-linejoin="round" opacity="1"></path><path d="M320.06 747.73C326.31 747.73 331.52 742.75 331.52 736.26" stroke="#333333" stroke-width="2" stroke-linecap="round" stroke-linejoin="round" opacity="1" fill="none"></path><path d="M286.02 760.81C286.02 775.28 297.71 786.86 312.07 786.86H392.89V747.61H319.71" fill="#ffffff" opacity="1" stroke-width="2" stroke="none"></path><path d="M286.02 760.81C286.02 775.28 297.71 786.86 312.07 786.86H392.89V747.61H319.71" stroke="#333333" stroke-width="2" stroke-linecap="round" stroke-linejoin="round" opacity="1" fill="none"></path><path d="M357.92 851.93V837.23" stroke="#333333" stroke-width="2" stroke-linecap="round" stroke-linejoin="round" opacity="1" fill="none"></path><path d="M357.92 1026.2L357.92 861.2" stroke="#333333" stroke-width="2" stroke-linecap="round" stroke-linejoin="round" opacity="1" fill="none"></path></g><g><path d="M1151.75 180.34H1144.39C1136.77 180.34 1130.59 174.16 1130.59 166.54 1130.59 158.93 1136.77 152.75 1144.39 152.75H1238.09" stroke="#333333" stroke-width="2" stroke-linecap="round" stroke-linejoin="round" opacity="1" fill="none"></path><path d="M1051.61 267.44V256.1C1051.61 239.34 1065.16 225.8 1081.92 225.8H1163.26C1175.79 225.8 1185.95 215.64 1185.95 203.11 1185.95 190.58 1175.79 180.43 1163.26 180.43H1160.98" stroke="#333333" stroke-width="2" stroke-linecap="round" stroke-linejoin="round" opacity="1" fill="none"></path><path d="M1305.47 130.31H1318.93" stroke="#333333" stroke-width="2" stroke-linecap="round" stroke-linejoin="round" opacity="1" fill="none"></path><path d="M1203.73 225.8H1250.37C1255.45 225.8 1259.51 221.73 1259.51 216.66 1259.51 211.58 1255.45 207.51 1250.37 207.51H1230.81C1223.28 207.51 1217.27 201.42 1217.27 193.97 1217.27 186.44 1223.36 180.43 1230.81 180.43H1292.86C1300.48 180.43 1306.66 174.25 1306.66 166.63 1306.66 159.01 1300.48 152.83 1292.86 152.83H1266.37C1260.19 152.83 1255.19 147.84 1255.19 141.66 1255.19 135.48 1260.19 130.48 1266.37 130.48H1295.65" stroke="#333333" stroke-width="2" stroke-linecap="round" stroke-linejoin="round" opacity="1" fill="none"></path></g><g><path d="M1017.68 289.79C1044.27 289.79 1065.82 268.23 1065.82 241.65 1065.82 215.06 1044.27 193.51 1017.68 193.51 991.09 193.51 969.54 215.06 969.54 241.65 969.54 268.23 991.09 289.79 1017.68 289.79Z" fill="#3d84a8" stroke="#333333" stroke-width="2" stroke-linecap="round" stroke-linejoin="round" opacity="1"></path><path d="M929.7 220.52H988.35" stroke="#333333" stroke-width="2" stroke-linecap="round" stroke-linejoin="round" opacity="1" fill="none"></path></g><g><path d="M562.45 269.86H498.35C505.43 269.86 511.33 263.97 511.33 256.89 511.33 249.81 505.43 243.91 498.35 243.91H465.32 454.31 364.64C348.91 243.91 336.33 256.49 336.33 272.22 336.33 287.95 349.11 300.54 364.64 300.54H441.33 465.32 562.65C571.11 300.54 577.99 293.66 577.99 285.2 577.79 276.75 571.11 269.86 562.45 269.86Z" fill="#3d84a8" stroke="#333333" stroke-width="2" stroke-linecap="round" stroke-linejoin="round" opacity="1"></path></g><g><path d="M1165.17 1042.5L1515.66 1042.5" stroke="#333333" stroke-width="2" stroke-linecap="round" stroke-linejoin="round" opacity="1" fill="none"></path><path d="M84.34 1042.5L1089.5 1042.5" stroke="#333333" stroke-width="2" stroke-linecap="round" stroke-linejoin="round" opacity="1" fill="none"></path></g><g><path d="M772.47 746.62C770.77 700.23 732.74 662.98 685.78 662.98 637.81 662.98 598.87 701.81 598.87 749.89V788.27H617.72V748.31C617.72 710.84 648.19 680.36 685.67 680.36 723.03 680.36 753.5 710.84 753.5 748.31V788.27H772.35V754.97" fill="#3d84a8" opacity="1" stroke-width="2" stroke="none"></path><path d="M772.47 746.62C770.77 700.23 732.74 662.98 685.78 662.98 637.81 662.98 598.87 701.81 598.87 749.89V788.27H617.72V748.31C617.72 710.84 648.19 680.36 685.67 680.36 723.03 680.36 753.5 710.84 753.5 748.31V788.27H772.35V754.97" stroke="#333333" stroke-width="2" stroke-linecap="round" stroke-linejoin="round" opacity="1" fill="none"></path><path d="M705.42 702.49C699.33 700 692.78 698.42 685.78 698.42 658.35 698.42 636 720.77 636 748.2V788.27H656.1V778.11 770.32 760.84 756.78 754.86 748.76C656.1 732.28 669.3 719.19 685.67 719.19 702.04 719.19 715.24 732.4 715.24 748.76V788.16H735.33V748.09C735.33 730.25 726.08 714.56 711.85 705.76" fill="#46cdcf" opacity="1" stroke-width="2" stroke="none"></path><path d="M705.42 702.49C699.33 700 692.78 698.42 685.78 698.42 658.35 698.42 636 720.77 636 748.2V788.27H656.1V778.11 770.32 760.84 756.78 754.86 748.76C656.1 732.28 669.3 719.19 685.67 719.19 702.04 719.19 715.24 732.4 715.24 748.76V788.16H735.33V748.09C735.33 730.25 726.08 714.56 711.85 705.76" stroke="#333333" stroke-width="2" stroke-linecap="round" stroke-linejoin="round" opacity="1" fill="none"></path><path d="M712.31 706.21C726.19 715.01 735.56 730.59 735.56 748.2V788.27H753.62V748.31C753.62 710.84 723.14 680.36 685.67 680.36 648.31 680.36 617.83 710.84 617.83 748.31V788.27H635.89V748.2C635.89 720.77 658.24 698.42 685.67 698.42 692.22 698.42 698.65 699.78 704.63 702.15" fill="#78c7e0" opacity="1" stroke-width="2" stroke="none"></path><path d="M712.31 706.21C726.19 715.01 735.56 730.59 735.56 748.2V788.27H753.62V748.31C753.62 710.84 723.14 680.36 685.67 680.36 648.31 680.36 617.83 710.84 617.83 748.31V788.27H635.89V748.2C635.89 720.77 658.24 698.42 685.67 698.42 692.22 698.42 698.65 699.78 704.63 702.15" stroke="#333333" stroke-width="2" stroke-linecap="round" stroke-linejoin="round" opacity="1" fill="none"></path></g></svg>