<svg xmlns="http://www.w3.org/2000/svg" height="1200" width="1600" version="1.1" xmlns:xlink="http://www.w3.org/1999/xlink" xmlns:svgjs="http://svgjs.com/svgjs"><rect fill="#ffffff" width="1600" height="1200"></rect><g><path d="M1288.39 1008.76L193.78 1008.76" stroke="#333333" stroke-width="2" stroke-linecap="round" stroke-linejoin="round" opacity="1" fill="none"></path><path d="M1025.2 1018.39L575.9 1018.39" stroke="#333333" stroke-width="2" stroke-linecap="round" stroke-linejoin="round" opacity="1" fill="none"></path><path d="M1119.9 1036.08L741.08 1036.08" stroke="#333333" stroke-width="2" stroke-linecap="round" stroke-linejoin="round" opacity="1" fill="none"></path><path d="M1406.22 1036.08L1235.53 1036.08" stroke="#333333" stroke-width="2" stroke-linecap="round" stroke-linejoin="round" opacity="1" fill="none"></path></g><g><path d="M837.19 671.85H922.2V631.99H837.19V671.85Z" fill="#78c7e0" stroke="#333333" stroke-width="2" stroke-linecap="round" stroke-linejoin="round" opacity="1"></path><path d="M933.2 671.85H826.19" stroke="#333333" stroke-width="2" stroke-linecap="round" stroke-linejoin="round" opacity="1" fill="none"></path></g><g><path d="M701.34 557.87L726.5 570.88C740 577.8 750.76 588.94 757.33 602.64L771.69 632.63C776.31 642.33 787.01 647.54 797.45 645.3 807.46 643.16 814.81 634.75 815.73 624.63L815.7 624.53C816.34 617.22 821.67 611.23 828.73 609.72 835.8 608.21 842.98 611.41 846.51 617.6L850.69 624.75C853.48 629.55 859.1 632.1 864.58 630.92 871.54 629.43 876.01 622.52 874.52 615.57L873.95 612.93" stroke="#333333" stroke-width="2" stroke-linecap="round" stroke-linejoin="round" opacity="1" fill="none"></path><path d="M648.67 559.01C629.98 572.6 619.96 596.35 625.13 620.48 632.11 653.05 664.1 673.75 696.67 666.78 729.23 659.8 749.94 627.81 742.96 595.24 735.99 562.68 704 541.97 671.43 548.95 666.58 549.99 661.87 551.66 657.56 553.68" fill="#46cdcf" opacity="1" stroke-width="2" stroke="none"></path><path d="M648.67 559.01C629.98 572.6 619.96 596.35 625.13 620.48 632.11 653.05 664.1 673.75 696.67 666.78 729.23 659.8 749.94 627.81 742.96 595.24 735.99 562.68 704 541.97 671.43 548.95 666.58 549.99 661.87 551.66 657.56 553.68" stroke="#333333" stroke-width="2" stroke-linecap="round" stroke-linejoin="round" opacity="1" fill="none"></path><path d="M726.79 593.31C724.59 591.8 721.46 591.58 719.05 593.2 715.73 595.24 714.7 599.65 716.73 602.96 718.76 606.27 723.17 607.31 726.48 605.28 729.8 603.25 730.84 598.83 728.8 595.52 728.48 595.04 728.16 594.56 727.75 594.2" fill="#ffffff" opacity="1" stroke-width="2" stroke="none"></path><path d="M726.79 593.31C724.59 591.8 721.46 591.58 719.05 593.2 715.73 595.24 714.7 599.65 716.73 602.96 718.76 606.27 723.17 607.31 726.48 605.28 729.8 603.25 730.84 598.83 728.8 595.52 728.48 595.04 728.16 594.56 727.75 594.2" stroke="#333333" stroke-width="2" stroke-linecap="round" stroke-linejoin="round" opacity="1" fill="none"></path><path d="M700.4 620.9C705.45 614.63 706.72 605.65 702.77 598.01 697.47 587.68 684.69 583.59 674.36 588.89 664.03 594.18 659.94 606.97 665.24 617.3 670.53 627.62 683.32 631.72 693.65 626.42 695.24 625.64 696.58 624.69 697.88 623.53" fill="#ffffff" opacity="1" stroke-width="2" stroke="none"></path><path d="M700.4 620.9C705.45 614.63 706.72 605.65 702.77 598.01 697.47 587.68 684.69 583.59 674.36 588.89 664.03 594.18 659.94 606.97 665.24 617.3 670.53 627.62 683.32 631.72 693.65 626.42 695.24 625.64 696.58 624.69 697.88 623.53" stroke="#333333" stroke-width="2" stroke-linecap="round" stroke-linejoin="round" opacity="1" fill="none"></path><path d="M677.29 575.8C673.45 576.62 669.67 574.17 668.85 570.34 668.02 566.49 670.47 562.71 674.31 561.89 678.16 561.07 681.93 563.51 682.76 567.36 683.58 571.19 681.14 574.98 677.29 575.8Z" fill="#ffffff" stroke="#333333" stroke-width="2" stroke-linecap="round" stroke-linejoin="round" opacity="1"></path><path d="M693.95 653.58C690.12 654.4 686.33 651.95 685.51 648.12 684.68 644.27 687.14 640.49 690.97 639.67 694.82 638.85 698.59 641.29 699.42 645.14 700.24 648.97 697.8 652.76 693.95 653.58Z" fill="#ffffff" stroke="#333333" stroke-width="2" stroke-linecap="round" stroke-linejoin="round" opacity="1"></path><path d="M652.22 593.08C648.39 593.9 644.6 591.45 643.78 587.61 642.95 583.76 645.41 579.99 649.24 579.17 653.09 578.34 656.86 580.78 657.69 584.63 658.51 588.47 656.07 592.25 652.22 593.08Z" fill="#ffffff" stroke="#333333" stroke-width="2" stroke-linecap="round" stroke-linejoin="round" opacity="1"></path><path d="M719.02 636.31C715.18 637.13 711.4 634.68 710.58 630.84 709.75 627 712.2 623.22 716.04 622.4 719.89 621.57 723.66 624.02 724.49 627.86 725.31 631.7 722.87 635.48 719.02 636.31Z" fill="#ffffff" stroke="#333333" stroke-width="2" stroke-linecap="round" stroke-linejoin="round" opacity="1"></path><path d="M646.73 623.02C642.9 623.84 639.11 621.4 638.29 617.56 637.46 613.72 639.92 609.93 643.75 609.11 647.6 608.29 651.38 610.74 652.2 614.58 653.02 618.42 650.58 622.2 646.73 623.02Z" fill="#ffffff" stroke="#333333" stroke-width="2" stroke-linecap="round" stroke-linejoin="round" opacity="1"></path><path d="M664.01 648.09C660.17 648.91 656.38 646.46 655.56 642.63 654.74 638.78 657.19 635 661.03 634.18 664.87 633.36 668.65 635.8 669.47 639.65 670.29 643.48 667.85 647.27 664.01 648.09Z" fill="#ffffff" stroke="#333333" stroke-width="2" stroke-linecap="round" stroke-linejoin="round" opacity="1"></path><path d="M707.24 581.29C703.4 582.11 699.61 579.66 698.79 575.83 697.97 571.98 700.42 568.2 704.26 567.38 708.1 566.56 711.88 569 712.7 572.85 713.52 576.68 711.08 580.47 707.24 581.29Z" fill="#ffffff" stroke="#333333" stroke-width="2" stroke-linecap="round" stroke-linejoin="round" opacity="1"></path></g><g><path d="M445.69 525.85L520.48 513.37 518.52 448.24 499.99 428.3 469.82 435 441.5 433.43 410.55 495.23 445.69 525.85Z" fill="#3d84a8" stroke="#333333" stroke-width="2" stroke-linecap="round" stroke-linejoin="round" opacity="1"></path><path d="M520.13 506.92L426.99 496.19" stroke="#333333" stroke-width="2" stroke-linecap="round" stroke-linejoin="round" opacity="1" fill="none"></path><path d="M508.57 483.55L429.49 474.43" stroke="#333333" stroke-width="2" stroke-linecap="round" stroke-linejoin="round" opacity="1" fill="none"></path><path d="M494.16 459.84L432 452.68" stroke="#333333" stroke-width="2" stroke-linecap="round" stroke-linejoin="round" opacity="1" fill="none"></path><path d="M518.95 462.7L505.96 461.2" stroke="#333333" stroke-width="2" stroke-linecap="round" stroke-linejoin="round" opacity="1" fill="none"></path><path d="M510.54 439.69L469.82 435" stroke="#333333" stroke-width="2" stroke-linecap="round" stroke-linejoin="round" opacity="1" fill="none"></path><path d="M489.15 503.35L487.36 518.87" stroke="#333333" stroke-width="2" stroke-linecap="round" stroke-linejoin="round" opacity="1" fill="none"></path><path d="M493.12 468.86L491.65 481.6" stroke="#333333" stroke-width="2" stroke-linecap="round" stroke-linejoin="round" opacity="1" fill="none"></path><path d="M455.9 499.52L454.06 515.51" stroke="#333333" stroke-width="2" stroke-linecap="round" stroke-linejoin="round" opacity="1" fill="none"></path><path d="M460.92 456.01L459.43 468.93" stroke="#333333" stroke-width="2" stroke-linecap="round" stroke-linejoin="round" opacity="1" fill="none"></path><path d="M474.34 479.6L471.84 501.35" stroke="#333333" stroke-width="2" stroke-linecap="round" stroke-linejoin="round" opacity="1" fill="none"></path><path d="M477.93 448.46L476.85 457.85" stroke="#333333" stroke-width="2" stroke-linecap="round" stroke-linejoin="round" opacity="1" fill="none"></path><path d="M441 475.76L439.92 485.15" stroke="#333333" stroke-width="2" stroke-linecap="round" stroke-linejoin="round" opacity="1" fill="none"></path><path d="M445.69 525.85L465.2 541.66 454.73 556.37 463.98 569.49 457.86 585.46" stroke="#333333" stroke-width="2" stroke-linecap="round" stroke-linejoin="round" opacity="1" fill="none"></path><path d="M499.99 428.3L507.1 401.15 488.56 385.63 488.88 353.46 511.29 332.87 491.01 307.26 515.17 300.91 512.16 280.31" stroke="#333333" stroke-width="2" stroke-linecap="round" stroke-linejoin="round" opacity="1" fill="none"></path><path d="M488.88 353.46L460.62 355.66" stroke="#333333" stroke-width="2" stroke-linecap="round" stroke-linejoin="round" opacity="1" fill="none"></path></g><g><path d="M451.32 446.2L431.94 528.47C431.9 528.67 431.9 528.67 431.69 528.62L299.08 497.39C298.88 497.34 298.88 497.34 298.93 497.13L338.36 329.73C338.41 329.53 338.41 329.53 338.61 329.58L471.22 360.81C471.42 360.86 471.42 360.86 471.38 361.07L466.22 382.96" fill="#46cdcf" opacity="1" stroke-width="2" stroke="none"></path><path d="M451.32 446.2L431.94 528.47C431.9 528.67 431.9 528.67 431.69 528.62L299.08 497.39C298.88 497.34 298.88 497.34 298.93 497.13L338.36 329.73C338.41 329.53 338.41 329.53 338.61 329.58L471.22 360.81C471.42 360.86 471.42 360.86 471.38 361.07L466.22 382.96" stroke="#333333" stroke-width="2" stroke-linecap="round" stroke-linejoin="round" opacity="1" fill="none"></path><path d="M402.68 521.57C402.63 521.78 402.63 521.78 402.43 521.73L328.35 504.28C328.14 504.23 328.14 504.23 328.19 504.03L339.66 455.32C342.65 442.63 355.55 434.65 368.23 437.64L396.48 444.3C409.16 447.28 417.14 460.18 414.15 472.87L402.68 521.57V521.57Z" fill="#abedd8" stroke="#333333" stroke-width="2" stroke-linecap="round" stroke-linejoin="round" opacity="1"></path><path d="M379.9 451.41C390.87 453.99 401.84 447.2 404.42 436.23 407.01 425.26 400.22 414.29 389.25 411.71 378.28 409.12 367.31 415.91 364.72 426.88 362.14 437.85 368.93 448.82 379.9 451.41Z" fill="#ffffff" stroke="#333333" stroke-width="2" stroke-linecap="round" stroke-linejoin="round" opacity="1"></path><path d="M414.65 423.09L411.37 422.32C411.37 422.32 411.17 422.27 411.22 422.06 409.7 411.99 402.19 403.52 391.76 401.06 381.32 398.61 370.82 402.83 364.97 411.17L364.71 411.33 361.44 410.55C355.51 409.16 349.69 412.75 348.34 418.48L348.29 418.69C348.29 418.69 348.29 418.69 348.5 418.74L360.77 421.63 410.5 433.34 422.78 436.24 422.99 436.28C422.99 436.28 422.99 436.28 423.03 436.08 424.18 430.3 420.38 424.44 414.65 423.09Z" fill="#3d84a8" stroke="#333333" stroke-width="2" stroke-linecap="round" stroke-linejoin="round" opacity="1"></path><path d="M379.94 451.2L373.49 478.62" stroke="#333333" stroke-width="2" stroke-linecap="round" stroke-linejoin="round" opacity="1" fill="none"></path><path d="M462.7 397.9L454.79 431.46" stroke="#333333" stroke-width="2" stroke-linecap="round" stroke-linejoin="round" opacity="1" fill="none"></path></g><g><path d="M1049.3 468.7V709.7H1289.7V468.7C1289.7 402.3 1235.9 348.5 1169.5 348.5 1138.8 348.5 1110.8 360 1089.6 378.9 1064.9 400.9 1049.3 433 1049.3 468.7Z" fill="#78c7e0" opacity="1" stroke-width="2" stroke="none"></path><path d="M1109.5 364.5C1102.4 368.6 1095.7 373.4 1089.6 378.9 1064.9 400.9 1049.3 433 1049.3 468.7V709.7H1289.7V468.7C1289.7 424.2 1265.5 385.3 1229.5 364.5" stroke="#333333" stroke-width="2" stroke-linecap="round" stroke-linejoin="round" opacity="1" fill="none"></path><path d="M1200.3 352.5C1190.5 349.9 1180.1 348.5 1169.5 348.5 1147.6 348.5 1127.2 354.3 1109.5 364.5" stroke="#333333" stroke-width="2" stroke-linecap="round" stroke-linejoin="round" opacity="1" fill="none"></path><path d="M1049.3 529.1H1289.7" stroke="#333333" stroke-width="2" stroke-linecap="round" stroke-linejoin="round" opacity="1" fill="none"></path><path d="M1169.5 644.8V709.7" stroke="#333333" stroke-width="2" stroke-linecap="round" stroke-linejoin="round" opacity="1" fill="none"></path><path d="M1169.5 348.5V628.1" stroke="#333333" stroke-width="2" stroke-linecap="round" stroke-linejoin="round" opacity="1" fill="none"></path><path d="M1039 709.7H1300" stroke="#333333" stroke-width="2" stroke-linecap="round" stroke-linejoin="round" opacity="1" fill="none"></path></g><g><path d="M795.74 222.07C795.74 222.07 795.74 222 795.74 222.07 795.74 222 795.81 222 795.81 222L846.59 213.2C846.65 213.2 846.65 213.2 846.65 213.27L858.43 275.21C858.43 275.28 858.43 275.28 858.37 275.28L808.2 284.89C808.13 284.89 808.13 284.89 808.13 284.82L795.74 222.07Z" fill="#46cdcf" stroke="#333333" stroke-width="2" stroke-linecap="round" stroke-linejoin="round" opacity="1"></path><path d="M547.22 397.75L592.78 380.82H592.85V380.89C592.78 382.79 592.04 410.14 623.38 421.92L623.45 421.98C623.45 421.98 623.45 422.05 623.38 422.05 610.11 427.26 577.62 442.56 576.67 443.04 576.67 443.04 576.67 443.04 576.6 443.04 575.72 442.84 548.71 435.59 547.22 397.75Z" fill="#46cdcf" stroke="#333333" stroke-width="2" stroke-linecap="round" stroke-linejoin="round" opacity="1"></path><path d="M687.83 330.25C687.83 330.25 687.83 330.18 687.83 330.25 687.83 330.18 687.9 330.18 687.9 330.18L736.3 337.97C736.3 337.97 736.37 337.97 736.37 338.04 736.57 339.66 741.58 379.06 718.84 395.58H718.77C709.5 393.82 673.55 386.98 671.25 386.51 671.25 386.51 671.18 386.51 671.18 386.44V386.37C672.67 384.68 695.41 357.8 687.83 330.25Z" fill="#abedd8" stroke="#333333" stroke-width="2" stroke-linecap="round" stroke-linejoin="round" opacity="1"></path><path d="M745.11 416.43C756.82 412.1 772.52 403.64 781.53 388L781.6 387.93C781.6 387.93 781.66 387.93 781.66 388 785.79 396.8 802.18 423.74 802.78 424.69V424.76C802.45 425.84 792.22 454.68 748.56 458 748.56 458 748.49 458 748.49 457.93 741.99 443.92 730.75 422.19 730.01 420.63V420.56C730.01 420.56 730.01 420.56 730.08 420.49 730.69 420.43 734.14 419.82 739.08 418.33" fill="#78c7e0" opacity="1" stroke-width="2" stroke="none"></path><path d="M745.11 416.43C756.82 412.1 772.52 403.64 781.53 388L781.6 387.93C781.6 387.93 781.66 387.93 781.66 388 785.79 396.8 802.18 423.74 802.78 424.69V424.76C802.45 425.84 792.22 454.68 748.56 458 748.56 458 748.49 458 748.49 457.93 741.99 443.92 730.75 422.19 730.01 420.63V420.56C730.01 420.56 730.01 420.56 730.08 420.49 730.69 420.43 734.14 419.82 739.08 418.33" stroke="#333333" stroke-width="2" stroke-linecap="round" stroke-linejoin="round" opacity="1" fill="none"></path><path d="M888.76 299.11C885.99 312.45 880.64 328.76 870.35 340.54H870.28C861.14 337.09 823.09 324.5 821 323.82 821 323.82 820.93 323.82 820.93 323.75V323.68C822.15 322.13 842.12 296 840.09 264.65V264.58H840.16L891.61 275.21 891.67 275.28C891.67 275.89 891.54 281.17 890.46 288.82" fill="#abedd8" opacity="1" stroke-width="2" stroke="none"></path><path d="M888.76 299.11C885.99 312.45 880.64 328.76 870.35 340.54H870.28C861.14 337.09 823.09 324.5 821 323.82 821 323.82 820.93 323.82 820.93 323.75V323.68C822.15 322.13 842.12 296 840.09 264.65V264.58H840.16L891.61 275.21 891.67 275.28C891.67 275.89 891.54 281.17 890.46 288.82" stroke="#333333" stroke-width="2" stroke-linecap="round" stroke-linejoin="round" opacity="1" fill="none"></path></g><g><path d="M877.13 873.99H742.34V955.1H877.13V873.99Z" fill="#ffffff" stroke="#333333" stroke-width="2" stroke-linecap="round" stroke-linejoin="round" opacity="1"></path><path d="M809.93 883.79L746.25 902.21C734.89 905.54 723.13 896.92 723.13 884.96V842.65C723.13 815.8 739.79 791.71 765.06 782.69L772.51 779.95 845.98 779.36 855.38 782.89C880.66 792.1 897.31 816.2 897.31 842.84V885.16C897.31 897.31 885.75 905.73 873.99 902.4L809.93 883.79Z" fill="#ffffff" stroke="#333333" stroke-width="2" stroke-linecap="round" stroke-linejoin="round" opacity="1"></path><path d="M759.58 836.38V856.36L809.93 840.88V883.79" stroke="#333333" stroke-width="2" stroke-linecap="round" stroke-linejoin="round" opacity="1" fill="none"></path><path d="M859.89 836.38V856.36L809.93 840.88" stroke="#333333" stroke-width="2" stroke-linecap="round" stroke-linejoin="round" opacity="1" fill="none"></path><path d="M943.35 1007.81H676.51C657.11 1007.81 641.24 991.94 641.24 972.54 641.24 953.15 657.11 937.28 676.51 937.28H943.35C962.75 937.28 978.62 953.15 978.62 972.54 978.62 991.94 962.75 1007.81 943.35 1007.81Z" fill="#48466d" stroke="#333333" stroke-width="2" stroke-linecap="round" stroke-linejoin="round" opacity="1"></path><path d="M809.93 965.68V998.99" stroke="#333333" stroke-width="2" stroke-linecap="round" stroke-linejoin="round" opacity="1" fill="none"></path><path d="M809.93 938.45V955.1" stroke="#333333" stroke-width="2" stroke-linecap="round" stroke-linejoin="round" opacity="1" fill="none"></path><path d="M826.58 745.86C793.67 714.9 767.81 751.35 767.81 751.35 765.45 756.05 764.28 761.53 764.28 767.22 764.28 771.33 764.87 775.25 766.04 778.78 770.74 793.67 784.85 804.24 801.31 804.24 808.17 804.24 814.24 802.48 819.92 799.35 842.26 786.81 836.57 755.26 826.58 745.86Z" fill="#ffffff" stroke="#333333" stroke-width="2" stroke-linecap="round" stroke-linejoin="round" opacity="1"></path><path d="M782.3 768V777.01" stroke="#333333" stroke-width="2" stroke-linecap="round" stroke-linejoin="round" opacity="1" fill="none"></path><path d="M792.3 777.01C792.3 779.56 789.94 781.91 787.4 781.91 784.85 781.91 782.3 779.56 782.3 777.01" stroke="#333333" stroke-width="2" stroke-linecap="round" stroke-linejoin="round" opacity="1" fill="none"></path><path d="M838.73 776.23V768.59C838.73 768.39 838.73 768 838.73 767.41 838.73 761.93 837.55 756.24 835.2 751.54 829.32 738.81 816.39 730.38 801.7 730.38 787.01 730.38 774.07 739 768.2 751.54H779.36C784.65 751.54 789.16 747.23 789.16 741.75 789.16 747.04 793.47 751.54 798.76 751.54H819.33V762.12 765.26 795.23C819.33 796.8 819.72 798.17 819.92 799.54 821.88 807.97 829.52 814.63 838.73 814.63 849.31 814.63 857.93 806.01 857.93 795.43 858.13 785.04 849.31 776.23 838.73 776.23Z" fill="#48466d" stroke="#333333" stroke-width="2" stroke-linecap="round" stroke-linejoin="round" opacity="1"></path></g><g><path d="M460.21 806.68L382.91 803.11 393.98 874.99 468.95 863.43 460.21 806.68Z" fill="#3d84a8" stroke="#333333" stroke-width="2" stroke-linecap="round" stroke-linejoin="round" opacity="1"></path><path d="M198.43 872.16L216.15 987.17C218.23 1000.64 232.07 1009.7 247.07 1007.39L485.31 970.68 501.14 886.38 460.04 806.71 221.8 843.42C206.81 845.73 196.33 858.53 198.43 872.16Z" fill="#78c7e0" stroke="#333333" stroke-width="2" stroke-linecap="round" stroke-linejoin="round" opacity="1"></path><path d="M511.45 833.74L526.2 929.43C529.1 948.29 514.46 966.19 493.47 969.42L485.48 970.65 460.21 806.68 468.2 805.45C489.2 802.21 508.54 814.87 511.45 833.74Z" fill="#78c7e0" stroke="#333333" stroke-width="2" stroke-linecap="round" stroke-linejoin="round" opacity="1"></path><path d="M200.11 883.09L493.83 837.83C501.33 836.68 507.18 831.48 508.95 825.23" stroke="#333333" stroke-width="2" stroke-linecap="round" stroke-linejoin="round" opacity="1" fill="none"></path><path d="M490.85 889.34L495.15 917.19C495.77 921.24 492.76 924.92 488.26 925.61L478.76 927.08 472.25 884.85 481.75 883.38C486.08 882.72 490.23 885.3 490.85 889.34Z" stroke="#333333" stroke-width="2" stroke-linecap="round" stroke-linejoin="round" opacity="1" fill="none"></path></g><g><path d="M610.91 965.02L610.91 1007.11 473.68 1007.11 473.68 965.02 610.91 965.02Z" fill="#3d84a8" stroke="#333333" stroke-width="2" stroke-linecap="round" stroke-linejoin="round" opacity="1"></path><path d="M585.24 976.64L585.24 995.49 550.02 995.49 550.02 976.64 585.24 976.64Z" fill="#78c7e0" stroke="#333333" stroke-width="2" stroke-linecap="round" stroke-linejoin="round" opacity="1"></path><path d="M534.65 987.63L534.65 976.64" stroke="#333333" stroke-width="2" stroke-linecap="round" stroke-linejoin="round" opacity="1" fill="none"></path><path d="M534.65 995.49L534.65 990.88" stroke="#333333" stroke-width="2" stroke-linecap="round" stroke-linejoin="round" opacity="1" fill="none"></path><path d="M524.26 995.49L524.26 976.64" stroke="#333333" stroke-width="2" stroke-linecap="round" stroke-linejoin="round" opacity="1" fill="none"></path><path d="M513.88 995.49L513.88 976.64" stroke="#333333" stroke-width="2" stroke-linecap="round" stroke-linejoin="round" opacity="1" fill="none"></path></g><g><path d="M638.11 772.07H419.5V869.41H638.11V772.07Z" fill="#abedd8" stroke="#333333" stroke-width="2" stroke-linecap="round" stroke-linejoin="round" opacity="1"></path><path d="M638.11 692.56H419.5V785.45H638.11V692.56Z" fill="#abedd8" stroke="#333333" stroke-width="2" stroke-linecap="round" stroke-linejoin="round" opacity="1"></path><path d="M419.5 869.41V1008.8" stroke="#333333" stroke-width="2" stroke-linecap="round" stroke-linejoin="round" opacity="1" fill="none"></path><path d="M638.11 869.41V1008.8" stroke="#333333" stroke-width="2" stroke-linecap="round" stroke-linejoin="round" opacity="1" fill="none"></path><path d="M982.28 701.61V1008.8" stroke="#333333" stroke-width="2" stroke-linecap="round" stroke-linejoin="round" opacity="1" fill="none"></path><path d="M528.8 836.67C533.94 836.67 538.09 832.56 538.09 827.49 538.09 822.42 533.94 818.32 528.8 818.32 523.67 818.32 519.51 822.42 519.51 827.49 519.51 832.56 523.67 836.67 528.8 836.67Z" fill="#46cdcf" stroke="#333333" stroke-width="2" stroke-linecap="round" stroke-linejoin="round" opacity="1"></path><path d="M528.8 752.7C533.94 752.7 538.09 748.6 538.09 743.53 538.09 738.46 533.94 734.35 528.8 734.35 523.67 734.35 519.51 738.46 519.51 743.53 519.51 748.6 523.67 752.7 528.8 752.7Z" fill="#46cdcf" stroke="#333333" stroke-width="2" stroke-linecap="round" stroke-linejoin="round" opacity="1"></path><path d="M1015.44 669.5H386.46V701.61H1015.44V669.5Z" fill="#abedd8" stroke="#333333" stroke-width="2" stroke-linecap="round" stroke-linejoin="round" opacity="1"></path></g><g><path d="M871.23 549.73L981.9 459.48 1043.93 535.48 915.78 640.07 853.75 563.98 862.78 556.66" fill="#3d84a8" opacity="1" stroke-width="2" stroke="none"></path><path d="M871.23 549.73L981.9 459.48 1043.93 535.48 915.78 640.07 853.75 563.98 862.78 556.66" stroke="#333333" stroke-width="2" stroke-linecap="round" stroke-linejoin="round" opacity="1" fill="none"></path><path d="M1071.45 531.3L943.3 635.85 1005.34 711.89 1133.49 607.32 1071.45 531.3Z" fill="#3d84a8" stroke="#333333" stroke-width="2" stroke-linecap="round" stroke-linejoin="round" opacity="1"></path><path d="M1133.38 625.34L1005.23 729.9 1067.28 805.94 1195.42 701.37 1133.38 625.34Z" fill="#3d84a8" stroke="#333333" stroke-width="2" stroke-linecap="round" stroke-linejoin="round" opacity="1"></path><path d="M1361.89 720.91L1398.18 765.28 1203.91 923.83 877.02 523.32 1071.29 364.77 1318.95 668.19" fill="#3d84a8" opacity="1" stroke-width="2" stroke="none"></path><path d="M1361.89 720.91L1398.18 765.28 1203.91 923.83 877.02 523.32 1071.29 364.77 1318.95 668.19" stroke="#333333" stroke-width="2" stroke-linecap="round" stroke-linejoin="round" opacity="1" fill="none"></path><path d="M1203.91 923.83L1271.64 1006.85" stroke="#333333" stroke-width="2" stroke-linecap="round" stroke-linejoin="round" opacity="1" fill="none"></path><path d="M1398.18 765.28L1465.91 848.4" stroke="#333333" stroke-width="2" stroke-linecap="round" stroke-linejoin="round" opacity="1" fill="none"></path><path d="M1325.89 676.74L1353.91 711.03" stroke="#333333" stroke-width="2" stroke-linecap="round" stroke-linejoin="round" opacity="1" fill="none"></path><path d="M1084.59 520.56L1091.81 529.49C1095.8 534.43 1095.04 541.65 1090.2 545.64L1050.39 578.13C1045.45 582.12 1038.23 581.36 1034.24 576.52L1027.03 567.68" stroke="#333333" stroke-width="2" stroke-linecap="round" stroke-linejoin="round" opacity="1" fill="none"></path></g><g><path d="M1085.58 917.12L1109.61 800.59C1111.34 792.21 1119.56 786.72 1128.06 788.47 1136.45 790.2 1141.97 798.41 1140.22 806.9L1138.75 814.03" stroke="#333333" stroke-width="2" stroke-linecap="round" stroke-linejoin="round" opacity="1" fill="none"></path><path d="M1031.85 991.43C1031.83 991.54 1031.83 991.54 1031.85 991.43L1105.51 1006.74C1105.51 1006.74 1105.62 1006.76 1105.65 1006.65L1146.32 913.72 1146.34 913.6C1146.34 913.6 1146.34 913.6 1146.23 913.58L1031.4 889.9 1031.28 889.88 1031.26 889.99 1031.85 991.43Z" fill="#48466d" stroke="#333333" stroke-width="2" stroke-linecap="round" stroke-linejoin="round" opacity="1"></path><path d="M1133.41 839.93C1126.26 838.46 1121.67 831.5 1123.14 824.37 1124.61 817.24 1131.58 812.67 1138.72 814.14 1145.87 815.61 1150.46 822.57 1148.99 829.7 1147.52 836.83 1140.55 841.41 1133.41 839.93Z" fill="#46cdcf" stroke="#333333" stroke-width="2" stroke-linecap="round" stroke-linejoin="round" opacity="1"></path><path d="M1057.18 829.05C1057.2 828.94 1057.32 828.96 1057.32 828.96L1080.21 833.68C1092.12 836.14 1099.77 847.74 1097.43 859.64L1097.41 859.76C1097.41 859.76 1097.41 859.76 1097.3 859.73L1074.4 855.01C1062.5 852.56 1054.84 840.95 1057.18 829.05Z" fill="#ffffff" stroke="#333333" stroke-width="2" stroke-linecap="round" stroke-linejoin="round" opacity="1"></path></g><g><path d="M501.72 661.37L554.94 632.7" stroke="#333333" stroke-width="2" stroke-linecap="round" stroke-linejoin="round" opacity="1" fill="none"></path><path d="M447.24 662.3C452 662.3 455.86 658.39 455.86 653.56 455.86 648.74 452 644.82 447.24 644.82 442.48 644.82 438.62 648.74 438.62 653.56 438.62 658.39 442.48 662.3 447.24 662.3Z" fill="#78c7e0" stroke="#333333" stroke-width="2" stroke-linecap="round" stroke-linejoin="round" opacity="1"></path><path d="M464.48 662.3C469.24 662.3 473.1 658.39 473.1 653.56 473.1 648.74 469.24 644.82 464.48 644.82 459.72 644.82 455.86 648.74 455.86 653.56 455.86 658.39 459.72 662.3 464.48 662.3Z" fill="#78c7e0" stroke="#333333" stroke-width="2" stroke-linecap="round" stroke-linejoin="round" opacity="1"></path><path d="M481.61 662.3C486.37 662.3 490.23 658.39 490.23 653.56 490.23 648.74 486.37 644.82 481.61 644.82 476.85 644.82 472.99 648.74 472.99 653.56 472.99 658.39 476.85 662.3 481.61 662.3Z" fill="#78c7e0" stroke="#333333" stroke-width="2" stroke-linecap="round" stroke-linejoin="round" opacity="1"></path><path d="M544.14 669.3H438.39C429.77 669.3 422.87 662.19 422.87 653.56H559.77C559.65 662.3 552.64 669.3 544.14 669.3Z" fill="#48466d" stroke="#333333" stroke-width="2" stroke-linecap="round" stroke-linejoin="round" opacity="1"></path><path d="M495.29 653.56L548.5 624.89" stroke="#333333" stroke-width="2" stroke-linecap="round" stroke-linejoin="round" opacity="1" fill="none"></path></g></svg>