<svg xmlns="http://www.w3.org/2000/svg" height="1200" width="1600" version="1.1" xmlns:xlink="http://www.w3.org/1999/xlink" xmlns:svgjs="http://svgjs.com/svgjs"><rect fill="#ffffff" width="1600" height="1200"></rect><g><path d="M326.69 902.44C326.69 902.44 328.97 751.97 488.33 743.07 488.33 743.07 508.43 621.83 627.38 657.68 627.38 657.68 666.42 462.7 852.73 462.7 1047.94 462.7 1089.72 691.47 1089.72 691.47 1089.72 691.47 1257.99 691.47 1280.82 902.44H326.69V902.44Z" fill="#ffffff" opacity="1" stroke-width="4" stroke="none"></path><path d="M1089.72 691.47C1089.72 691.47 1047.94 462.7 852.73 462.7 666.42 462.7 627.38 657.68 627.38 657.68 580.35 643.52 548.84 653.8 527.83 671.38 536.05 686.9 546.56 702.43 559.8 717.5 696.1 875.04 889.49 765.45 889.49 765.45 964.6 896.5 1099.08 814.08 1099.08 814.08 1145.43 880.75 1227.17 887.37 1275.12 865.68 1237.9 691.47 1089.72 691.47 1089.72 691.47Z" fill="#ffffff" opacity="0.3" stroke-width="4" stroke="none"></path><path d="M1089.72 691.47C1093.6 718.41 1095.89 754.94 1095.89 754.94" stroke="#d7d7d7" stroke-width="4" stroke-linecap="round" stroke-linejoin="round" opacity="1" fill="none"></path><path d="M627.61 657.68C650.67 665.9 671.22 684.16 671.22 684.16" stroke="#d7d7d7" stroke-width="4" stroke-linecap="round" stroke-linejoin="round" opacity="1" fill="none"></path><path d="M488.33 743.07C483.77 760.88 481.94 779.37 482.85 797.64" stroke="#d7d7d7" stroke-width="4" stroke-linecap="round" stroke-linejoin="round" opacity="1" fill="none"></path><path d="M961.75 661.67C973.19 629.62 952.14 592.79 914.74 579.44 877.32 566.08 837.73 581.26 826.27 613.32 814.83 645.37 835.88 682.2 873.28 695.56 910.7 708.91 950.29 693.73 961.75 661.67Z" fill="#efdcd7" opacity="1" stroke-width="4" stroke="none"></path><path d="M908.21 642.56C910.63 635.81 906.22 628.04 898.39 625.24 890.54 622.45 882.23 625.67 879.83 632.43 877.41 639.21 881.79 646.95 889.62 649.76 897.48 652.54 905.79 649.35 908.21 642.56Z" fill="#8e695f" stroke="#8e695f" stroke-width="4" opacity="1"></path><path d="M726.36 838.19C766.54 828.41 792.36 792.59 783.98 758.16 775.63 723.73 736.26 703.73 696.08 713.5 655.87 723.25 630.07 759.08 638.43 793.51 646.81 827.96 686.17 847.96 726.36 838.19Z" fill="#efdcd7" opacity="1" stroke-width="4" stroke="none"></path><path d="M714.55 789.58C723.39 787.45 729.03 779.56 727.2 771.95 725.35 764.35 716.7 759.94 707.88 762.09 699.05 764.21 693.39 772.11 695.24 779.71 697.08 787.32 705.74 791.72 714.55 789.58Z" fill="#534f4e" opacity="1" stroke-width="4" stroke="none"></path></g><g><path d="M1138.11 903.18C1146.29 884.65 1150.46 869.29 1178.34 830.73 1201.04 799.69 1237.27 778.82 1275.32 783.33 1297.86 786 1328.74 799.69 1345.1 836.41 1359.62 868.96 1362.29 902.85 1362.29 903.18H1138.11Z" fill="#5f4c15" opacity="0.3" stroke-width="4" stroke="none"></path><path d="M1193.53 903.18C1193.53 902.68 1203.71 865.12 1224.75 828.06 1244.11 793.84 1277.16 752.95 1323.9 752.95 1346.44 752.95 1378.15 765.97 1400.69 828.06 1414.04 865.12 1417.88 902.85 1417.88 903.18H1193.53Z" fill="#ffc930" opacity="1" stroke-width="4" stroke="none"></path><path d="M1389.67 867.62C1364.3 867.62 1343.43 846.93 1343.26 821.39 1343.26 802.19 1355.28 784.83 1373.48 778.15 1393.34 801.69 1404.86 837.08 1410.87 862.62 1404.36 865.79 1397.18 867.46 1390 867.46L1389.67 867.62Z" fill="#e2a700" opacity="1" stroke-width="4" stroke="none"></path><path d="M1193.53 903.18C1193.53 902.68 1206.88 853.94 1234.26 812.54 1244.61 812.71 1254.79 815.04 1264.14 819.55 1268.15 812.54 1274.32 807.2 1281.67 803.86 1287.18 801.19 1293.35 799.85 1299.03 799.85 1310.55 799.85 1319.73 805.03 1323.73 813.54 1326.74 820.05 1326.4 827.56 1322.73 834.91 1319.06 842.25 1312.55 848.43 1304.37 852.27 1302.37 853.27 1300.36 853.94 1298.19 854.6 1305.04 869.96 1306.21 887.15 1301.37 903.35L1193.53 903.18Z" fill="#e2a700" opacity="1" stroke-width="4" stroke="none"></path><path d="M1351.44 903.18C1351.61 902.35 1374.15 822.22 1435.57 822.22 1489.32 822.22 1505.02 902.35 1505.18 903.18H1351.44Z" fill="#ffc930" opacity="1" stroke-width="4" stroke="none"></path><path d="M1430.07 903.18C1429.4 900.18 1429.06 897.17 1429.06 894.17 1429.06 869.63 1450.1 849.6 1475.97 849.6 1478.31 849.6 1480.64 849.76 1482.98 850.1 1499.17 873.3 1505.18 902.85 1505.18 903.18H1430.07V903.18Z" fill="#e2a700" opacity="1" stroke-width="4" stroke="none"></path><path d="M1408.87 859.78C1406.36 859.78 1403.86 859.45 1401.35 859.11 1393.84 857.61 1386.83 853.6 1381.82 847.76 1395.51 831.74 1413.21 823.39 1432.07 822.39 1436.24 827.56 1437.91 834.24 1436.58 840.75 1434.24 851.93 1422.89 859.78 1408.87 859.78Z" fill="#e2a700" opacity="1" stroke-width="4" stroke="none"></path><path d="M1351.44 903.18C1351.44 903.18 1364.63 853.94 1401.85 831.23" stroke="#010101" stroke-width="4" stroke-linecap="round" opacity="1" fill="none"></path></g><g><path d="M80 903.56C80 903.56 136.23 748.26 312.75 759.7 447.19 768.2 463.57 903.56 463.57 903.56H80Z" fill="#ffc930" opacity="1" stroke-width="4" stroke="none"></path><path d="M215.18 837.22C195.82 826.76 178.69 813.35 164.91 797.66 102.72 840.82 80 903.56 80 903.56H463.57C461.34 888.52 456.87 873.51 450.91 859.13 387.23 879.36 303.81 885.9 215.18 837.22Z" fill="#626262" opacity="0.3" stroke-width="4" stroke="none"></path></g><g><path d="M593.37 274.81L621.58 257.99 586.86 261.96 591.18 233.28 573.55 257.58 550.97 235.47 560.94 265 529.29 273.76 561.38 280.67 544.8 311.04 572.54 288.02 588.31 320.78 586.96 285.59 617.3 295.37 593.37 274.81Z" fill="#efdcd7" opacity="1" stroke-width="4" stroke="none"></path></g><g><path d="M1198.39 127.18C1208.61 134.23 1229.68 142.52 1246.86 126.16 1263.83 109.9 1265.77 98.24 1288.78 89.14 1308.72 81.16 1333.78 95.48 1333.78 95.48L1320.48 149.98C1320.48 149.98 1302.18 140.98 1287.86 147.02 1262.5 157.75 1259.74 185.26 1229.47 191.6 1206.46 196.41 1185.91 182.4 1185.91 182.4L1198.39 127.18Z" fill="#efdcd7" opacity="1" stroke-width="4" stroke="none"></path></g><g><path d="M380.67 132.61C371.06 139.24 351.26 147.03 335.11 131.65 319.15 116.37 317.33 105.41 295.7 96.85 276.95 89.36 253.4 102.81 253.4 102.81L265.9 154.05C265.9 154.05 283.11 145.59 296.56 151.26 320.4 161.35 323 187.21 351.45 193.17 373.08 197.69 392.4 184.52 392.4 184.52L380.67 132.61Z" fill="#efdcd7" opacity="1" stroke-width="4" stroke="none"></path></g><g><path d="M1039.3 343.83C1062.34 343.83 1081.03 325.14 1081.03 302.1 1081.03 279.05 1062.34 260.37 1039.3 260.37 1016.25 260.37 997.57 279.05 997.57 302.1 997.57 325.14 1016.25 343.83 1039.3 343.83Z" fill="#ffc930" opacity="1" stroke-width="4" stroke="none"></path></g><g><path d="M1437.02 616.05H1424.47V903.14H1437.02V616.05Z" fill="#ff4f32" opacity="1" stroke-width="4" stroke="none"></path><path d="M1424.47 616.05H1437.02V643.58L1424.47 652.14V616.05Z" fill="#712012" opacity="0.3" stroke-width="4" stroke="none"></path><path d="M1469.21 614.93C1466.44 614.32 1463.85 613.8 1461.16 613.37 1465.84 610.6 1470.68 607.31 1475.53 603.5 1496.48 587.58 1509.81 569.83 1505.3 563.95 1500.89 558.24 1481.33 565.77 1460.99 580.91 1468.78 557.11 1469.82 536.51 1463.07 534.18 1458.05 532.45 1450.09 541.27 1442.9 555.55 1440.74 539.37 1436.15 528.2 1430.79 528.2 1425.42 528.2 1420.83 539.37 1418.67 555.55 1411.4 541.27 1403.44 532.36 1398.5 534.18 1391.75 536.51 1392.7 557.2 1400.58 580.91 1380.24 565.77 1360.59 558.24 1356.27 563.95 1351.76 569.83 1365.09 587.58 1386.04 603.5 1390.89 607.22 1395.82 610.51 1400.41 613.37 1397.81 613.8 1395.13 614.32 1392.36 614.93 1371.5 619.69 1355.83 628.86 1357.3 635.53 1358.78 642.19 1376.95 643.75 1397.81 639.07 1413.3 635.53 1426.02 629.55 1430.79 623.93 1435.63 629.55 1448.27 635.53 1463.76 639.07 1484.62 643.83 1502.71 642.19 1504.27 635.53 1505.74 628.86 1490.07 619.6 1469.21 614.93Z" fill="#ffc930" opacity="1" stroke-width="4" stroke="none"></path><path d="M1424.47 661.84H1437.02" stroke="#712012" stroke-width="4" stroke-linecap="round" stroke-linejoin="round" opacity="1" fill="none"></path><path d="M1424.38 728.83H1436.93" stroke="#712012" stroke-width="4" stroke-linecap="round" stroke-linejoin="round" opacity="1" fill="none"></path><path d="M1424.38 795.82H1436.93" stroke="#712012" stroke-width="4" stroke-linecap="round" stroke-linejoin="round" opacity="1" fill="none"></path><path d="M1424.38 862.81H1436.93" stroke="#712012" stroke-width="4" stroke-linecap="round" stroke-linejoin="round" opacity="1" fill="none"></path><path d="M1430.18 599.95C1414.17 579.18 1403.26 556.59 1397.55 534.61 1391.75 538.42 1392.96 558.24 1400.49 580.91 1380.15 565.77 1360.51 558.24 1356.18 563.95 1351.68 569.83 1365.01 587.58 1385.95 603.5 1390.8 607.22 1395.73 610.51 1400.32 613.37 1397.72 613.8 1395.04 614.32 1392.27 614.93 1371.41 619.69 1355.75 628.86 1357.22 635.53 1358.69 642.19 1376.86 643.75 1397.72 639.07 1413.22 635.53 1425.94 629.55 1430.7 623.93 1435.55 629.55 1448.18 635.53 1463.67 639.07 1466.88 639.77 1470.08 640.37 1473.11 640.81 1457.7 630.33 1442.9 616.57 1430.18 599.95Z" fill="#888786" opacity="0.3" stroke-width="4" stroke="none"></path><path d="M1454.85 616.92C1456.92 615.88 1459 614.67 1461.16 613.37" stroke="#505050" stroke-width="4" stroke-linecap="round" stroke-linejoin="round" opacity="1" fill="none"></path><path d="M1400.23 613.37C1402.22 614.58 1404.21 615.71 1406.12 616.74" stroke="#505050" stroke-width="4" stroke-linecap="round" stroke-linejoin="round" opacity="1" fill="none"></path><path d="M1461.08 580.91C1460.47 581.35 1459.95 581.78 1459.35 582.21 1445.5 592.77 1434.94 604.11 1430.79 612.24 1426.54 604.11 1416.07 592.77 1402.22 582.21 1401.62 581.78 1401.1 581.35 1400.49 580.91" stroke="#505050" stroke-width="4" stroke-linecap="round" stroke-linejoin="round" opacity="1" fill="none"></path><path d="M1442.99 555.21C1439.79 561.53 1437.02 568.1 1434.77 574.77 1433.12 579.44 1431.82 583.94 1430.7 588.27 1429.57 583.94 1428.28 579.36 1426.63 574.77 1424.38 568.1 1421.61 561.61 1418.49 555.38" stroke="#505050" stroke-width="4" stroke-linecap="round" stroke-linejoin="round" opacity="1" fill="none"></path><path d="M1422.91 629.9C1425.85 628.34 1428.45 626.35 1430.7 623.93 1432.95 626.27 1435.55 628.34 1438.4 629.81" stroke="#505050" stroke-width="4" stroke-linecap="round" stroke-linejoin="round" opacity="1" fill="none"></path></g><g><path d="M179.36 620.54H160.26V901.69H179.36V620.54Z" fill="#ff4f32" opacity="1" stroke-width="4" stroke="none"></path><path d="M160.26 602.14H179.43V637.42L160.26 649.74V602.14Z" fill="#712012" opacity="0.3" stroke-width="4" stroke="none"></path><path d="M160.26 693.53H179.43V728.81L160.26 741.13V693.53Z" fill="#712012" opacity="0.3" stroke-width="4" stroke="none"></path><path d="M199.48 558.47C192.82 541.65 178.41 529.97 161.4 529.59 138.62 529.08 119.52 549.39 117.55 575.54 86.32 572.11 69.95 593.44 72.74 621.87H255.9C260.85 603.27 259.71 582.52 246.57 569.38 236.48 559.23 221.95 553.45 199.48 558.47Z" fill="#ffc930" opacity="1" stroke-width="4" stroke="none"></path><path d="M191.74 580.24C158.74 601.44 132.14 600.68 110.12 590.46 103.84 587.54 98.06 583.61 92.99 578.78 78.01 585.76 70.71 602.07 72.62 621.75H255.77C257.11 616.86 257.93 611.85 258.31 606.77 234.32 610.52 209.44 600.17 191.74 580.24Z" fill="#888786" opacity="0.3" stroke-width="4" stroke="none"></path><path d="M130.75 714.46C130.75 714.46 128.91 667.75 160.89 658.81 189.9 650.68 205.51 671.56 209 682.6 236.23 675.62 253.04 694.79 251.9 714.46H130.75Z" fill="#ffc930" opacity="1" stroke-width="4" stroke="none"></path><path d="M130.75 714.46C130.75 714.46 129.86 691.62 140.27 674.86 144.65 684.89 153.28 692.44 163.75 695.42 185.77 701.71 202.46 693.52 202.46 693.52 202.46 693.52 222.77 711.93 249.55 700.18 251.39 704.69 252.22 709.58 251.97 714.46H130.75Z" fill="#888786" opacity="0.3" stroke-width="4" stroke="none"></path><path d="M117.55 575.48C122.5 576.12 129.48 579.93 132.02 582.46" stroke="#505050" stroke-width="4" stroke-linecap="round" stroke-linejoin="round" opacity="1" fill="none"></path><path d="M199.48 558.47C193.58 560.25 187.87 564.06 185.33 567.23" stroke="#505050" stroke-width="4" stroke-linecap="round" stroke-linejoin="round" opacity="1" fill="none"></path><path d="M209 682.6C201.19 685.27 198.66 687.81 198.66 687.81" stroke="#505050" stroke-width="4" stroke-linecap="round" stroke-linejoin="round" opacity="1" fill="none"></path><path d="M160.26 714.47H179.43" stroke="#505050" stroke-width="4" stroke-linecap="round" stroke-linejoin="round" opacity="1" fill="none"></path><path d="M160.26 621.81H179.43" stroke="#505050" stroke-width="4" stroke-linecap="round" stroke-linejoin="round" opacity="1" fill="none"></path></g><g><path d="M908.04 1040.38L903.58 1026.26C904.85 1020.07 905.86 1018.34 899.66 1017.07 898.94 1016.88 899.3 1010.15 898.48 1010.15L877.99 1000.58 874.98 998.12C874.35 990.2 873.44 982.46 871.89 974.63V974.54L910.14 916.44 949.84 974.54V974.63C949.75 992.3 948.48 1009.69 946.38 1027.18L939.83 1033.19 908.04 1040.38Z" fill="#f9b298" opacity="1" stroke-width="4" stroke="none"></path><path d="M776.54 1029.82L781.18 1011.69C782.46 1005.5 781.82 1001.68 775.63 1000.4 774.9 1000.22 774.08 1000.22 773.35 1000.22L746.76 1000.13 746.85 998.03C747.03 991.75 747.21 986.74 746.58 976.9L749.04 970.44 819.16 969.89C819.25 969.89 820.71 973.35 820.71 973.44L821.8 975.63C821.25 993.3 819.16 1010.69 816.52 1028.18L776.54 1029.82Z" fill="#f9b298" opacity="1" stroke-width="4" stroke="none"></path><path d="M706.32 1059.05L705.87 1057.14C709.42 1050.22 714.79 1047.39 721.99 1041.93 725.9 1038.92 730.46 1035.55 735.65 1031.09 737.93 1029.18 739.93 1026.81 741.39 1024.08 744.85 1017.98 746.58 1009.78 746.94 998.22L773.44 998.03C780 998.03 785.28 1003.31 785.28 1009.87 785.28 1010.69 785.19 1011.51 785.01 1012.24L781.91 1027.08H816.79V1027.27C815.24 1037.47 812.69 1051.4 811.69 1056.59 811.51 1057.68 810.33 1058.23 810.33 1058.5 810.33 1058.59 810.42 1058.5 810.33 1058.5L706.32 1059.05Z" fill="#ffc930" opacity="1" stroke-width="4" stroke="none"></path><path d="M835.46 1059.6C835.37 1059.6 835.28 1059.5 835.28 1059.32L837.28 1055.59C841.29 1049.03 845.11 1047.94 852.67 1042.02 856.68 1038.92 861.14 1035.37 866.24 1031 868.61 1029 870.52 1026.45 871.89 1023.62 874.71 1017.61 875.62 1009.33 874.89 998.22V998.03H900.94C907.5 998.03 912.78 1003.31 912.78 1009.87 912.78 1010.69 912.69 1011.51 912.5 1012.24L909.41 1027.08H946.2V1027.27C945.02 1037.28 943.92 1045.75 942.28 1055.68L941.74 1058.96 835.46 1059.6Z" fill="#ffc930" opacity="1" stroke-width="4" stroke="none"></path><path d="M815.88 517.19L815.79 512C813.24 512.73 811.05 512.82 808.5 512.82 800.03 512.82 792.93 509.18 788.92 502.8 783.82 494.6 786.01 485.32 788.2 476.3 788.38 475.48 788.56 474.66 788.74 473.84 789.47 469.83 790.02 465.83 790.29 461.82 791.2 451.71 792.38 439.14 797.67 431.95 805.95 420.84 818.98 426.85 836.55 426.85 837.92 426.85 840.92 422.75 842.29 422.84 862.51 423.93 873.16 432.68 872.53 452.08 872.16 463.73 876.44 488.41 874.16 517.19L873.89 518.46 850.03 526.75 815.88 517.19Z" fill="#f9b298" opacity="1" stroke-width="4" stroke="none"></path><path d="M849.85 495.51L849.67 495.33 849.85 495.24C850.03 495.15 869.34 483.58 865.79 472.93 864.33 468.47 860.6 466.28 854.77 466.28 850.67 466.46 847.03 466.92 842.75 468.65L842.56 468.74 842.47 468.19C841.2 461.91 842.2 457.63 844.02 452.89 844.29 452.26 843.75 451.53 843.02 451.62 841.65 451.71 840.29 451.8 838.92 451.89 830.54 451.89 827.26 448.8 825.99 446.25 824.62 443.61 824.9 440.24 826.54 436.96 826.9 436.23 826.17 435.32 825.35 435.59 818.16 437.78 811.87 438.96 806.68 438.96 798.21 438.96 795.39 436.05 795.39 436.05 795.94 434.77 796.94 433.13 797.76 432.04 806.04 420.93 820.34 414.83 837.92 414.83 839.28 414.83 840.65 414.83 842.02 414.92 862.23 416.01 878.26 432.59 877.62 451.98 877.44 462.64 876.26 482.22 874.62 509.63 874.62 509.54 859.96 506.35 849.85 495.51Z" fill="#231f20" opacity="1" stroke-width="4" stroke="none"></path><path d="M815.79 512C820.07 510.45 825.62 507.99 829.54 505.62" stroke="#000000" stroke-width="4" stroke-linecap="round" stroke-linejoin="round" opacity="1" fill="none"></path><path d="M844.84 482.4L852.03 479.49" stroke="#000000" stroke-width="4" stroke-linecap="round" stroke-linejoin="round" opacity="1" fill="none"></path><path d="M807.41 470.84L806.86 472.84C806.5 474.02 806.86 475.21 807.78 476.03L807.96 476.21" stroke="#000000" stroke-width="4" stroke-linecap="round" stroke-linejoin="round" opacity="1" fill="none"></path><path d="M805.41 485.22C806.68 486.13 810.96 486.32 813.51 483.22" stroke="#000000" stroke-width="4" stroke-linecap="round" stroke-linejoin="round" opacity="1" fill="none"></path><path d="M819.8 469.29C821.11 469.29 822.16 468.23 822.16 466.92 822.16 465.62 821.11 464.55 819.8 464.55 818.48 464.55 817.43 465.62 817.43 466.92 817.43 468.23 818.48 469.29 819.8 469.29Z" fill="#231f20" opacity="1" stroke-width="4" stroke="none"></path><path d="M799.49 466.28C800.8 466.28 801.86 465.23 801.86 463.91 801.86 462.61 800.8 461.55 799.49 461.55 798.18 461.55 797.12 462.61 797.12 463.91 797.12 465.23 798.18 466.28 799.49 466.28Z" fill="#231f20" opacity="1" stroke-width="4" stroke="none"></path><path d="M672.45 570.28C670.99 566.28 670.08 564.18 668.9 561.18 666.98 556.62 664.43 550.43 657.88 532.94 654.87 526.93 652.05 521.74 649.5 517.19 644.31 507.81 641.21 502.16 642.94 500.34 643.4 499.89 643.94 499.61 644.67 499.61 647.22 499.61 648.59 501.07 654.87 507.63 655.78 508.63 658.42 511.36 660.06 513 660.24 513.18 660.52 513 660.43 512.73 659.42 510.54 657.6 506.72 656.78 504.99 653.23 497.52 649.95 490.78 652.32 485.86 652.96 484.59 654.14 483.68 655.51 483.4 655.6 479.3 657.51 476.85 660.7 476.85 662.16 476.94 663.52 477.3 664.8 477.94 665.89 477.21 667.16 476.85 668.44 476.85 676 476.85 683.83 489.6 690.75 500.8 694.03 506.08 697.04 511.09 699.59 513.64 699.86 500.89 702.32 493.33 706.14 493.33 706.6 493.33 706.96 493.42 707.33 493.6 710.24 494.7 711.79 502.44 713.52 511.45 713.88 513.36 714.34 515.37 714.7 517.37 715.43 520.92 716.07 524.02 716.62 526.75 718.44 535.04 719.62 540.59 718.71 548.06 721.62 555.44 724.45 563.09 727 569.74L727.45 571.01 672.45 570.28Z" fill="#f9b298" opacity="1" stroke-width="4" stroke="none"></path><path d="M699.59 513.64V522.38C699.59 522.38 690.21 531.94 691.84 545.42" stroke="#000000" stroke-width="4" stroke-linecap="round" stroke-linejoin="round" opacity="1" fill="none"></path><path d="M665.43 478.12C675.27 491.33 683.38 507.81 683.38 507.81" stroke="#000000" stroke-width="4" stroke-linecap="round" stroke-linejoin="round" opacity="1" fill="none"></path><path d="M655.6 483.4C659.97 488.87 673.54 513.09 673.54 513.09" stroke="#000000" stroke-width="4" stroke-linecap="round" stroke-linejoin="round" opacity="1" fill="none"></path><path d="M949.57 965.07C949.21 955.14 948.39 945.12 946.84 935.29 944.11 917.35 939.83 902.05 936 888.57 932.27 875.09 928.99 863.52 927.71 851.69 925.71 832.01 927.08 812.43 928.53 791.67 931.63 747.32 934.91 701.42 903.03 652.61L902.94 652.52H884.09 827.08 803.22L803.13 652.61C802.58 653.61 748.58 752.6 742.84 858.24 741.57 883.92 741.93 909.7 743.75 935.29 744.21 942.39 744.66 949.13 745.12 955.59 745.58 962.33 746.12 968.44 746.49 974.36V974.81L821.07 975.08C819.89 974.99 821.07 975.17 821.07 975.08L821.8 974.45C821.71 969.53 821.71 964.88 821.53 960.06 821.16 949.4 820.8 941.75 820.25 935.38 819.43 925.09 818.43 917.44 817.52 910.61 815.88 897.49 814.61 888.02 816.43 871.45 818.34 854.42 828.99 831.01 841.38 804.06 841.65 804.06 841.56 804.06 841.83 804.15 843.75 820.54 845.84 837.57 848.03 854.78 852.03 885.47 858.41 914.34 863.15 935.47L864.33 940.75C867.06 952.86 869.7 964.43 871.71 974.63L872.16 976.9C872.16 977 872.25 977.09 872.34 977.09L949.66 974.9V974.54C949.75 971.35 949.66 967.98 949.57 965.07Z" fill="#ffa0dc" opacity="1" stroke-width="4" stroke="none"></path><path d="M660.33 513L664.25 519.19" stroke="#000000" stroke-width="4" stroke-linecap="round" stroke-linejoin="round" opacity="1" fill="none"></path><path d="M803.86 975.08L803.77 974.54C803.4 968.62 802.95 962.33 802.49 955.59 802.04 949.13 801.58 942.39 801.13 935.29 799.76 914.25 798.03 888.02 800.22 858.24 801.22 844.58 809.23 804.33 824.62 735.3 825.81 730.11 829.54 727.83 833.27 727.83 833.91 728.01 838.28 783.84 841.74 803.24 829.27 830.47 818.43 854.05 816.52 871.27 814.7 887.84 815.97 897.31 817.61 910.42 818.52 917.25 819.52 924.9 820.34 935.2 820.89 941.57 821.25 949.22 821.62 959.88 821.8 964.7 821.62 968.34 821.89 973.26L821.8 974.45C821.8 974.54 821.71 975.17 821.71 975.17L803.86 975.08Z" fill="#272727" opacity="0.3" stroke-width="4" stroke="none"></path><path d="M925.16 704.61C871.43 690.04 851.49 678.75 827.26 663.26L827.17 663.17 827.08 652.52H902.94L903.03 652.61C913.51 668.36 921.06 685.94 925.44 704.34L925.53 704.61H925.16Z" fill="#272727" opacity="0.3" stroke-width="4" stroke="none"></path><path d="M833.09 726.01C835.28 748.6 838.74 777.56 842.11 806.06" stroke="#272727" stroke-width="4" stroke-linecap="round" stroke-linejoin="round" opacity="1" fill="none"></path><path d="M816.24 518.37V511.82L817.97 511.36C822.62 509.99 825.72 508.63 830.18 506.63L830.45 507.17 824.81 522.29 816.24 518.37Z" fill="#000000" opacity="0.3" stroke-width="4" stroke="none"></path><path d="M907.5 676.65C895.11 676.65 880.9 675.01 864.88 671.37L864.33 670.55 865.6 652.88H803.04L792.57 614.27C790.65 617.18 776.08 637.76 751.68 646.78 745.3 649.33 738.47 650.61 731.64 650.79 698.04 650.79 682.83 610.26 671.35 567.46L720.71 553.53 734.28 586.13C735.47 584.49 742.57 574.84 755.05 559.17 778.54 527.75 813.06 524.66 815.88 524.47V517.19H874.16L873.8 522.74C893.38 525.66 910.87 536.4 922.43 552.43 922.89 553.07 971.33 617.91 953.67 657.16 948.29 669.55 931.36 676.65 907.5 676.65Z" fill="#61ccff" opacity="1" stroke-width="4" stroke="none"></path><path d="M792.57 614.27L789.11 599.33" stroke="#787878" stroke-width="4" stroke-linecap="round" stroke-linejoin="round" opacity="1" fill="none"></path><path d="M781.91 626.56C781.91 626.47 784.37 619.19 784.37 604.8 784.37 596.42 784.37 590.96 787.28 590.96H787.47L793.02 613.9V614C789.93 618.55 786.28 622.83 782.37 626.75L781.91 626.56Z" fill="#787878" opacity="0.3" stroke-width="4" stroke="none"></path><path d="M887.1 605.44L895.57 626.56" stroke="#787878" stroke-width="4" stroke-linecap="round" stroke-linejoin="round" opacity="1" fill="none"></path><path d="M743.39 1024.08L755.41 1029.18" stroke="#1d180a" stroke-width="4" stroke-linecap="round" stroke-linejoin="round" opacity="1" fill="none"></path><path d="M735.1 1033.73L745.21 1041.84" stroke="#1d180a" stroke-width="4" stroke-linecap="round" stroke-linejoin="round" opacity="1" fill="none"></path><path d="M873.53 1024.44L884.73 1029.18" stroke="#1d180a" stroke-width="4" stroke-linecap="round" stroke-linejoin="round" opacity="1" fill="none"></path><path d="M865.24 1034.37L874.53 1041.84" stroke="#1d180a" stroke-width="4" stroke-linecap="round" stroke-linejoin="round" opacity="1" fill="none"></path><path d="M872.25 977L949.39 974.54" stroke="#272727" stroke-width="4" stroke-linecap="round" stroke-linejoin="round" opacity="1" fill="none"></path><path d="M747.21 974.54L821.8 974.9" stroke="#272727" stroke-width="4" stroke-linecap="round" stroke-linejoin="round" opacity="1" fill="none"></path><path d="M743.57 935.38H820.07" stroke="#272727" stroke-width="4" stroke-linecap="round" stroke-linejoin="round" opacity="1" fill="none"></path><path d="M863.78 935.38H946.66" stroke="#272727" stroke-width="4" stroke-linecap="round" stroke-linejoin="round" opacity="1" fill="none"></path><path d="M794.75 697.23C794.66 697.23 794.66 697.23 794.57 697.23 793.75 697.14 792.93 696.59 792.66 695.78 791.47 692.86 794.21 686.03 799.67 678.2 798.67 678.84 797.67 679.57 796.66 680.29 790.47 684.66 782.73 690.13 776.72 690.13 774.26 690.22 771.99 689.04 770.53 687.12 768.34 687.12 766.7 686.4 765.7 685.12 764.61 683.66 764.52 681.48 765.34 679.02 764.24 677.11 764.24 674.65 765.25 671.73 767.25 665.9 773.62 657.98 782.64 650.06 790.93 642.86 799.85 636.85 806.14 634.49 822.53 628.29 848.57 626.65 867.52 626.47H867.7L864.88 671.37C864.88 671.37 853.58 668.73 846.84 666.91 845.93 667.36 835.1 672.83 817.88 675.56 808.14 688.76 797.67 697.23 794.75 697.23Z" fill="#f9b298" opacity="1" stroke-width="4" stroke="none"></path><path d="M880.81 626.84L880.9 626.56C883.91 619.64 879.45 615.27 879.54 608.62 879.63 601.15 880.72 599.33 884.73 598.7L895.57 626.56 880.81 626.84Z" fill="#787878" opacity="0.3" stroke-width="4" stroke="none"></path><path d="M702.14 1071.34V1071.16C702.14 1065.51 703.23 1061.23 705.78 1057.23L705.87 1057.14 811.6 1056.5C811.69 1056.5 811.69 1056.59 811.69 1056.68 811.33 1058.14 808.78 1070.89 808.59 1071.25L702.14 1071.34Z" fill="#1d180a" opacity="1" stroke-width="4" stroke="none"></path><path d="M832.91 1071.34V1071.16C832.91 1065.51 834 1061.23 836.55 1057.23L836.64 1057.14H942.1V1057.32C940.55 1065.88 939.64 1070.52 939.46 1071.16L832.91 1071.34Z" fill="#1d180a" opacity="1" stroke-width="4" stroke="none"></path><path d="M765.52 678.2C771.35 671.64 784.37 660.08 793.84 653.52" stroke="#000000" stroke-width="4" stroke-linecap="round" stroke-linejoin="round" opacity="1" fill="none"></path><path d="M770.62 686.85C774.99 682.48 789.47 670.19 801.13 662.17" stroke="#000000" stroke-width="4" stroke-linecap="round" stroke-linejoin="round" opacity="1" fill="none"></path><path d="M800.03 677.65L808.41 670.91" stroke="#000000" stroke-width="4" stroke-linecap="round" stroke-linejoin="round" opacity="1" fill="none"></path><path d="M734.46 586.58L733.55 597.51" stroke="#787878" stroke-width="4" stroke-linecap="round" stroke-linejoin="round" opacity="1" fill="none"></path><path d="M867.33 626.47C876.81 626.47 893.38 626.56 905.04 627.29" stroke="#787878" stroke-width="4" stroke-linecap="round" stroke-linejoin="round" opacity="1" fill="none"></path></g></svg>