<svg xmlns="http://www.w3.org/2000/svg" height="1200" width="1600" version="1.1" xmlns:xlink="http://www.w3.org/1999/xlink" xmlns:svgjs="http://svgjs.com/svgjs"><rect fill="#ffffff" width="1600" height="1200"></rect><g><path d="M1295.12 959.27V959.09C1295.12 943.37 1307.89 930.51 1323.61 930.51 1339.33 930.51 1352.18 943.37 1352.18 959.09V959.27H1295.12Z" fill="#efdcd7" opacity="1" stroke-width="4" stroke="none"></path><path d="M171.53 897.41V897.22C171.53 881.6 184.29 868.74 200.01 868.65 215.73 868.65 228.58 881.5 228.58 897.22V897.41H171.53Z" fill="#efdcd7" opacity="1" stroke-width="4" stroke="none"></path><path d="M885.48 991.54V991.36C885.48 977.95 896.39 967.04 909.8 967.04 923.21 967.04 934.12 977.95 934.12 991.36V991.54H885.48Z" fill="#efdcd7" opacity="1" stroke-width="4" stroke="none"></path></g><g><path d="M1293.31 368.44V368.34C1292.33 365.69 1291.83 362.84 1291.83 359.8 1291.83 345.76 1303.32 334.28 1317.36 334.28 1320.5 334.28 1323.45 334.86 1326.29 335.85 1333.75 317.1 1352.21 304.63 1372.24 304.63 1390.3 304.63 1406.89 314.45 1415.63 330.35 1419.06 329.17 1422.5 328.58 1425.74 328.58 1442.92 328.58 1456.96 342.62 1456.96 359.8 1456.96 362.75 1456.56 365.69 1455.78 368.34V368.44H1293.31Z" fill="#ffffff" opacity="1" stroke-width="4" stroke="none"></path><path d="M142.95 310.62L142.85 310.52C142.75 310.32 142.75 310.03 142.75 309.73 142.75 289.31 159.34 272.72 179.76 272.72 183.29 272.72 186.73 273.21 189.87 274.2 198.61 261.53 212.84 253.97 228.16 253.97 253.68 253.97 274.49 274.79 274.49 300.31 274.49 303.65 274.1 307.08 273.41 310.42V310.62H142.95V310.62Z" fill="#ffffff" opacity="1" stroke-width="4" stroke="none"></path></g><g><path d="M1061.06 810.4V622.12H1361.21L1370.4 754.32H1281.18L1180.54 810.4H1061.06Z" fill="#3c2c5b" stroke-linejoin="round" opacity="1" stroke-width="4" stroke="none"></path><path d="M713.19 622.35H439.87V754.55H713.19V622.35Z" fill="#3c2c5b" opacity="1" stroke-width="4" stroke="none"></path><path d="M1383.12 661.53C1402.45 661.53 1418.12 645.86 1418.12 626.53 1418.12 607.2 1402.45 591.53 1383.12 591.53 1363.79 591.53 1348.12 607.2 1348.12 626.53 1348.12 645.86 1363.79 661.53 1383.12 661.53Z" fill="#ffffff" opacity="1" stroke-width="4" stroke="none"></path><path d="M247.69 653.17C267.02 653.17 282.69 637.5 282.69 618.17 282.69 598.84 267.02 583.17 247.69 583.17 228.36 583.17 212.69 598.84 212.69 618.17 212.69 637.5 228.36 653.17 247.69 653.17Z" fill="#ffffff" opacity="1" stroke-width="4" stroke="none"></path><path d="M1388.32 603.32C1388.41 573.79 1367.34 548.73 1338.18 543.71L1152.23 511.69 1125.58 342.53 282.97 342.44 247.13 513.36V754.65H462.71V754.46C468.28 729.3 482.39 706.56 502.44 690.22 522.77 673.69 548.49 664.59 574.86 664.59 601.13 664.59 626.85 673.69 647.27 690.22 667.32 706.56 681.44 729.3 687.01 754.46V754.65H817.26L875.94 810.72H1120.94V779.53C1120.94 716.12 1172.47 664.59 1235.88 664.59 1262.15 664.59 1287.87 673.69 1308.29 690.22 1315.16 695.79 1321.29 702.19 1326.67 709.16H1388.32V603.32Z" fill="#ffc930" stroke-linejoin="round" opacity="1" stroke-width="4" stroke="none"></path><path d="M1388.32 661.16V603.32C1388.32 599.33 1387.95 595.33 1387.2 591.53" stroke="#1b1b1b" stroke-width="4" stroke-linecap="round" stroke-linejoin="round" opacity="1" fill="none"></path><path d="M1348.03 754.65V754.46C1341.43 727.91 1326.3 703.4 1303.83 686.78L1303.37 686.41H1400.02C1410.04 686.41 1418.12 694.58 1418.12 704.61V736.45C1418.12 746.48 1410.04 754.55 1400.02 754.55H1348.03V754.65Z" fill="#3c2c5b" stroke-linejoin="round" opacity="1" stroke-width="4" stroke="none"></path><path d="M230.79 754.55C220.77 754.55 212.69 746.48 212.69 736.45V704.61C212.69 694.58 220.77 686.5 230.79 686.5H299.12C304.04 686.5 308.59 688.45 312.03 691.89 315.37 695.32 317.23 699.78 317.23 704.51V754.55H230.79Z" fill="#3c2c5b" opacity="1" stroke-width="4" stroke="none"></path><path d="M495.01 269.09C487.31 269.09 481.09 262.87 481.09 255.17V236.23C481.09 228.52 487.31 222.3 495.01 222.3H600.29C608 222.3 614.22 228.52 614.22 236.23V255.17C614.22 262.87 608 269.09 600.29 269.09H495.01Z" fill="#3c2c5b" opacity="1" stroke-width="4" stroke="none"></path><path d="M882.99 269.09C875.29 269.09 869.07 262.87 869.07 255.17V236.23C869.07 228.52 875.29 222.3 882.99 222.3H988.27C995.98 222.3 1002.2 228.52 1002.2 236.23V255.17C1002.2 262.87 995.98 269.09 988.27 269.09H882.99Z" fill="#3c2c5b" opacity="1" stroke-width="4" stroke="none"></path><path d="M1181.1 499.71C1173.39 499.71 1167.17 493.49 1167.17 485.78V413.92C1167.17 406.22 1173.39 400 1181.1 400H1200.04C1207.74 400 1213.96 406.22 1213.96 413.92V485.78C1213.96 493.49 1207.74 499.71 1200.04 499.71H1181.1Z" fill="#3c2c5b" opacity="1" stroke-width="4" stroke="none"></path><path d="M1235.97 866.98C1284.27 866.98 1323.42 827.83 1323.42 779.53 1323.42 731.23 1284.27 692.07 1235.97 692.07 1187.67 692.07 1148.51 731.23 1148.51 779.53 1148.51 827.83 1187.67 866.98 1235.97 866.98Z" fill="#cecdce" opacity="1" stroke-width="4" stroke="none"></path><path d="M1235.97 804.78C1249.91 804.78 1261.22 793.47 1261.22 779.53 1261.22 765.58 1249.91 754.28 1235.97 754.28 1222.02 754.28 1210.72 765.58 1210.72 779.53 1210.72 793.47 1222.02 804.78 1235.97 804.78Z" fill="#3c2c5b" opacity="1" stroke-width="4" stroke="none"></path><path d="M574.95 866.98C623.25 866.98 662.4 827.83 662.4 779.53 662.4 731.23 623.25 692.07 574.95 692.07 526.65 692.07 487.49 731.23 487.49 779.53 487.49 827.83 526.65 866.98 574.95 866.98Z" fill="#cecdce" opacity="1" stroke-width="4" stroke="none"></path><path d="M574.95 804.78C588.89 804.78 600.2 793.47 600.2 779.53 600.2 765.58 588.89 754.28 574.95 754.28 561 754.28 549.7 765.58 549.7 779.53 549.7 793.47 561 804.78 574.95 804.78Z" fill="#3c2c5b" opacity="1" stroke-width="4" stroke="none"></path><path d="M898.87 776.74V402.13C898.87 385.05 912.7 371.13 929.78 371.13H1060.32C1077.4 371.13 1091.32 385.05 1091.32 402.13V776.74H898.87Z" fill="#cecdce" opacity="1" stroke-width="4" stroke="none"></path><path d="M1090.95 416.99C1090.95 400.09 1077.21 386.35 1060.32 386.35H929.78C912.98 386.35 899.24 400.09 899.24 416.99H898.87V402.13C898.87 385.05 912.7 371.13 929.78 371.13H1060.32C1077.4 371.13 1091.32 385.05 1091.32 402.13V416.99H1090.95Z" fill="#868686" opacity="0.2" stroke-width="4" stroke="none"></path><path d="M735.93 483.46C718.85 483.46 704.92 469.54 704.92 452.45V402.13C704.92 385.05 718.85 371.13 735.93 371.13H838.43C855.51 371.13 869.44 385.05 869.44 402.13V452.45C869.44 469.54 855.51 483.46 838.43 483.46H735.93Z" fill="#cecdce" opacity="1" stroke-width="4" stroke="none"></path><path d="M869.07 416.99C869.07 400.09 855.33 386.35 838.43 386.35H735.93C719.04 386.35 705.3 400.09 705.3 416.99H704.92V402.13C704.92 385.05 718.85 371.13 735.93 371.13H838.43C855.51 371.13 869.44 385.05 869.44 402.13V416.99H869.07Z" fill="#868686" opacity="0.2" stroke-width="4" stroke="none"></path><path d="M541.9 483.46C524.82 483.46 510.89 469.54 510.89 452.45V402.13C510.98 385.05 524.91 371.13 541.9 371.13H644.39C661.48 371.13 675.4 385.05 675.4 402.13V452.45C675.4 469.54 661.48 483.46 644.39 483.46H541.9Z" fill="#cecdce" opacity="1" stroke-width="4" stroke="none"></path><path d="M347.96 483.46C330.87 483.46 316.95 469.54 316.95 452.45V402.13C316.95 385.05 330.87 371.13 347.96 371.13H450.45C467.53 371.13 481.46 385.05 481.46 402.13V452.45C481.46 469.54 467.53 483.46 450.45 483.46H347.96Z" fill="#cecdce" opacity="1" stroke-width="4" stroke="none"></path><path d="M1091.32 557.92H898.87V589.86H1091.32V557.92Z" fill="#3c2c5b" opacity="1" stroke-width="4" stroke="none"></path><path d="M1091.32 754.28H898.87V810.72H1091.32V754.28Z" fill="#3c2c5b" opacity="1" stroke-width="4" stroke="none"></path><path d="M899.05 601.74H247.13V633.68H899.05V601.74Z" fill="#3c2c5b" opacity="1" stroke-width="4" stroke="none"></path><path d="M1291.39 636.55C1282.57 636.55 1275.42 629.41 1275.42 620.59 1275.42 611.77 1282.57 604.62 1291.39 604.62H1324.35C1333.17 604.62 1340.32 611.77 1340.32 620.59 1340.32 624.76 1338.74 628.76 1335.77 631.82 1332.71 634.88 1328.71 636.55 1324.35 636.55H1291.39Z" fill="#1b1b1b" opacity="0.2" stroke-width="4" stroke="none"></path><path d="M899.05 513.36H247.13V545.29H899.05V513.36Z" fill="#3c2c5b" opacity="1" stroke-width="4" stroke="none"></path><path d="M283.06 342.72L290.49 307.44C297.64 273.18 328.18 248.3 363.27 248.3H1143.78C1153.71 248.3 1162.9 252.76 1169.22 260.46 1175.44 268.17 1177.85 278.19 1175.81 287.85L1163.92 342.9 283.06 342.72Z" fill="#ffc930" opacity="1" stroke-width="4" stroke="none"></path><path d="M283.06 342.72L290.49 307.16 290.67 307.25C290.86 307.34 305.34 311.99 351.58 316.63 394.28 320.9 473.57 326.01 608.65 326.01 716.53 326.01 877.98 322.66 1034.04 306.79 1127.35 297.32 1175.07 287.66 1175.53 287.57L1175.81 287.48 1163.83 342.81 283.06 342.72Z" fill="#1b1b1b" opacity="0.2" stroke-width="4" stroke="none"></path><path d="M305.71 673.41C296.99 674.53 289.56 667.1 290.67 658.37 291.42 652.43 296.24 647.6 302.19 646.86 310.91 645.75 318.34 653.17 317.23 661.9 316.48 667.84 311.66 672.67 305.71 673.41Z" fill="#f7f6f5" opacity="1" stroke-width="4" stroke="none"></path><path d="M283.25 342.62L1125.49 342.72" stroke="#1b1b1b" stroke-width="4" stroke-linecap="round" stroke-linejoin="round" opacity="1" fill="none"></path><path d="M1116.48 365.93H1166.8C1179.89 365.93 1190.57 376.6 1190.57 389.69V510.11C1190.57 523.2 1179.89 533.87 1166.8 533.87H1116.48" stroke="#3c2c5b" stroke-width="4" stroke-linecap="round" stroke-linejoin="round" opacity="1" fill="none"></path><path d="M995.05 371.31V810.07" stroke="#868686" stroke-width="4" stroke-linecap="round" stroke-linejoin="round" opacity="1" fill="none"></path><path d="M675.03 416.99C675.03 400.09 661.29 386.35 644.39 386.35H541.9C525 386.35 511.26 400.09 511.26 416.99H510.89V402.13C510.89 385.05 524.82 371.13 541.9 371.13H644.39C661.48 371.13 675.4 385.05 675.4 402.13V416.99H675.03Z" fill="#868686" opacity="0.2" stroke-width="4" stroke="none"></path><path d="M481.09 416.99C481.09 400.09 467.35 386.35 450.45 386.35H347.96C331.06 386.35 317.32 400.09 317.32 416.99H316.95V402.13C316.95 385.05 330.87 371.13 347.96 371.13H450.45C467.53 371.13 481.46 385.05 481.46 402.13V416.99H481.09Z" fill="#868686" opacity="0.2" stroke-width="4" stroke="none"></path><path d="M1291.39 623.46C1283.04 623.46 1276.17 616.97 1275.52 608.8 1274.78 599.33 1282.48 591.53 1291.95 591.53H1324.35C1333.17 591.53 1340.32 598.68 1340.32 607.5 1340.32 611.67 1338.74 615.67 1335.77 618.73 1332.71 621.79 1328.71 623.46 1324.35 623.46H1291.39V623.46Z" fill="#ffffff" opacity="1" stroke-width="4" stroke="none"></path><path d="M246.95 583.17V653.17" stroke="#1b1b1b" stroke-width="4" stroke-linecap="round" stroke-linejoin="round" opacity="1" fill="none"></path></g><g><path d="M1122.76 676.64H1100.56V1061.56H1122.76V676.64Z" fill="#ff9edd" opacity="1" stroke-width="4" stroke="none"></path><path d="M1111.66 709.74C1107.99 709.74 1104.32 709.54 1100.76 709.14H1100.56V677.63H1122.76V709.14H1122.56C1118.99 709.54 1115.32 709.74 1111.66 709.74Z" fill="#260019" opacity="0.2" stroke-width="4" stroke="none"></path><path d="M1187.11 659.64C1228.8 617.95 1228.8 550.37 1187.11 508.69 1145.43 467.01 1077.85 467.01 1036.17 508.69 994.49 550.37 994.49 617.95 1036.17 659.64 1077.85 701.32 1145.43 701.32 1187.11 659.64Z" fill="#ffffff" opacity="1" stroke-width="4" stroke="none"></path><path d="M1122.56 692.1C1118.99 692.49 1115.32 692.69 1111.66 692.69 1107.99 692.69 1104.32 692.49 1100.76 692.1" stroke="#260019" stroke-width="4" stroke-linecap="round" stroke-linejoin="round" opacity="1" fill="none"></path><path d="M1080.84 642.74C1075.58 642.74 1071.32 638.48 1071.32 633.23V601.61C1071.32 596.36 1075.58 592.1 1080.84 592.1 1086.09 592.1 1090.35 596.36 1090.35 601.61V633.23C1090.35 638.48 1086.09 642.74 1080.84 642.74Z" fill="#61ccff" opacity="1" stroke-width="4" stroke="none"></path><path d="M1143.57 642.74C1138.32 642.74 1134.05 638.48 1134.05 633.23V601.61C1134.05 596.36 1138.32 592.1 1143.57 592.1 1148.82 592.1 1153.08 596.36 1153.08 601.61V633.23C1153.08 638.48 1148.82 642.74 1143.57 642.74Z" fill="#61ccff" opacity="1" stroke-width="4" stroke="none"></path><path d="M1071.22 581.5V553.25C1071.22 538.88 1082.92 527.19 1097.29 527.19H1127.02C1141.39 527.19 1153.08 538.88 1153.08 553.25V581.5H1071.22Z" fill="#ff9edd" opacity="1" stroke-width="4" stroke="none"></path><path d="M1153.08 581H1071.22V623.82H1153.08V581Z" fill="#61ccff" opacity="1" stroke-width="4" stroke="none"></path><path d="M1092.03 610.44C1087.18 610.44 1083.21 606.47 1083.21 601.62 1083.21 596.76 1087.18 592.8 1092.03 592.8 1096.89 592.8 1100.85 596.76 1100.85 601.62 1100.85 606.47 1096.89 610.44 1092.03 610.44Z" fill="#003852" opacity="1" stroke-width="4" stroke="none"></path><path d="M1131.48 610.44C1126.62 610.44 1122.66 606.47 1122.66 601.62 1122.66 596.76 1126.62 592.8 1131.48 592.8 1136.33 592.8 1140.3 596.76 1140.3 601.62 1140.3 606.47 1136.33 610.44 1131.48 610.44Z" fill="#003852" opacity="1" stroke-width="4" stroke="none"></path><path d="M1071.42 581.2H1152.88" stroke="#003852" stroke-width="4" stroke-linecap="round" stroke-linejoin="round" opacity="1" fill="none"></path><path d="M1071.42 623.62H1090.15" stroke="#003852" stroke-width="4" stroke-linecap="round" stroke-linejoin="round" opacity="1" fill="none"></path><path d="M1134.15 623.62H1152.88" stroke="#003852" stroke-width="4" stroke-linecap="round" stroke-linejoin="round" opacity="1" fill="none"></path></g><g><path d="M1170.48 1061.65V1061.45C1170.48 1033.15 1193.58 1010.15 1221.88 1010.15 1250.18 1010.15 1273.18 1033.15 1273.18 1061.45V1061.65H1170.48Z" fill="#3c2c5b" opacity="1" stroke-width="4" stroke="none"></path><path d="M1170.48 1061.65V1061.45C1170.48 1040.25 1183.28 1021.55 1202.98 1013.75L1203.18 1013.65 1203.28 1013.85C1208.08 1029.55 1217.68 1034.15 1226.18 1038.15 1228.98 1039.45 1231.58 1040.75 1233.98 1042.35 1246.98 1051.15 1245.98 1061.35 1245.98 1061.45V1061.65H1170.48Z" fill="#1c1c1c" opacity="0.2" stroke-width="4" stroke="none"></path><path d="M1163.88 1026.05C1169.88 1020.85 1176.68 1015.45 1185.18 1008.75 1226.68 976.45 1266.48 952.95 1279.88 952.95 1281.88 952.95 1283.18 953.45 1283.98 954.45 1284.58 955.25 1284.78 956.35 1284.68 957.65 1283.18 969.85 1250.58 1003.15 1207.18 1036.95 1200.28 1042.35 1193.18 1047.75 1185.98 1052.85L1185.78 1052.95 1163.88 1026.05Z" fill="#61ccff" opacity="1" stroke-width="4" stroke="none"></path><path d="M1163.88 1026.05C1169.88 1020.85 1176.68 1015.45 1185.18 1008.75 1186.08 1008.05 1186.98 1007.35 1187.88 1006.65 1189.88 1005.05 1191.98 1003.45 1194.08 1001.95L1194.18 1001.85H1194.28C1199.58 1003.55 1205.98 1004.35 1212.68 1004.35 1225.98 1004.35 1240.88 1000.95 1255.78 994.45L1256.08 994.75C1242.48 1008.05 1225.58 1022.65 1207.18 1036.85 1200.28 1042.25 1193.18 1047.65 1185.98 1052.75L1185.78 1052.85 1163.88 1026.05Z" fill="#686868" opacity="0.2" stroke-width="4" stroke="none"></path><path d="M1135.18 1012.95V1012.75C1135.18 1012.45 1135.18 1012.25 1135.28 1011.95 1135.28 1011.75 1135.28 1011.45 1135.28 1011.25 1139.48 967.35 1149.78 932.95 1158.78 932.95 1158.88 932.95 1158.98 932.95 1159.08 932.95 1167.98 933.75 1171.78 968.85 1167.88 1012.75V1012.95H1135.18Z" fill="#61ccff" opacity="1" stroke-width="4" stroke="none"></path><path d="M1135.18 1012.95V1012.75C1135.18 1012.45 1135.18 1012.25 1135.28 1011.95 1135.28 1011.75 1135.28 1011.45 1135.28 1011.25 1136.98 992.05 1140.28 972.95 1144.48 958.15H1144.88C1148.68 974.75 1160.28 982.45 1169.28 986.05H1169.38V986.15C1169.18 994.55 1168.68 1003.45 1167.88 1012.65V1012.85L1135.18 1012.95Z" fill="#686868" opacity="0.2" stroke-width="4" stroke="none"></path><path d="M1061.48 1061.65V1061.45C1061.48 1020.75 1094.68 987.65 1135.38 987.65 1176.08 987.65 1209.18 1020.75 1209.18 1061.45V1061.65H1061.48Z" fill="#3c2c5b" opacity="1" stroke-width="4" stroke="none"></path><path d="M1061.48 1061.65V1061.45C1061.48 1044.25 1067.48 1027.55 1078.48 1014.45L1078.78 1014.05V1014.65C1079.08 1032.25 1087.78 1040.25 1109.88 1043.15 1131.98 1046.05 1133.48 1061.25 1133.48 1061.45V1061.65H1061.48Z" fill="#1c1c1c" opacity="0.2" stroke-width="4" stroke="none"></path><path d="M1208.98 1061.25C1208.98 1053.35 1207.68 1045.75 1205.38 1038.65" stroke="#1c1c1c" stroke-width="4" stroke-linecap="round" stroke-linejoin="round" opacity="1" fill="none"></path><path d="M1196.38 948.95C1186.38 969.75 1172.28 1013.65 1169.28 1032.65" stroke="#636363" stroke-width="4" stroke-linecap="round" stroke-linejoin="round" opacity="1" fill="none"></path><path d="M1215.38 956.45C1208.58 956.45 1201.58 954.75 1194.98 951.45 1186.18 947.15 1179.18 940.45 1175.28 932.85 1171.38 925.15 1170.98 917.35 1174.18 910.85 1178.18 902.75 1187.38 897.95 1198.78 897.95 1205.58 897.95 1212.58 899.65 1219.18 902.95 1227.98 907.25 1234.98 913.95 1238.88 921.55 1242.78 929.25 1243.18 937.05 1239.98 943.55 1235.88 951.65 1226.78 956.45 1215.38 956.45Z" fill="#ffffff" opacity="1" stroke-width="4" stroke="none"></path><path d="M1207.98 930.75C1207.18 930.75 1206.38 930.55 1205.58 930.15 1204.58 929.65 1203.68 928.85 1203.28 927.95 1202.78 927.05 1202.78 926.05 1203.18 925.25 1203.68 924.25 1204.78 923.65 1206.18 923.65 1206.98 923.65 1207.78 923.85 1208.58 924.25 1210.78 925.35 1211.88 927.55 1211.08 929.15 1210.48 930.15 1209.38 930.75 1207.98 930.75Z" fill="#636363" opacity="1" stroke-width="4" stroke="none"></path></g><g><path d="M632.11 1022.19C633.22 1008.72 634.72 999.47 637.84 988.21 637.84 988.11 637.94 988.01 638.04 988.01 639.95 987.41 657.44 982.48 676.14 982.58 681.87 982.68 703.29 987.51 706.2 988.11 706.4 988.11 706.5 988.31 706.4 988.51 703.99 994.65 702.68 998.47 701.18 1002.49 701.18 1002.59 701.07 1002.69 700.87 1002.69L684.89 1002.89C679.06 1002.89 676.75 1008.32 674.94 1014.05L671.12 1024.81C671.12 1024.91 670.92 1025.01 670.81 1025.01L632.11 1022.19Z" fill="#cf5934" opacity="1" stroke-width="4" stroke="none"></path><path d="M725.4 1021.79C723.9 1011.84 722.79 1001.08 722.19 988.51 722.19 988.41 722.19 988.31 722.29 988.21 724 987.21 740.68 977.96 757.07 977.86 773.16 977.86 789.04 986.81 790.65 987.81 790.75 987.81 790.75 987.91 790.75 988.01 790.85 994.24 791.45 997.86 791.86 1001.68 791.86 1001.78 791.86 1001.78 791.76 1001.89L772.65 1028.53C772.55 1028.63 772.45 1028.63 772.35 1028.63 769.44 1028.02 730.43 1022.29 727.53 1022.26 725.5 1021.99 725.4 1021.89 725.77 1024.01Z" fill="#cf5934" opacity="1" stroke-width="4" stroke="none"></path><path d="M691.62 695.16C691.52 695.16 691.52 695.06 691.52 694.96V650.42C691.52 636.75 699.16 618.45 718.27 607.5 724.2 604.08 724.2 601.26 732.44 601.26 753.25 601.26 764.91 608 768.93 618.05 769.54 619.66 770.24 621.97 771.25 625.69 772.96 632.23 774.87 641.38 775.27 645.7 775.27 645.8 775.37 645.9 775.47 645.9 782.81 649.32 783.01 653.34 775.87 657.16V657.66C777.68 677.77 771.45 692.14 747.52 689.03 747.32 689.03 747.22 689.13 747.22 689.33 747.22 690.44 747.22 694.15 747.22 694.86 747.22 694.96 747.22 695.06 747.12 695.06 745.81 696.07 733.04 705.11 719.98 705.01 706.7 705.01 693.13 695.96 691.62 695.16Z" fill="#cf5934" opacity="1" stroke-width="4" stroke="none"></path><path d="M732.94 683.5C740.08 687.52 745.71 688.83 747.02 688.93 747.12 688.93 747.22 689.03 747.22 689.23 747.22 690.54 747.22 696.47 747.22 698.58 747.22 698.88 746.92 698.98 746.72 698.78L732.54 684C732.34 683.7 732.64 683.4 732.94 683.5Z" fill="#030202" opacity="0.2" stroke-width="4" stroke="none"></path><path d="M790.45 962.17C790.35 949.81 790.25 935.84 789.64 919.45 787.53 862.14 773.16 813.89 772.15 810.47 772.15 810.37 772.05 810.27 771.85 810.27 754.26 809.97 690.52 810.27 674.03 810.17 673.93 810.17 673.83 810.27 673.73 810.37 656.54 851.49 663.58 891.7 656.84 931.01 653.12 950.61 643.07 969.21 637.94 987.81 637.94 988.01 638.04 988.21 638.24 988.21 643.57 988.21 702.58 988.41 706.3 988.41 706.4 988.41 706.5 988.31 706.6 988.21 711.73 974.84 717.26 959.66 720.78 945.29 720.88 944.98 721.28 944.98 721.38 945.39 721.78 951.32 721.99 957.55 721.78 964.49 721.58 973.74 721.89 982.78 722.19 988.21 722.19 988.41 722.29 988.51 722.49 988.51 727.11 988.51 786.02 988.11 790.55 988.11 790.75 988.11 790.85 988.01 790.85 987.81 790.65 980.17 790.55 972.03 790.45 962.17Z" fill="#ff9edd" opacity="1" stroke-width="4" stroke="none"></path><path d="M721.28 943.98L719.57 930.21 711.53 895.62 702.28 863.75C702.28 863.75 703.29 857.62 708.21 856.92 708.92 856.82 709.62 856.82 710.22 856.82 713.44 856.82 716.15 858.02 718.37 860.34 726.71 869.08 726.71 891.8 726.01 908.19 725 934.63 726.81 928.5 721.28 943.98Z" fill="#8f005d" opacity="0.2" stroke-width="4" stroke="none"></path><path d="M702.38 864.56C708.41 889.59 718.27 912.51 721.08 944.98" stroke="#8f005d" stroke-width="4" stroke-linecap="round" stroke-linejoin="round" opacity="1" fill="none"></path><path d="M824.93 729.04C824.83 728.94 824.83 728.84 824.83 728.64 837.7 704.51 852.88 676.26 851.57 697.87 851.57 698.28 852.07 698.48 852.28 698.08 856.3 691.44 864.24 680.88 869.37 680.88 870.47 680.88 871.28 681.39 871.98 682.19 872.08 682.39 872.28 682.39 872.48 682.29 875.6 680.58 879.12 680.08 880.02 686.31 880.02 686.51 880.12 686.61 880.32 686.61 884.04 687.52 884.55 691.44 883.04 695.96 883.04 696.07 883.04 696.17 883.04 696.27 889.17 703.5 871.98 739.09 866.15 754.27 866.15 754.37 866.05 754.47 865.85 754.47 855.69 754.17 827.54 731.05 824.93 729.04Z" fill="#cf5934" opacity="1" stroke-width="4" stroke="none"></path><path d="M650.31 820.12C641.86 820.12 635.43 816.91 631.1 810.47 613.51 784.33 648.8 730.55 661.87 717.78 677.05 703 688.81 701.09 691.22 700.89 691.32 700.89 691.42 700.79 691.42 700.59V694.86C691.42 694.66 691.52 694.56 691.73 694.56H746.92C747.12 694.56 747.22 694.66 747.22 694.86V700.59C747.22 700.69 747.32 700.89 747.42 700.89 750.74 701.29 772.86 704.51 785.82 718.99 798.19 732.96 809.95 747.14 812.36 750.05 812.47 750.25 812.77 750.15 812.87 750.05 814.17 747.64 819.6 737.38 825.33 727.73 825.43 727.63 825.63 727.53 825.74 727.63 828.95 729.74 862.93 752.46 865.85 754.37 865.95 754.47 866.05 754.57 865.95 754.68 857.7 773.17 845.34 796.5 832.17 802.93 807.94 815.5 786.83 795.89 780.29 785.74 780.19 785.54 779.89 785.54 779.79 785.84 778.69 789.36 772.86 807.86 772.15 809.97 772.15 810.07 772.05 810.17 771.85 810.17L680.06 810.57C679.96 810.57 679.96 810.57 679.96 810.57 678.56 811.48 664.08 820.12 650.31 820.12Z" fill="#61ccff" opacity="1" stroke-width="4" stroke="none"></path><path d="M691.83 679.68C691.62 679.68 691.52 679.58 691.52 679.38 691.42 677.67 691.42 669.62 691.42 662.49 694.81 656.79 695.14 652.33 695.75 650.59 700.7 636.73 706.6 626.89 715.05 609.51 720.98 606.09 724.1 601.16 732.34 601.16 756.07 601.66 766.82 608.4 770.44 623.08 770.44 623.18 770.44 623.18 770.44 623.28 769.84 625.39 759.58 628 753.35 626.4 752.75 626.5 751.24 625.39 751.14 626.19 751.14 637.35 744.2 643.59 742.9 644.69 742.8 644.79 742.59 644.79 742.49 644.69 741.29 643.29 733.95 634.84 724.2 634.84 717.66 634.74 711.13 640.97 711.23 647.71 710.63 654.75 719.37 666.21 721.38 668.12 721.48 668.22 721.48 668.42 721.38 668.52 714.14 678.27 693.84 679.48 691.83 679.68Z" fill="#010005" opacity="1" stroke-width="4" stroke="none"></path><path d="M632.11 1022.49C632.11 1022.39 632.21 1022.19 632.41 1022.19L668.6 1022.09C668.7 1022.09 668.8 1021.99 668.9 1021.89L671.82 1012.34C673.63 1006.41 679.06 1002.49 685.19 1002.49L700.77 1002.79C700.97 1002.79 701.07 1002.99 700.97 1003.29 693.13 1024.71 695.95 1026.11 708.51 1039.58 711.03 1042.3 713.24 1044.41 714.65 1047.43 714.75 1047.63 714.65 1047.83 714.45 1047.83 710.42 1048.43 675.54 1053.86 674.13 1054.06H674.03L631.61 1047.73C631.51 1047.73 631.41 1047.63 631.41 1047.43 631.31 1045.32 631.41 1031.34 632.11 1022.49Z" fill="#3c2c5b" opacity="1" stroke-width="4" stroke="none"></path><path d="M631.61 1060.4C631.51 1059.19 631.31 1054.46 631.31 1047.83 631.31 1047.63 631.41 1047.53 631.61 1047.53 636.63 1047.53 710.32 1047.23 714.45 1047.23 714.55 1047.23 714.65 1047.33 714.75 1047.43 716.46 1050.54 716.96 1054.56 716.86 1060.19 716.86 1060.4 716.76 1060.5 716.56 1060.5 710.12 1060.5 636.94 1060.7 631.91 1060.7 631.71 1060.7 631.61 1060.6 631.61 1060.4Z" fill="#000000" stroke-linejoin="round" opacity="1" stroke-width="4" stroke="none"></path><path d="M730.33 1047.12C728.52 1039.89 726.71 1031.24 725.4 1022.29 725.4 1022.09 725.5 1021.99 725.71 1021.99 729.32 1021.99 762.4 1021.99 766.02 1021.99 766.22 1021.99 766.32 1021.79 766.32 1021.69L765.11 1013.85C764.21 1008.02 769.14 1002.29 775.07 1002.49 775.07 1002.49 789.44 1001.99 791.55 1001.89 791.76 1001.89 791.86 1001.99 791.86 1002.19 793.06 1017.67 799.7 1024.81 809.25 1032.95 819.9 1039.89 820.71 1045.82 820.71 1047.02 820.71 1047.12 820.61 1047.33 820.51 1047.33 818.2 1047.73 801.41 1052.86 776.17 1053.06 762.6 1053.16 732.94 1047.83 730.43 1047.33 730.43 1047.33 730.33 1047.23 730.33 1047.12Z" fill="#3c2c5b" opacity="1" stroke-width="4" stroke="none"></path><path d="M734.35 1060.6C733.45 1058.69 731.44 1051.05 730.43 1047.73 730.33 1047.53 730.53 1047.33 730.73 1047.33 737.07 1047.33 816.29 1047.33 820.61 1047.33 820.71 1047.33 820.81 1047.43 820.91 1047.53 822.42 1051.05 823.02 1055.27 823.42 1060.29 823.42 1060.5 823.32 1060.6 823.12 1060.6 816.18 1060.6 738.98 1060.7 734.65 1060.7 734.55 1060.7 734.45 1060.6 734.35 1060.6Z" fill="#000000" stroke-linejoin="round" opacity="1" stroke-width="4" stroke="none"></path><path d="M748.73 800.72L776.98 781.32C777.08 781.22 777.28 781.22 777.38 781.42L779.89 785.24C779.89 785.34 779.99 785.44 779.89 785.44L772.25 809.77C772.25 809.87 772.15 809.87 772.15 809.87L748.53 827.46C748.33 827.56 748.02 827.46 748.02 827.26L748.53 800.82C748.63 800.92 748.63 800.82 748.73 800.72Z" fill="#ffffff" opacity="1" stroke-width="4" stroke="none"></path><path d="M725.91 763.92L752.75 702C752.85 701.9 752.95 701.8 753.05 701.8 757.17 702.5 766.72 704.81 775.87 710.64 775.97 710.74 776.07 710.84 775.97 710.94 774.26 714.86 750.64 769.65 748.83 773.78 748.73 773.88 748.63 773.98 748.43 773.88L726.01 764.13C725.91 764.33 725.91 764.13 725.91 763.92Z" fill="#ffffff" opacity="1" stroke-width="4" stroke="none"></path><path d="M662.57 717.08C669.51 710.44 677.95 704.71 684.19 702.7 684.29 702.7 684.49 702.7 684.49 702.9 686.2 707.12 707.11 759.2 708.82 763.42 708.92 763.52 708.82 763.72 708.61 763.82 706 764.93 684.79 773.78 685.79 773.37 685.39 772.27 663.88 720.9 662.47 717.48 662.47 717.28 662.57 717.18 662.57 717.08Z" fill="#ffffff" opacity="1" stroke-width="4" stroke="none"></path><path d="M763.41 661.68C765.42 663.69 767.63 664 769.84 663.49" stroke="#030202" stroke-width="4" stroke-linecap="round" stroke-linejoin="round" opacity="1" fill="none"></path><path d="M765.92 648.71C767.31 648.71 768.43 647.59 768.43 646.2 768.43 644.81 767.31 643.69 765.92 643.69 764.53 643.69 763.41 644.81 763.41 646.2 763.41 647.59 764.53 648.71 765.92 648.71Z" fill="#010005" opacity="1" stroke-width="4" stroke="none"></path><path d="M691.32 650.32C691.32 636.65 691.42 613.53 710.42 602.57 716.36 599.15 724.1 597.24 732.34 597.24 767.63 597.24 770.95 622.88 771.25 625.39 771.25 625.49 771.15 625.59 771.05 625.69L738.57 640.77C738.47 640.77 738.37 640.77 738.27 640.77 734.55 637.56 725.5 633.23 719.07 636.25 710.93 640.07 711.03 648.01 711.83 652.63 711.83 652.74 711.83 652.84 711.63 652.94L691.73 662.29C691.52 662.39 691.32 662.29 691.32 661.98V650.32Z" fill="#ff9edd" opacity="1" stroke-width="4" stroke="none"></path><path d="M812.67 750.35L805.53 741.71" stroke="#000000" stroke-width="4" stroke-linecap="round" stroke-linejoin="round" opacity="1" fill="none"></path><path d="M674.94 844.45C663.98 844.65 655.73 837.31 658.05 826.46L669.71 764.93C671.42 755.38 680.16 750.25 689.71 750.25L720.28 747.94H740.79C750.44 747.94 757.88 755.28 758.08 764.93L758.98 826.46C759.08 831.68 756.87 837.01 753.05 840.93 749.13 844.95 743.8 847.17 738.47 847.17H717.16L681.67 844.85 674.94 844.45Z" fill="#000000" opacity="1" stroke-width="4" stroke="none"></path><path d="M653.62 847.27C642.67 847.47 634.42 837.31 636.73 826.46L648.4 764.93C650 755.38 658.75 747.94 668.4 747.94H719.47C729.12 747.94 736.56 755.28 736.76 764.93L737.67 826.46C737.77 831.68 735.56 837.01 731.74 840.93 727.82 844.95 722.49 847.17 717.16 847.17L653.62 847.27Z" fill="#3c2c5b" opacity="1" stroke-width="4" stroke="none"></path><path d="M796.48 1019.28L786.83 1025.11" stroke="#000000" stroke-width="4" stroke-linecap="round" stroke-linejoin="round" opacity="1" fill="none"></path><path d="M801.91 1026.11L794.77 1034.26" stroke="#000000" stroke-width="4" stroke-linecap="round" stroke-linejoin="round" opacity="1" fill="none"></path><path d="M696.45 1024.3L686.6 1027.92" stroke="#000000" stroke-width="4" stroke-linecap="round" stroke-linejoin="round" opacity="1" fill="none"></path><path d="M700.27 1031.44L693.03 1036.87" stroke="#000000" stroke-width="4" stroke-linecap="round" stroke-linejoin="round" opacity="1" fill="none"></path><path d="M779.99 785.24L774.46 776.69" stroke="#000000" stroke-width="4" stroke-linecap="round" stroke-linejoin="round" opacity="1" fill="none"></path><path d="M643.57 791.17H736.86" stroke="#000000" stroke-width="4" stroke-linecap="round" stroke-linejoin="round" opacity="1" fill="none"></path><path d="M690.32 613.33C678.66 613.33 669.11 603.78 669.11 592.11 669.11 580.45 678.66 570.9 690.32 570.9 701.98 570.9 711.53 580.45 711.53 592.11 711.53 603.78 701.98 613.33 690.32 613.33Z" fill="#ff9edd" opacity="1" stroke-width="4" stroke="none"></path><path d="M872.28 682.39C872.28 682.39 860.62 699.28 854.29 709.74" stroke="#030202" stroke-width="4" stroke-linecap="round" stroke-linejoin="round" opacity="1" fill="none"></path><path d="M879.92 686.72L863.13 715.57" stroke="#030202" stroke-width="4" stroke-linecap="round" stroke-linejoin="round" opacity="1" fill="none"></path><path d="M882.84 696.37L870.77 720.59" stroke="#030202" stroke-width="4" stroke-linecap="round" stroke-linejoin="round" opacity="1" fill="none"></path><path d="M726.21 651.23L731.44 656.96" stroke="#030202" stroke-width="4" stroke-linecap="round" stroke-linejoin="round" opacity="1" fill="none"></path><path d="M747.22 689.03C741.49 688.42 731.13 682.49 731.13 682.49" stroke="#030202" stroke-width="4" stroke-linecap="round" stroke-linejoin="round" opacity="1" fill="none"></path></g><g><path d="M473.6 480.99C470.8 466.69 466.8 444.39 465.6 436.99L465.7 441.59C463.3 429.19 458.9 405.98 472.3 393.98 480.8 386.38 492.8 376.98 505.6 376.98 512.4 376.98 519.3 383.28 525.3 385.68 534.01 388.88 539.21 392.98 543.21 399.08 546.81 404.48 549.41 411.38 552.31 420.39 552.31 420.49 552.41 420.59 552.51 420.59 553.91 420.79 560.01 421.69 560.61 424.49 561.41 427.59 557.71 432.49 556.91 433.59 556.81 433.69 556.81 433.79 556.91 433.89 562.21 450.49 562.01 459.59 556.41 467.49 552.01 474.39 537.01 477.09 528.21 473.89 528.01 473.79 527.81 473.99 527.81 474.19 528.01 475.49 528.61 479.29 528.81 480.39 528.81 480.59 528.71 480.99 528.51 480.99H473.6Z" fill="#e59763" opacity="1" stroke-width="4" stroke="none"></path><path d="M455.9 917.24C455.8 917.14 455.8 917.04 455.8 916.94 459.8 885.54 467 869.04 468.8 836.13 469.3 826.73 469.2 817.43 468.6 807.53 468.6 807.43 468.7 807.23 468.8 807.23 471.7 806.63 500.7 798.93 524 798.93 532.11 798.93 551.41 806.93 553.61 807.63 553.71 807.63 553.81 807.83 553.81 807.93 550.81 844.34 543.21 889.94 538.51 917.04 538.41 917.44 509.4 929.45 484.9 929.35 472.8 929.15 457.6 918.34 455.9 917.24Z" fill="#e59763" opacity="1" stroke-width="4" stroke="none"></path><path d="M469.1 824.42C469.1 817.62 468.9 812.52 468.6 807.52 468.6 807.32 468.7 807.22 468.9 807.22H514.9L515 807.62C514.9 807.42 474.4 822.62 469.5 824.62 469.3 824.72 469.1 824.62 469.1 824.42Z" fill="#030202" opacity="0.2" stroke-width="4" stroke="none"></path><path d="M325.48 877.64C342.08 851.94 358.29 836.73 372.09 807.63 372.09 807.53 372.19 807.43 372.29 807.43 376.49 807.23 407.79 801.03 413.89 801.03 437.29 800.93 462 807.33 462.1 807.23L462 807.53C447.1 841.03 418.59 884.14 400.89 911.14 400.89 911.24 400.79 911.24 400.69 911.24 398.89 911.64 376.59 913.44 355.18 903.84 344.68 899.14 327.38 879.84 325.58 877.94 325.38 877.84 325.38 877.74 325.48 877.64Z" fill="#e59763" opacity="1" stroke-width="4" stroke="none"></path><path d="M392.69 807.63C404.19 807.53 456.5 807.13 461.5 807.43 461.7 807.43 461.8 807.63 461.7 807.83 458.9 813.63 456.3 819.43 453.2 825.23 453.1 825.33 453 825.43 452.9 825.33 449.4 824.33 402.59 811.03 392.59 808.13 392.29 808.13 392.39 807.63 392.69 807.63Z" fill="#030202" opacity="0.2" stroke-width="4" stroke="none"></path><path d="M680.32 745.82C673.22 745.82 665.32 735.72 661.62 730.42 661.42 730.12 660.92 730.32 661.02 730.72 662.02 735.22 664.82 744.22 660.42 744.92 655.42 745.72 648.82 734.32 640.32 721.72 634.22 712.52 627.02 702.22 619.62 693.72 619.52 693.62 619.52 693.42 619.72 693.32 623.02 691.02 655.62 664.81 659.72 662.71 659.82 662.61 660.02 662.71 660.02 662.81 671.62 676.32 680.02 687.52 684.82 695.02V695.12C685.32 696.82 707.03 728.72 695.92 738.42 695.82 738.42 695.82 738.52 695.82 738.62 695.52 741.62 693.92 745.32 689.22 745.32 687.92 745.32 686.42 745.02 684.92 744.52 684.82 744.52 684.82 744.52 684.72 744.52 683.42 745.12 681.92 745.92 680.32 745.82Z" fill="#e59763" opacity="1" stroke-width="4" stroke="none"></path><path d="M612.52 706.12C576.81 674.82 553.71 630.31 549.41 621.71 549.31 621.41 548.91 621.51 548.91 621.81L547.21 636.71C547.21 636.81 547.11 637.01 546.91 637.01L459.7 637.21C459.6 637.21 459.6 637.21 459.5 637.31 458 638.81 437.99 660.81 437.89 660.31 430.19 657.51 424.19 653.91 419.39 649.71 391.99 625.51 408.69 580.7 422.09 544.4 429.49 525.7 437.39 510.5 442.7 504.7 454.2 491.99 471.8 488.59 475 488.09 475.2 488.09 475.3 487.89 475.2 487.79 474.8 485.59 474.2 483.39 473.8 481.09 473.8 480.89 473.9 480.79 474 480.79 478.1 480.29 524.9 480.79 528.71 480.79 528.81 480.79 529.01 480.89 529.01 480.99 529.21 482.39 530.61 489.89 530.81 491.19 530.81 491.29 530.91 491.39 531.01 491.39 534.81 491.89 568.11 498.09 584.11 542.2L609.11 607.11C609.11 607.11 609.11 607.21 609.21 607.21 610.41 608.41 637.62 636.61 659.72 662.41 659.82 662.51 659.82 662.71 659.72 662.81 656.62 665.81 616.12 703.92 612.82 706.22 612.72 706.22 612.62 706.22 612.52 706.12Z" fill="#61ccff" opacity="1" stroke-width="4" stroke="none"></path><path d="M437.49 660.11C429.59 657.21 424.19 653.81 419.59 649.91 419.39 649.81 419.49 649.51 419.69 649.41 438.99 639.41 441.19 617.61 442.9 601.91 444 591.81 444.8 583.7 449.8 582.6 450 582.6 450.1 582.7 450.1 582.8L457.7 636.51C457.7 636.61 457.7 636.71 457.6 636.71 456.2 638.31 437.79 660.71 437.49 660.11Z" fill="#519cbf" opacity="0.2" stroke-width="4" stroke="none"></path><path d="M517.7 469.99C522.2 472.39 526.6 473.39 527.61 473.59 527.71 473.59 527.81 473.69 527.81 473.79L528.91 480.59 529.61 484.89C529.61 485.19 529.31 485.39 529.11 485.09L517.3 470.39C517.2 470.19 517.5 469.79 517.7 469.99Z" fill="#030202" opacity="0.2" stroke-width="4" stroke="none"></path><path d="M410.59 577.39C374.39 576.79 364.49 534.59 394.49 518.29 394.59 518.19 394.69 517.99 394.59 517.89 383.19 501.19 381.49 481.28 390.29 464.48 398.89 447.98 416.19 438.08 436.49 438.08 442.5 438.08 448.8 438.98 455.1 440.48 455.3 440.48 455.5 440.38 455.4 440.18 455.1 426.78 453.4 400.57 471.5 386.77 485.9 375.87 507.7 372.97 524.7 379.67 532.61 382.77 539.01 390.07 543.11 398.87 543.21 398.97 543.11 399.07 543.01 399.17 542.11 400.07 537.21 404.57 528.31 404.57 526.3 404.57 524.2 404.37 522.1 403.77 521.9 403.67 521.7 403.97 521.8 404.17 526.2 412.97 524.3 426.68 517.6 432.68 517.5 432.78 517.4 432.78 517.3 432.68 515.9 431.88 506.9 425.88 498.7 425.78 493.7 425.78 490.2 428.08 488.2 432.68 482.3 446.78 504.4 458.58 506.2 459.58 506.3 459.58 506.3 459.68 506.3 459.78 511.5 502.49 488.3 540.99 432.39 521.89 432.29 521.89 432.09 521.89 432.09 521.99 430.59 524.69 420.19 546.09 410.89 577.09 410.79 577.29 410.69 577.39 410.59 577.39Z" fill="#010005" opacity="1" stroke-width="4" stroke="none"></path><path d="M543.01 441.59C544.51 444.59 549.01 445.09 551.31 444.29" stroke="#030202" stroke-width="4" stroke-linecap="round" stroke-linejoin="round" opacity="1" fill="none"></path><path d="M541.91 425.99C543.29 425.99 544.41 424.87 544.41 423.49 544.41 422.11 543.29 420.99 541.91 420.99 540.53 420.99 539.41 422.11 539.41 423.49 539.41 424.87 540.53 425.99 541.91 425.99Z" fill="#171314" opacity="1" stroke-width="4" stroke="none"></path><path d="M516.5 469.28C516.5 469.28 524 472.08 527.81 473.58" stroke="#030202" stroke-width="4" stroke-linecap="round" stroke-linejoin="round" opacity="1" fill="none"></path><path d="M502.3 439.78L509.8 444.28" stroke="#030202" stroke-width="4" stroke-linecap="round" stroke-linejoin="round" opacity="1" fill="none"></path><path d="M504.4 472.99C510.03 472.99 514.6 468.42 514.6 462.79 514.6 457.16 510.03 452.59 504.4 452.59 498.77 452.59 494.2 457.16 494.2 462.79 494.2 468.42 498.77 472.99 504.4 472.99Z" fill="#ffffff" opacity="1" stroke-width="4" stroke="none"></path><path d="M372.49 807.43C372.29 807.43 372.19 807.23 372.29 807.03 389.29 769.93 392.59 732.62 410.79 694.82 423.29 668.21 443 647.01 457.7 636.81 457.7 636.81 457.8 636.71 457.9 636.71 460.9 636.71 542.41 636.41 546.91 636.91 547.01 636.91 547.11 637.01 547.11 637.11 548.01 640.91 561.71 712.52 553.91 807.33 553.91 807.53 553.81 807.63 553.61 807.63 546.11 807.43 382.59 807.43 372.49 807.43Z" fill="#61ccff" opacity="1" stroke-width="4" stroke="none"></path><path d="M546.81 636.91C544.51 636.91 524.9 637.01 520.7 637.01 520.4 637.01 520.3 637.31 520.5 637.51 531.21 646.21 537.91 660.51 544.31 672.52 547.71 678.72 551.51 682.62 552.81 683.92 553.01 684.12 553.31 683.92 553.31 683.72 552.91 678.82 549.91 650.61 547.01 637.11 547.11 637.01 547.01 636.91 546.81 636.91Z" fill="#519cbf" opacity="0.2" stroke-width="4" stroke="none"></path><path d="M452.6 420.99C436.39 421.09 432.09 408.68 439.89 394.28 449 375.98 478.6 356.08 498 356.48 514.2 356.38 518.5 368.78 510.7 383.18 501.6 401.48 472.2 421.49 452.6 420.99Z" fill="#ff9edd" opacity="1" stroke-width="4" stroke="none"></path><path d="M451.3 606.11L441.9 610.41" stroke="#519cbf" stroke-width="4" stroke-linecap="round" stroke-linejoin="round" opacity="1" fill="none"></path><path d="M457.8 636.71L454.8 615.11H546.21L548.91 620.81 547.11 636.91 457.8 636.71Z" fill="#ffffff" opacity="1" stroke-width="4" stroke="none"></path><path d="M520 637.01C525.1 623.61 524.6 609.61 524.2 598.51 523.8 587.11 523.4 578.1 528.91 573.7 529.01 573.6 529.31 573.6 529.31 573.8 536.31 591.11 545.81 613.41 548.81 620.71V620.81C548.71 621.81 547.21 634.71 547.01 636.61 547.01 636.71 546.91 636.81 546.71 636.81L520 637.01Z" fill="#519cbf" opacity="0.2" stroke-width="4" stroke="none"></path><path d="M450.1 582.5L457.7 636.71C457.7 636.71 443 647.61 434.49 658.51" stroke="#519cbf" stroke-width="4" stroke-linecap="round" stroke-linejoin="round" opacity="1" fill="none"></path><path d="M548.91 620.81L529.21 573.5" stroke="#519cbf" stroke-width="4" stroke-linecap="round" stroke-linejoin="round" opacity="1" fill="none"></path><path d="M519.3 1061.26C517.4 1058.16 512.9 1052.06 509.8 1048.56 509.7 1048.46 509.7 1048.26 509.8 1048.16 516.2 1042.26 567.11 1046.96 567.11 1047.66 570.01 1050.76 573.01 1057.26 573.41 1060.96 573.41 1061.16 573.31 1061.26 573.11 1061.26 568.71 1061.26 519.3 1061.26 519.3 1061.26Z" fill="#6a3056" opacity="1" stroke-width="4" stroke="none"></path><path d="M509.5 1048.26C505.6 1043.46 499 1036.76 493.1 1033.96 492 1033.66 460.8 1024.66 458.3 1023.96 458.2 1023.96 458.1 1023.86 458.1 1023.76 454 1001.25 452.2 979.35 452.8 956.85 453.4 942.95 454.3 928.85 455.8 917.44 455.8 917.34 455.9 917.24 456.1 917.24 461 917.24 532.31 917.04 538.31 917.04 538.51 917.04 538.61 917.24 538.61 917.34 538.41 918.24 538.01 920.64 537.71 922.44 535.41 935.45 533.51 946.75 531.81 957.65 528.51 985.35 522.6 1010.15 539.51 1025.06 543.61 1028.46 547.31 1031.26 551.31 1034.36 558.61 1039.86 561.81 1041.36 566.81 1047.36 567.01 1047.56 566.81 1047.86 566.61 1047.86 560.61 1047.96 512.7 1048.46 509.8 1048.56 509.6 1048.36 509.6 1048.36 509.5 1048.26Z" fill="#ff9edd" opacity="1" stroke-width="4" stroke="none"></path><path d="M467.4 1061.06C464.6 1053.96 459.6 1034.16 458.1 1024.16 458.1 1023.96 458.2 1023.86 458.4 1023.86 461.2 1024.26 479.5 1027.16 492.9 1033.86 493 1033.86 493.1 1033.96 493.1 1034.16 493.1 1036.36 493 1058.26 493 1060.96 493 1061.16 492.9 1061.26 492.7 1061.26 490.1 1061.26 469.8 1061.26 467.7 1061.26 467.6 1061.26 467.5 1061.16 467.4 1061.06Z" fill="#6a3056" opacity="1" stroke-width="4" stroke="none"></path><path d="M614.12 684.72C609.61 684.72 606.01 681.12 606.01 676.62 606.01 672.12 609.61 668.51 614.12 668.51 618.62 668.51 622.22 672.12 622.22 676.62 622.22 681.12 618.62 684.72 614.12 684.72Z" fill="#ffffff" opacity="1" stroke-width="4" stroke="none"></path><path d="M530.81 491.28C530.81 491.28 534.41 491.58 538.81 493.28" stroke="#519cbf" stroke-width="4" stroke-linecap="round" stroke-linejoin="round" opacity="1" fill="none"></path><path d="M490.1 974.65C484.3 974.75 479.2 969.45 479.6 963.65 479.6 963.65 481.7 921.14 481.9 917.34 481.9 917.14 482 917.04 482.2 917.04L510.3 916.94C510.5 916.94 510.6 917.14 510.6 917.24L500.5 966.15C499.4 971.25 495.1 974.65 490.1 974.65Z" fill="#6a3056" opacity="1" stroke-width="4" stroke="none"></path><path d="M321.18 1038.96C320.58 1035.56 318.78 1028.36 317.28 1023.76 317.18 1023.56 317.38 1023.36 317.58 1023.36 321.28 1024.26 343.28 1028.66 344.38 1028.96H344.48C345.68 1029.66 369.89 1045.26 371.49 1046.26 371.59 1046.26 371.59 1046.36 371.59 1046.36 373.09 1050.66 373.29 1057.46 372.19 1060.96 372.09 1061.16 371.99 1061.16 371.79 1061.16 367.79 1059.36 324.08 1040.26 321.28 1039.06L321.18 1038.96Z" fill="#6a3056" opacity="1" stroke-width="4" stroke="none"></path><path d="M317.08 1023.16C314.58 1015.46 311.38 1009.05 308.28 1005.45 307.58 1004.75 283.38 982.55 281.48 980.85 281.38 980.75 281.38 980.65 281.38 980.55 289.48 945.25 305.88 908.14 325.18 877.94 325.28 877.84 325.38 877.74 325.48 877.84 329.68 879.44 395.29 908.94 400.39 911.14 400.59 911.24 400.59 911.44 400.49 911.54 392.09 924.64 382.19 939.35 374.89 950.85 362.39 972.25 345.78 993.85 355.58 1014.36 357.99 1019.16 360.39 1023.36 362.69 1027.66 366.39 1034.36 369.69 1040.06 371.39 1045.76 371.49 1045.96 371.19 1046.16 370.99 1046.06 365.49 1043.76 319.78 1024.36 317.18 1023.26 317.08 1023.26 317.08 1023.26 317.08 1023.16Z" fill="#ff9edd" opacity="1" stroke-width="4" stroke="none"></path><path d="M274.88 1018.56C275.18 1011.95 278.88 990.05 281.28 981.05 281.38 980.85 281.58 980.75 281.68 980.95 299.18 993.15 307.28 1004.05 308.18 1005.35 308.28 1005.45 308.28 1005.55 308.18 1005.65 307.38 1007.45 299.18 1026.36 298.18 1028.76 298.08 1028.86 297.98 1028.96 297.78 1028.86L274.98 1018.86C274.98 1018.76 274.88 1018.66 274.88 1018.56Z" fill="#6a3056" opacity="1" stroke-width="4" stroke="none"></path><path d="M335.18 944.04C327.68 944.24 322.08 935.64 325.78 928.94 325.78 928.94 344.68 890.63 346.38 887.23 346.48 887.13 346.58 887.03 346.78 887.13L372.39 898.63C372.59 898.73 372.59 898.93 372.49 899.03L343.78 939.64C341.78 942.34 338.58 944.04 335.18 944.04Z" fill="#6a3056" opacity="1" stroke-width="4" stroke="none"></path><path d="M466.4 376.98L470.6 382.38" stroke="#52143c" stroke-width="4" stroke-linecap="round" stroke-linejoin="round" opacity="1" fill="none"></path><path d="M695.82 738.41C695.82 738.41 684.52 714.61 675.52 700.81" stroke="#030202" stroke-width="4" stroke-linecap="round" stroke-linejoin="round" opacity="1" fill="none"></path><path d="M684.82 744.42C684.82 744.42 669.42 716.32 664.52 708.52" stroke="#030202" stroke-width="4" stroke-linecap="round" stroke-linejoin="round" opacity="1" fill="none"></path><path d="M661.12 730.31C661.12 730.31 659.32 724.11 654.42 716.31" stroke="#030202" stroke-width="4" stroke-linecap="round" stroke-linejoin="round" opacity="1" fill="none"></path></g></svg>