<svg xmlns="http://www.w3.org/2000/svg" height="1200" width="1600" version="1.1" xmlns:xlink="http://www.w3.org/1999/xlink" xmlns:svgjs="http://svgjs.com/svgjs"><rect fill="#ffffff" width="1600" height="1200"></rect><g><path d="M646.08 991.07C659.05 991.07 669.56 980.56 669.56 967.59 669.56 954.62 659.05 944.1 646.08 944.1 633.1 944.1 622.59 954.62 622.59 967.59 622.59 980.56 633.1 991.07 646.08 991.07Z" fill="#ffc930" opacity="1" stroke-width="4" stroke="none"></path></g><g><path d="M820 910.95C831.01 910.95 839.94 902.02 839.94 891.01 839.94 880 831.01 871.08 820 871.08 808.99 871.08 800.06 880 800.06 891.01 800.06 902.02 808.99 910.95 820 910.95Z" fill="#61ccff" opacity="1" stroke-width="4" stroke="none"></path></g><g><path d="M304 507.33C313.93 507.33 321.98 499.28 321.98 489.35 321.98 479.42 313.93 471.37 304 471.37 294.07 471.37 286.02 479.42 286.02 489.35 286.02 499.28 294.07 507.33 304 507.33Z" fill="#61ccff" opacity="1" stroke-width="4" stroke="none"></path></g><g><path d="M1329.61 362.23C1339.67 362.23 1347.82 354.08 1347.82 344.02 1347.82 333.97 1339.67 325.81 1329.61 325.81 1319.55 325.81 1311.4 333.97 1311.4 344.02 1311.4 354.08 1319.55 362.23 1329.61 362.23Z" fill="#61ccff" opacity="1" stroke-width="4" stroke="none"></path></g><g><path d="M646.08 263.1C659.05 263.1 669.56 252.58 669.56 239.61 669.56 226.64 659.05 216.13 646.08 216.13 633.1 216.13 622.59 226.64 622.59 239.61 622.59 252.58 633.1 263.1 646.08 263.1Z" fill="#ffc930" opacity="1" stroke-width="4" stroke="none"></path></g><g><path d="M558.95 323.66L1099.15 325.92C1120.73 325.92 1119.08 330.1 1119.08 351.67L1139.52 391.68V771.39C1139.52 792.97 1122.03 810.45 1100.46 810.45H557.12C535.55 810.45 518.07 792.97 518.07 771.39V391.68L536.77 355.67C536.77 334.1 537.38 323.66 558.95 323.66Z" fill="#efdcd7" opacity="1" stroke-width="4" stroke="none"></path><path d="M557.12 311.65H1100.46C1122.03 311.65 1139.52 329.14 1139.52 350.71V391.68H518.07V350.71C518.07 329.14 535.55 311.65 557.12 311.65Z" fill="#ffffff" opacity="1" stroke-width="4" stroke="none"></path><path d="M1082.1 369.15C1091.53 369.15 1099.15 361.52 1099.15 352.1 1099.15 342.68 1091.53 335.05 1082.1 335.05 1072.69 335.05 1065.05 342.68 1065.05 352.1 1065.05 361.52 1072.69 369.15 1082.1 369.15Z" stroke="#efdcd7" stroke-width="4" stroke-linecap="round" stroke-linejoin="round" opacity="1" fill="none"></path><path d="M1063.92 370.28L1070.1 364.11" stroke="#efdcd7" stroke-width="4" stroke-linecap="round" stroke-linejoin="round" opacity="1" fill="none"></path></g><g><path d="M609.95 471.43H773.88C784.3 471.43 792.79 479.92 792.79 490.34 792.79 500.77 784.3 509.26 773.88 509.26H609.95C599.53 509.26 591.03 500.77 591.03 490.34 591.03 479.92 599.53 471.43 609.95 471.43Z" fill="#61ccff" opacity="1" stroke-width="4" stroke="none"></path><path d="M609.95 549.61H705.78C716.21 549.61 724.7 558.1 724.7 568.52 724.7 578.95 716.21 587.44 705.78 587.44H609.95C599.53 587.44 591.03 578.95 591.03 568.52 591.03 558.1 599.53 549.61 609.95 549.61Z" fill="#afcedd" opacity="1" stroke-width="4" stroke="none"></path><path d="M768.83 549.61H799.1C809.52 549.61 818.01 558.1 818.01 568.52 818.01 578.95 809.52 587.44 799.1 587.44H768.83C758.41 587.44 749.92 578.95 749.92 568.52 749.92 558.1 758.41 549.61 768.83 549.61Z" fill="#ff9edd" opacity="1" stroke-width="4" stroke="none"></path><path d="M609.95 627.79H633.49C643.91 627.79 652.4 636.28 652.4 646.71 652.4 657.13 643.91 665.62 633.49 665.62H609.95C599.53 665.62 591.03 657.13 591.03 646.71 591.03 636.28 599.53 627.79 609.95 627.79Z" fill="#afcedd" opacity="1" stroke-width="4" stroke="none"></path><path d="M696.54 627.79H837.77C848.19 627.79 856.68 636.28 856.68 646.71 856.68 657.13 848.19 665.62 837.77 665.62H696.54C686.11 665.62 677.62 657.13 677.62 646.71 677.62 636.28 686.11 627.79 696.54 627.79Z" fill="#ff9edd" opacity="1" stroke-width="4" stroke="none"></path><path d="M900.82 627.79H1021.87C1032.29 627.79 1040.78 636.28 1040.78 646.71 1040.78 657.13 1032.29 665.62 1021.87 665.62H900.82C890.39 665.62 881.9 657.13 881.9 646.71 881.9 636.28 890.39 627.79 900.82 627.79Z" fill="#dae8ef" opacity="1" stroke-width="4" stroke="none"></path><path d="M609.95 705.97H685.61C696.03 705.97 704.52 714.46 704.52 724.89 704.52 735.31 696.03 743.8 685.61 743.8H609.95C599.53 743.8 591.03 735.31 591.03 724.89 591.03 714.46 599.53 705.97 609.95 705.97Z" fill="#8f8d8e" opacity="1" stroke-width="4" stroke="none"></path><path d="M748.66 705.97H765.47C775.89 705.97 784.39 714.46 784.39 724.89 784.39 735.31 775.89 743.8 765.47 743.8H748.66C738.23 743.8 729.74 735.31 729.74 724.89 729.74 714.46 738.23 705.97 748.66 705.97Z" fill="#afcedd" opacity="1" stroke-width="4" stroke="none"></path><path d="M828.52 705.97H928.56C938.98 705.97 947.47 714.46 947.47 724.89 947.47 735.31 938.98 743.8 928.56 743.8H828.52C818.1 743.8 809.6 735.31 809.6 724.89 809.6 714.46 818.1 705.97 828.52 705.97Z" fill="#61ccff" opacity="1" stroke-width="4" stroke="none"></path></g><g><path d="M796.74 804.7C759.35 780.71 699.57 755.2 676.45 796.65 653.33 838.1 695.74 970.83 743.41 964.06 788.05 957.68 719.49 845.28 646.16 835.71 572.82 826.15 573.62 933.76 607.1 923.4 628.78 916.7 615.39 859.47 539.42 861.62" stroke="#231f20" stroke-width="4" stroke-linecap="round" stroke-linejoin="round" opacity="1" fill="none"></path></g><g><path d="M312.93 596.1L369.84 614.98 314.29 626.24 319.01 670.9 288.6 633.86 252.56 666.09 272.62 616.98 218.61 611.71 272.53 598.73 250.65 556.34 291.96 586.57 318.83 545.17 312.93 596.1Z" fill="#ff9edd" opacity="1" stroke-width="4" stroke="none"></path></g><g><path d="M797.17 174.45H987.94C1010.24 174.45 1028.32 192.53 1028.32 214.84V404.61C1028.32 426.92 1010.24 445 987.94 445H797.17C774.87 445 756.79 426.92 756.79 404.61V214.84C756.79 192.53 774.87 174.45 797.17 174.45Z" fill="#ffffff" opacity="1" stroke-width="4" stroke="none"></path><path d="M823.88 210.43L792.86 241.46" stroke="#272727" stroke-width="4" stroke-linecap="round" stroke-linejoin="round" opacity="1" fill="none"></path><path d="M823.88 241.46L792.86 210.43" stroke="#272727" stroke-width="4" stroke-linecap="round" stroke-linejoin="round" opacity="1" fill="none"></path></g><g><path d="M851.79 256.52C851.79 251.44 851.48 243.55 852 235.98 852 235.93 852.05 235.88 852.05 235.88L898.89 209.37C898.94 209.32 899.04 209.37 899.04 209.42L914.14 229.91V229.96L928.97 278.46C928.97 278.46 928.97 278.46 928.97 278.51 930.11 290.39 930.89 299.62 930.94 299.93 930.89 300.5 928.04 341.17 904.33 341.17 880.73 341.17 883.69 309.32 883.74 308.65L882.13 293.14C882.13 293.03 882.03 292.98 881.93 293.03 880.47 293.86 870.51 299.31 859.83 293.45 848 286.91 851.79 266.32 851.79 256.52Z" fill="#f49e73" opacity="1" stroke-width="4" stroke="none"></path><path d="M883.17 302.68L882.19 292.93C882.19 292.93 891.42 288.26 895.98 285.25L883.17 302.68Z" fill="#171717" opacity="0.2" stroke-width="4" stroke="none"></path><path d="M961.91 378.04L970.98 414.56 976.01 374.78 961.91 378.04Z" fill="#171717" opacity="0.2" stroke-width="4" stroke="none"></path><path d="M853.09 227.06C854.28 217.83 875.65 203.35 891.88 203.35 907.65 203.35 912.99 216.53 915.85 238.26 916.05 239.87 924.87 239.3 926.58 254.6 927.67 264.51 928.45 272.75 929.02 278.46 927.15 278.51 925.03 278.35 922.64 277.99 919.06 277.47 914.65 276.28 911.39 273.84 911.39 273.84 927.83 255.17 913.88 246.2 906.3 241.32 893.8 257.04 893.8 257.04 893.8 257.04 885.66 247.29 890.02 234.79 867.25 246.72 852 235.93 852 235.93 852.26 228.82 853.04 227.16 853.09 227.06Z" fill="#eeeeee" opacity="1" stroke-width="4" stroke="none"></path><path d="M908.48 259.27L903.87 264.66" stroke="#171717" stroke-width="4" stroke-linecap="round" stroke-linejoin="round" opacity="1" fill="none"></path><path d="M864.86 264.14C864.34 265.28 863.67 267.15 863.98 268.19 864.29 268.86 864.86 269.38 865.54 269.64" stroke="#171717" stroke-width="4" stroke-linecap="round" stroke-linejoin="round" opacity="1" fill="none"></path><path d="M871.86 272.29C871.92 274.31 870.31 276.02 868.23 276.07 868.18 276.07 868.13 276.07 868.08 276.07" stroke="#171717" stroke-width="4" stroke-linecap="round" stroke-linejoin="round" opacity="1" fill="none"></path><path d="M882.19 292.88L892.2 287.54" stroke="#171717" stroke-width="4" stroke-linecap="round" stroke-linejoin="round" opacity="1" fill="none"></path><path d="M874.82 258.18C875.88 258.18 876.74 257.32 876.74 256.26 876.74 255.2 875.88 254.34 874.82 254.34 873.76 254.34 872.9 255.2 872.9 256.26 872.9 257.32 873.76 258.18 874.82 258.18Z" fill="#17151c" opacity="1" stroke-width="4" stroke="none"></path><path d="M858.59 258.18C859.64 258.18 860.5 257.32 860.5 256.26 860.5 255.2 859.64 254.34 858.59 254.34 857.53 254.34 856.67 255.2 856.67 256.26 856.67 257.32 857.53 258.18 858.59 258.18Z" fill="#17151c" opacity="1" stroke-width="4" stroke="none"></path><path d="M917.45 190.91C927.48 190.91 935.61 182.78 935.61 172.75 935.61 162.73 927.48 154.6 917.45 154.6 907.43 154.6 899.3 162.73 899.3 172.75 899.3 182.78 907.43 190.91 917.45 190.91Z" fill="#efdcd7" opacity="1" stroke-width="4" stroke="none"></path><path d="M924.04 233.96C922.8 227.11 923.21 219.95 925.75 213.47 926.01 212.79 926.22 212.12 926.38 211.39 928.87 200.61 918.49 188.99 903.19 185.46 887.89 181.93 873.47 187.79 870.98 198.63 870.93 198.89 870.88 199.15 870.83 199.41 869.94 204.86 866.99 209.79 862.63 213.16 860.14 214.97 857.91 217.2 856.04 219.69 854.64 221.66 853.66 224.26 852.98 227.27L926.58 254.5C925.86 247.8 925.03 241.48 924.35 236.5 924.35 235.62 924.2 234.79 924.04 233.96Z" fill="#efdcd7" opacity="1" stroke-width="4" stroke="none"></path><path d="M1018.91 352.58C1002.73 331.21 981.3 311.91 965.17 305.64V305.59C964.45 305.33 963.67 305.07 962.94 304.81 945.88 299.1 930.99 299.93 930.99 299.93 930.99 299.93 920.67 323.79 901.69 323.79 885.4 323.79 883.79 308.59 883.79 308.59 883.79 308.59 872.17 311.34 860.25 323.79 860.25 323.79 844.53 340.39 831.61 366.89L866.47 390.6 868.91 416.01 966.57 449.1 974.09 389.97 979.02 394.23 1018.91 352.58Z" fill="#ffc930" opacity="1" stroke-width="4" stroke="none"></path><path d="M974.09 389.97L962.99 378.93" stroke="#161616" stroke-width="4" stroke-linecap="round" stroke-linejoin="round" opacity="1" fill="none"></path><path d="M932.91 425.76C919.37 419.28 870 411.65 870 411.65L867.66 390.65 831.61 366.89C827.57 375.14 823.06 384.16 820.88 394.02 819.27 401.49 819.37 415.29 821.4 423.01 823.89 432.4 828.04 440.13 837.58 443.19L942.92 466.89 952.98 468.61C952.98 468.61 958.43 468.61 957.34 462.64 960.04 463.16 961.91 462.38 963.31 461.03 964.91 459.42 963.31 455.59 963.31 455.59 963.31 455.59 967.09 455.07 964.4 449.1 961.8 443.45 946.45 432.3 932.91 425.76Z" fill="#f49e73" opacity="1" stroke-width="4" stroke="none"></path><path d="M870 411.65L867.66 390.65 860.87 386.14 857.44 413.73 870 411.65Z" fill="#171717" opacity="0.2" stroke-width="4" stroke="none"></path><path d="M870 411.65L855.89 413.99" stroke="#171717" stroke-width="4" stroke-linecap="round" stroke-linejoin="round" opacity="1" fill="none"></path><path d="M899.15 457.09L942.92 466.95 952.98 468.66C952.98 468.66 958.43 468.66 957.34 462.69 960.04 463.21 961.91 462.43 963.31 461.08 964.91 459.48 963.31 455.64 963.31 455.64L936.85 450.81 899.15 457.09Z" fill="#171717" opacity="0.2" stroke-width="4" stroke="none"></path><path d="M963.31 455.59C950.86 446.35 929.7 434.42 929.7 434.42" stroke="#171717" stroke-width="4" stroke-linecap="round" stroke-linejoin="round" opacity="1" fill="none"></path><path d="M957.03 462.95C944.27 455.07 924.2 443.14 924.2 443.14" stroke="#171717" stroke-width="4" stroke-linecap="round" stroke-linejoin="round" opacity="1" fill="none"></path><path d="M944.32 466.43C935.09 461.55 918.8 452.89 918.8 452.89" stroke="#171717" stroke-width="4" stroke-linecap="round" stroke-linejoin="round" opacity="1" fill="none"></path><path d="M1018.86 352.47L978.71 393.97 990.95 405.17 955.68 446.92C955.68 446.92 939.08 449.1 930.94 452.37 922.8 455.64 917.45 457.97 915.22 460.51 913.1 462.9 912.53 465.39 917.61 467.46 912.79 474.62 909.26 482.14 908.69 485.46 907.6 491.95 911.96 492.52 911.96 492.52 913.56 499.57 920.1 496.87 920.1 496.87 920.1 496.87 920.1 500.66 926.64 499.57 934.73 498.22 944.84 486.5 946.03 485.1H946.09C945.15 486.97 936.8 504.39 943.49 502.32 952.83 499.47 961.39 481.73 961.39 481.73 987.94 480.64 987.94 469.28 987.94 469.28 987.94 469.28 1040.54 439.97 1042.72 406.88 1043.65 392.1 1033.28 371.46 1018.86 352.47Z" fill="#f49e73" opacity="1" stroke-width="4" stroke="none"></path><path d="M985.3 400.19L990.95 405.17 1001.32 394.12 985.3 400.19Z" fill="#171717" opacity="0.2" stroke-width="4" stroke="none"></path><path d="M990.95 405.17L998.01 397.55" stroke="#171717" stroke-width="4" stroke-linecap="round" stroke-linejoin="round" opacity="1" fill="none"></path><path d="M911.96 492.52C911.96 492.52 916.68 483.28 931.87 465.39" stroke="#171717" stroke-width="4" stroke-linecap="round" stroke-linejoin="round" opacity="1" fill="none"></path><path d="M917.61 467.46C919.22 465.29 921.55 461.55 922.64 460.98" stroke="#171717" stroke-width="4" stroke-linecap="round" stroke-linejoin="round" opacity="1" fill="none"></path><path d="M920.1 496.87C920.1 496.87 930.47 483.91 941.83 471.98" stroke="#171717" stroke-width="4" stroke-linecap="round" stroke-linejoin="round" opacity="1" fill="none"></path><path d="M946.03 485.1C948.73 481.83 950.7 479.24 950.7 479.24" stroke="#171717" stroke-width="4" stroke-linecap="round" stroke-linejoin="round" opacity="1" fill="none"></path><path d="M867.66 390.65L864.03 359.06" stroke="#161616" stroke-width="4" stroke-linecap="round" stroke-linejoin="round" opacity="1" fill="none"></path></g><g><path d="M1040.08 572.61H1278.54C1306.42 572.61 1329.02 595.2 1329.02 623.09V860.31C1329.02 888.19 1306.42 910.79 1278.54 910.79H1040.08C1012.2 910.79 989.6 888.19 989.6 860.31V623.09C989.6 595.2 1012.2 572.61 1040.08 572.61Z" fill="#ffffff" opacity="1" stroke-width="4" stroke="none"></path><path d="M1073.47 617.58L1034.69 656.36" stroke="#272727" stroke-width="4" stroke-linecap="round" stroke-linejoin="round" opacity="1" fill="none"></path><path d="M1073.47 656.36L1034.69 617.58" stroke="#272727" stroke-width="4" stroke-linecap="round" stroke-linejoin="round" opacity="1" fill="none"></path></g><g><path d="M1061.93 763.29C1054.43 778.22 1048.76 789.87 1048.2 790.99 1048.2 791.07 1048.12 791.07 1048.12 790.99 1047.48 790.43 1043.49 787.07 1036.39 781.01 1030.96 776.22 1023.78 769.92 1015.4 762.41 983.55 733.28 952.35 705.19 949.87 704.47 946.04 703.43 941.33 711.49 946.6 720.19 946.6 720.27 946.6 720.35 946.52 720.27 927.05 712.37 899.83 702.31 905.18 719.31 905.18 719.39 905.18 719.39 905.1 719.39 897.36 720.43 895.84 724.9 898.07 729.93 898.07 730.01 898.07 730.01 897.99 730.01 893.76 731.05 892.41 733.84 892.97 736.47 895.04 747.01 919.7 756.51 923.85 758.02 923.93 758.02 923.93 758.18 923.85 758.18 914.91 757.3 898.47 755.31 898.95 760.66 899.59 768.56 936.06 774.07 937.26 774.22 937.26 774.22 937.26 774.22 937.34 774.22 952.83 792.74 966.15 793.14 966.95 793.14 966.95 793.14 967.03 793.14 967.03 793.22 1005.58 861.7 1063.45 951.25 1116.68 823.15L1116.44 822.99C1116.44 822.99 1064.48 764.65 1062.09 763.29 1061.93 763.21 1061.93 763.21 1061.93 763.29Z" fill="#f49e73" opacity="1" stroke-width="4" stroke="none"></path><path d="M1036.31 781.17L1039.1 809.82C1039.1 809.9 1039.18 809.9 1039.26 809.82L1048.04 791.07V790.99C1047.56 790.59 1043.41 787.07 1036.39 781.09 1036.39 781.09 1036.31 781.09 1036.31 781.17Z" fill="#171717" opacity="0.2" stroke-width="4" stroke="none"></path><path d="M1254.84 748.76L1126.9 680.04C1126.9 680.04 1126.9 680.04 1126.82 680.04 1116.28 682.83 1104.71 688.1 1097.85 698.31 1089.63 710.53 1073.42 740.38 1061.93 763.12V763.2L1115.33 824.9C1115.33 824.9 1115.25 824.1 1115.17 824.18 1115.17 824.18 1115.17 824.18 1115.17 824.26L1118.28 846.85C1118.28 846.85 1118.28 846.93 1118.36 846.93L1230.89 862.41C1230.89 862.41 1230.97 862.41 1230.97 862.49L1239.83 881.25 1239.91 881.33C1276.95 873.58 1284.85 848.44 1281.42 821.23 1277.98 794.17 1263.38 765.04 1254.84 748.76Z" fill="#61ccff" opacity="1" stroke-width="4" stroke="none"></path><path d="M1118.44 846.93H1234.96 1235.04C1252.76 873.19 1268.97 908.39 1270 910.63 1270 910.71 1270 910.71 1269.92 910.71H1109.74C1109.66 910.71 1109.66 910.63 1109.66 910.63L1118.44 846.93C1118.36 846.93 1118.36 846.93 1118.44 846.93Z" fill="#efdcd7" opacity="1" stroke-width="4" stroke="none"></path><path d="M1199.69 670.47H1190.19C1190.19 670.47 1190.11 670.47 1190.11 670.39 1185.4 656.34 1187.8 642.61 1181.41 632.32 1181.41 632.24 1181.41 632.24 1181.49 632.24 1209.98 626.01 1196.65 560.88 1155.07 601.11H1154.99C1154.03 600.87 1135.68 596.8 1118.36 587.62 1118.28 587.62 1118.28 587.62 1118.28 587.7 1117.64 592.33 1116.92 600.87 1116.84 605.5 1116.76 607.26 1116.68 608.85 1116.6 610.53 1116.6 610.53 1116.6 610.61 1116.52 610.61 1115.8 610.77 1108.46 612.12 1108.06 615.72 1107.5 620.03 1114.37 622.98 1115.01 623.3L1115.09 623.38C1113.49 633.75 1112.13 641.66 1116.76 650.2 1120.91 657.7 1128.73 666 1149.8 660.81 1149.88 660.81 1149.88 660.81 1149.88 660.89 1149.88 661.93 1149.96 670.71 1149.96 670.55 1149.96 670.63 1149.96 671.35 1149.96 672.3 1149.96 673.34 1149.96 674.62 1149.96 675.58 1149.88 676.61 1150.2 677.25 1149.72 677.17 1142.38 677.09 1132.72 678.29 1126.82 680.05 1126.74 680.05 1126.74 680.13 1126.74 680.13 1127.62 683.08 1146.37 743.66 1146.45 744.14 1150.84 759.06 1166.64 769.28 1180.53 768.8 1182.05 768.72 1256.91 768.88 1254.76 768.8 1253.72 766.88 1200.96 672.62 1199.69 670.47 1199.77 670.47 1199.77 670.47 1199.69 670.47Z" fill="#f49e73" opacity="1" stroke-width="4" stroke="none"></path><path d="M1150.12 672.14L1164.41 654.74C1164.49 654.66 1164.41 654.59 1164.33 654.66 1157.55 658.18 1150.6 660.57 1149.96 660.81 1149.96 660.81 1149.88 660.81 1149.88 660.89L1149.96 672.14C1149.96 672.14 1150.04 672.22 1150.12 672.14Z" fill="#171717" opacity="0.2" stroke-width="4" stroke="none"></path><path d="M1281.42 821.08C1276.71 787.55 1258.75 756.03 1254.84 748.84 1253.48 748.29 1197.45 724.98 1206.79 776.06 1210.06 793.78 1239.19 817.24 1239.19 817.24L1235.84 835.44C1235.84 835.44 1245.26 821.55 1269.28 821.55 1275.99 821.87 1280.7 821.31 1281.34 821.23 1281.42 821.16 1281.42 821.08 1281.42 821.08Z" fill="#2f2f2f" opacity="0.2" stroke-width="4" stroke="none"></path><path d="M1099.68 571.82C1105.67 591.77 1140.71 602.23 1156.59 607.5H1156.67C1157.47 606.62 1173.75 589.38 1187.8 598.72 1198.17 607.5 1192.58 624.26 1174.23 636.23 1174.23 636.23 1174.23 636.23 1174.23 636.31 1167.84 664.16 1174.23 675.34 1182.21 687.31V687.39C1159.06 755.23 1221.32 829.38 1293.95 800.72 1330.66 783.96 1329.86 737.75 1309.11 716.92V716.84C1325.79 630 1242.23 621.94 1220.76 624.74 1220.68 624.74 1220.68 624.74 1220.68 624.66 1220.44 623.62 1217.88 610.85 1215.33 599.67 1211.42 582.83 1205.83 557.37 1176.46 548.27 1160.42 543.33 1146.37 548.27 1137.27 553.38H1137.19C1121.95 535.98 1092.5 548.51 1099.68 571.82Z" fill="#ffc930" opacity="1" stroke-width="4" stroke="none"></path><path d="M1126.26 800.64C1119.87 815.01 1121.79 810.94 1115.25 824.27" stroke="#2f2f2f" stroke-width="4" stroke-linecap="round" stroke-linejoin="round" opacity="1" fill="none"></path><path d="M933.99 762.32L923.77 758.25" stroke="#171717" stroke-width="4" stroke-linecap="round" stroke-linejoin="round" opacity="1" fill="none"></path><path d="M940.37 748.76C925.53 741.58 906.61 734.32 897.99 730.09" stroke="#171717" stroke-width="4" stroke-linecap="round" stroke-linejoin="round" opacity="1" fill="none"></path><path d="M946.76 735.2C934.95 729.93 916.83 724.34 905.18 719.39" stroke="#171717" stroke-width="4" stroke-linecap="round" stroke-linejoin="round" opacity="1" fill="none"></path><path d="M964.08 728.17C957.69 725.3 952.35 722.51 946.6 720.27" stroke="#171717" stroke-width="4" stroke-linecap="round" stroke-linejoin="round" opacity="1" fill="none"></path><path d="M1164.33 654.59C1161.06 656.5 1153.48 659.61 1149.88 660.81" stroke="#171717" stroke-width="4" stroke-linecap="round" stroke-linejoin="round" opacity="1" fill="none"></path><path d="M1131.93 628.41C1130.09 632.88 1124.5 632.64 1122.91 631.84" stroke="#171717" stroke-width="4" stroke-linecap="round" stroke-linejoin="round" opacity="1" fill="none"></path><path d="M1169.52 618.9L1178.46 612.6" stroke="#171717" stroke-width="4" stroke-linecap="round" stroke-linejoin="round" opacity="1" fill="none"></path><path d="M1048.04 790.98L1039.34 809.89" stroke="#171717" stroke-width="4" stroke-linecap="round" stroke-linejoin="round" opacity="1" fill="none"></path><path d="M1309.11 716.84C1306.72 727.22 1300.33 737.59 1300.33 737.59" stroke="#171717" stroke-width="4" stroke-linecap="round" stroke-linejoin="round" opacity="1" fill="none"></path><path d="M1182.21 687.31C1189.39 696.89 1205.35 700.08 1205.35 700.08" stroke="#171717" stroke-width="4" stroke-linecap="round" stroke-linejoin="round" opacity="1" fill="none"></path><path d="M1126.66 612.04C1127.85 612.04 1128.81 611.08 1128.81 609.89 1128.81 608.7 1127.85 607.73 1126.66 607.73 1125.47 607.73 1124.5 608.7 1124.5 609.89 1124.5 611.08 1125.47 612.04 1126.66 612.04Z" fill="#30242a" opacity="1" stroke-width="4" stroke="none"></path><path d="M1241.59 804.31L1233.77 846.54" stroke="#2f2f2f" stroke-width="4" stroke-linecap="round" stroke-linejoin="round" opacity="1" fill="none"></path></g><g><path d="M759.57 456.4C757.3 454.72 754.28 454.39 751.59 455.48 751.51 455.48 751.42 455.48 751.51 455.39 753.1 451.28 749.58 448.85 745.13 449.69 731.95 452.04 719.2 466.3 702.33 469.75 702.24 469.75 702.16 469.66 702.24 469.58 712.06 457.07 715.5 448.76 703.84 452.96 675.72 463.11 610.17 541 608.07 543.52H607.99C605.72 541.59 602.03 537.81 597.33 533.36H597.24L578.28 556.03C578.28 556.03 578.28 556.03 578.28 556.11L574.75 594.72V594.8C592.46 605.96 618.31 616.79 639.38 601.43 663.63 583.81 680.59 549.4 697.62 512.47 697.62 512.47 697.62 512.47 697.71 512.38 712.06 507.35 725.91 502.56 735.31 494.76 756.63 477.21 763.01 467.23 759.65 463.79V463.7C760.57 463.03 762.17 458.83 759.57 456.4Z" fill="#a66241" opacity="1" stroke-width="4" stroke="none"></path><path d="M518.01 968.97C518.1 959.23 519.69 947.4 521.87 934.72 521.87 934.72 521.87 934.72 521.87 934.64L519.52 930.11 519.44 930.02 444.32 932.29H444.24L442.73 934.55C442.48 939.67 442.48 954.11 442.98 964.69 444.15 984.16 446.92 995.57 447.09 997 447.34 998.59 452.97 1000.1 453.3 1001.36 453.3 1001.36 453.3 1001.45 453.39 1001.45L510.63 1018.74C510.71 1018.74 510.71 1018.74 510.71 1018.65L518.52 980.04C518.18 976.94 517.93 973.16 518.01 968.97Z" fill="#a66241" opacity="1" stroke-width="4" stroke="none"></path><path d="M394.3 333.53C408.9 316.15 439.87 318.25 463.54 338.23 487.21 358.2 494.51 388.33 479.91 405.71 465.3 423.08 434.33 420.98 410.67 401.01 400.76 392.7 393.71 382.54 389.93 372.3 384.73 358.03 385.82 343.6 394.3 333.53Z" fill="#231f20" opacity="1" stroke-width="4" stroke="none"></path><path d="M415.87 389.16C405.8 384.88 397.49 378.76 390.19 372.46 390.1 372.38 390.02 372.46 390.02 372.54 393.21 381.02 398.41 389.25 405.97 396.63 420.49 410.9 439.03 418.37 455.15 417.28 463.29 416.78 470.51 414.26 476.38 409.14 481.5 404.52 484.78 398.56 486.29 391.93 486.29 391.85 486.2 391.85 486.2 391.85 467.15 400.24 440.8 399.99 415.87 389.16Z" fill="#000000" opacity="0.2" stroke-width="4" stroke="none"></path><path d="M536.31 413.09C531.86 404.45 524.06 395.89 512.98 392.19 504.33 388.92 488.97 388.84 475.46 395.8 453.72 406.96 453.3 426.19 454.98 442.72 455.57 448.26 457.83 470.33 459.51 483.59 459.51 483.68 459.51 483.68 459.6 483.68H512.47L518.18 483.51C518.26 483.51 518.26 483.43 518.26 483.43L517.68 476.71C517.68 476.63 517.76 476.63 517.76 476.63 532.45 478.89 544.95 475.79 548.98 467.4 553.6 458.08 549.24 445.99 546.3 438.19V438.1C546.8 437.68 551.42 433.65 550.33 430.38 549.4 427.78 542.44 427.19 541.77 427.11 541.77 427.11 541.68 427.11 541.68 427.02 540.34 422.32 538.58 417.54 536.31 413.09Z" fill="#a66241" opacity="1" stroke-width="4" stroke="none"></path><path d="M517.59 476.62C516.84 476.45 508.61 474.52 504.33 473.09 504.25 473.09 504.16 473.18 504.25 473.26L518.1 483.5C518.18 483.59 518.26 483.5 518.26 483.42L517.59 476.62C517.59 476.62 517.68 476.7 517.59 476.62Z" fill="#171717" opacity="0.2" stroke-width="4" stroke="none"></path><path d="M543.53 497.52C533.2 494.33 520.36 494.41 519.27 494.41 519.19 494.41 519.19 494.41 519.19 494.33L518.26 483.67C518.26 483.59 518.26 483.59 518.18 483.59H459.43C459.35 483.59 459.35 483.67 459.35 483.67 460.02 488.79 460.52 492.65 460.69 493.41 460.69 493.41 460.69 493.49 460.6 493.49 450.7 497.35 432.66 507.84 421.91 525.89 409.49 546.7 374.16 623.08 409.49 642.21 409.57 642.21 409.57 642.3 409.66 642.3 417.13 646.24 433.16 647.59 434.08 647.67H434.17L445.75 634.66C445.75 634.66 445.75 634.66 445.83 634.66L536.48 634.49C536.48 634.49 536.56 634.49 536.56 634.41L554.27 579.18C554.27 579.1 554.36 579.1 554.44 579.18 560.82 585.14 567.11 590.09 574.58 594.96 574.67 594.96 574.67 594.96 574.67 594.96L597.16 533.69V533.61C584.74 521.27 565.01 503.64 543.53 497.52Z" fill="#ffc930" opacity="1" stroke-width="4" stroke="none"></path><path d="M548.65 596.48L554.27 579.02V578.94L539.25 565.68C539.16 565.59 539.08 565.68 539.08 565.76L548.65 596.48V596.48Z" fill="#171717" opacity="0.2" stroke-width="4" stroke="none"></path><path d="M409.74 642.39C417.21 646.34 433.33 647.68 434.25 647.68H434.33L446.25 635.93V635.84L436.94 585.82C436.94 585.74 436.77 585.74 436.77 585.82 435.76 618.72 411.42 640.8 409.74 642.31 409.66 642.22 409.66 642.31 409.74 642.39Z" fill="#171717" opacity="0.2" stroke-width="4" stroke="none"></path><path d="M614.95 535.55C610.92 540.16 608.41 543.18 608.07 543.6V543.69L617.89 552.42 614.95 535.55Z" fill="#171717" opacity="0.2" stroke-width="4" stroke="none"></path><path d="M291.4 886.03C291.4 886.03 291.32 886.03 291.32 886.12 287.46 893.84 283.76 902.74 280.24 911.97 276.21 922.38 272.94 931.78 270.17 940.25 269.49 942.35 268.82 944.45 268.15 946.55 266.47 951.67 266.05 952.25 264.71 957.37V957.46L320.19 999.18C320.27 999.18 320.27 999.18 320.36 999.18L333.11 968.2C334.04 964.84 339.83 962.49 341.17 959.31 342.09 957.21 343.1 954.69 344.28 952.67 349.4 942.77 356.53 931.27 364.67 919.27V919.19L327.66 896.61 291.4 886.03Z" fill="#a66241" opacity="1" stroke-width="4" stroke="none"></path><path d="M536.39 634.33C526.07 634.33 458.09 633.99 445.92 634.16 445.92 634.16 445.92 634.16 445.83 634.16 386.75 682.33 388.34 745.2 345.37 803.19 302.98 858.42 294.34 880.07 291.4 885.95 291.4 886.03 291.4 886.03 291.4 886.03 294 887.21 362.49 918.1 364.67 919.1H364.76C392.7 880.07 418.89 841.38 440.38 799.58 446.25 788.59 451.96 777.68 457.42 767.1 457.42 767.02 457.58 767.02 457.58 767.1 462.87 790.1 467.32 814.1 460.1 840.04 448.85 880.75 443.9 908.53 442.73 934.71 442.73 934.8 442.73 934.8 442.81 934.8H521.71C521.71 934.8 521.79 934.8 521.79 934.71 522.55 930.43 523.47 925.9 524.39 921.12 529.43 895.01 535.97 866.14 538.74 841.55 551.59 728.83 536.9 637.18 536.39 634.33 536.48 634.33 536.48 634.41 536.39 634.33Z" fill="#61ccff" opacity="1" stroke-width="4" stroke="none"></path><path d="M337.81 969.22C338.74 965.86 339.74 962.5 341.17 959.31 341.17 959.23 341.17 959.23 341.09 959.23 334.96 957.55 324.05 955.03 318.85 955.96 318.76 955.96 314.65 956.8 314.65 966.7 314.65 977.61 315.91 989.53 310.45 987.51 304.58 985.25 304.58 974.42 299.79 972.07 295.85 970.22 273.69 961.08 264.71 957.38 264.63 957.38 264.63 957.38 264.63 957.47 261.44 968.63 259.59 977.36 258.42 983.57 258.42 983.57 258.42 983.65 258.5 983.65L303.15 1006.23 360.73 1023.94C360.81 1023.94 360.81 1023.94 360.81 1023.86 360.06 1007.99 343.94 998.76 337.48 981.64 336.47 978.11 336.64 974 337.81 969.22Z" fill="#ff9edd" opacity="1" stroke-width="4" stroke="none"></path><path d="M402.61 687.71C404.62 690.32 407.73 691.83 413.18 691.83 419.81 691.83 428.79 685.53 430.98 677.81L435.34 662.45H419.73" stroke="#0e232d" stroke-width="4" stroke-linecap="round" stroke-linejoin="round" opacity="1" fill="none"></path><path d="M445.41 525.48C445.41 525.48 458.09 513.39 465.39 504.07 465.47 503.99 465.56 504.07 465.56 504.16 464.8 516.83 461.7 524.3 461.28 525.31 461.28 525.39 461.28 525.39 461.36 525.39H479.66 479.74C480.58 524.47 501.81 499.2 497.11 456.9 497.11 456.9 497.11 456.82 497.03 456.82 495.94 456.32 473.45 446.5 482.26 430.55 489.73 417.29 510.71 432.06 511.8 432.9H511.89L519.27 427.53C519.27 427.53 519.36 427.44 519.27 427.44 519.02 426.86 516.33 421.57 508.7 412.25 508.61 412.17 508.7 412.08 508.78 412.08 516.5 414.43 523.89 421.9 524.56 422.58H524.64L536.14 413.09V413.01C531.86 404.45 524.64 394.38 513.73 390.77 505.09 387.49 489.73 387.49 476.22 394.54 454.48 405.79 452.88 423.08 446.59 445.74 434.08 488.55 391.53 477.55 384.81 525.31 384.81 525.39 384.81 525.39 384.9 525.39L445.41 525.48Z" fill="#231f20" opacity="1" stroke-width="4" stroke="none"></path><path d="M436.77 585.74L445.92 634.17" stroke="#171717" stroke-width="4" stroke-linecap="round" stroke-linejoin="round" opacity="1" fill="none"></path><path d="M430.98 611.67L440.04 607.98" stroke="#171717" stroke-width="4" stroke-linecap="round" stroke-linejoin="round" opacity="1" fill="none"></path><path d="M539.25 565.59L554.27 579.02" stroke="#171717" stroke-width="4" stroke-linecap="round" stroke-linejoin="round" opacity="1" fill="none"></path><path d="M533.2 448.33L539.84 448.75" stroke="#171717" stroke-width="4" stroke-linecap="round" stroke-linejoin="round" opacity="1" fill="none"></path><path d="M504.33 473.09C507.77 474.27 514.32 475.86 517.76 476.7" stroke="#171717" stroke-width="4" stroke-linecap="round" stroke-linejoin="round" opacity="1" fill="none"></path><path d="M495.44 438.35L503.07 443.98" stroke="#171717" stroke-width="4" stroke-linecap="round" stroke-linejoin="round" opacity="1" fill="none"></path><path d="M531.02 431.8C532.46 431.8 533.62 430.72 533.62 429.37 533.62 428.02 532.46 426.93 531.02 426.93 529.59 426.93 528.42 428.02 528.42 429.37 528.42 430.72 529.59 431.8 531.02 431.8Z" fill="#221f1f" opacity="1" stroke-width="4" stroke="none"></path><path d="M493.59 678.05L497.95 662.78H468.24L463.88 678.05C461.7 685.77 466.56 691.99 474.79 691.99 482.93 691.99 491.49 685.69 493.59 678.05Z" stroke="#0e232d" stroke-width="4" stroke-linecap="round" stroke-linejoin="round" opacity="1" fill="none"></path><path d="M447.18 997.17C448.94 1008.83 450.7 1017.56 452.3 1023.94L452.38 1024.02 475.12 1024.28 563.34 1024.02C563.42 1024.02 563.42 1023.94 563.42 1023.94 556.37 1009.25 537.4 1006.9 524.22 993.31 522.71 991.71 521.54 989.78 520.7 987.68 519.36 984.07 518.68 980.55 518.26 976.52 518.26 976.44 518.26 976.44 518.18 976.44 503.91 976.44 494.34 976.6 494.34 985.67 494.34 995.66 506.77 1008.08 500.22 1009.59 493.67 1011.1 483.77 997.25 472.19 997.25L447.18 997.17Z" fill="#ff9edd" opacity="1" stroke-width="4" stroke="none"></path><path d="M490.65 934.13C493.42 895.95 507.69 857 516.75 806.81 525.99 755.7 524.31 667.99 519.61 634.84" stroke="#0e232d" stroke-width="4" stroke-linecap="round" stroke-linejoin="round" opacity="1" fill="none"></path><path d="M608.07 543.6L617.89 552.49" stroke="#171717" stroke-width="4" stroke-linecap="round" stroke-linejoin="round" opacity="1" fill="none"></path><path d="M448.43 716.25C449.02 728.84 452.88 745.96 457.58 766.86" stroke="#0e232d" stroke-width="4" stroke-linecap="round" stroke-linejoin="round" opacity="1" fill="none"></path><path d="M751.59 455.47C742.61 463.86 732.71 473.51 712.98 481.07" stroke="#171717" stroke-width="4" stroke-linecap="round" stroke-linejoin="round" opacity="1" fill="none"></path><path d="M759.48 463.79C755.87 467.98 742.53 482.75 723.73 491.15" stroke="#171717" stroke-width="4" stroke-linecap="round" stroke-linejoin="round" opacity="1" fill="none"></path><path d="M486.62 390.6C483.01 391.52 463.46 396.89 455.15 417.29" stroke="#000000" stroke-width="4" stroke-linecap="round" stroke-linejoin="round" opacity="1" fill="none"></path><path d="M258.58 983.65L360.81 1023.94 360.89 1024.02C360.98 1027.8 360.39 1031.58 359.05 1035.19 359.05 1035.27 358.96 1035.27 358.96 1035.27L256.99 994.98 256.9 994.9C256.99 994.4 257.24 990.79 258.5 983.74 258.42 983.65 258.5 983.65 258.58 983.65Z" fill="#404040" opacity="1" stroke-width="4" stroke="none"></path><path d="M452.38 1024.02H563.42C563.42 1024.02 563.5 1024.02 563.5 1024.11 565.18 1027.63 566.19 1031.33 566.36 1035.27 566.36 1035.35 566.36 1035.35 566.27 1035.35H455.48C455.48 1035.35 455.4 1035.35 455.4 1035.27 455.23 1034.77 454.06 1031.24 452.3 1024.11 452.3 1024.11 452.38 1024.02 452.38 1024.02Z" fill="#404040" opacity="1" stroke-width="4" stroke="none"></path><path d="M440.63 799.25C446.5 788.34 452.21 777.43 457.67 766.85 457.67 766.85 457.67 766.85 457.67 766.77 453.72 749.56 449.19 732.94 448.6 716.24 448.6 716.16 448.43 716.16 448.43 716.24 439.45 750.23 440.38 795.05 440.46 799.17 440.46 799.25 440.54 799.33 440.63 799.25Z" fill="#0e232d" opacity="0.2" stroke-width="4" stroke="none"></path></g><g><path d="M1269.71 528.63L1271.65 591.99 1303.05 536.01 1347.75 561.16 1318.22 515.89 1366.08 496.67 1316.43 488.31 1330.55 431.6 1292.34 475.17 1264.35 420.73 1268.49 481.5 1210.41 487.82 1262.57 504.86 1215.03 545.26 1269.71 528.63Z" fill="#231f20" opacity="0.2" stroke-width="4" stroke="none"></path><path d="M1138.53 436.96C1231.82 361.51 1242.37 277.96 1235.07 252.81 1226.79 224.41 1184.77 247.13 1188.02 335.55 1191.26 423.98 1255.35 474.28 1255.35 474.28" stroke="#231f20" stroke-width="4" stroke-linecap="round" stroke-linejoin="round" opacity="1" fill="none"></path><path d="M1256.73 520.84L1258.67 584.2 1290.07 528.22 1334.77 553.37 1305.24 508.1 1353.1 488.88 1303.45 480.52 1317.57 423.82 1279.36 467.38 1251.37 412.95 1255.51 473.71 1197.43 480.04 1249.59 497.07 1202.05 537.47 1256.73 520.84Z" fill="#ff9edd" stroke-linejoin="round" opacity="1" stroke-width="4" stroke="none"></path></g></svg>