<svg xmlns="http://www.w3.org/2000/svg" height="1200" width="1600" version="1.1" xmlns:xlink="http://www.w3.org/1999/xlink" xmlns:svgjs="http://svgjs.com/svgjs"><rect fill="#ffffff" width="1600" height="1200"></rect><g><path d="M1084.39 314.48C1166.83 410.84 1220.37 536.65 1196.81 647.48 1173.26 757.76 1072.61 853.06 953.22 910.88 833.84 969.23 696.25 990.11 598.27 939.25 500.84 887.86 443.55 763.65 414.64 634.09 385.73 504.53 384.66 369.08 449.98 276.47 515.83 183.85 648.06 134.59 769.59 142.62 891.12 151.19 1001.94 218.11 1084.39 314.48Z" fill="#efdcd7" opacity="1" stroke-width="4" stroke="none"></path></g><g><path d="M1386.08 934.55H312.34L213.92 1110.42H1287.66L1386.08 934.55Z" fill="#61ccff" opacity="1" stroke-width="4" stroke="none"></path><path d="M1386.08 934.55H1345.86L1247.35 1110.42H1287.66L1386.08 934.55Z" fill="#165e81" opacity="1" stroke-width="4" stroke="none"></path><path d="M1336.69 1022.83H263.58" stroke="#020202" stroke-width="4" stroke-linecap="round" stroke-linejoin="round" opacity="1" fill="none"></path></g><g><path d="M1156.23 434.86L1166.7 380.37 1167.93 379.93C1196.57 368.78 1209.94 362.88 1239.13 342.6 1248.49 336.13 1259.08 327.89 1264.65 323.43L1266.32 322.1C1269.33 319.76 1272 318.53 1274.12 318.53 1275.57 318.53 1276.79 319.09 1277.69 320.2 1280.25 323.21 1280.69 330.23 1279.13 340.48 1276.91 355.19 1271.11 366.67 1256.4 385.94 1246.82 398.42 1244.7 409.01 1243.03 417.48 1241.69 424.27 1240.47 430.18 1235.9 434.75 1231.67 438.98 1225.2 440.54 1217.18 442.32 1208.82 444.22 1198.57 446.78 1186.09 453.02L1185.31 453.36 1156.23 434.86Z" fill="#f9b298" opacity="1" stroke-width="4" stroke="none"></path><path d="M628.4 1067.09C628.52 1063.75 629.41 1060.41 631.19 1057.51 633.86 1052.49 639.66 1045.36 652.47 1039.57 675.43 1029.1 695.26 1020.07 703.39 989.76V989.65L812.93 966.81 812.81 967.14C812.59 968.03 785.07 1057.51 779.83 1067.09L779.72 1067.2 628.4 1067.09Z" fill="#f9b298" opacity="1" stroke-width="4" stroke="none"></path><path d="M702.17 994L702.95 989.32C708.63 962.24 714.43 922.91 720.44 869.42 727.13 809.7 741.39 647.68 741.95 641.44 729.8 637.43 719.44 634.09 710.3 631.08 691.47 625.06 675.09 619.83 652.69 611.36L669.74 659.38C671.75 661.95 677.99 667.41 685.9 674.43 695.59 683.01 707.52 693.59 718.66 704.73L718.77 704.84 708.3 751.64 676.09 756.44 675.98 756.32C675.76 756.21 656.71 740.72 626.18 712.98 614.25 702.06 601.66 679.55 595.42 662.95 579.26 619.71 564.56 561.1 571.58 526.56 576.37 502.94 590.74 485.78 598.88 477.65L635.2 444.66C656.93 426.06 676.87 417.03 696.37 417.03 709.08 417.03 719.77 420.71 729.13 424.05L729.58 424.16C752.09 432.07 817.49 460.26 818.16 460.49L922.57 462.72C922.57 462.72 955.77 454.69 981.51 446.78L984.97 445.78C1004.69 439.76 1025.08 433.63 1110.99 401.43 1130.38 394.19 1153.33 385.61 1166.7 380.37L1169.38 379.37 1186.09 453.02 1185.31 453.36C1167.6 462.49 1155.67 470.74 1143.42 479.09 1116.56 497.48 1088.71 516.42 1006.58 541.49 955.77 565.78 900.62 597.43 878.44 615.26 877.55 618.6 847.47 726.46 834.21 778.72 825.41 813.26 825.85 821.84 826.74 840.67 827.3 850.92 827.97 863.74 827.3 885.36 826.41 917.89 812.59 971.04 805.68 990.99L803.57 996.89 702.17 994Z" fill="#ffa0dc" opacity="1" stroke-width="4" stroke="none"></path><path d="M698.94 627.4C683 622.61 652.69 611.36 652.69 611.36L639.21 576.93C638.66 575.26 640.88 572.8 642.44 572.02 642.89 571.8 643.34 571.69 643.89 571.69 645.56 571.69 647.46 572.92 649.35 575.48 675.76 609.58 698.94 627.4 698.94 627.4Z" fill="#000000" opacity="0.3" stroke-width="4" stroke="none"></path><path d="M833.99 779.17C833.87 779.05 817.27 768.13 805.13 730.58 797.55 707.18 788.08 694.48 778.05 681.11 767.91 667.52 757.32 653.48 748.3 626.96V626.85L753.98 609.8 868.3 652.59V652.81C857.39 692.25 842.68 746.3 834.32 779.05L834.21 779.39 833.99 779.17Z" fill="#000000" opacity="0.3" stroke-width="4" stroke="none"></path><path d="M875.99 743.73C875.1 743.29 790.31 695.15 752.2 623.28V623.17L790.98 538.82 791.2 538.93C883.24 580.49 960.68 605.68 961.46 605.9 961.46 605.9 960.01 647.35 921.79 680 879.45 716.1 875.99 743.73 875.99 743.73Z" fill="#ffa0dc" opacity="1" stroke-width="4" stroke="none"></path><path d="M729.02 822.4C727.13 822.4 724.68 817.83 721.33 811.48 720.33 809.59 719.33 807.69 718.21 805.69 703.95 780.06 677.1 757.88 676.87 757.66L674.09 754.76 718.55 704.62 718.77 704.84C742.95 726.68 767.13 757.33 768.91 761.78 769.8 763.79 769.8 765.35 769.14 766.35 768.47 767.47 767.02 767.91 764.9 767.91 764.12 767.91 763.23 767.8 762.45 767.69 763.56 770.03 769.25 781.95 771.14 792.98 772.92 803.12 771.59 808.69 766.91 810.03 767.35 812.82 766.35 815.71 764.23 817.61 762.9 818.61 761.22 819.17 759.55 819.06 758.1 819.06 756.77 818.72 755.43 818.05 753.87 819.28 751.86 819.95 749.86 820.06 746.96 820.06 744.51 818.5 742.5 815.27 737.16 806.8 732.03 799 730.14 796.33 731.25 801.12 734.82 818.5 729.8 822.07 729.47 822.29 729.24 822.4 729.02 822.4Z" fill="#f9b298" opacity="1" stroke-width="4" stroke="none"></path><path d="M794.99 541.49C847.69 565.23 892.26 581.27 923.68 592.64" stroke="#000000" stroke-width="4" stroke-linecap="round" stroke-linejoin="round" opacity="1" fill="none"></path><path d="M752.31 623.17C777.05 669.75 820.84 706.07 849.14 726.13" stroke="#000000" stroke-width="4" stroke-linecap="round" stroke-linejoin="round" opacity="1" fill="none"></path><path d="M661.5 427.95C673.87 478.09 712.98 584.28 733.03 624.39" stroke="#000000" stroke-width="4" stroke-linecap="round" stroke-linejoin="round" opacity="1" fill="none"></path><path d="M652.69 611.47L639.21 576.93" stroke="#000000" stroke-width="4" stroke-linecap="round" stroke-linejoin="round" opacity="1" fill="none"></path><path d="M580.94 501.71C580.94 501.71 609.35 539.15 676.32 541.49" stroke="#000000" stroke-width="4" stroke-linecap="round" stroke-linejoin="round" opacity="1" fill="none"></path><path d="M723.9 465.39C735.26 475.64 740.39 477.09 754.54 482.44 772.7 489.23 777.05 496.92 778.16 508.29" stroke="#000000" stroke-width="4" stroke-linecap="round" stroke-linejoin="round" opacity="1" fill="none"></path><path d="M922.57 462.83C844.24 491.24 798.33 520.32 798.33 520.32" stroke="#000000" stroke-width="4" stroke-linecap="round" stroke-linejoin="round" opacity="1" fill="none"></path><path d="M669.41 659.49L652.47 667.41" stroke="#000000" stroke-width="4" stroke-linecap="round" stroke-linejoin="round" opacity="1" fill="none"></path><path d="M790.75 710.75V710.53C792.53 675.32 784.4 658.6 775.71 640.89 772.03 633.87 768.91 626.51 766.13 619.05 765.68 617.93 764.23 617.71 763.56 618.71 752.09 634.87 742.5 641.44 742.39 641.55L742.28 641.67 722.89 635.31 723.12 635.09C774.26 585.17 778.27 509.4 778.27 508.62V508.29L798.55 520.32V520.43C796.32 538.93 791.98 557.09 785.85 574.7 785.52 575.59 786.07 576.48 786.96 576.59 837.89 586.62 866.97 615.15 868.19 616.37L868.3 616.48 851.15 633.64 851.03 633.53C850.81 633.31 828.08 611.25 788.41 601.78 787.3 601.55 786.41 602.56 786.63 603.56 789.19 613.36 793.2 621.61 797.44 630.3 806.69 649.13 817.16 670.41 815.04 711.98V712.2L790.75 710.75Z" fill="#3c2c5b" opacity="1" stroke-width="4" stroke="none"></path><path d="M669.41 520.1C669.3 520.1 656.59 519.99 635.31 513.3 618.82 508.07 603.89 498.71 592.08 486 591.86 485.67 570.35 456.25 559.1 437.2 548.85 421.15 550.41 414.47 553.3 402.66 555.64 392.96 562.55 384.83 573.58 378.59 586.95 371.01 599.32 367.11 610.35 367.11 617.6 367.11 619.49 361.43 625.84 364.88 636.65 370.79 643.67 381.71 651.91 394.52 653.25 396.53 654.59 398.65 655.93 400.76 656.93 402.32 657.93 403.77 658.82 405.11 665.51 414.91 670.75 422.71 670.75 433.74 670.75 443.77 663.17 452.35 649.91 457.14L669.74 520.21 669.41 520.1Z" fill="#f9b298" opacity="1" stroke-width="4" stroke="none"></path><path d="M669.41 519.88C678.55 548.29 706.51 615.82 715.21 632.53" stroke="#000000" stroke-width="4" stroke-linecap="round" stroke-linejoin="round" opacity="1" fill="none"></path><path d="M587.18 479.21C580.47 471.71 567.12 450.68 559.1 437.2 548.85 421.15 545.06 407 547.95 395.08 550.29 385.39 557.2 377.25 568.23 371.01 581.6 363.43 593.97 359.53 605 359.53 617.04 359.42 628.52 364.33 636.54 373.24L636.76 373.57V373.91C636.76 374.02 635.42 383.83 618.1 386.77 617.71 386.61 622.39 393.52 620.05 399.54 618.26 404.22 605.28 408.86 605.43 409.16 614.6 419.59 608.35 430.18 608.17 430.19 608.24 430.29 598.54 428.28 593.75 428.17 584.28 428.17 579.26 431.96 578.82 439.32 577.93 454.14 601.93 461.55 602.55 461.82L602.78 461.94 603.1 462.04C603.34 462.06 587.51 479.43 587.71 478.97L587.18 479.21Z" fill="#231f20" opacity="1" stroke-width="4" stroke="none"></path><path d="M649.91 457.14C645.56 458.37 641 459.04 636.54 459.6" stroke="#030202" stroke-width="4" stroke-linecap="round" stroke-linejoin="round" opacity="1" fill="none"></path><path d="M638.77 408.45L641 409.9C642.22 410.68 642.89 412.13 642.78 413.58V414.02" stroke="#000000" stroke-width="4" stroke-linecap="round" stroke-linejoin="round" opacity="1" fill="none"></path><path d="M650.91 420.71C650.47 422.6 646.68 426.17 642 425.39" stroke="#000000" stroke-width="4" stroke-linecap="round" stroke-linejoin="round" opacity="1" fill="none"></path><path d="M625.62 417.7C627.21 417.7 628.52 416.41 628.52 414.8 628.52 413.2 627.21 411.9 625.62 411.9 624.01 411.9 622.72 413.2 622.72 414.8 622.72 416.41 624.01 417.7 625.62 417.7Z" fill="#231f20" opacity="1" stroke-width="4" stroke="none"></path><path d="M643.56 401.54C645.15 401.54 646.46 400.25 646.46 398.65 646.46 397.04 645.15 395.75 643.56 395.75 641.95 395.75 640.66 397.04 640.66 398.65 640.66 400.25 641.95 401.54 643.56 401.54Z" fill="#231f20" opacity="1" stroke-width="4" stroke="none"></path><path d="M818.16 460.82L813.37 478.98" stroke="#000000" stroke-width="4" stroke-linecap="round" stroke-linejoin="round" opacity="1" fill="none"></path><path d="M607.01 450.9L613.7 453.13" stroke="#030202" stroke-width="4" stroke-linecap="round" stroke-linejoin="round" opacity="1" fill="none"></path><path d="M674.09 754.88L718.44 704.62" stroke="#000000" stroke-width="4" stroke-linecap="round" stroke-linejoin="round" opacity="1" fill="none"></path><path d="M762.45 767.69C757.99 761 750.75 751.76 750.75 751.76" stroke="#000000" stroke-width="4" stroke-linecap="round" stroke-linejoin="round" opacity="1" fill="none"></path><path d="M766.46 809.81C763.01 795.21 752.98 776.27 745.18 766.24" stroke="#000000" stroke-width="4" stroke-linecap="round" stroke-linejoin="round" opacity="1" fill="none"></path><path d="M755.32 817.83C750.75 803.01 740.72 785.18 734.04 776.27" stroke="#000000" stroke-width="4" stroke-linecap="round" stroke-linejoin="round" opacity="1" fill="none"></path><path d="M729.58 795.21L723.78 785.96" stroke="#000000" stroke-width="4" stroke-linecap="round" stroke-linejoin="round" opacity="1" fill="none"></path><path d="M1169.38 379.37L1186.09 453.02" stroke="#000000" stroke-width="4" stroke-linecap="round" stroke-linejoin="round" opacity="1" fill="none"></path><path d="M723.12 515.2C718.33 514.97 713.98 512.19 711.97 507.84 710.41 504.95 710.08 501.49 710.86 498.37 711.53 495.36 713.53 492.8 716.32 491.46 717.77 490.68 719.33 490.35 721 490.35 725.79 490.57 730.14 493.36 732.14 497.7 733.7 500.6 734.04 504.05 733.26 507.17 732.59 510.18 730.58 512.75 727.8 514.08 726.35 514.75 724.79 515.2 723.12 515.2Z" fill="#ff54c0" opacity="1" stroke-width="4" stroke="none"></path><path d="M702.17 994L803.57 997" stroke="#000000" stroke-width="4" stroke-linecap="round" stroke-linejoin="round" opacity="1" fill="none"></path><path d="M773.7 494.92C768.47 487.12 755.21 483.44 744.96 478.76 748.97 469.96 768.8 484.44 801.11 487.45 811.14 488.34 824.18 486.23 835.21 484.55 845.35 482.88 854.93 481.32 863.85 481.32 866.97 481.32 870.2 481.55 873.32 481.99L874.1 482.1 873.43 482.44C847.69 493.69 822.62 506.39 798.44 520.66L798.33 520.77 778.16 508.29C778.16 508.18 778.94 502.72 773.7 494.92Z" fill="#000000" opacity="0.3" stroke-width="4" stroke="none"></path><path d="M653.81 472.97C651.25 471.96 629.41 463.61 629.74 460.6 629.85 460.04 630.41 459.71 631.52 459.6 637.65 459.37 643.67 459.04 649.57 457.26L649.91 457.14 655.03 473.41 653.81 472.97Z" fill="#000000" opacity="0.3" stroke-width="4" stroke="none"></path></g></svg>