<svg xmlns="http://www.w3.org/2000/svg" height="1200" width="1600" version="1.1" xmlns:xlink="http://www.w3.org/1999/xlink" xmlns:svgjs="http://svgjs.com/svgjs"><rect fill="#ffffff" width="1600" height="1200"></rect><g><path d="M316.8 193.78H985.37C1015.94 193.78 1040.75 218.59 1040.75 249.16V665.99C1040.75 696.56 1015.94 721.37 985.37 721.37H316.8C286.23 721.37 261.43 696.56 261.43 665.99V248.98C261.43 218.59 286.23 193.78 316.8 193.78Z" fill="#cecece" opacity="1" stroke-width="4" stroke="none"></path><path d="M338.82 246.19H963.18C976.98 246.19 988.17 257.37 988.17 271.17V643.97C988.17 657.78 976.98 668.96 963.18 668.96H338.82C325.02 668.96 313.83 657.78 313.83 643.97V271.17C313.83 257.37 325.02 246.19 338.82 246.19Z" fill="#ffffff" opacity="1" stroke-width="4" stroke="none"></path></g><g><path d="M895.11 871.59L904.2 995.02C904.47 998.6 901.81 1001.63 898.23 1001.91 898.05 1001.91 897.95 1001.91 897.77 1001.91 895.02 1001.91 892.54 1000.16 891.71 997.5L850.23 871.59H895.11Z" fill="#3c2c5b" opacity="1" stroke-width="4" stroke="none"></path><path d="M989.64 871.59L1022.86 994.11C1023.78 997.32 1021.85 1000.62 1018.64 1001.54 1018.09 1001.72 1017.63 1001.72 1017.08 1001.72 1014.87 1001.72 1012.76 1000.44 1011.75 998.51L944.76 871.59H989.64Z" fill="#3c2c5b" opacity="1" stroke-width="4" stroke="none"></path><path d="M872.17 833.96H1320.94L1354.99 728.24C1363.06 703.18 1349.3 676.39 1324.24 668.31 1319.56 666.75 1314.61 666.02 1309.65 666.02H961C940.35 666.02 922 679.32 915.67 699.06L872.17 833.96Z" fill="#3c2c5b" opacity="1" stroke-width="4" stroke="none"></path><path d="M1316.35 871.59L1349.57 994.11C1350.49 997.32 1348.56 1000.62 1345.35 1001.54 1344.8 1001.72 1344.34 1001.72 1343.79 1001.72 1341.59 1001.72 1339.48 1000.44 1338.47 998.51L1271.47 871.59H1316.35Z" fill="#3c2c5b" opacity="1" stroke-width="4" stroke="none"></path><path d="M1221.82 871.59L1230.91 995.02C1231.18 998.6 1228.52 1001.63 1224.94 1001.91 1224.76 1001.91 1224.67 1001.91 1224.48 1001.91 1221.73 1001.91 1219.25 1000.16 1218.43 997.5L1176.95 871.59H1221.82Z" fill="#3c2c5b" opacity="1" stroke-width="4" stroke="none"></path><path d="M1176.95 871.59H1221.82L1224.03 900.96H1186.58L1176.95 871.59Z" fill="#000000" opacity="0.3" stroke-width="4" stroke="none"></path><path d="M850.23 871.59H895.11L897.31 900.96H859.87L850.23 871.59Z" fill="#000000" opacity="0.3" stroke-width="4" stroke="none"></path><path d="M1316.35 871.59L1324.33 900.96H1286.98L1271.47 871.59H1316.35Z" fill="#000000" opacity="0.3" stroke-width="4" stroke="none"></path><path d="M989.64 871.59L997.62 900.96H960.27L944.76 871.59H989.64Z" fill="#000000" opacity="0.3" stroke-width="4" stroke="none"></path><path d="M1233.75 814.69H838.21C817.47 814.69 800.58 831.58 800.58 852.32 800.58 873.06 817.47 889.94 838.21 889.94H1233.75C1254.49 889.94 1271.38 873.06 1271.38 852.32 1271.38 831.58 1254.49 814.69 1233.75 814.69Z" fill="#3c2c5b" opacity="1" stroke-width="4" stroke="none"></path><path d="M1331.95 814.69H1164.92C1144.18 814.69 1127.3 831.58 1127.3 852.32 1127.3 873.06 1144.18 889.94 1164.92 889.94H1331.95C1352.69 889.94 1369.58 873.06 1369.58 852.32 1369.58 831.58 1352.69 814.69 1331.95 814.69Z" fill="#000000" opacity="1" stroke-width="4" stroke="none"></path><path d="M954.49 889.94H994.59" stroke="#000000" stroke-width="4" stroke-linecap="round" stroke-linejoin="round" opacity="1" fill="none"></path><path d="M856.29 889.94H896.49" stroke="#000000" stroke-width="4" stroke-linecap="round" stroke-linejoin="round" opacity="1" fill="none"></path><path d="M1327.18 814.69H878.41" stroke="#000000" stroke-width="4" stroke-linecap="round" stroke-linejoin="round" opacity="1" fill="none"></path><path d="M1310.93 852.32H1196.13" stroke="#000000" stroke-width="4" stroke-linecap="round" stroke-linejoin="round" opacity="1" fill="none"></path><path d="M1321.31 889.94H1281.2" stroke="#000000" stroke-width="4" stroke-linecap="round" stroke-linejoin="round" opacity="1" fill="none"></path><path d="M1223.2 889.94H1183" stroke="#000000" stroke-width="4" stroke-linecap="round" stroke-linejoin="round" opacity="1" fill="none"></path></g><g><path d="M809.8 406.46C809.8 406.28 809.62 406.19 809.44 406.28 805.92 408.36 801.41 409.53 796.99 409.53 793.39 409.53 788.25 408.72 784.1 405.02 777.43 398.98 775.45 390.87 776.8 374.64 776.8 374.55 776.8 374.46 776.71 374.46 775.72 373.65 771.39 369.95 771.48 366.97 771.57 364.27 776.8 362.19 778.06 361.83 778.15 361.83 778.24 361.74 778.24 361.65L778.42 360.03C779.05 354.08 780.41 348.22 782.03 343.44 785.45 333.16 793.03 329.38 797.36 323.34 797.36 323.34 797.36 323.25 797.45 323.25 805.56 317.75 811.69 322.89 821.97 322.89 829.81 322.89 835.67 316.75 841.8 320.18 857.58 328.93 862 352.1 862.54 360.93 862.9 367.51 863.44 379.33 863.89 390.69 864.34 401.77 864.88 413.22 865.24 420.08V420.26L812.86 422.96C812.77 422.96 812.59 422.87 812.59 422.78L811.42 416.11 809.8 406.46Z" fill="#cf5934" opacity="1" stroke-width="4" stroke="none"></path><path d="M809.71 406.1L810.52 405.65C814.31 403.58 817.37 401.32 820.71 398.8 820.89 398.62 821.25 398.89 821.07 399.16L811.78 415.3C811.69 415.48 811.33 415.48 811.33 415.21L809.71 406.1Z" fill="#030202" opacity="0.2" stroke-width="4" stroke="none"></path><path d="M790.95 378.78C790.23 381.85 786.18 383.2 783.92 382.93" stroke="#030202" stroke-width="4" stroke-linecap="round" stroke-linejoin="round" opacity="1" fill="none"></path><path d="M788.43 365.35C789.73 365.35 790.77 364.3 790.77 363.01 790.77 361.71 789.73 360.66 788.43 360.66 787.13 360.66 786.09 361.71 786.09 363.01 786.09 364.3 787.13 365.35 788.43 365.35Z" fill="#231f20" opacity="1" stroke-width="4" stroke="none"></path><path d="M821.7 398.08C821.7 398.08 814.21 403.67 809.71 406.1" stroke="#030202" stroke-width="4" stroke-linecap="round" stroke-linejoin="round" opacity="1" fill="none"></path><path d="M856.59 322.71C867.9 322.71 877.06 313.55 877.06 302.24 877.06 290.93 867.9 281.77 856.59 281.77 845.28 281.77 836.12 290.93 836.12 302.24 836.12 313.55 845.28 322.71 856.59 322.71Z" fill="#231f20" opacity="1" stroke-width="4" stroke="none"></path><path d="M622.81 607.88C620.46 607.88 617.58 606.53 616.95 600.03 616.86 600.03 616.86 600.03 616.77 600.03 609.91 600.03 608.83 593.36 612.17 585.88 614.15 580.92 619.02 569.11 623.71 561.99 623.8 561.81 623.71 561.63 623.53 561.63 621.64 561.45 616.59 560.63 615.23 557.84 615.23 557.84 615.23 557.84 615.23 557.75 613.07 549.82 631.1 541.88 652.29 530.61 660.58 526.37 668.7 522.5 677.26 519.88 677.35 519.88 677.44 519.88 677.53 519.97L698.27 539.09C698.36 539.18 698.36 539.18 698.36 539.27 698.45 541.16 699.44 567.58 694.75 568.66 676.36 571.36 669.6 578.13 664.82 592.1 663.29 597.15 659.68 604.09 655.63 598.77 653.82 595.98 652.92 590.57 653.1 586.87 653.1 586.6 652.74 586.51 652.65 586.78 649.04 593.99 639.4 611.12 628.94 605.89 628.85 605.89 628.76 605.89 628.67 605.89 627.95 606.26 625.33 607.88 622.81 607.88Z" fill="#cf5934" opacity="1" stroke-width="4" stroke="none"></path><path d="M617.04 599.85C625.51 578.58 638.68 560.36 638.68 560.36" stroke="#030202" stroke-width="4" stroke-linecap="round" stroke-linejoin="round" opacity="1" fill="none"></path><path d="M628.76 605.43C638.13 584.97 649.49 566.04 649.49 566.04" stroke="#030202" stroke-width="4" stroke-linecap="round" stroke-linejoin="round" opacity="1" fill="none"></path><path d="M653.19 585.52L659.41 572.09" stroke="#030202" stroke-width="4" stroke-linecap="round" stroke-linejoin="round" opacity="1" fill="none"></path><path d="M677.44 519.88L677.62 519.79C698.36 512.04 733.7 499.06 736.05 498.15 736.14 498.15 736.14 498.06 736.14 498.06 737.22 496.44 748.85 478.86 764.99 460.56 780.41 442.89 803.13 420.8 823.68 416.11 831.53 414.31 838.92 413.41 845.59 413.41 873.09 413.41 890.49 428.46 898.78 459.48 899.69 462.9 900.68 466.51 901.76 470.3 907.08 489.68 913.75 513.75 918.35 545.22L822.78 545.31 822.69 545.22C822.6 545.13 809.53 532.78 804.75 518.71 804.66 518.53 804.48 518.44 804.3 518.62 792.76 530.07 779.5 539.63 765.08 547.02 742.81 558.65 695.2 568.57 694.66 568.66H694.48L677.44 519.88Z" fill="#ffc930" opacity="1" stroke-width="4" stroke="none"></path><path d="M822.6 545.04C822.51 545.04 822.51 545.04 822.42 544.95 821.34 543.96 808.99 531.87 804.66 518.35L804.93 518.08 825.3 498.34C825.39 498.24 825.57 498.24 825.67 498.34 826.3 499.33 828.46 503.02 828.91 510.96 829.81 521.69 830.98 534.94 848.2 544.95H847.57L822.6 545.04Z" fill="#000000" opacity="0.2" stroke-width="4" stroke="none"></path><path d="M804.75 518.17L825.48 498.15" stroke="#000000" stroke-width="4" stroke-linecap="round" stroke-linejoin="round" opacity="1" fill="none"></path><path d="M916.18 507.89C914.83 507.89 912.31 507.8 911.59 507.71 911.5 507.71 911.41 507.62 911.41 507.53 903.02 470.66 893.28 445.95 892.2 443.07 892.2 442.98 892.11 442.89 891.93 442.89 891.57 442.89 890.76 442.98 889.77 442.98 879.04 442.98 843.25 439.28 831.71 391.41V391.32L831.8 391.23C831.98 391.05 853.07 377.25 846.13 362.65 843.88 357.96 840.27 355.61 835.4 355.61 826.66 355.61 816.38 363.37 814.94 364.54 814.85 364.63 814.67 364.63 814.58 364.54 813.58 363.55 808.17 357.51 810.7 347.59 810.79 347.32 810.52 347.14 810.34 347.32 807.09 349.57 804.21 350.74 801.77 350.74 798.53 350.74 796.09 348.58 794.83 344.52 794.2 342.45 794.02 340.38 793.93 339.2 793.93 339.02 793.66 338.93 793.48 339.02 789.24 342.72 787.08 344.07 782.21 343.35 782.12 343.35 782.03 343.26 781.94 343.08 781.31 337.22 786.45 323.88 794.29 318.47 802.4 312.97 813.22 310.71 823.5 310.71 831.35 310.71 838.83 312.52 844.96 315.94 858.75 323.52 866.69 344.25 868.49 355.97 868.49 356.15 868.67 356.24 868.85 356.15 871.29 355.25 882.65 351.47 896.53 351.47 908.61 351.47 919.34 354.26 928.45 359.67 944.95 369.59 950.08 384.1 951.44 394.56 953.15 407.36 950.17 419.63 946.75 427.2 946.66 427.29 946.75 427.47 946.84 427.56 962.08 435.22 970.46 455.87 966.22 474.8 963.79 484.63 954.32 507.89 916.18 507.89Z" fill="#231f20" opacity="1" stroke-width="4" stroke="none"></path><path d="M677.62 519.97L694.75 568.66" stroke="#000000" stroke-width="4" stroke-linecap="round" stroke-linejoin="round" opacity="1" fill="none"></path><path d="M705.57 510.06L724.33 560.54" stroke="#000000" stroke-width="4" stroke-linecap="round" stroke-linejoin="round" opacity="1" fill="none"></path><path d="M832.7 371.21L826.39 375.72" stroke="#030202" stroke-width="4" stroke-linecap="round" stroke-linejoin="round" opacity="1" fill="none"></path><path d="M822.51 545.04L918.35 545.22" stroke="#000000" stroke-width="4" stroke-linecap="round" stroke-linejoin="round" opacity="1" fill="none"></path></g><g><path d="M929.51 619.17H365.51V647.17H929.51V619.17Z" fill="#231f20" opacity="1" stroke-width="4" stroke="none"></path></g><g><path d="M633.11 627.17H375.51V639.17H633.11V627.17Z" fill="#ffffff" opacity="1" stroke-width="4" stroke="none"></path></g><g><path d="M444.02 325.83C464.51 325.02 466.53 316.55 474.35 328.33 475.32 329.78 487.02 328 487.82 329.94 490.33 336.72 491.62 346.88 492.99 355.99 492.99 355.99 500.25 357.45 500.81 360.51 501.38 364.06 495 369.06 495 369.06 497.67 377.37 498.96 386.89 492.91 395.36 484.19 407.62 462.01 404.39 462.01 404.39L461.77 410.04 441.36 420.29 407 410.04 406.84 405.52C408.85 387.94 414.58 355.91 414.58 346.64 414.58 321.23 420.47 326.71 444.02 325.83Z" fill="#e59763" opacity="1" stroke-width="4" stroke="none"></path><path d="M461.93 404.39L461.69 410.04 452.65 417.38 443.62 404.47C442.01 402.14 444.35 399.23 447.01 400.2L461.93 404.39Z" fill="#000000" opacity="0.3" stroke-width="4" stroke="none"></path><path d="M485.4 325.18C477.5 313.32 464.27 307.19 443.54 308 419.82 308.89 405.54 322.84 405.46 348.41 405.46 357.45 406.27 387.94 406.84 405.52 406.84 405.52 425.39 405.28 433.54 394.71 433.54 394.71 416.43 378.42 424.58 366.24 432.73 354.06 451.44 368.66 451.44 368.66 463.79 362.85 459.35 350.59 458.22 348.01 458.14 347.85 458.3 347.61 458.54 347.69 462.09 348.82 483.23 354.54 477.66 334.94 477.58 334.7 477.74 334.54 477.98 334.54 485.81 334.38 487.82 329.94 487.82 329.94 487.18 328.25 486.29 326.71 485.4 325.18Z" fill="#c65a42" opacity="1" stroke-width="4" stroke="none"></path><path d="M487.74 375.68C482.02 376.65 478.79 371.81 478.79 371.81" stroke="#000000" stroke-width="4" stroke-linecap="round" stroke-linejoin="round" opacity="1" fill="none"></path><path d="M461.93 404.39L448.86 400.76" stroke="#000000" stroke-width="4" stroke-linecap="round" stroke-linejoin="round" opacity="1" fill="none"></path><path d="M445.56 379.79L438.54 376.65" stroke="#000000" stroke-width="4" stroke-linecap="round" stroke-linejoin="round" opacity="1" fill="none"></path><path d="M483.23 358.9C484.61 358.9 485.73 357.78 485.73 356.4 485.73 355.02 484.61 353.9 483.23 353.9 481.85 353.9 480.73 355.02 480.73 356.4 480.73 357.78 481.85 358.9 483.23 358.9Z" fill="#231f20" opacity="1" stroke-width="4" stroke="none"></path><path d="M545.9 504.1C531.87 510.71 520.74 516.2 520.74 516.2 520.74 516.2 513.48 475.86 504.6 453.28 495.73 430.69 482.82 418.59 461.85 416.98L461.69 410.04H407V417.62C381.43 420.93 365.86 455.62 355.37 492.72 348.35 517.65 345.13 550.96 357.47 572.18 366.42 587.67 389.73 583.96 393.53 566.45L476.93 566.61C476.93 566.61 490.08 584.68 517.51 581.46 533.8 579.52 557.2 566.05 575.75 553.79L577.85 551.37 553.73 503.77 545.9 504.1Z" fill="#ff4f32" opacity="1" stroke-width="4" stroke="none"></path><path d="M365.29 579.76C365.37 579.76 365.37 579.84 365.45 579.84 374.33 584.76 388.85 581.05 393.12 568.15L393.53 566.37 388.52 528.54C381.26 528.54 384.41 543.54 380.38 562.9 376.91 579.68 365.29 579.76 365.29 579.76Z" fill="#000000" opacity="0.3" stroke-width="4" stroke="none"></path><path d="M476.93 566.61C469.19 552.82 458.62 527.49 452.98 496.03" stroke="#000000" stroke-width="4" stroke-linecap="round" stroke-linejoin="round" opacity="1" fill="none"></path><path d="M386.35 512.41L393.53 566.45" stroke="#000000" stroke-width="4" stroke-linecap="round" stroke-linejoin="round" opacity="1" fill="none"></path><path d="M520.74 516.2L512.51 533.62" stroke="#000000" stroke-width="4" stroke-linecap="round" stroke-linejoin="round" opacity="1" fill="none"></path><path d="M373.92 545.24L390.3 542.01" stroke="#000000" stroke-width="4" stroke-linecap="round" stroke-linejoin="round" opacity="1" fill="none"></path><path d="M622.05 493.13L614.07 501.11C613.74 501.44 613.26 501.76 612.78 501.84 610.6 502.32 604.14 503.69 598.18 503.29 596 503.13 594.87 500.63 596.16 498.93 599.87 493.93 605.6 485.14 602.21 482.32 599.22 479.82 568.73 493.37 545.9 504.1L575.75 553.79C588.42 545.4 598.74 537.74 603.02 534.75 609.23 530.23 614.07 523.94 616.57 516.6 616.65 516.28 616.81 516.04 616.97 515.79 618.66 513.7 627.3 502.4 626.65 494.74 626.49 492.48 623.67 491.51 622.05 493.13Z" fill="#e59763" opacity="1" stroke-width="4" stroke="none"></path><path d="M476.93 566.61C463.46 545.32 454.75 504.9 454.75 504.9H453.86C448.38 506.28 445.8 509.82 444.26 519.59 442.57 532.81 438.38 556.21 428.05 566.53L476.93 566.61Z" fill="#000000" opacity="0.3" stroke-width="4" stroke="none"></path><path d="M616.73 516.2C611.08 520.23 595.51 519.42 595.51 519.42" stroke="#000000" stroke-width="4" stroke-linecap="round" stroke-linejoin="round" opacity="1" fill="none"></path><path d="M608.74 529.75C601.4 532.33 591.72 532.33 591.72 532.33" stroke="#000000" stroke-width="4" stroke-linecap="round" stroke-linejoin="round" opacity="1" fill="none"></path><path d="M596.16 498.93L586.88 509.74" stroke="#000000" stroke-width="4" stroke-linecap="round" stroke-linejoin="round" opacity="1" fill="none"></path></g><g><path d="M1171.23 467.08C1150.88 466.28 1148.87 457.87 1141.1 469.56 1140.14 471.01 1128.53 469.24 1127.72 471.17 1125.24 477.9 1123.96 487.99 1122.6 497.04 1122.6 497.04 1115.39 498.48 1114.83 501.53 1114.27 505.05 1120.59 510.02 1120.59 510.02 1117.95 518.27 1116.67 527.73 1122.68 536.14 1131.33 548.32 1153.36 545.11 1153.36 545.11L1153.6 550.72 1173.87 560.89 1208 550.72 1208.16 546.23C1206.16 528.77 1200.47 496.96 1200.47 487.75 1200.47 462.51 1194.62 467.96 1171.23 467.08Z" fill="#faa378" opacity="1" stroke-width="4" stroke="none"></path><path d="M1153.44 545.11L1153.68 550.72 1162.65 558.01 1171.63 545.19C1173.23 542.87 1170.91 539.98 1168.26 540.94L1153.44 545.11Z" fill="#000000" opacity="0.3" stroke-width="4" stroke="none"></path><path d="M1130.13 466.44C1137.98 454.66 1151.12 448.57 1171.71 449.37 1195.26 450.26 1209.44 464.12 1209.52 489.51 1209.52 498.48 1208.72 528.77 1208.16 546.23 1208.16 546.23 1189.73 545.99 1181.64 535.5 1181.64 535.5 1198.63 519.31 1190.53 507.22 1182.44 495.12 1163.86 509.62 1163.86 509.62 1151.6 503.85 1156 491.67 1157.13 489.11 1157.21 488.95 1157.05 488.71 1156.81 488.79 1153.28 489.91 1132.29 495.6 1137.82 476.13 1137.9 475.89 1137.74 475.73 1137.5 475.73 1129.73 475.57 1127.72 471.17 1127.72 471.17 1128.37 469.48 1129.25 467.96 1130.13 466.44Z" fill="#231f20" opacity="1" stroke-width="4" stroke="none"></path><path d="M1127.8 516.59C1133.49 517.55 1136.7 512.74 1136.7 512.74" stroke="#000000" stroke-width="4" stroke-linecap="round" stroke-linejoin="round" opacity="1" fill="none"></path><path d="M1153.44 545.11L1166.42 541.51" stroke="#000000" stroke-width="4" stroke-linecap="round" stroke-linejoin="round" opacity="1" fill="none"></path><path d="M1169.7 520.68L1176.67 517.55" stroke="#000000" stroke-width="4" stroke-linecap="round" stroke-linejoin="round" opacity="1" fill="none"></path><path d="M1132.29 499.93C1130.92 499.93 1129.81 498.81 1129.81 497.44 1129.81 496.07 1130.92 494.96 1132.29 494.96 1133.66 494.96 1134.77 496.07 1134.77 497.44 1134.77 498.81 1133.66 499.93 1132.29 499.93Z" fill="#231f20" opacity="1" stroke-width="4" stroke="none"></path><path d="M1153.68 945.04L1155.92 939.83C1154.88 930.38 1153.52 921.48 1151.84 912.67L1147.67 900.58 1066.68 901.86 1068.44 912.43C1070.36 918.44 1071.65 924.61 1072.53 930.86L1094.16 973.24 1153.68 945.04Z" fill="#faa378" opacity="1" stroke-width="4" stroke="none"></path><path d="M1201.91 746.92C1196.14 722 1186.93 706.3 1186.93 706.3L1184.2 709.58C1184.2 709.58 1077.33 721.52 1044.57 760.46 1017.81 792.18 1055.3 869.41 1068.52 912.67H1151.84C1144.63 875.18 1132.69 841.61 1118.43 813.33H1137.58C1189.49 813.41 1209.76 781.29 1201.91 746.92Z" fill="#ffc930" opacity="1" stroke-width="4" stroke="none"></path><path d="M1044.49 760.46C1077.25 721.52 1184.12 709.58 1184.12 709.58L1186.85 706.3C1186.85 706.3 1196.06 722 1201.83 746.92 1209.68 781.29 1187.17 802.6 1135.18 802.44L1118.43 813.33C1121.32 819.1 1124.04 824.87 1126.76 831.12 1130.85 840.33 1082.94 848.42 1080.54 912.67H1068.52C1055.3 869.41 1017.81 792.18 1044.49 760.46Z" fill="#cb9a10" opacity="0.3" stroke-width="4" stroke="none"></path><path d="M1068.52 912.67H1151.84" stroke="#cb9a10" stroke-width="4" stroke-linecap="round" stroke-linejoin="round" opacity="1" fill="none"></path><path d="M1044.97 985.58C1053.62 971.16 1072.77 967.31 1072.93 938.23 1072.93 936.63 1072.61 931.66 1072.53 930.86H1091.83C1097.92 930.78 1102.81 935.66 1102.89 941.75 1102.89 942.39 1102.81 943.04 1102.73 943.76L1099.69 962.66C1099.69 962.66 1120.92 941.43 1155.92 939.83 1156.73 946.16 1157.13 952.81 1157.53 959.38 1157.69 961.7 1157.77 964.35 1157.93 966.75 1158.17 972.76 1158.73 979.25 1158.73 985.58L1158.09 986.78 1045.21 985.9C1045.21 985.82 1044.97 985.58 1044.97 985.58Z" fill="#ffc930" opacity="1" stroke-width="4" stroke="none"></path><path d="M1044.97 985.58H1158.73C1158.89 990.78 1158.73 996.31 1158.57 1001.84H1040.8C1040.72 997.99 1041.36 994.23 1042.48 990.54 1043.2 988.78 1044.01 987.1 1044.97 985.58Z" fill="#ffffff" opacity="1" stroke-width="4" stroke="none"></path><path d="M1070.52 953.77L1083.42 959.22" stroke="#1d180a" stroke-width="4" stroke-linecap="round" stroke-linejoin="round" opacity="1" fill="none"></path><path d="M1064.92 964.11L1075.25 972.04" stroke="#1d180a" stroke-width="4" stroke-linecap="round" stroke-linejoin="round" opacity="1" fill="none"></path><path d="M1099.77 962.42L1095.44 985.58" stroke="#1d180a" stroke-width="4" stroke-linecap="round" stroke-linejoin="round" opacity="1" fill="none"></path><path d="M1048.17 911.23L983.04 872.78 972.95 882.07C971.1 891.6 970.14 898.73 968.62 901.86L973.03 950.17H1031.51L1039.6 946.4C1043.04 937.11 1045.29 929.58 1047.77 920.52L1048.17 911.23Z" fill="#faa378" opacity="1" stroke-width="4" stroke="none"></path><path d="M1226.99 731.86L1222.26 703.26 1125.64 706.06C1125.64 706.06 1035.03 718.64 1009.08 747 987.05 774.56 987.93 802.92 979.35 848.02 977.11 860.12 974.87 872.29 972.95 882.07L1047.77 920.52C1060.91 871.25 1062.27 844.98 1062.19 813.17L1160.49 813.41C1203.91 813.81 1236.12 773.92 1226.99 731.86Z" fill="#ffc930" opacity="1" stroke-width="4" stroke="none"></path><path d="M972.95 882.07L1047.77 920.52" stroke="#cb9a10" stroke-width="4" stroke-linecap="round" stroke-linejoin="round" opacity="1" fill="none"></path><path d="M919.75 936.79C933.93 927.73 953.08 932.62 966.3 906.66 967.1 905.22 967.74 903.62 968.54 901.94 968.54 901.86 968.62 901.78 968.7 901.78L982.32 908.35C988.65 911.39 991.37 919 988.33 925.33 988.01 925.97 987.69 926.53 987.29 927.09L977.43 941.27C977.43 941.27 1006.67 931.34 1039.6 946.4 1037.52 952.01 1035.27 957.7 1032.95 963.46 1032.07 965.71 1030.95 968.03 1030.07 970.43 1027.74 976.04 1022.05 987.74 1022.05 987.74L1019.81 988.86 919.75 938.15C919.59 937.83 919.67 936.87 919.75 936.79Z" fill="#ffc930" opacity="1" stroke-width="4" stroke="none"></path><path d="M916.22 939.51C917.35 938.55 918.55 937.59 919.75 936.79L1022.05 987.74C1019.81 992.47 1017.17 996.95 1014.52 1001.84L909.09 949.28C910.86 945.52 913.26 942.23 916.22 939.51Z" fill="#ffffff" opacity="1" stroke-width="4" stroke="none"></path><path d="M956.12 920.44L964.77 930.86" stroke="#1d180a" stroke-width="4" stroke-linecap="round" stroke-linejoin="round" opacity="1" fill="none"></path><path d="M946.03 926.93L951.23 937.83" stroke="#1d180a" stroke-width="4" stroke-linecap="round" stroke-linejoin="round" opacity="1" fill="none"></path><path d="M977.35 941.19L963.33 958.5" stroke="#1d180a" stroke-width="4" stroke-linecap="round" stroke-linejoin="round" opacity="1" fill="none"></path><path d="M1057.22 880.15C1061.95 854.19 1062.35 835.2 1062.19 813.17" stroke="#cb9a10" stroke-width="4" stroke-linecap="round" stroke-linejoin="round" opacity="1" fill="none"></path><path d="M1118.43 813.33L1062.19 813.17" stroke="#cb9a10" stroke-width="4" stroke-linecap="round" stroke-linejoin="round" opacity="1" fill="none"></path><path d="M1070.04 644.13C1083.98 650.7 1095.04 656.15 1095.04 656.15 1095.04 656.15 1102.25 616.09 1111.06 593.66 1119.87 571.23 1132.69 559.21 1153.52 557.61L1153.68 550.72H1208V558.25C1233.39 561.53 1248.86 595.98 1259.27 632.84 1269.69 669.69 1271.61 724.97 1226.99 731.78L1221.38 706.06 1138.54 706.22C1138.54 706.22 1125.48 724.16 1098.24 720.96 1082.06 719.04 1058.83 705.66 1040.4 693.48L1038.32 691.08 1062.27 643.81 1070.04 644.13Z" fill="#61ccff" opacity="1" stroke-width="4" stroke="none"></path><path d="M1243.97 725.69C1238.76 728.89 1233.15 730.81 1226.99 731.78L1221.38 706.06 1226.34 668.49C1233.55 668.49 1230.43 683.39 1234.44 702.61 1237.88 719.2 1243.97 725.69 1243.97 725.69Z" fill="#161616" opacity="0.3" stroke-width="4" stroke="none"></path><path d="M1138.54 706.22C1146.23 692.52 1156.73 667.36 1162.33 636.12" stroke="#161616" stroke-width="4" stroke-linecap="round" stroke-linejoin="round" opacity="1" fill="none"></path><path d="M1228.51 652.38L1221.38 706.06" stroke="#161616" stroke-width="4" stroke-linecap="round" stroke-linejoin="round" opacity="1" fill="none"></path><path d="M1095.04 656.15L1103.21 673.45" stroke="#161616" stroke-width="4" stroke-linecap="round" stroke-linejoin="round" opacity="1" fill="none"></path><path d="M1240.85 684.99L1224.58 681.78" stroke="#161616" stroke-width="4" stroke-linecap="round" stroke-linejoin="round" opacity="1" fill="none"></path><path d="M994.42 633.24L1002.35 641.17C1002.67 641.49 1003.15 641.81 1003.63 641.89 1005.79 642.37 1012.2 643.73 1018.13 643.33 1020.29 643.17 1021.41 640.69 1020.13 639 1016.45 634.04 1010.76 625.3 1014.12 622.5 1017.09 620.02 1047.37 633.48 1070.04 644.13L1040.4 693.48C1027.82 685.15 1017.57 677.54 1013.32 674.57 1007.15 670.09 1002.35 663.84 999.86 656.55 999.78 656.23 999.62 655.99 999.46 655.75 997.78 653.66 989.21 642.45 989.85 634.84 990.01 632.59 992.81 631.63 994.42 633.24Z" fill="#faa378" opacity="1" stroke-width="4" stroke="none"></path><path d="M1138.54 706.22C1151.92 685.07 1160.57 644.93 1160.57 644.93H1161.45C1166.9 646.29 1169.46 649.82 1170.99 659.51 1172.67 672.65 1176.83 695.88 1187.09 706.14L1138.54 706.22Z" fill="#161616" opacity="0.3" stroke-width="4" stroke="none"></path><path d="M999.7 656.15C1005.31 660.15 1020.77 659.35 1020.77 659.35" stroke="#000000" stroke-width="4" stroke-linecap="round" stroke-linejoin="round" opacity="1" fill="none"></path><path d="M1007.63 669.61C1014.92 672.17 1024.54 672.17 1024.54 672.17" stroke="#000000" stroke-width="4" stroke-linecap="round" stroke-linejoin="round" opacity="1" fill="none"></path><path d="M1020.13 639L1029.35 649.74" stroke="#000000" stroke-width="4" stroke-linecap="round" stroke-linejoin="round" opacity="1" fill="none"></path></g><g><path d="M322.58 869.98H304.04V913.9H322.58V869.98Z" fill="#9e76dd" opacity="1" stroke-width="4" stroke="none"></path><path d="M305.28 853.98H291.07V913.9H305.28V853.98Z" fill="#ffa0dc" opacity="1" stroke-width="4" stroke="none"></path><path d="M292.3 853.98H271.92V913.9H292.3V853.98Z" fill="#231f20" opacity="1" stroke-width="4" stroke="none"></path><path d="M376.32 869.98H367.05V913.9H376.32V869.98Z" fill="#ffc930" opacity="1" stroke-width="4" stroke="none"></path><path d="M367.67 869.98H352.23V913.9H367.67V869.98Z" fill="#231f20" opacity="1" stroke-width="4" stroke="none"></path><path d="M338.64 864.67H321.34V913.9H338.64V864.67Z" fill="#ffc930" opacity="1" stroke-width="4" stroke="none"></path><path d="M353.46 853.98H337.4V913.9H353.46V853.98Z" fill="#ffa0dc" opacity="1" stroke-width="4" stroke="none"></path><path d="M391.77 864.67H375.09V913.9H391.77V864.67Z" fill="#9e76dd" opacity="1" stroke-width="4" stroke="none"></path><path d="M412.77 853.98H391.15V913.9H412.77V853.98Z" fill="#ffa0dc" opacity="1" stroke-width="4" stroke="none"></path><path d="M411.53 745.87H257.71V1002.86H273.15V929.35H411.53V1002.86H426.98V745.87H411.53ZM273.15 913.9V839.15H411.53V913.9H273.15Z" fill="#ffc930" opacity="1" stroke-width="4" stroke="none"></path><path d="M411.53 761.31H273.15V823.71H411.53V761.31Z" fill="#b38400" opacity="1" stroke-width="4" stroke="none"></path><path d="M411.53 764.4L273.15 779.85V761.31H411.53V764.4Z" fill="#000000" opacity="0.2" stroke-width="4" stroke="none"></path><path d="M273.15 913.9V929.35" stroke="#010005" stroke-width="4" stroke-linecap="round" stroke-linejoin="round" opacity="1" fill="none"></path><path d="M411.53 913.9V929.35" stroke="#010005" stroke-width="4" stroke-linecap="round" stroke-linejoin="round" opacity="1" fill="none"></path><path d="M342.65 799.62C345.55 799.62 347.9 797.26 347.9 794.36 347.9 791.47 345.55 789.11 342.65 789.11 339.76 789.11 337.4 791.47 337.4 794.36 337.4 797.26 339.76 799.62 342.65 799.62Z" fill="#000000" opacity="1" stroke-width="4" stroke="none"></path></g><g><path d="M658.59 292.19C652.98 293.76 648.29 297.54 645.55 302.75L639.94 313.45 634.34 302.75C631.6 297.54 626.9 293.76 621.3 292.19 602.39 286.85 587 307.84 597.7 324.27L639.94 388.81 682.19 324.27C692.88 307.84 677.49 286.85 658.59 292.19Z" fill="#ffa0dc" opacity="1" stroke-width="4" stroke="none"></path></g><g><path d="M1225.19 268.74C1220.88 264.54 1217.44 259.53 1215.06 254 1212.69 248.47 1211.43 242.53 1211.36 236.5 1211.29 230.49 1212.41 224.51 1214.65 218.93 1216.89 213.34 1220.22 208.26 1224.43 203.96 1228.64 199.67 1233.66 196.24 1239.2 193.89 1244.74 191.53 1250.69 190.3 1256.71 190.24 1262.73 190.2 1268.7 191.34 1274.28 193.6 1279.85 195.87 1284.93 199.21 1289.21 203.44 1289.43 203.65 1289.64 203.86 1289.85 204.08L1298.64 212.87 1307.23 204.08C1311.46 199.76 1316.5 196.32 1322.07 193.97 1327.63 191.61 1333.61 190.37 1339.66 190.34 1345.7 190.31 1351.69 191.48 1357.28 193.78 1362.88 196.07 1367.96 199.47 1372.23 203.74 1376.5 208.01 1379.88 213.09 1382.19 218.68 1384.49 224.27 1385.65 230.27 1385.61 236.31 1385.58 242.36 1384.36 248.33 1382 253.9 1379.64 259.46 1376.2 264.51 1371.88 268.74L1299.03 341.59 1225.19 268.74Z" fill="#ff4f32" opacity="1" stroke-width="4" stroke="none"></path></g></svg>