<svg xmlns="http://www.w3.org/2000/svg" height="1200" width="1600" version="1.1" xmlns:xlink="http://www.w3.org/1999/xlink" xmlns:svgjs="http://svgjs.com/svgjs"><rect fill="#ffffff" width="1600" height="1200"></rect><g><path d="M586.06 239.95C588.9 239.95 591.2 237.66 591.2 234.81 591.2 231.98 588.9 229.67 586.06 229.67 583.22 229.67 580.92 231.98 580.92 234.81 580.92 237.66 583.22 239.95 586.06 239.95Z" fill="#ffffff" opacity="1" stroke-width="4" stroke="none"></path><path d="M1235.84 799.13C1240.32 799.13 1243.96 795.49 1243.96 791 1243.96 786.52 1240.32 782.88 1235.84 782.88 1231.35 782.88 1227.71 786.52 1227.71 791 1227.71 795.49 1231.35 799.13 1235.84 799.13Z" fill="#ffffff" opacity="1" stroke-width="4" stroke="none"></path><path d="M1115.48 983.72C1118.87 983.72 1121.61 980.98 1121.61 977.59 1121.61 974.2 1118.87 971.45 1115.48 971.45 1112.09 971.45 1109.35 974.2 1109.35 977.59 1109.35 980.98 1112.09 983.72 1115.48 983.72Z" fill="#ffffff" opacity="1" stroke-width="4" stroke="none"></path><path d="M851.72 822.83C855.11 822.83 857.86 820.09 857.86 816.7 857.86 813.31 855.11 810.57 851.72 810.57 848.33 810.57 845.59 813.31 845.59 816.7 845.59 820.09 848.33 822.83 851.72 822.83Z" fill="#ffffff" opacity="1" stroke-width="4" stroke="none"></path><path d="M254.2 539.6C254.76 536.26 252.51 533.09 249.17 532.54 245.83 531.97 242.66 534.23 242.1 537.57 241.54 540.91 243.79 544.07 247.13 544.63 250.48 545.19 253.63 542.94 254.2 539.6Z" fill="#ffffff" opacity="1" stroke-width="4" stroke="none"></path><path d="M1356.36 413.69C1359.75 413.69 1362.49 410.95 1362.49 407.56 1362.49 404.17 1359.75 401.42 1356.36 401.42 1352.97 401.42 1350.22 404.17 1350.22 407.56 1350.22 410.95 1352.97 413.69 1356.36 413.69Z" fill="#ffffff" opacity="1" stroke-width="4" stroke="none"></path><path d="M1284.57 826.48C1289.98 826.48 1294.36 822.1 1294.36 816.7 1294.36 811.3 1289.98 806.92 1284.57 806.92 1279.17 806.92 1274.79 811.3 1274.79 816.7 1274.79 822.1 1279.17 826.48 1284.57 826.48Z" fill="#ffffff" opacity="1" stroke-width="4" stroke="none"></path><path d="M672.85 312.56C678.34 312.56 682.8 308.11 682.8 302.62 682.8 297.12 678.34 292.67 672.85 292.67 667.35 292.67 662.9 297.12 662.9 302.62 662.9 308.11 667.35 312.56 672.85 312.56Z" fill="#ffffff" opacity="1" stroke-width="4" stroke="none"></path></g><g><path d="M975.13 902.39L917.66 945.31 939.48 877.97 872.23 869.53 933.47 836.31 900.79 770.58 967.77 806.77 993.71 751.82 1011.49 815.92 1079.91 791.23 1030.17 850.85 1090.32 891.7 1018.14 891.97 1019.12 961.47 975.13 902.39Z" stroke="#ffffff" stroke-width="4" stroke-linecap="round" stroke-linejoin="round" opacity="1" fill="none"></path></g><g><path d="M406.64 269.28L462.32 225.42 441.35 290.9 506.19 298.5 449.69 330.82 476.79 384.94 417.36 356.37 389.61 423.68 375.78 353.9 303.35 366.54 356.28 321.21 307.74 288.06 370.2 284.76 365.53 217.45 406.64 269.28Z" stroke="#ffffff" stroke-width="4" stroke-linecap="round" stroke-linejoin="round" opacity="1" fill="none"></path></g><g><path d="M1342.28 660.58H1317.41V231.09H896.21V660.58H871.34V685.53H896.21 1317.41 1342.28V660.58Z" fill="#ff9edd" opacity="1" stroke-width="4" stroke="none"></path><path d="M921.09 660.66V429.34H1292.53V660.66H921.09Z" fill="#f3ebe9" opacity="1" stroke-width="4" stroke="none"></path><path d="M921.09 404.38V255.97H1292.53V404.38H921.09Z" fill="#f3ebe9" opacity="1" stroke-width="4" stroke="none"></path></g><g><path d="M1087.15 430.48L1087.62 410.51C1074.56 413.12 1055.71 412.47 1045.64 399.69 1036.31 387.93 1037.99 369.93 1042.19 344.74 1043.31 339.98 1043.96 332.99 1044.61 325.8 1046.11 309.76 1048.72 290.16 1057.21 278.88 1070.27 261.24 1092.84 251.91 1120.46 251.91 1122.6 251.91 1124.84 251.91 1126.99 252.1 1158.9 253.87 1184.18 281.86 1183.24 312.55 1182.78 326.92 1180.82 353.6 1178.86 387.09 1178.21 397.26 1176.43 432.06 1176.43 432.06L1087.15 430.48Z" fill="#a15842" opacity="1" stroke-width="4" stroke="none"></path><path d="M1087.62 410.51L1087.06 434.77 1112.16 401.83C1098.44 408.37 1087.62 410.51 1087.62 410.51Z" fill="#282625" opacity="0.2" stroke-width="4" stroke="none"></path><path d="M1131.09 369.09L1142.57 364.05" stroke="#222020" stroke-width="4" stroke-linecap="round" stroke-linejoin="round" opacity="1" fill="none"></path><path d="M1087.34 410.51C1093.68 409.02 1101.24 407.06 1108.42 403.51" stroke="#222020" stroke-width="4" stroke-linecap="round" stroke-linejoin="round" opacity="1" fill="none"></path><path d="M1068.5 350.9L1067.66 354.16C1067 355.94 1067.66 357.89 1068.96 359.2L1069.43 359.67" stroke="#222020" stroke-width="4" stroke-linecap="round" stroke-linejoin="round" opacity="1" fill="none"></path><path d="M1064.95 373.57C1066.35 381.87 1081.18 381.68 1080.34 369.93L1064.95 373.57Z" fill="#282625" opacity="1" stroke-width="4" stroke="none"></path><path d="M1088.37 348.47C1090.47 348.47 1092.19 346.76 1092.19 344.65 1092.19 342.54 1090.47 340.82 1088.37 340.82 1086.26 340.82 1084.54 342.54 1084.54 344.65 1084.54 346.76 1086.26 348.47 1088.37 348.47Z" fill="#30242a" opacity="1" stroke-width="4" stroke="none"></path><path d="M1055.62 344.55C1057.74 344.55 1059.45 342.84 1059.45 340.73 1059.45 338.62 1057.74 336.9 1055.62 336.9 1053.51 336.9 1051.8 338.62 1051.8 340.73 1051.8 342.84 1053.51 344.55 1055.62 344.55Z" fill="#30242a" opacity="1" stroke-width="4" stroke="none"></path><path d="M1173.82 268.33C1196.65 268.33 1215.15 249.83 1215.15 227.01 1215.15 204.18 1196.65 185.68 1173.82 185.68 1150.99 185.68 1132.49 204.18 1132.49 227.01 1132.49 249.83 1150.99 268.33 1173.82 268.33Z" fill="#30242a" opacity="1" stroke-width="4" stroke="none"></path><path d="M870.44 599.24C852.99 590.85 819.4 563.14 848.05 490.28 857.37 463.41 871.65 435.51 886.3 415.74 886.3 415.74 876.31 403.98 879.11 392.23 882 380.47 956.92 355.56 956.92 355.56 956.92 355.47 965.87 385.42 965.87 385.42 967.55 402.11 956.08 452.59 947.31 477.5 943.11 489.25 939.57 499.33 937.79 505.2 937.89 505.11 947.12 499.05 960.09 490.84L1003 577.78C977.91 589.73 919.13 618.09 870.44 599.24Z" fill="#a15842" opacity="1" stroke-width="4" stroke="none"></path><path d="M868.57 421.33C862.51 421.33 857.09 417.51 854.95 411.82 852.24 404.35 856.07 395.96 863.63 393.25L973.06 353.32 983.04 380.47 873.61 420.49C871.93 421.05 870.25 421.33 868.57 421.33Z" fill="#3d221e" opacity="1" stroke-width="4" stroke="none"></path><path d="M874.45 397.64C872.95 397.64 871.74 397.36 871 396.8 864.37 392.32 869.69 376.18 874.63 366.94 879.48 357.89 884.06 356.49 886.3 356.49 887.04 356.49 887.51 356.68 887.51 356.68 890.96 349.5 897.12 348.01 901.6 348.01 904.67 348.01 907.01 348.75 907.01 348.75 911.11 345.11 915.31 343.25 919.41 343.25 924.36 343.25 927.44 346.05 927.53 346.05 927.53 345.95 932.29 338.4 940.68 338.4 941.8 338.4 943.02 338.58 944.23 338.86 948.71 339.89 955.98 348.1 957.76 358.92L943.48 364.52C943.48 364.61 941.15 377.67 932.47 380.66 930.52 381.31 928.65 381.68 926.97 381.68 924.08 381.68 922.49 380.66 922.49 380.66 922.49 380.75 918.2 388.87 910.18 388.87 909.8 388.87 909.34 388.87 908.97 388.77 903.55 388.21 902.62 385.23 902.62 385.14 902.62 385.32 901.6 393.35 891.8 395.12 891.33 395.21 890.96 395.21 890.59 395.21 886.67 395.21 884.62 391.48 884.62 391.48 882.66 395.77 878.18 397.64 874.45 397.64Z" fill="#a15842" opacity="1" stroke-width="4" stroke="none"></path><path d="M988.26 397.54C1007.89 397.54 1023.81 381.63 1023.81 362 1023.81 342.37 1007.89 326.45 988.26 326.45 968.64 326.45 952.72 342.37 952.72 362 952.72 381.63 968.64 397.54 988.26 397.54Z" fill="#fe4f32" opacity="1" stroke-width="4" stroke="none"></path><path d="M937.23 406.22C934.34 406.69 918.85 408.27 912.79 421.89" stroke="#222020" stroke-width="4" stroke-linecap="round" opacity="1" fill="none"></path><path d="M938.82 502.96L928.09 531.04" stroke="#222020" stroke-width="4" stroke-linecap="round" stroke-linejoin="round" opacity="1" fill="none"></path><path d="M1289.13 555.86C1283.16 537.76 1268.14 490.74 1245.84 462.85 1244.44 461.26 1242.95 459.68 1241.46 458.28 1217.95 433.55 1181.1 430.2 1181.1 430.2L1180.54 420.31 1087.25 420.12 1086.31 430.2C1068.4 431.13 1051.52 434.58 1025.67 449.04 1005.34 460.42 982.95 475.35 958.41 491.68L1001.51 578.44C1015.23 572 1023.71 566.31 1023.71 566.31L1013.55 658.76H1200.13L1218.6 571.07 1226.16 569.48 1289.13 555.86Z" fill="#fe4f32" opacity="1" stroke-width="4" stroke="none"></path><path d="M1026.79 537.48L1008.32 575.17C1018.02 570.23 1023.71 566.4 1023.71 566.4L1026.79 537.48Z" fill="#000000" opacity="0.2" stroke-width="4" stroke="none"></path><path d="M1023.16 501.1L1032.58 518.82C1034.72 522.84 1040.79 521.81 1041.35 517.24L1044.15 495.78C1044.52 493.17 1046.85 491.4 1049.46 491.77L1072.32 494.75C1076.8 495.31 1079.5 489.81 1076.15 486.64L1061.41 472.74C1059.45 470.87 1059.45 467.7 1061.5 465.83L1076.05 452.59C1079.41 449.51 1076.8 443.91 1072.32 444.47L1051.14 447.18C1048.34 447.55 1045.83 445.31 1045.83 442.42V439.15C1039.76 441.67 1033.14 444.84 1025.77 448.95 1012.24 456.5 997.78 465.65 982.39 475.82L996.66 480.39C999.09 481.13 1000.39 483.65 999.74 486.17L994.14 506.23C992.93 510.61 998.06 514.07 1001.6 511.17L1016.06 499.61C1018.3 497.74 1021.76 498.49 1023.16 501.1Z" fill="#ffffff" opacity="1" stroke-width="4" stroke="none"></path><path d="M1149.66 549.61L1160.2 569.85C1162.16 573.68 1158.06 577.78 1154.23 575.83L1135.2 566.03C1132.77 564.72 1129.7 566.03 1128.95 568.73L1123.35 587.67C1122.14 591.78 1116.35 591.87 1114.95 587.86L1107.77 567.06C1107.03 564.82 1104.6 563.6 1102.36 564.26L1079.5 571.25C1075.4 572.47 1072.13 567.71 1074.75 564.35L1090.14 544.48C1091.73 542.52 1091.26 539.63 1089.11 538.14L1074.09 527.78C1070.73 525.45 1072.04 520.22 1076.15 519.76L1098.35 517.33C1100.59 517.05 1102.27 515.28 1102.27 513.04L1102.55 492.61C1102.64 488.32 1108.14 486.64 1110.57 490.18L1120.65 505.02C1122.23 507.35 1125.59 507.63 1127.46 505.58L1142.57 489.72C1145.55 486.54 1150.78 489.16 1150.13 493.45L1146.49 515.84C1146.11 518.26 1147.79 520.5 1150.22 520.88L1171.77 524.14C1175.97 524.79 1176.9 530.49 1173.17 532.44L1151.62 543.55C1149.38 544.76 1148.54 547.37 1149.66 549.61Z" fill="#ffffff" opacity="1" stroke-width="4" stroke="none"></path><path d="M1061.5 648.69L1079.88 643.46C1083.42 642.44 1083.52 637.4 1079.97 636.28L1056.46 628.82C1054.69 628.26 1053.57 626.39 1053.94 624.52L1058.89 598.22C1059.54 594.67 1055.34 592.34 1052.64 594.76L1035.1 610.81C1033.51 612.3 1030.99 612.12 1029.69 610.44L1020.17 598.78 1013.55 659.04H1063.46L1059.73 655.03C1057.86 652.79 1058.79 649.43 1061.5 648.69Z" fill="#ffffff" opacity="1" stroke-width="4" stroke="none"></path><path d="M1245.84 462.85C1244.44 461.26 1242.95 459.68 1241.46 458.28 1240.62 457.34 1239.69 456.5 1238.85 455.66L1238.01 456.22 1236.98 454.27C1236.7 453.8 1236.42 453.33 1235.96 453.05 1229.14 447.27 1221.77 442.88 1214.59 439.62L1212.82 455.57C1212.54 457.9 1210.49 459.58 1208.15 459.4L1186.04 457.72C1181.85 457.44 1179.7 462.66 1182.87 465.46L1197.61 477.77C1199.85 479.73 1199.66 483.28 1197.05 484.87L1181.1 494.75C1177.46 496.99 1178.86 502.59 1183.15 502.87L1208.06 504.36C1210.3 504.46 1211.98 506.23 1212.17 508.47L1214.12 537.3C1214.4 541.68 1220.28 542.89 1222.33 538.97L1233.62 517.14C1234.84 514.91 1237.73 514.07 1239.87 515.47L1256.2 525.91C1259.65 528.15 1264.04 524.7 1262.64 520.78L1256.01 501.56C1255.17 499.05 1256.76 496.34 1259.37 495.87L1265.44 494.75C1259.65 483.19 1253.12 471.99 1245.84 462.85Z" fill="#ffffff" opacity="1" stroke-width="4" stroke="none"></path><path d="M1027.54 531.14L1023.71 566.12" stroke="#000000" stroke-width="4" stroke-linecap="round" stroke-linejoin="round" opacity="1" fill="none"></path><path d="M887.51 356.68C885.08 365.82 882.75 378.33 884.62 391.48" stroke="#222020" stroke-width="4" stroke-linecap="round" opacity="1" fill="none"></path><path d="M907.02 348.75C904.68 355.84 901.14 366.85 902.63 385.14" stroke="#222020" stroke-width="4" stroke-linecap="round" opacity="1" fill="none"></path><path d="M928.18 346.23C927.25 353.04 922.49 365.45 922.49 380.66" stroke="#222020" stroke-width="4" stroke-linecap="round" opacity="1" fill="none"></path><path d="M943.3 353.14C943.3 353.14 943.95 358.36 943.48 364.52" stroke="#222020" stroke-width="4" stroke-linecap="round" opacity="1" fill="none"></path><path d="M943.3 403.14L947.77 393.16C947.77 393.07 951.32 385.6 955.98 378.23 960.28 371.42 966.53 363.31 971.66 363.31 971.84 363.31 971.94 363.31 972.12 363.31 973.9 363.49 975.3 364.24 976.23 365.54 979.49 370.21 976.88 381.31 974.18 393.07L973.9 394.09C968.11 418.53 956.08 452.59 947.31 477.5 947.22 477.77 947.12 477.96 946.94 478.24" fill="#a15842" opacity="1" stroke-width="4" stroke="none"></path><path d="M1178.77 668.93C1160.95 655.4 1148.91 643.09 1148.82 642.9H1148.73C1147.05 642.9 1131.65 642.53 1113.09 630.21 1113.09 630.21 1113.09 630.21 1113 630.21 1111.78 630.21 1099.28 630.12 1086.78 628.91 1074.65 627.7 1060.01 625.27 1058.98 619.95 1058.79 619.11 1059.07 618.37 1059.54 617.62 1062.71 613.42 1077.36 611.84 1087.99 610.62 1090.05 610.44 1091.91 610.16 1093.59 609.97 1093.22 609.97 1059.26 603.44 1047.97 594.39 1044.99 592.06 1043.21 588.14 1043.59 584.87 1043.87 582.82 1044.89 581.24 1046.66 580.4 1046.57 580.4 1041.07 573.03 1045.17 568.27 1046.57 566.59 1049.09 565.56 1052.92 565.1 1052.82 565.1 1049 560.25 1051.42 555.58 1053.1 552.32 1058.89 550.64 1068.5 550.64 1077.64 550.64 1090.23 552.13 1106 555.02 1100.03 548.96 1099.28 541.77 1101.15 537.39 1102.08 535.15 1103.76 533.75 1105.44 533.75 1105.53 533.75 1105.63 533.75 1105.63 533.75 1112.62 534.22 1203.49 588.51 1204.42 589.07V572.93C1204.8 572.56 1288.29 553.71 1288.29 553.71 1317.12 640.01 1305.46 671.36 1295.85 684.7 1288.11 695.61 1248.36 717.72 1178.77 668.93Z" fill="#a15842" opacity="1" stroke-width="4" stroke="none"></path><path d="M1204.42 589.07C1211.33 593.27 1219.26 599.24 1248.36 613.42" stroke="#222020" stroke-width="4" stroke-linecap="round" stroke-linejoin="round" opacity="1" fill="none"></path><path d="M1106 555.02C1112.9 556.61 1126.24 560.06 1132.77 562.48" stroke="#222020" stroke-width="4" stroke-linecap="round" stroke-linejoin="round" opacity="1" fill="none"></path><path d="M1093.68 610.06L1110.2 611.18" stroke="#222020" stroke-width="4" stroke-linecap="round" stroke-linejoin="round" opacity="1" fill="none"></path><path d="M1046.76 579.74C1064.86 580.58 1093.78 588.14 1113.28 593.46" stroke="#222020" stroke-width="4" stroke-linecap="round" stroke-linejoin="round" opacity="1" fill="none"></path><path d="M1053.01 565.1C1074.47 565.94 1101.15 571.35 1116.73 575.92" stroke="#222020" stroke-width="4" stroke-linecap="round" stroke-linejoin="round" opacity="1" fill="none"></path><path d="M1204.42 528.81V589.07" stroke="#000000" stroke-width="4" stroke-linecap="round" stroke-linejoin="round" opacity="1" fill="none"></path><path d="M1281.58 533.75C1268.05 498.3 1258.25 481.32 1258.25 481.32 1245.28 485.52 1228.4 489.72 1218.42 489.72 1192.57 489.72 1172.52 481.88 1158.9 466.49 1133.43 438.03 1138.37 391.2 1138.84 389.24 1138.84 389.24 1170 371.98 1162.72 349.78 1152.46 328.88 1126.71 346.98 1126.71 346.98 1124.66 337.93 1125.22 330 1128.76 320.95 1125.5 321.42 1123.54 321.6 1120.93 321.6 1107.68 321.6 1103.48 316.57 1101.52 312.46 1098.91 307.42 1100.03 300.52 1104.32 294.64 1089.95 302.29 1072.13 303.6 1063.27 302.29 1051.98 300.8 1049.09 295.76 1049.09 295.76 1050.4 290.54 1053.29 284.66 1053.29 284.66 1053.29 284.66 1055.71 280.27 1057.02 278.78 1070.08 261.15 1092.66 251.63 1120.27 251.63 1122.42 251.63 1124.66 251.63 1126.8 251.82 1158.71 253.59 1184.18 279.9 1183.34 310.69 1183.15 318.99 1183.15 328.23 1182.13 350.99 1198.17 343.43 1213.94 342.22 1227.37 343.25 1266.37 346.23 1287.92 375.81 1284 412 1287.73 412.66 1333.73 414.8 1341.19 460.05 1349.49 519.1 1281.58 533.75 1281.58 533.75Z" fill="#30242a" opacity="1" stroke-width="4" stroke="none"></path><path d="M1143.69 255.27C1151.06 257.88 1157.68 261.8 1163.37 266.75" stroke="#fefefe" stroke-width="4" stroke-linecap="round" stroke-linejoin="round" opacity="1" fill="none"></path><path d="M1283.81 412C1269.07 411.16 1257.69 415.27 1257.69 415.27" stroke="#231f21" stroke-width="4" stroke-linecap="round" stroke-linejoin="round" opacity="1" fill="none"></path><path d="M1258.25 481.41C1272.15 476.19 1277.56 469.85 1277.56 469.85" stroke="#231f21" stroke-width="4" stroke-linecap="round" stroke-linejoin="round" opacity="1" fill="none"></path><path d="M1181.94 350.99L1181.38 364.05" stroke="#231f21" stroke-width="4" stroke-linecap="round" stroke-linejoin="round" opacity="1" fill="none"></path><path d="M1013.55 659.04H1166.45" stroke="#000000" stroke-width="4" stroke-linecap="round" stroke-linejoin="round" opacity="1" fill="none"></path></g><g><path d="M756.25 598.89C756.34 598.51 757.36 572.37 749.74 566.23 748.62 565.3 747.32 564.83 746.11 564.93 740.43 565.11 733.64 573.77 718.94 614.98 713.08 631.36 703.22 668.38 696.43 697.23L783.23 729.51C787.97 688.11 786.3 641.96 789.83 644.66L756.25 598.89Z" fill="#a15842" opacity="1" stroke-width="4" stroke="none"></path><path d="M811.33 747.37C807.51 748.95 803.14 747.19 801.56 743.46L695.68 493.94C694.1 490.13 695.87 485.75 699.59 484.17 703.4 482.59 707.78 484.36 709.36 488.08L815.14 737.6C816.82 741.42 815.05 745.79 811.33 747.37Z" fill="#231f20" opacity="1" stroke-width="4" stroke="none"></path><path d="M794.11 686.53C792.44 686.62 789.93 685.87 787.88 683.83 786.11 682.06 784.07 678.62 784.25 672.48 784.25 672.57 780.72 674.62 776.81 674.8 774.48 674.9 772.44 674.34 770.85 673.04 763.69 667.45 765.83 658.8 765.83 658.8 765.83 658.8 764.06 659.45 761.92 659.55 759.5 659.64 756.06 659.08 754.02 655.64 750.01 649.13 754.11 639.82 754.29 639.45 754.2 639.45 753.92 639.54 753.46 639.54 751.69 639.64 747.41 639.26 746.01 634.33 742.39 622.33 753.46 611.63 758.2 606.98 758.67 606.51 759.04 606.14 759.32 605.86L756.34 598.79C756.43 598.7 762.48 594.98 768.99 594.7 771.79 594.61 774.2 595.16 776.34 596.28 784.72 600.93 783.51 610.61 783.51 610.79 783.51 610.79 784.25 610.61 785.37 610.61 787.97 610.52 792.9 610.79 796.44 614.14 799.05 616.66 800.35 620.28 800.44 625.03 800.53 625.03 814.02 630.8 808.44 644.38 808.53 644.38 811.33 645.03 813.19 648.1 815.14 651.27 815.33 655.73 813.74 661.41 809.84 675.73 801.09 685.32 794.86 686.43 794.49 686.53 794.3 686.53 794.11 686.53Z" fill="#a15842" opacity="1" stroke-width="4" stroke="none"></path><path d="M651.77 920.79C677.35 933.63 701.17 953.36 719.31 976.71 727.41 987.22 745.08 1009.27 732.52 1011.97 722.01 1014.48 696.15 987.31 696.15 987.31 696.15 987.31 712.06 1027.51 703.12 1035.13 696.15 1041 686.75 1031.51 686.75 1031.51 678.66 1049 665.63 1034.02 665.63 1034.02 640.23 1054.21 624.79 993.18 624.79 993.18 612.69 988.9 601.44 983.03 590.92 975.68 590.92 975.68 584.22 977.27 573.43 979.5L583.11 900.7C608.6 905.53 634 911.95 651.77 920.79Z" fill="#a15842" opacity="1" stroke-width="4" stroke="none"></path><path d="M793.56 686.53C791.88 686.43 789.65 685.69 787.79 683.83 786.02 682.06 783.97 678.62 784.16 672.48 784.16 672.57 780.62 674.62 776.72 674.8 774.39 674.9 772.34 674.34 770.76 673.04 763.6 667.45 765.64 658.99 765.74 658.8 765.74 658.89 763.97 659.45 761.83 659.55 759.41 659.64 755.97 659.08 753.92 655.64 749.92 649.13 754.02 639.82 754.2 639.45 754.11 639.45 753.83 639.54 753.36 639.54 751.6 639.64 747.32 639.26 745.92 634.33 742.29 622.33 753.36 611.63 758.11 606.98 758.57 606.51 758.95 606.14 759.23 605.86" stroke="#222020" stroke-width="4" stroke-linecap="round" stroke-linejoin="round" opacity="1" fill="none"></path><path d="M754.2 639.45C764.16 633.03 776.25 624.75 784.44 611.17" stroke="#222020" stroke-width="4" stroke-linecap="round" opacity="1" fill="none"></path><path d="M765.74 658.8C780.25 649.68 790.86 640.1 800.91 626.24" stroke="#222020" stroke-width="4" stroke-linecap="round" opacity="1" fill="none"></path><path d="M784.25 672.48C791.23 666.8 799.88 657.22 807.79 645.5" stroke="#222020" stroke-width="4" stroke-linecap="round" opacity="1" fill="none"></path><path d="M767.13 463.98L637.16 519.15C628.32 522.87 618 518.78 614.27 509.94L574.36 415.88C570.64 407.04 574.73 396.72 583.57 393L713.54 337.92C722.38 334.2 732.71 338.29 736.43 347.13L776.34 441.19C780.16 450.03 775.97 460.26 767.13 463.98Z" fill="#fe4f32" opacity="1" stroke-width="4" stroke="none"></path><path d="M689.82 398.3C680.8 394.86 670.65 399.32 667.12 408.35L665.26 413.18 660.42 411.32C651.3 407.97 641.25 412.63 637.91 421.65 634.56 430.58 639.02 440.44 647.77 444.07L652.61 445.93 685.35 458.59 698.01 425.84 699.87 421.09C703.4 411.97 698.94 401.83 689.82 398.3 689.82 398.3 689.91 398.3 689.82 398.3Z" fill="#ffffff" opacity="1" stroke-width="4" stroke="none"></path><path d="M581.62 598.61C580.32 593.21 568.13 593.86 568.13 593.86 567.66 591.35 567.48 588.93 566.83 586.42 562.36 564.65 559.2 547.62 545.99 534.32 534.73 523.06 504.86 512.55 469.7 525.29 427.74 544.18 423.92 573.58 425.22 599.35 426.15 615.26 433.04 693.22 433.78 698.81H530.08L527.56 679.08C559.85 683.08 570.45 669.41 575.2 657.5 580.59 644.01 577.25 627.63 572.97 612.56 572.41 612.56 582.92 605.4 581.62 598.61Z" fill="#a15842" opacity="1" stroke-width="4" stroke="none"></path><path d="M431.46 677.22C431.46 677.22 425.6 612.56 424.67 599.26 423.36 573.02 427.55 543.62 469.32 524.92 480.12 521.11 490.91 519.06 501.42 519.06 523.19 519.06 538.91 527.15 545.89 534.13 556.22 544.27 560.22 556.83 563.2 568.93V569.11L563.01 569.3C563.01 569.3 557.61 574.42 545.71 574.42 542.54 574.42 539.19 573.95 535.84 573.49 536.5 579.35 535.66 583.81 533.15 586.51 531.1 588.74 528.22 589.86 524.4 589.86 520.59 589.86 516.96 588.74 515.84 588.28 516.03 590.98 517.14 606.42 508.86 617.03L508.68 617.21 508.49 617.03C508.31 616.84 492.3 606.51 477.7 606.51 470.53 606.51 464.86 609.21 460.86 614.14 445.6 634.33 477.88 659.73 478.16 659.92L478.35 660.1 478.16 660.29C463.37 677.32 431.46 677.22 431.46 677.22Z" fill="#30242a" opacity="1" stroke-width="4" stroke="none"></path><path d="M527.47 679.18C527.47 679.18 515.84 677.13 499.19 669.31L526.82 697.13 529.7 696.67 527.47 679.18Z" fill="#282625" opacity="0.2" stroke-width="4" stroke="none"></path><path d="M526.35 678.9C519.84 677.78 511.56 675.83 504.3 670.9" stroke="#222020" stroke-width="4" stroke-linecap="round" stroke-linejoin="round" opacity="1" fill="none"></path><path d="M563.2 627.82C560.96 629.12 552.68 630.33 549.06 624.01" stroke="#222020" stroke-width="4" stroke-linecap="round" stroke-linejoin="round" opacity="1" fill="none"></path><path d="M552.03 603.44C554.25 603.44 556.03 601.65 556.03 599.44 556.03 597.23 554.25 595.44 552.03 595.44 549.83 595.44 548.03 597.23 548.03 599.44 548.03 601.65 549.83 603.44 552.03 603.44Z" fill="#30242a" opacity="1" stroke-width="4" stroke="none"></path><path d="M481.23 628.94L493.79 636.1" stroke="#222020" stroke-width="4" stroke-linecap="round" stroke-linejoin="round" opacity="1" fill="none"></path><path d="M697.17 693.6C690.19 722.53 684.8 747.28 684.8 747.28 587.85 713.41 531.66 711.37 531.66 711.37L530.73 711.18 497.05 700.39 434.43 711.37 406.43 711.18H397.22C371.82 711.18 337.77 733.14 340.19 776.49 341.4 798.54 345.4 820.03 351.35 840.41 349.49 870.92 343.72 879.48 344.47 906.09 344.47 924.7 359.91 933.07 359.91 933.07H396.85C407.64 947.77 418.99 960.05 429.97 969.17 464.76 998.11 542.73 986.38 577.06 979.59L586.64 901.35C579.66 900.05 572.59 898.93 565.52 897.81L575.2 834.83C575.2 834.83 682.47 866.46 726.94 850.08 764.62 836.13 779.04 773.52 784.16 720.76L697.17 693.6Z" fill="#fe4f32" opacity="1" stroke-width="4" stroke="none"></path><path d="M460.76 827.48C460.76 827.48 481.6 871.95 488.02 889.35 488.02 889.35 516.21 891.39 536.68 894 504.4 875.95 493.51 851.39 481.14 836.87 476.02 830.92 468.58 827.48 460.76 827.48Z" fill="#3d221e" opacity="0.2" stroke-width="4" stroke="none"></path><path d="M366.61 932.89H396.94C383.92 916.05 373.4 895.77 365.77 878.46 363.26 880.97 362.33 884.69 363.35 888.14 367.54 902.84 371.45 923.77 366.61 932.89Z" fill="#3d221e" opacity="0.2" stroke-width="4" stroke="none"></path><path d="M454.34 813.71L488.4 887.3" stroke="#321d19" stroke-width="4" stroke-linecap="round" stroke-linejoin="round" opacity="1" fill="none"></path><path d="M396.85 933.07C389.68 922.75 380.66 912.7 375.08 901.53 370.61 892.79 366.8 883.39 363.82 873.9" stroke="#321d19" stroke-width="4" stroke-linecap="round" stroke-linejoin="round" opacity="1" fill="none"></path><path d="M564.22 897.53C523.56 891.49 502.16 888.42 487.09 887.3 477.23 886.37 463.28 886 463.28 886" stroke="#321d19" stroke-width="4" stroke-linecap="round" stroke-linejoin="round" opacity="1" fill="none"></path><path d="M548.59 966.75C554.04 966.75 558.45 962.33 558.45 956.89 558.45 951.44 554.04 947.03 548.59 947.03 543.15 947.03 538.73 951.44 538.73 956.89 538.73 962.33 543.15 966.75 548.59 966.75Z" fill="#231f20" opacity="1" stroke-width="4" stroke="none"></path><path d="M581.8 797.52L575.2 834.83" stroke="#321d19" stroke-width="4" stroke-linecap="round" stroke-linejoin="round" opacity="1" fill="none"></path><path d="M756.43 753.05C761.88 753.05 766.3 748.63 766.3 743.19 766.3 737.73 761.88 733.32 756.43 733.32 750.99 733.32 746.57 737.73 746.57 743.19 746.57 748.63 750.99 753.05 756.43 753.05Z" fill="#231f20" opacity="1" stroke-width="4" stroke="none"></path><path d="M681.63 746.16C677.17 744.67 672.42 743.09 667.68 741.51L699.12 792.12 681.63 746.16Z" fill="#3d221e" opacity="0.2" stroke-width="4" stroke="none"></path><path d="M612.23 844.13C612.23 844.13 593.71 821.71 580.87 794.36L575.29 834.73C575.29 834.83 590.64 839.39 612.23 844.13Z" fill="#3d221e" opacity="0.2" stroke-width="4" stroke="none"></path><path d="M684.52 747.84L690.75 768.86" stroke="#321d19" stroke-width="4" stroke-linecap="round" stroke-linejoin="round" opacity="1" fill="none"></path><path d="M497.14 769.42C502.58 769.42 507 765 507 759.56 507 754.11 502.58 749.7 497.14 749.7 491.7 749.7 487.28 754.11 487.28 759.56 487.28 765 491.7 769.42 497.14 769.42Z" fill="#231f20" opacity="1" stroke-width="4" stroke="none"></path><path d="M531.56 711.37L529.52 694.71H498.35 497.23 433.04C433.04 694.71 434.34 709.51 434.62 711.37L474.07 728.58C477.14 729.88 480.67 728.86 482.44 726.07L497.7 703.18 509.51 724.3C511.28 727.46 515.75 728.02 518.26 725.42L531.56 711.37Z" fill="#231f20" opacity="1" stroke-width="4" stroke="none"></path><path d="M696.61 988.24C692.8 978.38 692.33 976.99 686.47 964.43" stroke="#222020" stroke-width="4" stroke-linecap="round" stroke-linejoin="round" opacity="1" fill="none"></path><path d="M665.63 973.73C675.49 994.85 682.47 1017.92 686.47 1032.06" stroke="#222020" stroke-width="4" stroke-linecap="round" stroke-linejoin="round" opacity="1" fill="none"></path><path d="M645.26 978.85C652.42 995.69 660.05 1018.57 664.79 1033.83" stroke="#222020" stroke-width="4" stroke-linecap="round" stroke-linejoin="round" opacity="1" fill="none"></path></g></svg>