<svg xmlns="http://www.w3.org/2000/svg" height="1200" width="1600" version="1.1" xmlns:xlink="http://www.w3.org/1999/xlink" xmlns:svgjs="http://svgjs.com/svgjs"><rect fill="#ffffff" width="1600" height="1200"></rect><g><path d="M236.69 895.29C236.69 895.29 239.39 727.08 427.57 717.13 427.57 717.13 451.29 581.6 591.75 621.67 591.75 621.67 637.85 403.69 857.84 403.69 1088.34 403.69 1137.68 659.44 1137.68 659.44 1137.68 659.44 1336.37 659.44 1363.33 895.29H236.69V895.29Z" fill="#efdcd7" opacity="1" stroke-width="4" stroke="none"></path><path d="M1137.68 659.44C1137.68 659.44 1088.34 403.69 857.84 403.69 637.85 403.69 591.75 621.67 591.75 621.67 536.21 605.84 499.01 617.33 474.21 636.98 483.91 654.34 496.31 671.7 511.95 688.54 672.9 864.66 901.24 742.14 901.24 742.14 989.94 888.65 1148.73 796.51 1148.73 796.51 1203.46 871.04 1299.97 878.44 1356.59 854.19 1312.64 659.44 1137.68 659.44 1137.68 659.44Z" fill="#ffffff" opacity="0.3" stroke-width="4" stroke="none"></path><path d="M1137.68 659.44C1142.26 689.56 1144.96 730.4 1144.96 730.4" stroke="#bbbbbb" stroke-width="4" stroke-linecap="round" stroke-linejoin="round" opacity="1" fill="none"></path><path d="M592.02 621.67C619.25 630.86 643.51 651.28 643.51 651.28" stroke="#bbbbbb" stroke-width="4" stroke-linecap="round" stroke-linejoin="round" opacity="1" fill="none"></path><path d="M427.57 717.13C422.17 737.04 420.02 757.71 421.1 778.13" stroke="#bbbbbb" stroke-width="4" stroke-linecap="round" stroke-linejoin="round" opacity="1" fill="none"></path><path d="M986.57 626.14C1000.08 590.3 975.22 549.13 931.06 534.2 886.87 519.27 840.13 536.24 826.59 572.08 813.09 607.91 837.94 649.08 882.1 664.01 926.29 678.94 973.04 661.97 986.57 626.14Z" fill="#f3ebe9" opacity="1" stroke-width="4" stroke="none"></path><path d="M923.35 604.77C926.21 597.22 921 588.54 911.76 585.4 902.48 582.28 892.67 585.88 889.84 593.44 886.98 601.02 892.16 609.67 901.4 612.81 910.68 615.93 920.49 612.35 923.35 604.77Z" fill="#8a7c79" stroke="#8a7c79" stroke-width="4" opacity="1"></path><path d="M708.62 823.46C756.07 812.54 786.56 772.49 776.66 734 766.8 695.51 720.32 673.15 672.87 684.07 625.39 694.97 594.93 735.02 604.8 773.51 614.69 812.03 661.17 834.39 708.62 823.46Z" fill="#f3ebe9" opacity="1" stroke-width="4" stroke="none"></path><path d="M694.68 769.12C705.11 766.75 711.77 757.92 709.62 749.42 707.43 740.92 697.21 735.99 686.81 738.39 676.37 740.76 669.69 749.59 671.87 758.09 674.06 766.59 684.27 771.52 694.68 769.12Z" fill="#5c5c5c" opacity="1" stroke-width="4" stroke="none"></path></g><g><path d="M709.04 946.61C709.23 934.61 709.99 921.95 711.4 910.14 712.44 901.16 714.05 892.28 716.32 883.59 724.16 853.45 726.14 841.26 733.13 810.83 735.5 800.63 738.71 792.6 739.65 787.87 766.02 789.1 792.38 790.23 818.74 791.46L814.68 810.74C814.3 812.44 813.92 814.23 813.54 815.84 809.76 833.04 805.7 850.04 801.73 866.39 797.95 881.98 794.46 896.63 791.53 910.04 788.88 921.76 787.18 933.67 786.52 945.67V945.76L748.16 995.18 709.04 946.61Z" fill="#8c5a2b" opacity="1" stroke-width="4" stroke="none"></path><path d="M866.55 945.85C865.13 933.95 864.09 921.95 863.53 910.14 863.15 903.62 862.87 897 862.87 890.39 862.87 888.88 862.87 887.27 862.87 885.67 862.96 863.84 862.96 836.53 854.08 810.74L857.2 806.96 930.33 807.43 934.39 810.55C934.77 812.82 935.05 814.8 935.24 816.6 938.83 844.38 940.35 872.25 941.67 896.82 941.95 901.35 942.14 905.7 942.42 910.04 943.09 921.95 944.31 933.85 946.2 945.67V945.76L906.05 991.3 866.55 945.85Z" fill="#8c5a2b" opacity="1" stroke-width="4" stroke="none"></path><path d="M860.69 839.56C859.46 829.73 857.2 820.09 853.98 810.74L853.89 810.45H919.56L919.65 810.83 860.69 839.84V839.56Z" fill="#000000" opacity="0.3" stroke-width="4" stroke="none"></path><path d="M726.71 839.75C729.17 828.12 733.23 809.98 733.23 809.98L797.01 810.36 797.1 810.74 726.71 839.75Z" fill="#000000" opacity="0.3" stroke-width="4" stroke="none"></path><path d="M878.17 341.32C872.32 319.5 865.04 290.96 864.38 281.89L864.28 280.94C863.15 264.79 861.26 237.86 869.01 237.01 869.1 237.01 869.2 237.01 869.29 237.01 870.05 237.01 870.71 237.29 871.28 237.76 872.5 229.73 873.64 223.87 874.49 220.28 876.38 212.06 879.59 210.36 881.95 210.36 883.37 210.46 884.79 210.93 885.92 211.87 887.81 208.85 889.7 207.34 891.5 207.34 895.28 207.34 897.35 213.76 897.73 215.09 898.49 214.8 899.24 214.61 900.09 214.52 901.23 214.52 902.36 214.99 903.12 215.94 906.05 219.34 905.67 227.84 905.2 232.66 905.2 232.94 905.57 233.04 905.67 232.76 907.56 228.41 908.98 226.61 910.49 226.61 910.96 226.61 911.43 226.8 911.81 227.18 916.63 231.34 912.76 257.7 912.66 258.83 913.89 271.4 912.94 282.17 909.73 290.87 916.16 302.49 921.92 315.05 926.74 327.43 926.74 327.43 926.74 327.53 926.65 327.53L878.46 342.08 878.17 341.32Z" fill="#8c5a2b" opacity="1" stroke-width="4" stroke="none"></path><path d="M684.19 334.42L682.21 331.87C687.31 316.38 691.84 305.04 692.32 304.09 692.03 303.05 688.44 290.87 696.57 267.24 696.28 265.73 692.32 243.15 697.51 239.65 697.89 239.37 698.27 239.28 698.74 239.28 700.44 239.28 701.86 241.73 703.47 247.68 703.47 243.72 703.84 233.42 707.34 229.73 708.1 228.88 709.13 228.41 710.17 228.41 711.12 228.41 712.16 228.69 712.91 229.26 713.39 228.13 716.13 222.36 719.62 222.36 721.61 222.36 723.4 224.16 725.01 227.56 726.05 226.9 727.28 226.52 728.6 226.52 731.15 226.52 734.46 228.41 735.4 237.29 735.69 239.56 735.87 242.68 736.06 246.55 736.54 246.17 737.1 245.98 737.67 245.98 737.95 245.98 738.14 245.98 738.43 246.08 742.87 247.5 743.62 265.26 740.5 294.65 739.56 303.34 737.48 320.72 733.99 345.76L733.32 345.57 684.19 334.42Z" fill="#8c5a2b" opacity="1" stroke-width="4" stroke="none"></path><path d="M733.13 810.83V810.64C735.78 794.2 735.97 782.96 735.97 766.33 735.97 759.81 735.4 751.87 734.74 742.61 732 704.44 727.84 646.8 758.27 599.75L758.36 599.65H850.3L850.39 599.75C851.06 600.88 919.84 714.74 934.39 810.64V810.83H733.13Z" fill="#ffc930" opacity="1" stroke-width="4" stroke="none"></path><path d="M742.3 633.86C746.17 621.86 751.28 610.71 758.08 600.03L758.46 599.56H850.39L850.49 599.94 742.21 634.14 742.3 633.86Z" fill="#5f5f5f" opacity="0.3" stroke-width="4" stroke="none"></path><path d="M926.55 326.96L926.27 326.2 878.17 340.28C878.08 340.28 877.98 340.38 878.08 340.57 881.86 354.65 885.26 366.36 885.54 367.5L831.31 448.94V470.01C829.8 473.13 823.84 479.46 813.26 479.46 802.49 479.46 790.49 472.85 777.64 460 749.95 430.99 727.47 401.7 726.24 400.09 726.43 398.49 730.39 372.03 734.08 345.48V345.29L682.39 331.78 682.3 331.97C673.61 358.33 664.16 394.33 668.41 415.59 673.89 442.9 696.95 470.39 715.47 492.41 725.58 504.5 734.36 514.9 737.01 521.89 741.83 534.55 742.02 548.34 742.11 560.44 742.3 578.86 742.02 594.83 758.17 600.03L850.68 600.12C866.17 595.49 866.08 585.38 866.55 565.35 866.55 563.09 866.65 560.63 866.74 557.98 866.93 554.3 866.93 550.9 867.02 547.97 867.4 530.39 867.59 522.36 877.04 499.87L877.13 499.68C882.52 490.23 888.09 480.88 893.48 471.81 909.07 445.54 923.81 420.69 934.58 394.52 942.24 375.62 934.39 347.37 926.55 326.96Z" fill="#61ccff" opacity="1" stroke-width="4" stroke="none"></path><path d="M811.37 484.94C787.65 484.94 777.54 462.27 777.45 461.98 777.07 453.67 776.41 444.03 775.75 433.73 774.61 416.91 773.48 399.43 773.48 387.72 773.48 368.82 788.41 364.66 808.82 364.66 827.34 364.66 841.7 358.71 850.49 371.75 854.93 378.36 856.44 387.72 857.76 396.03 858.24 399.81 858.99 403.5 859.94 407.18L860.32 408.5C864 421.35 866.93 431.46 859.94 440.44 853.13 449.13 842.27 449.23 831.69 449.23V468.79C831.87 472.66 830.55 476.44 828.09 479.37 824.5 483.05 818.93 484.94 811.37 484.94Z" fill="#8c5a2b" opacity="1" stroke-width="4" stroke="none"></path><path d="M716.22 584.82C696 584.82 679.95 575.37 673.33 559.4 667.85 546.36 664.17 527.18 677.59 510.46 682.58 504.31 688.82 499.4 696 495.9 687.4 463.49 695.34 440.63 722.55 419.37 730.68 413.04 741.64 409.64 754.21 409.64 760.06 409.64 765.92 410.3 771.59 411.72 771.5 409.45 770.65 392.53 770.65 385.54 770.65 361.45 792.38 352.94 810.99 352.94 829.51 352.94 841.89 358.33 850.2 371.18L850.68 372.13 850.39 372.5C850.39 372.6 847.18 378.83 836.98 378.83 833.86 378.74 830.74 378.27 827.72 377.32 829.8 383.94 829.7 388.76 827.53 391.68 825.92 393.95 823.09 395.09 819.31 395.09 817.42 395.09 815.43 394.8 813.64 394.33 814.39 396.22 817.61 405.1 812.5 410.2L812.41 410.3 812.32 410.2C812.22 410.11 803.53 405.29 795.97 405.29 790.11 405.29 786.43 408.13 785.2 413.79 781.89 428.72 803.72 438.08 804 438.17L804.09 438.27V438.36C803.62 454.33 794.65 468.79 780.57 476.25 781.89 479.46 800.13 525.76 771.97 558.46 757.7 574.99 736.91 584.82 716.22 584.82Z" fill="#231f20" opacity="1" stroke-width="4" stroke="none"></path><path d="M816.66 445.64L816.85 445.35C822.05 447.62 831.31 449.13 831.4 449.13H831.59V461.89L816.66 445.64Z" fill="#000000" opacity="0.3" stroke-width="4" stroke="none"></path><path d="M798.9 420.22L805.7 423.72" stroke="#000000" stroke-width="4" stroke-linecap="round" stroke-linejoin="round" opacity="1" fill="none"></path><path d="M832.91 449.23C828.57 448.66 822.9 446.96 819.12 444.88" stroke="#000000" stroke-width="4" stroke-linecap="round" stroke-linejoin="round" opacity="1" fill="none"></path><path d="M840.76 419.84C842.46 422.39 847.65 422.39 849.35 420.69" stroke="#000000" stroke-width="4" stroke-linecap="round" stroke-linejoin="round" opacity="1" fill="none"></path><path d="M850.02 401.42C851.22 401.42 852.19 400.44 852.19 399.24 852.19 398.04 851.22 397.07 850.02 397.07 848.82 397.07 847.84 398.04 847.84 399.24 847.84 400.44 848.82 401.42 850.02 401.42Z" fill="#231f20" opacity="1" stroke-width="4" stroke="none"></path><path d="M833.29 406.42C834.49 406.42 835.46 405.45 835.46 404.25 835.46 403.05 834.49 402.08 833.29 402.08 832.09 402.08 831.12 403.05 831.12 404.25 831.12 405.45 832.09 406.42 833.29 406.42Z" fill="#231f20" opacity="1" stroke-width="4" stroke="none"></path><path d="M845.58 406.42C847.28 408.79 848.5 410.58 846.14 412.19" stroke="#000000" stroke-width="4" stroke-linecap="round" stroke-linejoin="round" opacity="1" fill="none"></path><path d="M772.25 600.69C746.55 691.59 773.95 763.59 766.3 810.64" stroke="#5f5f5f" stroke-width="4" stroke-linecap="round" stroke-linejoin="round" opacity="1" fill="none"></path><path d="M758.08 600.03L850.58 600.12" stroke="#5f5f5f" stroke-width="4" stroke-linecap="round" stroke-linejoin="round" opacity="1" fill="none"></path><path d="M725.95 400.09L705.92 404.35" stroke="#020202" stroke-width="4" stroke-linecap="round" stroke-linejoin="round" opacity="1" fill="none"></path><path d="M885.54 367.5L905.01 371.18" stroke="#020202" stroke-width="4" stroke-linecap="round" stroke-linejoin="round" opacity="1" fill="none"></path><path d="M715.28 1008.12C713.95 1000.56 712.25 989.7 711.12 980.72 709.61 969.1 708.95 957.48 709.04 945.76V945.19L719.15 945.57C725.58 945.57 731.34 949.45 733.8 955.3L744.28 980.06 749.48 957.85C751.18 950.67 757.61 945.48 764.98 945.57H786.43V945.76C785.58 963.62 788.03 976.37 793.61 982.52 799.28 988.85 805.61 994.42 812.6 999.05 816.28 1001.7 818.93 1002.83 821.58 1006.23 821.76 1006.42 822.8 1008.03 823.28 1008.69 823.37 1008.78 823.28 1008.97 823.09 1008.97L715.28 1008.12Z" fill="#ffffff" opacity="1" stroke-width="4" stroke="none"></path><path d="M877.98 1009.16C877.61 1007.46 876.94 1004.53 876.47 1002.45L876 1000.56C871.84 982.52 868.72 964.19 866.55 945.76V945.57H879.31C885.45 945.57 890.93 949.16 893.39 954.74L904.91 981 909.45 957.95C910.87 950.77 917.2 945.57 924.57 945.48L945.92 943.97 946.2 945.48C948.47 959.56 951.59 971.08 954.99 977.7 958.77 985.07 966.8 991.02 973.79 996.41 979.09 1000.37 982.58 1002.26 985.32 1006.14L987.31 1008.78C987.4 1008.88 987.31 1009.07 987.12 1009.07L877.98 1009.16Z" fill="#ffffff" opacity="1" stroke-width="4" stroke="none"></path><path d="M744.38 980.72L748.35 1008.12" stroke="#575757" stroke-width="4" stroke-linecap="round" stroke-linejoin="round" opacity="1" fill="none"></path><path d="M905.01 981.67L909.07 1008.12" stroke="#575757" stroke-width="4" stroke-linecap="round" stroke-linejoin="round" opacity="1" fill="none"></path><path d="M787.56 969L773.67 973.16" stroke="#575757" stroke-width="4" stroke-linecap="round" stroke-linejoin="round" opacity="1" fill="none"></path><path d="M791.72 980.25L780.28 986.39" stroke="#575757" stroke-width="4" stroke-linecap="round" stroke-linejoin="round" opacity="1" fill="none"></path><path d="M951.59 969.38L939.02 973.16" stroke="#575757" stroke-width="4" stroke-linecap="round" stroke-linejoin="round" opacity="1" fill="none"></path><path d="M956.6 980.53L945.64 986.39" stroke="#575757" stroke-width="4" stroke-linecap="round" stroke-linejoin="round" opacity="1" fill="none"></path><path d="M717.73 1021.92C717.73 1021.92 716.6 1015.96 715.28 1008.12L715.18 1007.65 822.71 1007.93 822.8 1008.03C826.3 1012.66 827.81 1016.91 827.81 1021.92V1022.11L717.73 1021.92Z" fill="#575757" opacity="1" stroke-width="4" stroke="none"></path><path d="M881.2 1022.01C881.2 1022.01 879.87 1017.29 877.8 1008.22L986.65 1008.03 986.74 1008.12C986.93 1008.41 987.21 1008.78 987.4 1009.07 989.95 1012.94 991.28 1017.38 991.18 1022.01V1022.2L881.2 1022.01Z" fill="#575757" opacity="1" stroke-width="4" stroke="none"></path><path d="M696 495.9C696 495.9 698.74 503.75 701.76 507.72" stroke="#231f20" stroke-width="4" stroke-linecap="round" stroke-linejoin="round" opacity="1" fill="none"></path><path d="M771.59 411.62L772.16 426.55" stroke="#231f20" stroke-width="4" stroke-linecap="round" stroke-linejoin="round" opacity="1" fill="none"></path><path d="M828.47 242.77C803.91 240.88 788.03 261.67 799.18 279.62 811.46 299.46 841.7 279.62 841.7 279.62 841.7 279.62 823.94 321.48 852.19 327.05 880.44 332.63 889.89 290.96 889.89 290.96 889.89 290.96 926.74 324.98 946.58 298.52 961.98 277.92 929.67 253.17 929.67 253.17 929.67 253.17 970.2 252.22 964.44 222.55 959.34 196.19 923.91 206.87 923.91 206.87 923.91 206.87 947.53 179.46 926.74 166.24 910.3 155.75 889.89 187.02 889.89 187.02 889.89 187.02 884.69 152.25 859.65 160.57 836.98 168.13 852.19 202.24 852.19 202.24 852.19 202.24 820.91 182.3 809.58 204.98 798.24 227.65 828.47 242.77 828.47 242.77Z" fill="#ffc930" opacity="1" stroke-width="4" stroke="none"></path><path d="M873.17 321.39C885.35 310.99 889.89 290.96 889.89 290.96 889.89 290.96 903.12 303.15 918.05 307.31" stroke="#000000" stroke-width="4" stroke-linecap="round" stroke-linejoin="round" opacity="1" fill="none"></path><path d="M874.77 256C861.54 275.84 867.21 286.24 872.88 287.18 878.55 288.13 888 285.29 891.78 263.56 891.78 263.56 906.9 279.62 913.51 270.17 922.3 257.61 901.23 244.66 901.23 244.66 901.23 244.66 921.07 231.24 911.62 223.87 903.12 217.26 887.06 234.27 887.06 234.27 887.06 234.27 888 212.54 878.55 214.43 868.72 216.41 874.77 242.77 874.77 242.77 874.77 242.77 843.97 252.41 852.09 261.67 858.71 269.23 874.77 256 874.77 256Z" fill="#000000" opacity="0.3" stroke-width="4" stroke="none"></path><path d="M868.16 255.06C859.65 269.24 863.43 278.69 869.1 279.63 874.77 280.58 883.28 277.74 888.94 260.73 888.94 260.73 905.95 270.18 910.68 260.73 917.29 247.51 898.39 239.95 898.39 239.95 898.39 239.95 910.2 221.43 902.17 215.38 893.67 208.77 883.28 228.61 883.28 228.61 883.28 228.61 874.77 212.54 867.21 217.27 858.71 222.56 867.21 238.06 867.21 238.06 867.21 238.06 845.86 239 847.18 251.28 848.32 261.68 868.16 255.06 868.16 255.06Z" fill="#ffffff" opacity="1" stroke-width="4" stroke="none"></path><path d="M889.89 187.02L888 201.2" stroke="#000000" stroke-width="4" stroke-linecap="round" stroke-linejoin="round" opacity="1" fill="none"></path><path d="M828.47 242.77L838.77 243.91" stroke="#000000" stroke-width="4" stroke-linecap="round" stroke-linejoin="round" opacity="1" fill="none"></path><path d="M841.7 279.62L850.2 271.87" stroke="#000000" stroke-width="4" stroke-linecap="round" stroke-linejoin="round" opacity="1" fill="none"></path><path d="M929.67 253.17L920.69 251.28" stroke="#000000" stroke-width="4" stroke-linecap="round" stroke-linejoin="round" opacity="1" fill="none"></path><path d="M662.55 267.15C646.11 288.13 645.83 309.76 662.17 320.25 685.8 335.37 712.25 302.11 712.25 302.11 712.25 302.11 729.64 347.09 761.39 329.7 790.68 313.64 763.28 274.05 763.28 274.05 763.28 274.05 793.8 287.18 802.96 268.28 812.13 249.39 798.14 231.72 777.45 229.54 777.45 229.54 802.02 218.2 793.51 201.2 784.82 183.81 759.4 198.74 759.4 198.74 759.4 198.74 765.92 185.8 759.4 180.79 752.88 175.78 739.65 189.86 739.65 189.86 739.65 189.86 747.21 156.79 720.76 153.95 694.3 151.12 689.58 190.8 689.58 190.8 689.58 190.8 674.46 148.28 647.06 165.29 619.65 182.3 652.44 212.16 652.44 212.16 652.44 212.16 603.59 211.87 609.26 248.44 614.93 285.29 662.55 267.15 662.55 267.15Z" fill="#ffffff" opacity="1" stroke-width="4" stroke="none"></path><path d="M685.7 322.24C700.54 316.85 712.25 302.11 712.25 302.11 712.25 302.11 720.47 323.37 735.97 331.02" stroke="#585858" stroke-width="4" stroke-linecap="round" stroke-linejoin="round" opacity="1" fill="none"></path><path d="M698.08 233.23C701.86 217.26 711.31 206.87 718.87 207.81 726.43 208.76 726.43 221.04 719.81 232.38 719.81 232.38 751.18 224.35 751.94 236.16 752.88 251.28 722.65 247.5 722.65 247.5 722.65 247.5 750.05 275.84 730.21 283.4 716.69 288.5 709.42 265.45 709.42 265.45 709.42 265.45 701.86 290.02 686.74 284.35 671.72 278.68 691.47 249.39 691.47 249.39 691.47 249.39 661.51 254.2 667.84 238.99 673.89 224.44 698.08 233.23 698.08 233.23Z" fill="#585858" opacity="0.3" stroke-width="4" stroke="none"></path><path d="M695.25 227.56C693.36 210.65 701.86 204.03 709.42 204.98 716.98 205.92 719.81 219.15 716.98 226.71 716.98 226.71 735.97 214.99 742.49 224.91 750.99 238.05 728.32 246.55 728.32 246.55 728.32 246.55 749.1 264.5 734.93 273.95 722.93 281.98 708.47 260.72 708.47 260.72 708.47 260.72 696.95 282.36 682.96 274.9 668.8 267.34 687.12 246.65 687.12 246.65 687.12 246.65 662.18 242.77 668.51 227.56 674.47 213.1 695.25 227.56 695.25 227.56Z" fill="#ffc930" opacity="1" stroke-width="4" stroke="none"></path><path d="M739.65 189.86L735.97 198.83" stroke="#585858" stroke-width="4" stroke-linecap="round" stroke-linejoin="round" opacity="1" fill="none"></path><path d="M652.44 212.16L666.33 213.95" stroke="#585858" stroke-width="4" stroke-linecap="round" stroke-linejoin="round" opacity="1" fill="none"></path><path d="M763.28 274.05L752.79 266.39" stroke="#585858" stroke-width="4" stroke-linecap="round" stroke-linejoin="round" opacity="1" fill="none"></path></g><g><path d="M172.97 720.54L157.77 697.32 181.36 709.77 189.48 668.04 198.2 712.57 235.55 694.29 208.32 726.32 242.26 759.52 200.71 744.42 197.54 790.81 183 748.7 146.25 769.97 171.95 734.67 134.78 722.83 172.97 720.54Z" fill="#ffa0dc" opacity="1" stroke-width="4" stroke="none"></path></g><g><path d="M1297.75 162.42C1304.43 164.29 1310.03 168.8 1313.29 175.01L1319.97 187.75 1326.65 175.01C1329.92 168.8 1335.51 164.29 1342.19 162.42 1364.73 156.05 1383.06 181.07 1370.32 200.65L1319.97 277.57 1269.62 200.65C1256.88 181.07 1275.22 156.05 1297.75 162.42Z" fill="#ffa0dc" opacity="1" stroke-width="4" stroke="none"></path></g><g><path d="M245.43 256.67L282.96 185.68C283.55 185.22 285 185.22 285.33 185.75L362.16 301.96C362.36 302.29 362.03 302.68 361.7 302.55L246.35 259.17C245.82 259.04 244.71 257.85 245.43 256.67Z" fill="#ffa0dc" opacity="1" stroke-width="4" stroke="none"></path><path d="M245.95 257.72L283.68 186.34C283.95 185.88 283.42 185.36 282.96 185.68L237.94 214.41 245.17 257.59C245.23 257.99 245.76 258.12 245.95 257.72Z" fill="#231f20" opacity="1" stroke-width="4" stroke="none"></path></g><g><path d="M1413.95 868.52C1409.08 869.88 1405 873.16 1402.62 877.69L1397.76 886.98 1392.89 877.69C1390.51 873.16 1386.43 869.88 1381.56 868.52 1365.14 863.88 1351.78 882.11 1361.07 896.38L1397.76 952.43 1434.44 896.38C1443.73 882.11 1430.37 863.88 1413.95 868.52Z" fill="#ffa0dc" opacity="1" stroke-width="4" stroke="none"></path></g></svg>