<svg xmlns="http://www.w3.org/2000/svg" height="1200" width="1600" version="1.1" xmlns:xlink="http://www.w3.org/1999/xlink" xmlns:svgjs="http://svgjs.com/svgjs"><rect fill="#ffffff" width="1600" height="1200"></rect><g><path d="M1032.57 436.46L1447.75 438.2C1464.33 438.2 1463.06 441.41 1463.06 457.99L1478.77 488.74V780.57C1478.77 797.15 1465.33 810.59 1448.75 810.59H1031.16C1014.58 810.59 1001.15 797.15 1001.15 780.57V488.74L1015.52 461.06C1015.52 444.48 1015.99 436.46 1032.57 436.46Z" fill="#cecece" opacity="1" stroke-width="4" stroke="none"></path><path d="M1031.16 427.23H1448.75C1465.33 427.23 1478.77 440.67 1478.77 457.25V488.74H1001.15V457.25C1001.15 440.67 1014.58 427.23 1031.16 427.23Z" fill="#ffffff" opacity="1" stroke-width="4" stroke="none"></path><path d="M1434.65 471.43C1441.89 471.43 1447.75 465.56 1447.75 458.32 1447.75 451.08 1441.89 445.22 1434.65 445.22 1427.41 445.22 1421.54 451.08 1421.54 458.32 1421.54 465.56 1427.41 471.43 1434.65 471.43Z" stroke="#cecece" stroke-width="4" stroke-linecap="round" stroke-linejoin="round" opacity="1" fill="none"></path><path d="M1420.67 472.3L1425.42 467.55" stroke="#cecece" stroke-width="4" stroke-linecap="round" stroke-linejoin="round" opacity="1" fill="none"></path></g><g><path d="M152.75 615.98L558.71 617.7C572.42 617.7 576.18 619.13 576.18 632.85L583.53 652.81V952.55C583.53 966.26 572.42 977.38 558.71 977.38H152.75C139.04 977.38 127.92 966.26 127.92 952.55V652.81L134.61 632.85C134.61 619.13 139.04 615.98 152.75 615.98Z" fill="#cecece" opacity="1" stroke-width="4" stroke="none"></path><path d="M152.75 608.02H558.71C572.42 608.02 583.53 619.13 583.53 632.85V652.81H127.92V632.85C127.92 619.13 139.04 608.02 152.75 608.02Z" fill="#a4a4a4" opacity="1" stroke-width="4" stroke="none"></path><path d="M162.92 638.71C167.2 638.71 170.66 635.24 170.66 630.97 170.66 626.69 167.2 623.23 162.92 623.23 158.65 623.23 155.18 626.69 155.18 630.97 155.18 635.24 158.65 638.71 162.92 638.71Z" fill="#ffffff" opacity="1" stroke-width="4" stroke="none"></path><path d="M188.08 638.71C192.36 638.71 195.82 635.24 195.82 630.97 195.82 626.69 192.36 623.23 188.08 623.23 183.81 623.23 180.34 626.69 180.34 630.97 180.34 635.24 183.81 638.71 188.08 638.71Z" fill="#cfcfcf" opacity="1" stroke-width="4" stroke="none"></path><path d="M213.24 638.71C217.51 638.71 220.98 635.24 220.98 630.97 220.98 626.69 217.51 623.23 213.24 623.23 208.97 623.23 205.5 626.69 205.5 630.97 205.5 635.24 208.97 638.71 213.24 638.71Z" fill="#cfcfcf" opacity="1" stroke-width="4" stroke="none"></path><path d="M298.56 630.8H412.96" stroke="#cfcfcf" stroke-width="4" stroke-linecap="round" stroke-linejoin="round" opacity="1" fill="none"></path></g><g><path d="M295.19 149.98H531.05C564.64 149.98 591.82 177.16 591.82 210.74V337.31C591.82 370.89 564.64 398.07 531.05 398.07H295.19C261.61 398.07 234.43 370.89 234.43 337.31V210.74C234.43 177.16 261.61 149.98 295.19 149.98Z" fill="#a8819a" opacity="0.2" stroke-width="4" stroke="none"></path><path d="M266.07 120.86H501.94C535.52 120.86 562.7 148.04 562.7 181.62V308.19C562.7 341.78 535.52 368.95 501.94 368.95H266.07C232.49 368.95 205.31 341.78 205.31 308.19V181.62C205.31 148.04 232.49 120.86 266.07 120.86Z" fill="#ffa0dc" opacity="1" stroke-width="4" stroke="none"></path><path d="M383.91 300.62L543.67 137.56H224.14L383.91 300.62Z" fill="#a8819a" opacity="0.2" stroke-width="4" stroke="none"></path><path d="M383.91 265.29L543.87 137.56C533 127.27 518.24 120.86 501.94 120.86H266.07C249.77 120.86 235.01 127.27 224.14 137.56L383.91 265.29Z" fill="#ffa0dc" opacity="1" stroke-width="4" stroke="none"></path><path d="M542.9 138.14L383.91 265.1 224.34 137.56" stroke="#a8819a" stroke-width="4" stroke-linecap="round" stroke-linejoin="round" opacity="1" fill="none"></path><path d="M417.3 242L546.97 345.85" stroke="#a8819a" stroke-width="4" stroke-linecap="round" stroke-linejoin="round" opacity="1" fill="none"></path><path d="M220.07 345.27L350.13 241.41" stroke="#a8819a" stroke-width="4" stroke-linecap="round" stroke-linejoin="round" opacity="1" fill="none"></path></g><g><path d="M1060.22 1015.78C1032.24 1014.45 1002.14 1014.19 940.34 1047.75 832.45 1106.36 778.77 1114.88 771.17 1087.71 764.51 1063.74 821.79 1026.44 845.77 1002.46 896.51 951.72 883.86 917.08 825.79 926.54 768.51 935.86 733.88 969.16 685.93 921.21" stroke="#231f20" stroke-width="4" stroke-linecap="round" stroke-linejoin="round" opacity="1" fill="none"></path></g><g><path d="M356.39 915.61C413.67 915.61 460.11 869.18 460.11 811.89 460.11 754.61 413.67 708.17 356.39 708.17 299.1 708.17 252.67 754.61 252.67 811.89 252.67 869.18 299.1 915.61 356.39 915.61Z" fill="#9e76dd" opacity="1" stroke-width="4" stroke="none"></path><path d="M356.39 778.84C369 778.84 379.22 768.62 379.22 756.01 379.22 743.4 369 733.18 356.39 733.18 343.78 733.18 333.56 743.4 333.56 756.01 333.56 768.62 343.78 778.84 356.39 778.84Z" fill="#231f20" opacity="1" stroke-width="4" stroke="none"></path><path d="M308.23 806.56C320.84 806.56 331.06 796.34 331.06 783.73 331.06 771.12 320.84 760.9 308.23 760.9 295.61 760.9 285.39 771.12 285.39 783.73 285.39 796.34 295.61 806.56 308.23 806.56Z" fill="#231f20" opacity="1" stroke-width="4" stroke="none"></path><path d="M308.23 862.99C320.84 862.99 331.06 852.77 331.06 840.16 331.06 827.55 320.84 817.33 308.23 817.33 295.61 817.33 285.39 827.55 285.39 840.16 285.39 852.77 295.61 862.99 308.23 862.99Z" fill="#231f20" opacity="1" stroke-width="4" stroke="none"></path><path d="M356.39 890.61C369 890.61 379.22 880.39 379.22 867.77 379.22 855.16 369 844.94 356.39 844.94 343.78 844.94 333.56 855.16 333.56 867.77 333.56 880.39 343.78 890.61 356.39 890.61Z" fill="#231f20" opacity="1" stroke-width="4" stroke="none"></path><path d="M404.66 862.99C417.27 862.99 427.49 852.77 427.49 840.16 427.49 827.55 417.27 817.33 404.66 817.33 392.05 817.33 381.83 827.55 381.83 840.16 381.83 852.77 392.05 862.99 404.66 862.99Z" fill="#231f20" opacity="1" stroke-width="4" stroke="none"></path><path d="M404.66 806.56C417.27 806.56 427.49 796.34 427.49 783.73 427.49 771.12 417.27 760.9 404.66 760.9 392.05 760.9 381.83 771.12 381.83 783.73 381.83 796.34 392.05 806.56 404.66 806.56Z" fill="#231f20" opacity="1" stroke-width="4" stroke="none"></path><path d="M356.39 778.84C369 778.84 379.22 768.62 379.22 756.01 379.22 743.4 369 733.18 356.39 733.18 343.78 733.18 333.56 743.4 333.56 756.01 333.56 768.62 343.78 778.84 356.39 778.84Z" fill="#231f20" opacity="1" stroke-width="4" stroke="none"></path></g><g><path d="M1121.64 1024.13C1146.86 1020.55 1164.41 997.19 1160.83 971.96 1157.25 946.73 1133.89 929.19 1108.66 932.77 1083.43 936.35 1065.88 959.71 1069.47 984.94 1073.05 1010.16 1096.4 1027.71 1121.64 1024.13Z" fill="#ffc930" opacity="1" stroke-width="4" stroke="none"></path><path d="M1241.68 1102.48C1260.38 1099.83 1273.39 1082.52 1270.73 1063.82 1268.08 1045.12 1250.77 1032.11 1232.07 1034.77 1213.37 1037.42 1200.36 1054.73 1203.02 1073.43 1205.67 1092.13 1222.98 1105.14 1241.68 1102.48Z" fill="#ffa0dc" opacity="1" stroke-width="4" stroke="none"></path></g><g><path d="M786.38 144.23L789.96 123.45 776.72 140.2 766.44 121.23 767.41 142.91 749.92 141.56 766.77 153.02 753.59 171.32 773.08 163.65 780.04 185.14 783.87 161.36 798.88 172.09 789.83 154.63 806.26 143.26 786.38 144.23Z" fill="#ffc930" opacity="1" stroke-width="4" stroke="none"></path><path d="M656.9 196.92L681.25 179.02 667.62 206.56 693.33 220.15 663.66 219.66 667.24 237.25 654.71 223.82 645.66 248.49 642.89 222.14 611.52 234.22 638.73 213.16 609.74 197.02 642.4 199.79 638.76 173.99 656.9 196.92Z" fill="#ffc930" opacity="1" stroke-width="4" stroke="none"></path></g><g><path d="M317.77 478.34L319.67 452.02 306.04 476.44 287.24 458.1 296.92 484.76 265.51 486.43 296.92 495.7 283.67 522.25 307.71 504.13 321.46 527.98 318.69 499.38 348.27 503.9 324.5 488.56 343.94 472.04 317.77 478.34Z" fill="#ffc930" opacity="1" stroke-width="4" stroke="none"></path></g><g><path d="M1357.5 308.44L1366.63 332.52 1348.42 316.53 1345.14 333.02 1339.63 317.37 1324.51 331.37 1333.05 311.59 1306.22 311.3 1333.08 302.06 1312.43 283.29 1338.84 290.54 1343.2 262.98 1350.25 290.17 1371.41 272.7 1357.42 299.03 1383.32 305.68 1357.5 308.44Z" fill="#ffa0dc" opacity="1" stroke-width="4" stroke="none"></path></g><g><path d="M1181.19 179.96L1041.33 155.55 1096.31 286.18 1110.73 249.84 1152.74 283.39 1190.9 235.62 1148.89 202.07 1181.19 179.96Z" fill="#ffc930" opacity="1" stroke-width="4" stroke="none"></path></g><g><path d="M530.01 329.78H1069.99C1077.46 329.78 1084.84 331.25 1091.74 334.11 1098.64 336.96 1104.9 341.15 1110.18 346.43 1115.46 351.71 1119.65 357.97 1122.5 364.87 1125.36 371.77 1126.83 379.16 1126.83 386.62V781.38C1126.83 788.84 1125.36 796.23 1122.5 803.13 1119.65 810.02 1115.46 816.29 1110.18 821.57 1104.9 826.85 1098.63 831.04 1091.74 833.89 1084.84 836.75 1077.46 838.22 1069.99 838.22H530.01C522.54 838.22 515.16 836.75 508.26 833.89 501.36 831.04 495.1 826.85 489.82 821.57 484.54 816.29 480.35 810.02 477.5 803.13 474.64 796.23 473.17 788.84 473.17 781.38V781.38 386.62C473.17 379.16 474.64 371.77 477.5 364.87 480.35 357.97 484.54 351.71 489.82 346.43 495.1 341.15 501.36 336.96 508.26 334.11 515.16 331.25 522.54 329.78 530.01 329.78V329.78Z" fill="#3c2c5b" opacity="1" stroke-width="4" stroke="none"></path><path d="M765.58 408.01C765.59 398.98 769.18 390.31 775.57 383.93 781.96 377.54 790.62 373.95 799.66 373.94H1048.5C1057.54 373.95 1066.19 377.54 1072.58 383.93 1078.97 390.31 1082.57 398.98 1082.58 408.01V695.52C1047.81 671.39 1002.73 671.11 1002.28 671.11 1002.12 671.42 982.62 703.6 932.24 703.6 927.81 703.59 923.38 703.36 918.98 702.91 894.41 700.37 892.37 671.38 892.35 671.08 879.41 671.56 866.52 673.04 853.81 675.53 820.96 692.87 811.06 683.92 790.16 703.78 781.1 712.47 772.89 721.99 765.63 732.23L765.58 732.3V408.01Z" fill="#ffa0dc" opacity="1" stroke-width="4" stroke="none"></path><path d="M929.82 776.99C927.88 776.99 925.94 776.92 924.08 776.79 909.44 775.76 887.26 767.77 864.78 735.54 851.19 716.07 841.83 692.94 840.94 682.67 840.7 679.95 841.12 678.38 842.13 678.12 858.59 674.01 875.43 671.64 892.38 671.06L892.35 649.65C892.03 649.64 891.71 649.65 891.37 649.64 882.24 649.57 873.16 647.98 864.55 644.93 849.6 639.37 840.47 629.69 837.4 616.14 834.39 602.98 835.62 588.81 836.92 573.81 837.48 567.46 838.05 560.88 838.29 554.32 839.36 524.53 841.31 502.6 844.27 487.29 847.19 472.13 857.02 459.04 872.69 449.44 887.35 440.46 905.72 435.52 924.43 435.52 945.69 435.52 965.44 442.01 980.03 453.82 1006.03 474.78 1003.22 524.58 1003.2 525.08 1003.29 525.12 1014.28 531.67 1016.33 544.45 1018.03 555 1013.31 566.69 1002.3 579.16L1002.31 671.08C1002.32 671.08 1002.35 671.08 1002.42 671.08 1004.81 671.08 1044.97 671.85 1078.04 692.54 1078.48 692.82 1078.58 693.36 1078.36 694.15 1076.65 700.07 1056.17 720.43 1026.7 740.12 1006.09 753.89 966.1 776.99 929.82 776.99Z" fill="#935757" opacity="1" stroke-width="4" stroke="none"></path><path d="M1002.27 620.47C1002.12 620.39 986.77 612.25 979 596.72 978.67 596.04 1002.18 579.3 1002.26 579.22L1002.31 620.5 1002.27 620.47Z" fill="#ffc930" opacity="1" stroke-width="4" stroke="none"></path><path d="M951.63 539.72C945.45 531.1 937.53 518 934.84 504.47 934.72 504.09 902.62 512.46 888.36 512.46 871.92 512.46 860.29 508.85 853.41 505.82 845.96 502.55 842.35 499.22 842.32 499.19 842.93 494.72 843.66 490.66 844.27 487.29 847.19 472.13 857.02 459.04 872.69 449.44 887.34 440.46 905.72 435.52 924.43 435.52 945.69 435.52 965.44 442.01 980.03 453.82 1006.03 474.78 1003.22 524.58 1003.2 525.08 999.15 523.62 994.89 522.92 990.6 523 981.52 523 967.4 525.89 951.67 539.72L951.64 539.74 951.63 539.72Z" fill="#ffc930" opacity="1" stroke-width="4" stroke="none"></path><path d="M892.08 649.65C919.66 649.2 933.6 640.27 933.6 640.27" stroke="#0d0d0d" stroke-width="4" stroke-linecap="round" stroke-linejoin="round" opacity="1" fill="none"></path><path d="M838.22 585.23C852.9 585.23 864.81 571.56 864.81 554.71 864.81 537.85 852.9 524.19 838.22 524.19 823.53 524.19 811.63 537.85 811.63 554.71 811.63 571.56 823.53 585.23 838.22 585.23Z" stroke="#000000" stroke-width="4" stroke-linecap="round" stroke-linejoin="round" opacity="1" fill="none"></path><path d="M905.24 585.23C919.93 585.23 931.83 571.56 931.83 554.71 931.83 537.85 919.93 524.19 905.24 524.19 890.55 524.19 878.65 537.85 878.65 554.71 878.65 571.56 890.55 585.23 905.24 585.23Z" stroke="#000000" stroke-width="4" stroke-linecap="round" stroke-linejoin="round" opacity="1" fill="none"></path><path d="M865.69 555.1H876.88" stroke="#000000" stroke-width="4" stroke-linecap="round" stroke-linejoin="round" opacity="1" fill="none"></path><path d="M932.71 550.88L950.77 540.46" stroke="#000000" stroke-width="4" stroke-linecap="round" stroke-linejoin="round" opacity="1" fill="none"></path><path d="M970.69 565.8L987.37 555.99" stroke="#0d0d0d" stroke-width="4" stroke-linecap="round" stroke-linejoin="round" opacity="1" fill="none"></path><path d="M868.54 600.14C873.05 602.59 880.9 601.61 883.85 596.71" stroke="#0d0d0d" stroke-width="4" stroke-linecap="round" stroke-linejoin="round" opacity="1" fill="none"></path><path d="M901.41 564.65C900.29 564.65 899.21 564.32 898.28 563.7 897.36 563.08 896.64 562.21 896.21 561.18 895.79 560.15 895.68 559.02 895.9 557.93 896.11 556.84 896.65 555.84 897.44 555.05 898.22 554.27 899.22 553.73 900.31 553.51 901.4 553.3 902.53 553.4 903.56 553.84 904.59 554.26 905.46 554.97 906.08 555.91 906.7 556.83 907.03 557.92 907.03 559.03 907.03 559.76 906.89 560.5 906.6 561.18 906.32 561.86 905.91 562.48 905.39 563 904.87 563.52 904.24 563.93 903.56 564.22 902.87 564.5 902.15 564.65 901.41 564.65V564.65Z" fill="#231f20" opacity="1" stroke-width="4" stroke="none"></path><path d="M850.68 564.65C849.56 564.65 848.48 564.32 847.56 563.7 846.63 563.08 845.91 562.21 845.49 561.18 845.06 560.15 844.95 559.02 845.17 557.93 845.38 556.84 845.92 555.84 846.71 555.05 847.49 554.27 848.49 553.73 849.58 553.51 850.67 553.3 851.8 553.4 852.83 553.84 853.86 554.26 854.73 554.97 855.35 555.91 855.97 556.83 856.3 557.92 856.3 559.03 856.3 559.76 856.16 560.5 855.87 561.18 855.59 561.86 855.18 562.48 854.66 563 854.13 563.52 853.52 563.93 852.83 564.22 852.15 564.5 851.42 564.65 850.68 564.65Z" fill="#231f20" opacity="1" stroke-width="4" stroke="none"></path><path d="M870.6 573.65C869.62 578.55 868.64 584.44 873.54 585.42" stroke="#0d0d0d" stroke-width="4" stroke-linecap="round" stroke-linejoin="round" opacity="1" fill="none"></path><path d="M892.35 649.6C892.65 649.55 919.61 647.97 933.38 640.4L892.35 686.86V649.6Z" fill="#0d0d0d" opacity="0.3" stroke-width="4" stroke="none"></path><path d="M561.51 793.94V750.76" stroke="#000000" stroke-width="4" stroke-linecap="round" stroke-linejoin="round" opacity="1" fill="none"></path><path d="M577.8 793.94V750.76" stroke="#000000" stroke-width="4" stroke-linecap="round" stroke-linejoin="round" opacity="1" fill="none"></path><path d="M594.19 793.94V750.76" stroke="#000000" stroke-width="4" stroke-linecap="round" stroke-linejoin="round" opacity="1" fill="none"></path><path d="M528.74 793.94V750.76" stroke="#000000" stroke-width="4" stroke-linecap="round" stroke-linejoin="round" opacity="1" fill="none"></path><path d="M626.96 793.94V750.76" stroke="#000000" stroke-width="4" stroke-linecap="round" stroke-linejoin="round" opacity="1" fill="none"></path><path d="M643.35 793.94V750.76" stroke="#000000" stroke-width="4" stroke-linecap="round" stroke-linejoin="round" opacity="1" fill="none"></path><path d="M659.73 793.94V750.76" stroke="#000000" stroke-width="4" stroke-linecap="round" stroke-linejoin="round" opacity="1" fill="none"></path><path d="M676.02 793.94V750.76" stroke="#000000" stroke-width="4" stroke-linecap="round" stroke-linejoin="round" opacity="1" fill="none"></path><path d="M708.79 793.94V750.76" stroke="#000000" stroke-width="4" stroke-linecap="round" stroke-linejoin="round" opacity="1" fill="none"></path><path d="M589.48 502.93C572.97 502.91 557.15 496.35 545.49 484.68 533.82 473.01 527.25 457.18 527.24 440.69V392.81C527.22 390.34 527.69 387.91 528.61 385.62 529.53 383.35 530.9 381.28 532.62 379.52 534.35 377.77 536.4 376.37 538.67 375.42 540.93 374.46 543.36 373.96 545.82 373.94 545.88 373.94 545.95 373.94 546.01 373.94H632.85C637.85 373.95 642.64 375.93 646.18 379.47 649.71 383 651.71 387.8 651.72 392.81V440.69C651.7 457.18 645.13 473.01 633.46 484.68 621.8 496.35 605.97 502.91 589.48 502.93V502.93Z" fill="#61ccff" opacity="1" stroke-width="4" stroke="none"></path><path d="M589.35 468.47C586.38 461.02 581.94 454.26 576.27 448.59 570.61 442.93 563.85 438.47 556.4 435.51 563.84 432.54 570.6 428.07 576.26 422.4 581.93 416.72 586.38 409.96 589.35 402.51 592.33 409.95 596.8 416.71 602.47 422.37 608.14 428.04 614.91 432.5 622.36 435.46 614.91 438.44 608.16 442.91 602.49 448.58 596.82 454.25 592.37 461.02 589.4 468.47L589.38 468.54 589.35 468.47Z" fill="#3c2c5b" opacity="1" stroke-width="4" stroke="none"></path><path d="M799.66 793.97C790.62 793.96 781.96 790.35 775.57 783.97 769.18 777.58 765.59 768.92 765.58 759.89V732.31C772.82 722.02 781.03 712.45 790.12 703.74 823.3 672.3 891.7 671.07 892.38 671.06 893.5 678.34 895.45 685.46 898.17 692.29 905.5 710.08 915.51 714.68 922.61 715.41 926.01 715.76 929.43 715.95 932.85 715.95 985.04 715.95 1002.09 671.53 1002.25 671.08 1002.26 671.08 1002.28 671.08 1002.32 671.08 1004.33 671.08 1048.45 671.76 1082.57 695.5L1082.58 759.89C1082.55 768.93 1078.94 777.6 1072.53 783.99 1066.12 790.37 1057.45 793.97 1048.4 793.97H799.66Z" fill="#ffffff" opacity="1" stroke-width="4" stroke="none"></path><path d="M938.08 736.36C929.8 736.33 921.54 735.61 913.37 734.21 876.62 728.09 860.78 692.12 860.46 674.22 871 672.35 881.68 671.25 892.38 670.96 892.46 671.24 898.28 697.22 922.61 701.57 928.14 702.57 933.75 703.09 939.39 703.1H939.39C982.1 703.1 1002.06 671.29 1002.25 670.97 1013.58 671.33 1024.83 672.84 1035.84 675.47 1028.53 690.57 1017.91 703.84 1004.77 714.29 986.13 728.94 963.69 736.36 938.09 736.36L938.08 736.36Z" fill="#a7a7a7" opacity="1" stroke-width="4" stroke="none"></path><path d="M996.69 678.15L1027.11 688.94" stroke="#6c6c6c" stroke-width="4" stroke-linecap="round" stroke-linejoin="round" opacity="1" fill="none"></path><path d="M983.64 689.73L1007.19 712.3" stroke="#6c6c6c" stroke-width="4" stroke-linecap="round" stroke-linejoin="round" opacity="1" fill="none"></path><path d="M962.77 700.08L978.83 728" stroke="#6c6c6c" stroke-width="4" stroke-linecap="round" stroke-linejoin="round" opacity="1" fill="none"></path><path d="M940.76 703.37L943.31 736.1" stroke="#6c6c6c" stroke-width="4" stroke-linecap="round" stroke-linejoin="round" opacity="1" fill="none"></path><path d="M919.56 701.39L909.85 733.27" stroke="#6c6c6c" stroke-width="4" stroke-linecap="round" stroke-linejoin="round" opacity="1" fill="none"></path><path d="M905.12 693.33L880.3 716.4" stroke="#6c6c6c" stroke-width="4" stroke-linecap="round" stroke-linejoin="round" opacity="1" fill="none"></path><path d="M895.13 680.83L865.3 692.41" stroke="#6c6c6c" stroke-width="4" stroke-linecap="round" stroke-linejoin="round" opacity="1" fill="none"></path><path d="M547.38 793.97C542.01 793.96 536.87 791.83 533.07 788.03 529.28 784.23 527.15 779.09 527.14 773.72V743.5C527.15 738.13 529.28 732.99 533.07 729.19 536.87 725.4 542.01 723.27 547.38 723.26H696.82C702.19 723.27 707.33 725.4 711.13 729.19 714.92 732.99 717.06 738.13 717.07 743.5V773.72C717.03 779.08 714.88 784.2 711.09 787.99 707.3 791.78 702.18 793.93 696.82 793.97H547.38Z" fill="#465e69" opacity="0.3" stroke-width="4" stroke="none"></path></g></svg>