<svg xmlns="http://www.w3.org/2000/svg" height="1200" width="1600" version="1.1" xmlns:xlink="http://www.w3.org/1999/xlink" xmlns:svgjs="http://svgjs.com/svgjs"><rect fill="#ffffff" width="1600" height="1200"></rect><g><path d="M1236.07 885.56C1241.6 908.11 1239.22 932.76 1227.15 955 1201.66 1001.93 1143.21 1019.24 1096.28 993.75 1049.34 968.26 1032.03 909.81 1057.53 862.87 1083.02 815.94 1141.46 798.63 1188.4 824.12 1205.14 833.22 1218.38 846.8 1226.93 862.47" fill="#46cdcf" opacity="1" stroke-width="2" stroke="none"></path><path d="M1236.07 885.56C1241.6 908.11 1239.22 932.76 1227.15 955 1201.66 1001.93 1143.21 1019.24 1096.28 993.75 1049.34 968.26 1032.03 909.81 1057.53 862.87 1083.02 815.94 1141.46 798.63 1188.4 824.12 1205.14 833.22 1218.38 846.8 1226.93 862.47" stroke="#333333" stroke-width="2" stroke-linecap="round" stroke-linejoin="round" opacity="1" fill="none"></path><path d="M1142.34 908.93C1129.71 902.08 1125.07 886.41 1131.93 873.78 1138.79 861.15 1154.46 856.51 1167.08 863.37 1179.71 870.23 1184.35 885.9 1177.49 898.53" stroke="#333333" stroke-width="2" stroke-linecap="round" stroke-linejoin="round" opacity="1" fill="none"></path><path d="M1142.34 908.93C1154.96 915.79 1159.6 931.46 1152.75 944.09 1145.89 956.71 1130.22 961.35 1117.59 954.5 1104.97 947.64 1100.33 931.97 1107.18 919.34" stroke="#333333" stroke-width="2" stroke-linecap="round" stroke-linejoin="round" opacity="1" fill="none"></path><path d="M1167.25 863.07L1174.98 848.82" stroke="#333333" stroke-width="2" stroke-linecap="round" stroke-linejoin="round" opacity="1" fill="none"></path><path d="M1109.69 969.04L1117.49 954.69" stroke="#333333" stroke-width="2" stroke-linecap="round" stroke-linejoin="round" opacity="1" fill="none"></path></g><g><path d="M516.52 389.05C502.56 378.85 485.12 373.48 466.6 373.48 418.83 373.48 380.18 412.13 380.18 459.9 380.18 507.67 418.83 546.31 466.6 546.31 514.37 546.31 553.02 507.67 553.02 459.9 553.02 438.43 545.23 418.84 532.35 403.81" fill="#abedd8" opacity="1" stroke-width="2" stroke="none"></path><path d="M516.52 389.05C502.56 378.85 485.12 373.48 466.6 373.48 418.83 373.48 380.18 412.13 380.18 459.9 380.18 507.67 418.83 546.31 466.6 546.31 514.37 546.31 553.02 507.67 553.02 459.9 553.02 438.43 545.23 418.84 532.35 403.81" stroke="#333333" stroke-width="2" stroke-linecap="round" stroke-linejoin="round" opacity="1" fill="none"></path><path d="M466.6 410.25V459.9" stroke="#333333" stroke-width="2" stroke-linecap="round" stroke-linejoin="round" opacity="1" fill="none"></path><path d="M417.22 459.9H466.6" stroke="#333333" stroke-width="2" stroke-linecap="round" stroke-linejoin="round" opacity="1" fill="none"></path></g><g><path d="M803.62 776.01V775.83H701.75C701.75 743.28 724.68 716.94 752.73 716.94 754.08 716.94 755.52 716.94 756.77 717.12H1002.33C1027.32 717.12 1053.13 738.79 1053.13 767.92 1053.13 771.78 1048.72 777.9 1048.72 777.9L803.62 776.01Z" fill="#46cdcf" stroke="#333333" stroke-width="2" stroke-linecap="round" stroke-linejoin="round" opacity="1"></path><path d="M814.86 768.01H701.75V1005.38H814.86V768.01Z" fill="#abedd8" stroke="#333333" stroke-width="2" stroke-linecap="round" stroke-linejoin="round" opacity="1"></path><path d="M701.75 768.01C701.75 739.86 724.68 717.03 752.73 717.03 780.87 717.03 803.71 739.95 803.71 768.01H701.75Z" fill="#46cdcf" stroke="#333333" stroke-width="2" stroke-linecap="round" stroke-linejoin="round" opacity="1"></path><path d="M1053.22 768.01H803.62V1005.38H1053.22V768.01Z" fill="#abedd8" stroke="#333333" stroke-width="2" stroke-linecap="round" stroke-linejoin="round" opacity="1"></path><path d="M912.14 861.97C905.76 856.75 901.53 848.57 901.53 839.4 901.53 823.66 913.67 810.99 928.33 810.99 943.16 810.99 955.12 823.75 955.12 839.4 955.12 848.57 951.08 856.75 944.51 861.97H912.14Z" fill="#46cdcf" stroke="#333333" stroke-width="2" stroke-linecap="round" stroke-linejoin="round" opacity="1"></path><path d="M950.45 896.13L954.85 931.65H901.98L906.48 896.13H950.45Z" fill="#46cdcf" stroke="#333333" stroke-width="2" stroke-linecap="round" stroke-linejoin="round" opacity="1"></path><path d="M981.47 859.27H875.01V900.18H981.47V859.27Z" fill="#3d84a8" stroke="#333333" stroke-width="2" stroke-linecap="round" stroke-linejoin="round" opacity="1"></path><path d="M902.34 717.21C930.49 717.21 953.32 740.13 953.32 768.19" stroke="#333333" stroke-width="2" stroke-linecap="round" stroke-linejoin="round" opacity="1" fill="none"></path><path d="M855.59 717.21C880.14 717.21 900.73 734.74 905.49 757.94" stroke="#333333" stroke-width="2" stroke-linecap="round" stroke-linejoin="round" opacity="1" fill="none"></path><path d="M789.41 991.62V875.36" stroke="#333333" stroke-width="2" stroke-linecap="round" stroke-linejoin="round" opacity="1" fill="none"></path><path d="M701.75 889.3H723.15" stroke="#333333" stroke-width="2" stroke-linecap="round" stroke-linejoin="round" opacity="1" fill="none"></path><path d="M803.62 889.3H826.01" stroke="#333333" stroke-width="2" stroke-linecap="round" stroke-linejoin="round" opacity="1" fill="none"></path><path d="M1030.83 889.3H1053.22" stroke="#333333" stroke-width="2" stroke-linecap="round" stroke-linejoin="round" opacity="1" fill="none"></path><path d="M734.93 889.3H789.41" stroke="#333333" stroke-width="2" stroke-linecap="round" stroke-linejoin="round" opacity="1" fill="none"></path><path d="M869.53 871.95H880.77" stroke="#333333" stroke-width="2" stroke-linecap="round" stroke-linejoin="round" opacity="1" fill="none"></path><path d="M869.53 887.5H880.77" stroke="#333333" stroke-width="2" stroke-linecap="round" stroke-linejoin="round" opacity="1" fill="none"></path><path d="M959.71 879.68H971.04" stroke="#333333" stroke-width="2" stroke-linecap="round" stroke-linejoin="round" opacity="1" fill="none"></path><path d="M1009.61 938.66C1021.33 938.66 1030.83 929.16 1030.83 917.44 1030.83 905.73 1021.33 896.22 1009.61 896.22 997.89 896.22 988.39 905.73 988.39 917.44 988.39 929.16 997.89 938.66 1009.61 938.66Z" fill="#3d84a8" stroke="#333333" stroke-width="2" stroke-linecap="round" stroke-linejoin="round" opacity="1"></path><path d="M990.1 908.63L967.08 885.61C964.11 882.65 964.11 877.97 967.08 875 970.05 872.04 974.72 872.04 977.69 875L1000.71 898.02" stroke="#333333" stroke-width="2" stroke-linecap="round" stroke-linejoin="round" opacity="1" fill="none"></path><path d="M1005.29 910.07L1002.24 913.13" stroke="#333333" stroke-width="2" stroke-linecap="round" stroke-linejoin="round" opacity="1" fill="none"></path><path d="M1011.05 915.91L1007.99 919.06" stroke="#333333" stroke-width="2" stroke-linecap="round" stroke-linejoin="round" opacity="1" fill="none"></path><path d="M1016.98 921.67L1013.84 924.82" stroke="#333333" stroke-width="2" stroke-linecap="round" stroke-linejoin="round" opacity="1" fill="none"></path><path d="M1007.99 919.06C1006.37 920.68 1003.77 920.68 1002.15 919.06 1000.53 917.44 1000.53 914.84 1002.15 913.22" stroke="#333333" stroke-width="2" stroke-linecap="round" stroke-linejoin="round" opacity="1" fill="none"></path><path d="M1011.05 915.91C1012.67 914.3 1015.28 914.3 1016.89 915.91 1018.51 917.53 1018.51 920.14 1016.89 921.76" stroke="#333333" stroke-width="2" stroke-linecap="round" stroke-linejoin="round" opacity="1" fill="none"></path><path d="M1007.99 924.82C1009.61 926.43 1012.22 926.43 1013.84 924.82" stroke="#333333" stroke-width="2" stroke-linecap="round" stroke-linejoin="round" opacity="1" fill="none"></path><path d="M1000.44 908.45L1003.68 911.69" stroke="#333333" stroke-width="2" stroke-linecap="round" stroke-linejoin="round" opacity="1" fill="none"></path><path d="M1015.28 923.29L1018.6 926.61" stroke="#333333" stroke-width="2" stroke-linecap="round" stroke-linejoin="round" opacity="1" fill="none"></path><path d="M651.31 1005.38H1122.09" stroke="#333333" stroke-width="2" stroke-linecap="round" stroke-linejoin="round" opacity="1" fill="none"></path></g><g><path d="M750.46 642.26V546.4H380.64V956.89H750.46V666.68" fill="#3d84a8" opacity="1" stroke-width="2" stroke="none"></path><path d="M750.46 642.26V546.4H380.64V956.89H750.46V666.68" stroke="#333333" stroke-width="2" stroke-linecap="round" stroke-linejoin="round" opacity="1" fill="none"></path><path d="M423.04 625.06H409.02V670.45H423.04V625.06Z" stroke="#333333" stroke-width="2" stroke-linecap="round" stroke-linejoin="round" opacity="1" fill="none"></path><path d="M423.04 832.52H409.02V877.91H423.04V832.52Z" stroke="#333333" stroke-width="2" stroke-linecap="round" stroke-linejoin="round" opacity="1" fill="none"></path><path d="M707.54 663.57V586.22H423.04V916.75H707.54V683.23 663.57Z" stroke="#333333" stroke-width="2" stroke-linecap="round" stroke-linejoin="round" opacity="1" fill="none"></path><path d="M622.22 716.99V686.67H508.7V816.29H622.22V724.53 716.99Z" fill="#78c7e0" stroke="#333333" stroke-width="2" stroke-linecap="round" stroke-linejoin="round" opacity="1"></path><path d="M423.04 956.89V1005.4" stroke="#333333" stroke-width="2" stroke-linecap="round" stroke-linejoin="round" opacity="1" fill="none"></path><path d="M707.54 956.89V1005.4" stroke="#333333" stroke-width="2" stroke-linecap="round" stroke-linejoin="round" opacity="1" fill="none"></path><path d="M508.7 730.26H622.22" stroke="#333333" stroke-width="2" stroke-linecap="round" stroke-linejoin="round" opacity="1" fill="none"></path><path d="M524.82 773.03H622.22" stroke="#333333" stroke-width="2" stroke-linecap="round" stroke-linejoin="round" opacity="1" fill="none"></path><path d="M584.03 754.02V816.29" stroke="#333333" stroke-width="2" stroke-linecap="round" stroke-linejoin="round" opacity="1" fill="none"></path><path d="M584.03 686.67V740.75" stroke="#333333" stroke-width="2" stroke-linecap="round" stroke-linejoin="round" opacity="1" fill="none"></path><path d="M546.89 686.67V816.29" stroke="#333333" stroke-width="2" stroke-linecap="round" stroke-linejoin="round" opacity="1" fill="none"></path><path d="M423.04 670.78H409.02V625.06H423.04" stroke="#333333" stroke-width="2" stroke-linecap="round" stroke-linejoin="round" opacity="1" fill="none"></path><path d="M423.04 877.91H409.02V832.52H423.04" stroke="#333333" stroke-width="2" stroke-linecap="round" stroke-linejoin="round" opacity="1" fill="none"></path></g><g><path d="M1039.76 617.88V644.54C1039.76 661.94 1025.75 676.18 1008.12 676.18" stroke="#333333" stroke-width="2" stroke-linecap="round" stroke-linejoin="round" opacity="1" fill="none"></path><path d="M970.25 571.17C954.34 532.78 972.58 488.76 1010.97 472.85 1049.36 456.97 1093.38 475.18 1109.29 513.6 1125.17 551.99 1106.96 596.01 1068.57 611.91 1030.15 627.8 986.13 609.56 970.25 571.17Z" fill="#46cdcf" stroke="#333333" stroke-width="2" stroke-linecap="round" stroke-linejoin="round" opacity="1"></path></g><g><path d="M1007.4 520.67C1013.28 512.24 1022.21 506.44 1032.31 504.5 1042.4 502.55 1052.85 504.63 1061.44 510.27 1070.03 515.92 1076.07 524.69 1078.29 534.72 1080.52 544.75 1078.73 555.26 1073.33 564 1067.93 572.74 1059.33 579.03 1049.36 581.53 1039.39 584.03 1028.84 582.54 1019.95 577.38 1011.06 572.22 1004.54 563.8 1001.76 553.9 998.99 544.01 1000.19 533.42 1005.1 524.39" fill="#46cdcf" opacity="1" stroke-width="2" stroke="none"></path><path d="M1007.4 520.67C1013.28 512.24 1022.21 506.44 1032.31 504.5 1042.4 502.55 1052.85 504.63 1061.44 510.27 1070.03 515.92 1076.07 524.69 1078.29 534.72 1080.52 544.75 1078.73 555.26 1073.33 564 1067.93 572.74 1059.33 579.03 1049.36 581.53 1039.39 584.03 1028.84 582.54 1019.95 577.38 1011.06 572.22 1004.54 563.8 1001.76 553.9 998.99 544.01 1000.19 533.42 1005.1 524.39" stroke="#333333" stroke-width="2" stroke-linecap="round" stroke-linejoin="round" opacity="1" fill="none"></path><path d="M1049.29 547.93H1030.56V530.29C1030.56 527.81 1031.54 525.42 1033.3 523.67 1035.06 521.91 1037.44 520.92 1039.92 520.92 1042.41 520.92 1044.79 521.91 1046.55 523.67 1048.3 525.42 1049.29 527.81 1049.29 530.29V537" stroke="#333333" stroke-width="2" stroke-linecap="round" stroke-linejoin="round" opacity="1" fill="none"></path><path d="M1053.61 544.24H1026.24C1026.22 544.24 1026.21 544.25 1026.21 544.27V565.67C1026.21 565.68 1026.22 565.69 1026.24 565.69H1053.61C1053.63 565.69 1053.64 565.68 1053.64 565.67V544.27C1053.64 544.25 1053.63 544.24 1053.61 544.24Z" fill="#46cdcf" stroke="#333333" stroke-width="2" stroke-linecap="round" stroke-linejoin="round" opacity="1"></path><path d="M1042.7 551.72C1042.7 551.25 1042.58 550.78 1042.35 550.37 1042.12 549.95 1041.79 549.61 1041.38 549.35 1040.98 549.11 1040.52 548.96 1040.05 548.94 1039.57 548.92 1039.1 549.02 1038.68 549.24 1038.26 549.45 1037.89 549.77 1037.63 550.16 1037.36 550.55 1037.2 551 1037.16 551.48 1037.12 551.95 1037.2 552.42 1037.39 552.86 1037.59 553.29 1037.89 553.66 1038.27 553.94 1038.27 553.95 1038.28 553.95 1038.28 553.96 1038.28 553.96 1038.28 553.96 1038.28 553.97L1037.18 560.96C1037.17 560.97 1037.18 560.97 1037.18 560.97 1037.18 560.98 1037.18 560.98 1037.18 560.98 1037.18 560.98 1037.18 560.99 1037.19 560.99 1037.19 560.99 1037.19 560.99 1037.19 560.99H1042.65C1042.66 560.99 1042.66 560.99 1042.66 560.99 1042.67 560.99 1042.67 560.98 1042.67 560.98 1042.67 560.98 1042.67 560.98 1042.67 560.97 1042.68 560.97 1042.68 560.97 1042.67 560.96L1041.57 553.97C1041.57 553.96 1041.57 553.96 1041.57 553.96 1041.57 553.95 1041.58 553.95 1041.58 553.94 1041.93 553.69 1042.21 553.35 1042.4 552.97 1042.6 552.58 1042.7 552.15 1042.7 551.72V551.72Z" fill="#48466d" stroke="#333333" stroke-width="2" stroke-linecap="round" stroke-linejoin="round" opacity="1"></path></g><g><path d="M1179.6 236.59L1179.6 405.9 888.3 405.9 888.3 376.15 888.3 363.87 888.3 197.73 892.82 188.83 1173.99 188.83 1179.6 197.71 1179.6 227.99" fill="#ffffff" stroke="#333333" stroke-width="2" stroke-linecap="round" stroke-linejoin="round" opacity="1"></path><path d="M1154.47 173.9L1129.33 173.9 888.3 173.9 888.3 197.73 1129.33 197.73 1154.47 197.71 1179.6 197.71 1179.6 173.9Z" fill="#3d84a8" stroke="#333333" stroke-width="2" stroke-linecap="round" stroke-linejoin="round" opacity="1"></path><path d="M1141.91 181.98A4.04 3.82 0 1 0 1141.91 189.63 4.04 3.82 0 1 0 1141.91 181.98Z" fill="#ffffff" stroke="#333333" stroke-width="2" stroke-linecap="round" stroke-linejoin="round" opacity="1"></path><path d="M1167.04 181.98A4.04 3.82 0 1 0 1167.04 189.63 4.04 3.82 0 1 0 1167.04 181.98Z" fill="#ffffff" stroke="#333333" stroke-width="2" stroke-linecap="round" stroke-linejoin="round" opacity="1"></path><path d="M1154.47 173.9L1154.46 197.71" stroke="#333333" stroke-width="2" stroke-linecap="round" stroke-linejoin="round" opacity="1" fill="none"></path><path d="M1129.33 173.9L1129.33 197.73" stroke="#333333" stroke-width="2" stroke-linecap="round" stroke-linejoin="round" opacity="1" fill="none"></path></g><g><path d="M1049.79 313.32L1041 326.78C1041 326.78 1040.94 326.85 1040.94 326.78L1011.19 307.42 981.32 353.26V353.32L993.69 362.3C993.69 362.3 993.69 362.3 993.75 362.3H993.82L1015.68 328.83C1015.68 328.83 1015.68 328.83 1015.74 328.83H1015.81L1045.49 348.2 1075.37 302.42C1075.37 302.42 1075.43 302.36 1075.43 302.42L1086.65 309.73H1086.71V309.67L1080.62 280.37C1080.62 280.3 1080.56 280.3 1080.56 280.3L1051.2 286.39C1051.2 286.39 1051.13 286.39 1051.13 286.46 1051.13 286.52 1051.13 286.52 1051.13 286.52L1062.35 293.89C1062.35 293.89 1062.42 293.96 1062.35 293.96L1052.16 309.6" fill="#abedd8" opacity="1" stroke-width="2" stroke="none"></path><path d="M1049.79 313.32L1041 326.78C1041 326.78 1040.94 326.85 1040.94 326.78L1011.19 307.42 981.32 353.26V353.32L993.69 362.3C993.69 362.3 993.69 362.3 993.75 362.3H993.82L1015.68 328.83C1015.68 328.83 1015.68 328.83 1015.74 328.83H1015.81L1045.49 348.2 1075.37 302.42C1075.37 302.42 1075.43 302.36 1075.43 302.42L1086.65 309.73H1086.71V309.67L1080.62 280.37C1080.62 280.3 1080.56 280.3 1080.56 280.3L1051.2 286.39C1051.2 286.39 1051.13 286.39 1051.13 286.46 1051.13 286.52 1051.13 286.52 1051.13 286.52L1062.35 293.89C1062.35 293.89 1062.42 293.96 1062.35 293.96L1052.16 309.6" stroke="#333333" stroke-width="2" stroke-linecap="round" stroke-linejoin="round" opacity="1" fill="none"></path><path d="M981.19 239.4V260.56" stroke="#333333" stroke-width="2" stroke-linecap="round" stroke-linejoin="round" opacity="1" fill="none"></path><path d="M998.75 239.4V260.56" stroke="#333333" stroke-width="2" stroke-linecap="round" stroke-linejoin="round" opacity="1" fill="none"></path><path d="M1016.38 239.4V260.56" stroke="#333333" stroke-width="2" stroke-linecap="round" stroke-linejoin="round" opacity="1" fill="none"></path><path d="M1051.58 239.4V260.56" stroke="#333333" stroke-width="2" stroke-linecap="round" stroke-linejoin="round" opacity="1" fill="none"></path><path d="M1086.71 239.4V260.56" stroke="#333333" stroke-width="2" stroke-linecap="round" stroke-linejoin="round" opacity="1" fill="none"></path><path d="M981.19 249.98H1086.71" stroke="#333333" stroke-width="2" stroke-linecap="round" stroke-linejoin="round" opacity="1" fill="none"></path></g><g><path d="M564.34 443.75H766.74C816.36 443.75 856.61 484.01 856.61 533.62L856.61 729.93H753.44L753.44 546.81H667.52C610.58 546.81 564.34 500.7 564.34 443.75Z" fill="#48466d" stroke="#333333" stroke-width="2" stroke-linecap="round" stroke-linejoin="round" opacity="1"></path><path d="M493.19 443.75L518.11 420.19 695.48 443.75C745.1 443.75 785.35 484.01 785.35 533.62V729.93H682.29V546.81H596.37C539.43 546.81 493.19 500.7 493.19 443.75Z" fill="#48466d" stroke="#333333" stroke-width="2" stroke-linecap="round" stroke-linejoin="round" opacity="1"></path><path d="M493.19 388.73C493.19 306.75 559.61 240.34 641.58 240.34L777.8 240.34 774.64 375.42 903.07 424.13 878.04 491.79 782.76 455.25V491.79L640.01 491.79C610.12 491.79 585.09 471.38 577.88 443.75H493.08V388.73H493.19Z" fill="#ffffff" stroke="#333333" stroke-width="2" stroke-linecap="round" stroke-linejoin="round" opacity="1"></path><path d="M750.96 421.54V378.47" stroke="#333333" stroke-width="2" stroke-linecap="round" stroke-linejoin="round" opacity="1" fill="none"></path><path d="M750.96 366.74V357.27" stroke="#333333" stroke-width="2" stroke-linecap="round" stroke-linejoin="round" opacity="1" fill="none"></path><path d="M814.44 256.01C814.44 256.01 772.04 218.91 726.15 247.89 716.68 253.87 696.5 273.6 703.49 305.51 712.62 327.5 734.27 342.95 759.53 342.95 786.48 342.95 809.37 325.36 817.26 301 819.18 295.03 820.3 288.71 820.3 282.17 820.42 272.81 818.28 264.02 814.44 256.01Z" fill="#ffffff" stroke="#333333" stroke-width="2" stroke-linecap="round" stroke-linejoin="round" opacity="1"></path><path d="M790.99 277.89V297.39" stroke="#333333" stroke-width="2" stroke-linecap="round" stroke-linejoin="round" opacity="1" fill="none"></path><path d="M774.64 297.39C774.64 301.9 778.25 305.51 782.76 305.51 787.27 305.51 790.87 301.9 790.87 297.39" stroke="#333333" stroke-width="2" stroke-linecap="round" stroke-linejoin="round" opacity="1" fill="none"></path><path d="M759.64 221.39C735.4 221.39 714.54 235.49 704.73 256.01 700.89 263.9 698.86 272.81 698.86 282.17 698.86 288.71 699.88 295.03 701.91 301 702.36 302.58 702.92 304.05 703.6 305.51 718.37 305.51 730.44 293.56 730.44 278.68V256.01H814.55C804.74 235.6 783.77 221.39 759.64 221.39Z" fill="#48466d" stroke="#333333" stroke-width="2" stroke-linecap="round" stroke-linejoin="round" opacity="1"></path><path d="M682.29 546.81H706.98" stroke="#333333" stroke-width="2" stroke-linecap="round" stroke-linejoin="round" opacity="1" fill="none"></path><path d="M640.79 421.54C658.61 421.54 673.04 407.11 673.04 389.29" stroke="#333333" stroke-width="2" stroke-linecap="round" stroke-linejoin="round" opacity="1" fill="none"></path><path d="M782.87 455.14V421.54H640.57" stroke="#333333" stroke-width="2" stroke-linecap="round" stroke-linejoin="round" opacity="1" fill="none"></path><path d="M575.96 356.37V427.52C575.96 433.04 576.75 438.57 577.99 443.64" stroke="#333333" stroke-width="2" stroke-linecap="round" stroke-linejoin="round" opacity="1" fill="none"></path></g></svg>