<svg xmlns="http://www.w3.org/2000/svg" height="1200" width="1600" version="1.1" xmlns:xlink="http://www.w3.org/1999/xlink" xmlns:svgjs="http://svgjs.com/svgjs"><rect fill="#ffffff" width="1600" height="1200"></rect><g><path d="M1268.18 896.44H331.82V878.04L439.72 864.37H1136.82L1268.18 878.04V896.44Z" fill="#efdcd7" opacity="1" stroke-width="4" stroke="none"></path><path d="M1135.25 800.92L372.87 812.56 331.82 859.82 331.82 878.21H1267.99V859.82L1135.25 800.92Z" fill="#cfcfcf" opacity="1" stroke-width="4" stroke="none"></path><path d="M331.82 335.29H1267.99V413.6L1246.29 465.41 1267.99 550.97V609.7 661.18L1238.66 730.04 1267.99 785.73V859.82H1063.9 949.35L890.9 834.33 847.7 824.54 806.06 834.33H794.33L748.78 826.57 709.1 834.33 668.24 859.82H520.65 332.21V789.44L350.97 725.31 332.21 661.18V550.97L358.4 487.18 332.21 413.43V335.29Z" fill="#efdcd7" opacity="1" stroke-width="4" stroke="none"></path><path d="M805.86 695.78H890.7V834.33H805.86V695.78Z" fill="#ffffff" opacity="1" stroke-width="4" stroke="none"></path><path d="M805.67 695.78H890.7V715.52L805.67 699.99V695.78Z" fill="#adadad" opacity="0.3" stroke-width="4" stroke="none"></path><path d="M816.23 751.47V778.64" stroke="#9c9c9c" stroke-width="4" stroke-linecap="round" stroke-linejoin="round" opacity="1" fill="none"></path><path d="M811.73 661.18H890.7V684.64H811.73V661.18Z" fill="#ffffff" opacity="1" stroke-width="4" stroke="none"></path><path d="M708.9 661.18H788.27V684.64H708.9V661.18Z" fill="#ffffff" opacity="1" stroke-width="4" stroke="none"></path><path d="M434.25 661.18H662.18V789.44H434.25V661.18Z" fill="#ffffff" opacity="1" stroke-width="4" stroke="none"></path><path d="M937.62 661.18H1165.55V789.44H937.62V661.18Z" fill="#ffffff" opacity="1" stroke-width="4" stroke="none"></path><path d="M331.82 661.18H400.82V789.44H331.82V661.18Z" fill="#ffffff" opacity="1" stroke-width="4" stroke="none"></path><path d="M1198.98 661.18H1267.99V789.44H1198.98V661.18Z" fill="#ffffff" opacity="1" stroke-width="4" stroke="none"></path><path d="M937.42 661.18H1165.55V789.44H937.42V661.18Z" fill="#ffffff" opacity="1" stroke-width="4" stroke="none"></path><path d="M331.66 651.83H1267.83V661.28H331.66V651.83Z" fill="#d2ada2" opacity="1" stroke-width="4" stroke="none"></path><path d="M708.9 695.44H794.14V834.33H708.9V695.44Z" fill="#ffffff" opacity="1" stroke-width="4" stroke="none"></path><path d="M794.14 709.61L708.9 700.5V695.44L794.14 695.78V709.61Z" fill="#adadad" opacity="0.3" stroke-width="4" stroke="none"></path><path d="M783.58 751.47V778.64" stroke="#9c9c9c" stroke-width="4" stroke-linecap="round" stroke-linejoin="round" opacity="1" fill="none"></path><path d="M890.7 695.44H708.9" stroke="#9c9c9c" stroke-width="4" stroke-linecap="round" stroke-linejoin="round" opacity="1" fill="none"></path><path d="M832.45 413.6H1139.55V550.97H832.45V413.6Z" fill="#ffffff" opacity="1" stroke-width="4" stroke="none"></path><path d="M819.35 551.14H1160.86" stroke="#9c9c9c" stroke-width="4" stroke-linecap="round" stroke-linejoin="round" opacity="1" fill="none"></path><path d="M1208.17 413.6H1268.18V550.97H1208.17V413.6Z" fill="#ffffff" opacity="1" stroke-width="4" stroke="none"></path><path d="M1188.62 551.14H1268.77" stroke="#9c9c9c" stroke-width="4" stroke-linecap="round" stroke-linejoin="round" opacity="1" fill="none"></path><path d="M331.82 413.6H391.83V550.97H331.82V413.6Z" fill="#ffffff" opacity="1" stroke-width="4" stroke="none"></path><path d="M331.43 551.14H401.02" stroke="#9c9c9c" stroke-width="4" stroke-linecap="round" stroke-linejoin="round" opacity="1" fill="none"></path><path d="M459.27 413.6H766.38V550.97H459.27V413.6Z" fill="#ffffff" opacity="1" stroke-width="4" stroke="none"></path><path d="M439.14 551.14H780.45" stroke="#9c9c9c" stroke-width="4" stroke-linecap="round" stroke-linejoin="round" opacity="1" fill="none"></path><path d="M311.29 327.69H1288.71V364.65H311.29V327.69Z" fill="#d2ada2" opacity="1" stroke-width="4" stroke="none"></path><path d="M331.82 364.65H1268.57" stroke="#9c9c9c" stroke-width="4" stroke-linecap="round" stroke-linejoin="round" opacity="1" fill="none"></path><path d="M331.82 878.04H1267.99" stroke="#9c9c9c" stroke-width="4" stroke-linecap="round" stroke-linejoin="round" opacity="1" fill="none"></path><path d="M548.22 661.18V789.27" stroke="#9c9c9c" stroke-width="4" stroke-linecap="round" stroke-linejoin="round" opacity="1" fill="none"></path><path d="M1051 661.18V789.27" stroke="#9c9c9c" stroke-width="4" stroke-linecap="round" stroke-linejoin="round" opacity="1" fill="none"></path><path d="M331.82 789.44H411.38" stroke="#9c9c9c" stroke-width="4" stroke-linecap="round" stroke-linejoin="round" opacity="1" fill="none"></path><path d="M1189.79 789.27H1268.18" stroke="#9c9c9c" stroke-width="4" stroke-linecap="round" stroke-linejoin="round" opacity="1" fill="none"></path><path d="M927.06 789.27H1174.74" stroke="#9c9c9c" stroke-width="4" stroke-linecap="round" stroke-linejoin="round" opacity="1" fill="none"></path><path d="M424.48 789.27H672.15" stroke="#9c9c9c" stroke-width="4" stroke-linecap="round" stroke-linejoin="round" opacity="1" fill="none"></path><path d="M1208.17 413.6H1268.18V465.41H1208.17V413.6Z" fill="#ffffff" opacity="1" stroke-width="4" stroke="none"></path><path d="M832.45 413.43H1139.55V465.24H832.45V413.43Z" fill="#ffffff" opacity="1" stroke-width="4" stroke="none"></path><path d="M459.27 413.6H766.38V465.41H459.27V413.6Z" fill="#ffffff" opacity="1" stroke-width="4" stroke="none"></path><path d="M331.82 413.6H392.22V465.41H331.82V413.6Z" fill="#ffffff" opacity="1" stroke-width="4" stroke="none"></path><path d="M331.82 413.6H392.22L392.22 436.89 331.82 413.6 331.82 413.6Z" fill="#a9a9a9" opacity="0.3" stroke-width="4" stroke="none"></path><path d="M331.43 465.41H391.24" stroke="#9c9c9c" stroke-width="4" stroke-linecap="round" stroke-linejoin="round" opacity="1" fill="none"></path><path d="M459.27 413.6H766.38V436.72L459.27 413.6 459.27 413.6Z" fill="#a9a9a9" opacity="0.3" stroke-width="4" stroke="none"></path><path d="M689.55 413.6V465.41" stroke="#9c9c9c" stroke-width="4" stroke-linecap="round" stroke-linejoin="round" opacity="1" fill="none"></path><path d="M459.08 465.41H766.38" stroke="#9c9c9c" stroke-width="4" stroke-linecap="round" stroke-linejoin="round" opacity="1" fill="none"></path><path d="M612.73 413.6V551.14" stroke="#9c9c9c" stroke-width="4" stroke-linecap="round" stroke-linejoin="round" opacity="1" fill="none"></path><path d="M535.9 413.6V465.41" stroke="#9c9c9c" stroke-width="4" stroke-linecap="round" stroke-linejoin="round" opacity="1" fill="none"></path><path d="M832.45 413.6H1139.55V436.72L832.45 413.6 832.45 413.6Z" fill="#a9a9a9" opacity="0.3" stroke-width="4" stroke="none"></path><path d="M833.43 465.41H1140.53" stroke="#9c9c9c" stroke-width="4" stroke-linecap="round" stroke-linejoin="round" opacity="1" fill="none"></path><path d="M987.08 413.6V551.14" stroke="#9c9c9c" stroke-width="4" stroke-linecap="round" stroke-linejoin="round" opacity="1" fill="none"></path><path d="M1063.9 413.6V465.41" stroke="#9c9c9c" stroke-width="4" stroke-linecap="round" stroke-linejoin="round" opacity="1" fill="none"></path><path d="M910.06 413.6V465.41" stroke="#9c9c9c" stroke-width="4" stroke-linecap="round" stroke-linejoin="round" opacity="1" fill="none"></path><path d="M331.82 404.14H1267.99V413.6H331.82V404.14Z" fill="#d2ada2" opacity="1" stroke-width="4" stroke="none"></path><path d="M1268.18 433.51L1208.17 413.6 1208.17 413.6H1268.18V433.51Z" fill="#a9a9a9" opacity="0.3" stroke-width="4" stroke="none"></path><path d="M1208.76 465.41H1268.77" stroke="#9c9c9c" stroke-width="4" stroke-linecap="round" stroke-linejoin="round" opacity="1" fill="none"></path></g><g><path d="M683.43 336.87C675.56 316.55 667.4 295.64 663.31 287.37 654.85 270.44 645.29 252.21 639.41 251.22 639.21 251.22 639.11 251.22 638.91 251.22 638.02 251.22 637.22 251.62 636.72 252.31 633.93 256.1 637.22 269.24 638.31 273.13 638.41 273.33 638.11 273.53 638.02 273.33 635.33 271.63 632.04 269.24 628.35 266.56 619.29 259.88 608.04 251.52 600.37 251.52 597.68 251.42 595.19 252.71 593.79 254.9 593.79 255 593.69 255 593.59 255 593.1 254.9 592.6 254.9 592.1 254.9 588.81 254.9 586.32 256.1 585.13 258.29 584.03 260.48 584.23 263.17 585.63 265.26 585.73 265.36 585.63 265.56 585.53 265.56 584.03 266.16 582.94 267.55 582.54 269.14 581.24 275.92 593.59 287.77 598.18 292.25L598.28 292.35C592.1 289.16 587.62 287.57 584.93 287.57 582.14 287.57 581.84 289.36 581.74 290.06 580.85 296.63 622.58 324.42 625.76 326.51L625.86 326.61C628.25 339.56 630.65 350.42 633.63 361.67L634.43 364.86C634.53 365.16 634.83 365.26 635.03 365.16L685.82 343.94C685.92 343.94 685.82 343.84 685.82 343.64V343.15L683.43 336.87Z" fill="#cd9660" opacity="1" stroke-width="4" stroke="none"></path><path d="M586.22 265.66C586.22 265.66 609.93 285.08 614.91 289.06" stroke="#121212" stroke-width="4" stroke-linecap="round" stroke-linejoin="round" opacity="1" fill="none"></path><path d="M593.8 255.2C604.96 264.16 622.89 278.11 622.89 278.11" stroke="#121212" stroke-width="4" stroke-linecap="round" stroke-linejoin="round" opacity="1" fill="none"></path><path d="M599.47 293.15L607.94 299.02" stroke="#121212" stroke-width="4" stroke-linecap="round" stroke-linejoin="round" opacity="1" fill="none"></path><path d="M975.35 680.78C966.79 680.78 945.77 671.42 931.53 662.76 920.77 655.68 910.52 647.62 900.95 638.95 900.46 638.55 900.95 637.66 900.46 637.16L900.36 635.27 934.82 603.3C935.12 603.69 935.71 603.69 936.01 603.99 940 609.17 943.78 614.25 947.57 619.63 948.66 619.53 957.33 618.53 969.38 617.64 970.77 617.54 972.17 617.44 973.56 617.34 980.43 616.74 988.2 616.14 993.98 616.14 999.26 616.14 1001.95 616.64 1002.44 617.74 1002.84 618.53 1002.84 619.43 1002.54 620.23 1001.75 622.22 998.96 624.01 994.18 625.71 997.46 626.2 1009.52 628.39 1012.3 633.47 1013 634.77 1013.1 636.26 1012.5 637.66 1013.4 638.06 1017.38 640.05 1017.38 643.73 1017.38 646.42 1014.5 648.21 1013.5 648.71 1014.2 649.31 1016.09 651.4 1015.99 653.79 1015.89 655.29 1014.99 656.68 1013.3 657.88 1011.11 659.37 1007.32 660.07 1001.65 660.07 995.47 659.87 989.2 659.47 983.02 658.67 978.14 658.17 973.56 657.58 970.47 657.58 968.08 657.58 966.69 657.88 966.29 658.47 966.09 658.87 966.19 659.27 966.49 659.57 968.38 662.36 970.47 664.85 972.86 667.14 977.25 671.72 981.13 675.6 978.34 679.69 978.14 680.38 976.95 680.78 975.35 680.78Z" fill="#cd9660" opacity="1" stroke-width="4" stroke="none"></path><path d="M712.81 1022.11C712.71 1021.71 711.32 1016.63 709.63 1008.46V1008.26L812.11 1008.36 812.21 1008.46C813.91 1012.74 814.8 1017.42 814.6 1022.11V1022.3L712.81 1022.11Z" fill="#585858" opacity="1" stroke-width="4" stroke="none"></path><path d="M870.78 1022.11C870.78 1022.11 868.58 1017.13 865.5 1008.56L865.4 1008.26 975.75 1007.76 976.05 1008.36C977.84 1012.64 978.64 1017.32 978.54 1022.01V1022.21L870.78 1022.11Z" fill="#585858" opacity="1" stroke-width="4" stroke="none"></path><path d="M761.22 457.78C760.52 444.34 758.93 412.17 758.73 400.22 758.43 373.72 772.47 356.79 796.18 354.9 798.57 354.7 800.86 354.6 803.05 354.6 820.88 354.6 833.33 360.48 841.1 372.73 845.58 379.8 846.67 389.16 847.67 399.02 848.17 403.5 848.67 408.18 849.46 412.96L849.66 414.16C851.55 424.52 853.45 435.27 847.57 443.84 842.79 450.91 833.13 452.41 825.96 452.41 822.87 452.41 819.88 452.11 816.89 451.71V493.04L761.22 457.78Z" fill="#cd9660" opacity="1" stroke-width="4" stroke="none"></path><path d="M815 472.52C814.9 472.23 807.93 455.39 804.05 447.52L803.75 447.03 804.24 447.33C808.23 449.22 812.61 451.01 816.89 451.71L816.99 473.02 815 472.52Z" fill="#121212" opacity="0.3" stroke-width="4" stroke="none"></path><path d="M841.2 372.63C833.43 360.38 820.98 354.5 803.15 354.5 800.96 354.5 798.67 354.6 796.28 354.8 791.79 355.2 787.71 356.09 783.93 357.49 785.52 353.8 786.42 349.72 786.42 345.34 786.42 328.41 772.77 314.76 755.84 314.76 738.91 314.76 725.26 328.41 725.26 345.34 725.26 362.27 738.91 375.91 755.84 375.91 758.73 375.91 761.62 375.52 764.21 374.72 760.52 381.69 758.63 390.26 758.83 400.12 758.83 401.61 758.83 402.41 758.93 403.7 759.03 404.8 759.03 406.09 759.13 408.18 749.57 405.39 739.7 403.9 729.84 403.9 714.31 403.9 692.4 407.79 675.56 426.41 662.62 440.75 655.94 458.28 656.94 475.81 657.64 489.85 663.51 503.1 672.48 511.17 670.68 514.06 643.99 558.48 677.56 586.96 688.71 596.52 702.95 601.6 717.59 601.5 750.96 601.5 783.93 577 789.7 548.22 798.97 499.32 780.34 476.11 772.37 466.15L771.88 465.55C774.36 464.16 776.66 462.27 778.45 460.07 781.64 456.39 785.62 449.72 786.52 439.16V439.06L786.42 438.96C786.22 438.76 765.3 423.12 773.67 410.18 776.16 406.29 779.54 404.3 783.63 404.3 792.69 404.3 802.65 413.86 802.75 413.96L802.85 414.06 802.95 413.96C809.62 407.19 808.23 398.12 807.83 396.13 810.52 397.33 813.41 397.92 816.3 398.02 819.88 398.02 822.77 396.73 824.56 394.34 826.75 391.45 827.25 386.97 825.86 381.89 830.64 384.58 834.82 385.87 838.31 385.87 843.49 385.87 845.28 382.99 845.38 382.89V382.79 382.69C844.48 379.1 843.09 375.71 841.2 372.63Z" fill="#231f20" opacity="1" stroke-width="4" stroke="none"></path><path d="M783.53 357.79C775.26 360.87 768.49 366.95 764.5 374.72" stroke="#231f20" stroke-width="4" stroke-linecap="round" stroke-linejoin="round" opacity="1" fill="none"></path><path d="M793.19 424.22L787.81 420.33" stroke="#121212" stroke-width="4" stroke-linecap="round" stroke-linejoin="round" opacity="1" fill="none"></path><path d="M816.89 451.71C813.01 450.51 809.52 449.42 804.24 447.33" stroke="#121212" stroke-width="4" stroke-linecap="round" stroke-linejoin="round" opacity="1" fill="none"></path><path d="M833.13 411.57L833.92 413.66C834.32 414.86 834.12 416.15 833.23 417.05L833.03 417.25" stroke="#121212" stroke-width="4" stroke-linecap="round" stroke-linejoin="round" opacity="1" fill="none"></path><path d="M836.22 427.21C834.92 428.2 830.54 428.7 827.75 425.71" stroke="#121212" stroke-width="4" stroke-linecap="round" stroke-linejoin="round" opacity="1" fill="none"></path><path d="M821.57 412.47C822.95 412.47 824.06 411.35 824.06 409.98 824.06 408.6 822.95 407.49 821.57 407.49 820.2 407.49 819.08 408.6 819.08 409.98 819.08 411.35 820.2 412.47 821.57 412.47Z" fill="#231f20" opacity="1" stroke-width="4" stroke="none"></path><path d="M841.1 410.67C842.47 410.67 843.59 409.56 843.59 408.18 843.59 406.81 842.47 405.69 841.1 405.69 839.72 405.69 838.61 406.81 838.61 408.18 838.61 409.56 839.72 410.67 841.1 410.67Z" fill="#231f20" opacity="1" stroke-width="4" stroke="none"></path><path d="M709.64 1008.46C707.94 1000.29 706.55 991.73 705.35 983.16V982.96H737.72L733.84 965.53C732.84 961.05 735.63 956.67 740.11 955.67 740.71 955.57 741.31 955.47 741.91 955.47H771.69V955.67C771.79 963.14 773.38 968.72 776.37 972.9 783.14 982.07 790.31 987.35 796.59 992.13 803.16 997.01 809.03 1000.59 812.01 1007.76L812.41 1008.96 709.64 1008.46Z" fill="#ffffff" opacity="1" stroke-width="4" stroke="none"></path><path d="M865.7 1009.16L865.5 1008.56C862.61 1000.49 860.12 991.93 857.73 983.16L857.53 982.47 897.17 983.06 893.28 965.63C892.29 961.15 895.08 956.77 899.56 955.77 900.16 955.67 900.75 955.57 901.35 955.57L932.03 954.88 932.73 955.97C934.42 963.74 936.51 969.02 939.5 973 946.37 982.17 953.64 987.45 960.12 992.13 966.89 997.11 972.27 999.7 975.35 1006.87L976.15 1008.56C976.25 1008.66 976.15 1008.86 975.95 1008.86L865.7 1009.16Z" fill="#ffffff" opacity="1" stroke-width="4" stroke="none"></path><path d="M857.73 983.26C852.35 963.34 848.76 942.93 847.17 922.31L847.07 921.11 886.21 840.54 928.64 921.11C929.74 935.36 930.73 946.71 932.63 955.67V955.97L901.45 955.87C897.07 955.87 893.58 959.36 893.58 963.74 893.58 964.34 893.68 964.84 893.78 965.43L897.77 983.36 857.73 983.26Z" fill="#cd9660" opacity="1" stroke-width="4" stroke="none"></path><path d="M705.45 983.36C705.35 983.36 705.35 983.36 705.45 983.36 704.26 975.19 701.87 954.48 701.87 937.95 701.87 931.97 701.97 926.49 702.27 921.11L747.78 841.34 776.67 921.11V921.21C773.08 937.25 771.59 947.51 771.79 955.67V955.87H742.5C738.42 955.87 734.83 958.76 734.14 962.84 733.94 963.94 734.14 964.54 734.24 965.43L738.22 983.36H705.45Z" fill="#cd9660" opacity="1" stroke-width="4" stroke="none"></path><path d="M847.37 925.2L847.07 921.21C845.98 906.87 845.48 892.93 845.48 878.39 845.48 870.82 845.58 864.14 845.68 858.27 845.78 848.81 845.98 841.34 845.48 835.26 843.78 811.46 836.81 791.04 821.28 764.55 817.79 758.57 814.4 752.49 811.12 746.52 809.72 761.06 808.23 774.41 806.73 785.96 803.15 811.56 797.87 836.85 791.1 861.75 789.6 867.53 788.11 872.91 786.91 878.39 785.22 885.76 783.53 892.63 781.93 899.3 780.04 907.07 778.05 915.04 776.56 921.81L702.26 921.51V921.31C703.15 904.78 705.34 893.52 707.53 881.67L708.13 878.49C709.73 870.12 711.22 862.55 712.71 855.18 715.6 840.84 718.39 827.29 720.88 809.76 724.27 785.56 722.57 760.46 721.08 736.26 718.29 692.34 715.3 647.02 742.29 605.79L742.39 605.69H845.18L845.28 605.79C845.88 607.08 909.52 735.36 918.78 798.11 923.46 829.48 924.26 846.71 925.46 872.61L925.75 878.39C926.55 888.64 927.25 898.21 927.85 906.67 928.24 911.75 928.44 916.83 928.74 921.41V922.31L847.37 925.2Z" fill="#ffc930" opacity="1" stroke-width="4" stroke="none"></path><path d="M847.37 925.2L847.07 921.21C845.98 906.87 845.48 892.93 845.48 878.39 845.48 870.82 845.58 864.14 845.68 858.27 845.78 848.81 845.98 841.34 845.48 835.26 843.78 811.46 836.81 791.04 821.28 764.55 817.69 758.37 814.1 752.1 810.82 745.92V745.82 745.72C810.82 745.52 815.2 721.82 816.2 678.49 816.59 677.4 817.19 676.9 817.99 676.9 827.55 676.9 856.83 765.14 862.21 792.83 867.49 819.92 866.59 840.94 865.5 865.24 864.8 882.07 864 899.5 865.2 921.01L865.3 924.3 847.37 925.2Z" fill="#000000" opacity="0.3" stroke-width="4" stroke="none"></path><path d="M811.12 746.52C813.71 719.73 815.6 691.14 817.09 667.44" stroke="#000000" stroke-width="4" stroke-linecap="round" stroke-linejoin="round" opacity="1" fill="none"></path><path d="M897.37 635.67C872.67 613.06 855.34 588.85 852.15 584.47 854.04 600.01 850.96 604.79 846.57 608.28L740.51 608.48C727.96 596.72 728.26 583.68 728.46 568.34 728.56 554.49 728.76 538.96 719.8 520.93 711.13 503.4 700.97 486.67 689.62 470.83 687.33 467.64 685.14 464.56 683.04 461.57 680.35 457.88 677.86 454.3 675.27 450.71 674.18 449.22 672.98 447.62 671.79 445.93 662.03 432.68 647.09 412.77 633.94 363.17L633.64 361.57 685.83 343.25 686.03 343.74C693.4 362.77 700.97 381.59 704.16 386.97 706.85 391.65 719.99 408.48 736.23 425.41 772.88 463.46 794.99 471.43 807.03 471.43 807.63 471.43 808.23 471.43 808.83 471.33 813.21 471.03 816.79 467.84 816.79 463.46V462.86L818.09 463.16C836.02 466.95 842.99 473.52 851.35 483.68 855.44 488.76 861.31 498.02 868.68 509.67 876.25 521.63 885.72 536.57 895.87 550.91 906.03 565.25 914 575.51 922.37 586.26 926.45 591.44 930.53 597.02 935.02 603L935.91 604.19 901.05 639.15C900.95 639.25 900.85 639.25 900.75 639.15L897.37 635.67Z" fill="#61ccff" opacity="1" stroke-width="4" stroke="none"></path><path d="M899.46 637.56C872.57 612.86 852.05 584.27 851.85 583.97 851.75 583.58 844.88 551.8 844.88 533.08V532.98L844.98 532.88C845.38 532.68 845.68 532.68 846.08 532.58 848.86 532.58 850.76 537.36 854.14 546.03 858.43 556.88 864.8 573.22 878.05 592.74 893.78 616.04 907.03 629.89 907.23 630.09L908.72 631.48 901.25 639.05C901.15 639.15 901.05 639.15 900.95 639.05L899.46 637.56Z" fill="#000000" opacity="0.3" stroke-width="4" stroke="none"></path><path d="M939.4 973L925.46 982.07" stroke="#585858" stroke-width="4" stroke-linecap="round" stroke-linejoin="round" opacity="1" fill="none"></path><path d="M946.57 981.07L936.61 992.92" stroke="#585858" stroke-width="4" stroke-linecap="round" stroke-linejoin="round" opacity="1" fill="none"></path><path d="M776.66 973.3L763.21 982.07" stroke="#585858" stroke-width="4" stroke-linecap="round" stroke-linejoin="round" opacity="1" fill="none"></path><path d="M783.83 981.57L774.36 992.92" stroke="#585858" stroke-width="4" stroke-linecap="round" stroke-linejoin="round" opacity="1" fill="none"></path><path d="M738.31 983.36L745.18 1008.86" stroke="#585858" stroke-width="4" stroke-linecap="round" stroke-linejoin="round" opacity="1" fill="none"></path><path d="M897.77 983.36L904.24 1008.46" stroke="#585858" stroke-width="4" stroke-linecap="round" stroke-linejoin="round" opacity="1" fill="none"></path><path d="M740.5 608.48L846.57 608.28" stroke="#000000" stroke-width="4" stroke-linecap="round" stroke-linejoin="round" opacity="1" fill="none"></path><path d="M702.26 921.41L776.56 921.81" stroke="#000000" stroke-width="4" stroke-linecap="round" stroke-linejoin="round" opacity="1" fill="none"></path><path d="M847.37 925.2L928.74 922.21" stroke="#000000" stroke-width="4" stroke-linecap="round" stroke-linejoin="round" opacity="1" fill="none"></path><path d="M852.25 584.57C850.26 565.65 844.98 558.97 843.19 533.08" stroke="#000000" stroke-width="4" stroke-linecap="round" stroke-linejoin="round" opacity="1" fill="none"></path><path d="M633.64 361.67L685.83 343.25" stroke="#000000" stroke-width="4" stroke-linecap="round" stroke-linejoin="round" opacity="1" fill="none"></path><path d="M645.98 398.42L699.67 377.61" stroke="#000000" stroke-width="4" stroke-linecap="round" stroke-linejoin="round" opacity="1" fill="none"></path><path d="M669 349.22L683.14 383.98" stroke="#000000" stroke-width="4" stroke-linecap="round" stroke-linejoin="round" opacity="1" fill="none"></path><path d="M650.17 355.89L661.92 392.25" stroke="#000000" stroke-width="4" stroke-linecap="round" stroke-linejoin="round" opacity="1" fill="none"></path><path d="M901.05 639.15L936.01 604.09" stroke="#000000" stroke-width="4" stroke-linecap="round" stroke-linejoin="round" opacity="1" fill="none"></path><path d="M873.76 610.87L911.61 572.52" stroke="#000000" stroke-width="4" stroke-linecap="round" stroke-linejoin="round" opacity="1" fill="none"></path><path d="M926.85 613.16L901.65 583.87" stroke="#000000" stroke-width="4" stroke-linecap="round" stroke-linejoin="round" opacity="1" fill="none"></path><path d="M884.92 599.61L912.31 627.8" stroke="#000000" stroke-width="4" stroke-linecap="round" stroke-linejoin="round" opacity="1" fill="none"></path><path d="M727.95 635.17H748.37C748.37 635.17 744.68 676.8 719.98 675.4" stroke="#000000" stroke-width="4" stroke-linecap="round" stroke-linejoin="round" opacity="1" fill="none"></path><path d="M1013.3 648.61C999.76 646.22 986.21 644.53 972.47 643.63" stroke="#121212" stroke-width="4" stroke-linecap="round" stroke-linejoin="round" opacity="1" fill="none"></path><path d="M1012.3 637.66C996.37 633.67 972.47 632.68 972.47 632.68" stroke="#121212" stroke-width="4" stroke-linecap="round" stroke-linejoin="round" opacity="1" fill="none"></path><path d="M993.38 625.71C986.51 624.41 979.44 623.81 972.47 623.71" stroke="#121212" stroke-width="4" stroke-linecap="round" stroke-linejoin="round" opacity="1" fill="none"></path><path d="M638.51 273.63L631.34 304.6" stroke="#121212" stroke-width="4" stroke-linecap="round" stroke-linejoin="round" opacity="1" fill="none"></path><path d="M672.68 511.17C679.65 517.14 689.61 521.13 689.61 521.13" stroke="#121212" stroke-width="4" stroke-linecap="round" stroke-linejoin="round" opacity="1" fill="none"></path><path d="M759.23 408.48L759.82 418.64" stroke="#121212" stroke-width="4" stroke-linecap="round" stroke-linejoin="round" opacity="1" fill="none"></path></g><g><path d="M1330.79 503.76C1330.79 503.69 1330.79 503.69 1330.79 503.76 1332.09 503.54 1357.26 499.85 1370.78 491.97 1372.73 490.82 1374.76 489.66 1376.71 488.65 1386.98 482.86 1396.67 477.36 1397.68 472.23 1397.97 470.86 1397.54 469.48 1396.52 468.25V468.18C1396.67 467.89 1397.97 465.65 1396.89 463.7 1395.95 461.96 1393.34 461.02 1389.15 460.95H1388.86C1384.01 460.95 1378.01 462.61 1371.58 464.28 1364.13 466.3 1355.67 468.61 1347.93 468.61 1346.34 468.61 1344.75 468.54 1343.23 468.33 1343.16 468.33 1343.16 468.25 1343.16 468.18 1344.31 467.1 1353.71 457.19 1353.42 452.2 1353.35 451.33 1353.06 450.68 1352.41 450.17 1351.76 449.67 1350.97 449.38 1349.95 449.38 1346.48 449.38 1341.35 452.49 1336.43 455.6 1332.96 457.7 1329.34 459.94 1326.45 461.02 1325.01 461.53 1323.56 462.03 1322.11 462.54 1315.32 464.85 1308.3 467.31 1301.14 473.32 1296.66 477.08 1287.18 490.89 1284.44 495.73V495.8L1303.24 513.02 1327.03 519.52C1327.17 519.74 1330.79 503.76 1330.79 503.76Z" fill="#ae805a" opacity="1" stroke-width="4" stroke="none"></path><path d="M1325.44 1008.22C1325.51 1008.22 1325.51 1008.15 1325.51 1008.08 1321.32 1000.49 1314.38 996 1307.14 991.37 1303.82 989.21 1300.27 986.96 1296.95 984.29 1288.99 977.92 1281.76 969.1 1278.87 953.34 1278.58 951.89 1278.43 951.38 1278.29 950.52 1278.29 950.52 1278.29 950.44 1278.22 950.44L1196.21 947.05C1196.14 947.05 1196.14 947.12 1196.14 947.12 1197.44 954.06 1198.96 961.07 1200.55 967.58 1201.64 971.78 1202.72 975.83 1203.88 979.66 1207.42 991.66 1211.18 1001.72 1214 1008.22H1325.44Z" fill="#ae805a" opacity="1" stroke-width="4" stroke="none"></path><path d="M1271.35 949.07L1196.29 947.05C1196.21 947.05 1196.21 947.12 1196.21 947.12 1197.23 952.83 1199.32 961.94 1200.62 967.58L1271.35 949.22C1271.42 949.22 1271.42 949.07 1271.35 949.07Z" fill="#151413" opacity="0.2" stroke-width="4" stroke="none"></path><path d="M1128.53 994.34C1124.26 991.81 1120.5 988.27 1116.81 984.87 1110.3 978.94 1105.68 970.48 1106.69 955.36 1106.76 953.77 1107.05 952.18 1107.27 950.44 1107.27 950.44 1107.27 950.37 1107.19 950.37L1097.36 947.26 1034.52 950.52C1034.45 950.52 1034.45 950.52 1034.45 950.59 1034.66 955.29 1034.95 960.13 1035.6 966.93 1035.97 970.48 1036.04 972.72 1036.83 979.23 1040.38 996.51 1046.52 1012.85 1046.88 1013.86L1046.96 1013.94 1146.03 1014.37C1146.1 1014.44 1135.11 998.24 1128.53 994.34Z" fill="#ae805a" opacity="1" stroke-width="4" stroke="none"></path><path d="M1106.04 950.08L1034.52 950.44C1034.45 950.44 1034.45 950.44 1034.45 950.52 1034.74 956.09 1035.1 961.58 1035.6 967L1106.11 950.23C1106.18 950.23 1106.18 950.08 1106.04 950.08Z" fill="#151413" opacity="0.2" stroke-width="4" stroke="none"></path><path d="M1267.95 597.7C1282.48 597.7 1295.07 590.39 1305.19 575.93 1314.45 562.84 1321.75 543.89 1327.17 519.74V519.67L1284.58 495.95H1284.51C1276.77 508.6 1272.29 516.34 1268.67 522.63 1268.67 522.71 1268.6 522.71 1268.6 522.78 1266.58 526.32 1264.7 529.36 1262.89 532.32 1262.89 532.4 1262.81 532.4 1262.74 532.32 1261.66 530.44 1247.12 504.55 1233.96 489.3 1208.29 459.07 1180.52 457.48 1175.24 457.48 1174.88 457.48 1174.66 457.48 1174.66 457.48V433.76C1174.66 433.69 1174.66 433.69 1174.59 433.69H1119.78C1119.71 433.69 1119.71 433.69 1119.71 433.76 1119.85 436.22 1119.78 451.48 1119.71 458.13 1119.71 458.2 1119.71 458.2 1119.63 458.2 1119.13 458.13 1118.26 458.13 1117.17 458.13 1109.07 458.13 1088.03 460.44 1066.99 482.14 1062.65 486.55 1058.67 491.1 1055.2 494.86V494.94L1074.73 563.42C1074.73 563.49 1074.8 563.49 1074.87 563.42L1086.73 549.82C1086.8 549.75 1086.87 549.82 1086.87 549.9L1092.37 592.63C1092.37 592.63 1092.37 592.71 1092.44 592.71L1187.68 594.15C1187.68 594.15 1187.75 594.15 1187.75 594.08L1194.26 573.04 1198.6 548.81C1198.6 548.74 1198.67 548.74 1198.74 548.81 1199.54 549.9 1204.96 557.2 1212.92 565.88 1213.28 566.24 1213.57 566.6 1213.93 566.96 1221.81 575.42 1233.46 586.41 1245.68 592.85 1253.41 595.96 1261.01 597.7 1267.95 597.7Z" fill="#61ccff" opacity="1" stroke-width="4" stroke="none"></path><path d="M1268.53 523C1268.53 522.92 1268.46 522.92 1268.38 523 1267.8 524.01 1264.98 528.92 1262.74 532.47V532.54L1270.62 546.14C1270.7 546.21 1270.77 546.14 1270.77 546.06L1268.53 523Z" fill="#172830" opacity="0.2" stroke-width="4" stroke="none"></path><path d="M1201.42 528.56L1198.46 548.67V548.74C1203.23 555.03 1208.15 561.1 1213.5 566.82 1213.57 566.89 1213.64 566.82 1213.64 566.75L1201.64 528.56C1201.56 528.49 1201.49 528.49 1201.42 528.56Z" fill="#172830" opacity="0.2" stroke-width="4" stroke="none"></path><path d="M1180.38 473.39L1125.63 471.94C1125.56 471.94 1125.56 472.01 1125.56 472.01L1153.62 546.21C1153.62 546.28 1153.77 546.28 1153.77 546.21L1180.45 473.46 1180.38 473.39Z" fill="#ffffff" opacity="1" stroke-width="4" stroke="none"></path><path d="M1307.14 991.37C1303.82 989.21 1300.2 986.96 1297.02 984.36H1296.95C1290.58 990.72 1286.24 995.93 1286.24 1009.45 1286.24 1009.53 1286.24 1009.53 1286.32 1009.53 1289.86 1009.53 1323.49 1008.37 1325.58 1008.3 1325.66 1008.3 1325.66 1008.22 1325.66 1008.22 1325.15 1007.14 1321.24 998.39 1307.14 991.37Z" fill="#ffffff" opacity="1" stroke-width="4" stroke="none"></path><path d="M1210.46 979.3C1208.29 979.3 1206.19 979.3 1204.02 979.59 1203.95 979.59 1203.95 979.66 1203.95 979.66 1208.15 995.86 1213.64 1007.43 1214 1008.15 1214 1008.15 1214 1008.15 1214.08 1008.22 1215.38 1008.3 1247.77 1009.38 1250.52 1009.45 1250.59 1009.45 1250.59 1009.45 1250.59 1009.38 1250.45 1000.92 1228.61 979.3 1210.46 979.3Z" fill="#ffffff" opacity="1" stroke-width="4" stroke="none"></path><path d="M1238.3 991.66L1283.64 968.23" stroke="#7c7c7c" stroke-width="4" stroke-linecap="round" stroke-linejoin="round" opacity="1" fill="none"></path><path d="M1278.36 950.59C1274.02 925.93 1273.66 911.68 1273.16 885.87L1273.08 883.26C1272.43 851.3 1271.42 815.07 1268.74 789.26 1263.18 735.82 1242.21 685.27 1225.72 652.22 1208.07 616.86 1191.44 593.5 1190.72 592.63 1190.72 592.63 1190.72 592.63 1190.65 592.63H1124.19C1124.19 592.63 1124.12 592.63 1124.12 592.71 1116.74 633.42 1124.55 663.07 1138.58 695.25 1147.26 715.13 1156.3 731.98 1164.32 746.95 1165.48 749.05 1166.56 751.15 1167.72 753.24 1180.96 778.05 1191.08 798.44 1192.09 821.8 1192.67 834.09 1189.63 848.34 1186.38 863.45 1180.96 889.05 1174.74 918.12 1181.97 950.52L1278.36 950.59Z" fill="#61ccff" opacity="1" stroke-width="4" stroke="none"></path><path d="M1157.45 656.99C1151.88 641.08 1126.07 596.03 1124.26 592.85 1124.26 592.78 1124.12 592.78 1124.12 592.85 1116.81 633.64 1153.62 726.56 1153.69 726.85 1153.77 726.99 1165.77 749.63 1167.43 752.74 1167.5 752.81 1167.58 752.81 1167.58 752.74 1167.36 747.31 1162.88 672.76 1157.45 656.99Z" fill="#172830" opacity="0.2" stroke-width="4" stroke="none"></path><path d="M1146.53 1008.22C1146.61 1008.22 1146.61 1008.15 1146.61 1008.08 1142.41 1001.28 1135.76 997.23 1129.18 993.33 1124.98 990.8 1120.57 988.19 1116.88 984.87H1116.81C1111.03 991.23 1107.12 999.55 1106.54 1008.08 1106.54 1008.15 1106.54 1008.15 1106.62 1008.15L1127.3 1010.39 1146.53 1008.22Z" fill="#ffffff" opacity="1" stroke-width="4" stroke="none"></path><path d="M1075.59 1008.15C1070.03 991.59 1054.55 979.95 1036.98 979.3 1036.91 979.3 1036.91 979.37 1036.91 979.37 1038.13 989.42 1039.8 999.18 1041.82 1008.22L1052.38 1010.47 1075.52 1008.22 1075.59 1008.15Z" fill="#ffffff" opacity="1" stroke-width="4" stroke="none"></path><path d="M1064.38 990.8L1107.48 968.81" stroke="#7c7c7c" stroke-width="4" stroke-linecap="round" stroke-linejoin="round" opacity="1" fill="none"></path><path d="M1107.27 950.44C1109.36 932.51 1116.45 906.69 1123.97 879.22 1130.91 853.91 1138.07 827.8 1142.92 803.07 1158.32 723.74 1162.08 615.34 1159.48 590.61 1159.48 590.54 1159.48 590.54 1159.41 590.54H1092.23 1092.15C1080.66 608.54 1068.65 636.38 1066.12 706.89 1065.98 710.14 1065.9 713.4 1065.76 716.51 1065.76 716.65 1065.76 716.87 1065.76 717.01 1063.88 772.77 1063.01 798.37 1046.6 830.48L1046.31 831.05C1036.54 850.22 1010.51 901.05 1016.95 950.52H1034.37L1107.27 950.44Z" fill="#61ccff" opacity="1" stroke-width="4" stroke="none"></path><path d="M1129.18 590.46H1092.44 1092.37C1080.87 608.47 1068.72 636.31 1066.19 706.82L1065.83 716.51C1065.83 716.51 1065.83 716.51 1065.83 716.58 1068.72 732.34 1111.97 742.54 1113.99 742.98 1114.06 742.98 1114.06 742.98 1114.06 742.9L1129.18 590.46Z" fill="#172830" opacity="0.2" stroke-width="4" stroke="none"></path><path d="M1156.73 693.37C1155.86 704.29 1154.92 715.57 1153.77 726.92" stroke="#172830" stroke-width="4" stroke-linecap="round" stroke-linejoin="round" opacity="1" fill="none"></path><path d="M1190.72 592.56L1194.04 573.18C1194.04 573.11 1194.04 573.11 1193.97 573.11H1089.84C1089.77 573.11 1089.77 573.18 1089.77 573.18L1092.23 592.56C1092.23 592.56 1092.23 592.63 1092.3 592.63L1190.72 592.56C1190.72 592.63 1190.72 592.63 1190.72 592.56Z" fill="#172830" opacity="1" stroke-width="4" stroke="none"></path><path d="M1123.25 721.35C1124.91 721.35 1126 721.28 1126.21 721.28 1126.21 721.28 1126.29 721.28 1126.29 721.21 1126.57 718.75 1134.24 644.84 1135.69 592.63 1137.13 540.42 1139.37 460.37 1139.45 457.55 1139.45 457.48 1139.45 457.48 1139.37 457.48L1119.78 458.13C1119.27 458.06 1118.4 458.06 1117.25 458.06 1113.2 458.06 1105.97 458.56 1097.14 461.74 1088.18 465 1077.62 470.93 1066.99 481.85 1062.65 486.26 1058.89 490.38 1055.49 494.14 1055.49 494.14 1055.42 494.21 1055.35 494.29L1059.39 519.89 1075.01 562.98C1075.01 562.98 1075.01 562.98 1075.01 563.06L1038.86 692.36V692.43C1074.87 719.26 1112.47 721.35 1123.25 721.35Z" fill="#ffc930" opacity="1" stroke-width="4" stroke="none"></path><path d="M1179.29 452.49C1185.51 452.49 1194.41 447.43 1197.95 445.04 1198.17 444.9 1198.38 444.75 1198.6 444.61 1213.57 434.27 1207.35 416.84 1204.24 405.7 1203.66 403.53 1201.78 396.23 1201.28 393.34 1200.41 388.35 1199.47 382.34 1197.15 376.2 1196.29 373.88 1191.3 370.05 1191.22 369.98 1191.08 369.91 1171.55 359.13 1165.12 359.13 1158.61 359.13 1151.52 356.82 1139.3 362.6 1129.18 367.37 1119.71 377.57 1119.71 398.69V440.48C1119.71 440.56 1119.71 440.56 1119.78 440.56L1161.58 445.18C1161.72 445.04 1168.59 452.49 1179.29 452.49Z" fill="#ae805a" opacity="1" stroke-width="4" stroke="none"></path><path d="M1157.89 388.78C1183.78 386.9 1194.12 379.74 1197.15 376.2V376.12C1195.56 372 1194.55 370.05 1194.04 369.11 1190.21 362.02 1183.63 357.68 1177.41 355.23L1164.18 353.71C1164.18 353.71 1150.58 353.13 1138.36 358.91 1133.01 361.44 1126.21 365.93 1123.54 373.3V373.38C1124.04 374.17 1134.89 390.37 1157.89 388.78Z" fill="#ffffff" opacity="1" stroke-width="4" stroke="none"></path><path d="M1105.75 427.61C1111.17 418.79 1113.49 411.12 1114.14 399.12 1115.15 378.37 1118.19 366 1134.75 358.55 1146.97 352.77 1158.1 352.48 1164.4 352.69 1169.02 352.84 1173.58 353.92 1177.41 355.3 1177.48 355.3 1177.48 355.37 1177.41 355.44 1176.18 356.53 1162.88 368.97 1160.13 384.01 1158.75 391.31 1159.98 398.83 1161.29 406.79 1162.88 415.97 1164.61 432.75 1162.37 444.46 1162.37 444.46 1162.37 444.53 1162.44 444.53 1167.22 446.7 1171.19 447.64 1176.47 448.22 1178.57 448.44 1181.46 448.66 1183.41 448.58 1192.24 448.15 1197.44 445.18 1198.53 444.61 1198.6 444.61 1198.6 444.61 1198.6 444.61 1198.89 445.33 1201.56 451.48 1200.34 459.36 1199.4 464.78 1196.58 471.15 1189.78 477.08 1188.48 478.09 1187.1 479.03 1185.66 479.82 1180.09 482.93 1173.51 484.6 1166.28 484.6 1147.69 484.6 1127.52 474.04 1115.94 458.2H1115.87C1111.1 457.7 1098.01 461.38 1097.07 461.67 1093.17 448.22 1099.24 438.31 1105.75 427.61Z" fill="#ffc930" opacity="1" stroke-width="4" stroke="none"></path><path d="M1183.41 448.58C1192.31 448.15 1197.44 445.18 1198.53 444.61 1198.6 444.61 1198.6 444.61 1198.6 444.61 1198.89 445.33 1201.56 451.33 1200.34 459.14L1200.26 459.21C1199.61 459.21 1193.03 459.29 1186.74 456.25 1179.73 452.92 1176.98 448.87 1176.54 448.15 1177.99 448.29 1181.53 448.66 1183.41 448.58Z" fill="#000000" opacity="0.2" stroke-width="4" stroke="none"></path><path d="M1102.93 460.3C1104.45 456.25 1106.4 452.92 1110.16 447.57 1110.16 447.5 1110.3 447.5 1110.3 447.57 1111.61 451.4 1113.34 455.02 1115.8 458.2 1127.37 474.04 1147.55 484.6 1166.13 484.6 1173.22 484.6 1179.65 483.01 1185.15 480.04 1185.22 479.97 1185.29 480.11 1185.22 480.11 1179.8 486.55 1170.18 493.85 1154.42 493.85 1153.11 493.85 1151.81 493.78 1150.51 493.78 1125.42 492.04 1114.06 470.13 1109.87 458.92L1109.8 458.85C1107.56 459.21 1105.24 459.79 1102.93 460.3 1102.93 460.3 1103 460.37 1102.93 460.3Z" fill="#000000" opacity="0.2" stroke-width="4" stroke="none"></path><path d="M1142.41 685.92C1142.56 685.92 1142.77 685.92 1142.92 685.85 1143.42 685.7 1143.86 685.41 1144.07 684.83 1145.74 681.15 1139.88 668.93 1138.72 666.68 1138.72 666.61 1138.8 666.54 1138.87 666.61 1140.68 668.2 1150.87 676.88 1157.38 680.78 1159.84 682.23 1162.01 683.03 1163.89 683.03 1168.37 683.03 1169.53 678.54 1169.75 677.96 1169.75 677.89 1169.82 677.89 1169.82 677.89 1170.9 678.25 1171.92 678.4 1172.93 678.4 1175.39 678.4 1177.48 677.46 1178.71 675.72 1179.8 674.13 1179.94 672.11 1179.15 670.01V669.94C1180.67 669.07 1181.39 667.7 1181.46 665.82 1181.97 655.91 1162.8 634.65 1154.49 628.79 1144.65 621.7 1121.22 615.99 1120.5 615.77 1117.75 612.88 1113.92 608.83 1109.51 603.7H1109.44L1090.85 619.25 1077.04 641.08V641.16C1086.22 647.88 1093.96 652.87 1097.5 654.82 1103.87 658.37 1112.84 660.25 1121.37 661.77 1121.37 661.77 1121.44 661.77 1121.44 661.84 1121.95 662.92 1136.48 685.92 1142.41 685.92Z" fill="#ae805a" opacity="1" stroke-width="4" stroke="none"></path><path d="M1109.44 603.55C1094.61 586.85 1075.3 563.49 1074.94 562.98L1066.48 533.19 1055.49 494.36C1055.49 494.29 1055.42 494.29 1055.35 494.36 1025.33 527.62 1012.75 554.16 1017.09 575.35 1022.73 599.07 1060.77 629.3 1076.97 641.16L1109.44 603.77C1109.51 603.63 1109.51 603.63 1109.44 603.55Z" fill="#61ccff" opacity="1" stroke-width="4" stroke="none"></path><path d="M1198.46 548.74L1201.49 528.27" stroke="#172830" stroke-width="4" stroke-linecap="round" stroke-linejoin="round" opacity="1" fill="none"></path><path d="M1262.81 532.47L1270.84 546.42" stroke="#172830" stroke-width="4" stroke-linecap="round" stroke-linejoin="round" opacity="1" fill="none"></path><path d="M1074.94 562.98L1066.26 553.58" stroke="#172830" stroke-width="4" stroke-linecap="round" stroke-linejoin="round" opacity="1" fill="none"></path><path d="M1169.67 677.96L1142.19 649.76" stroke="#151413" stroke-width="4" stroke-linecap="round" stroke-linejoin="round" opacity="1" fill="none"></path><path d="M1179 670.01L1150.15 640.29" stroke="#151413" stroke-width="4" stroke-linecap="round" stroke-linejoin="round" opacity="1" fill="none"></path><path d="M1138.51 666.32L1132.14 658.58" stroke="#151413" stroke-width="4" stroke-linecap="round" stroke-linejoin="round" opacity="1" fill="none"></path><path d="M1396.52 468.18C1391.61 467.1 1386.4 466.08 1379.17 468.25 1371.94 470.42 1364.78 473.39 1359.72 474.11" stroke="#151413" stroke-width="4" stroke-linecap="round" stroke-linejoin="round" opacity="1" fill="none"></path><path d="M1394.21 476.79C1389.08 473.53 1383.72 475.2 1378.59 476.93 1375.34 478.09 1363.62 483.51 1354.94 483.51 1346.27 483.51 1327.32 474.04 1314.3 480.55" stroke="#151413" stroke-width="4" stroke-linecap="round" stroke-linejoin="round" opacity="1" fill="none"></path><path d="M1344.17 468.47C1344.17 468.47 1338.82 468.04 1334.55 468.61" stroke="#151413" stroke-width="4" stroke-linecap="round" stroke-linejoin="round" opacity="1" fill="none"></path><path d="M1187.68 406.21C1187.68 406.21 1188.98 408.38 1188.98 410.04 1188.91 410.84 1188.4 411.56 1187.68 411.99" stroke="#151413" stroke-width="4" stroke-linecap="round" stroke-linejoin="round" opacity="1" fill="none"></path><path d="M1174.59 400.78C1172.64 400.78 1171.27 402.95 1172.78 405.05 1174.88 406.5 1177.05 405.2 1177.05 403.24 1177.12 401.87 1176.04 400.78 1174.59 400.78Z" fill="#231f20" opacity="1" stroke-width="4" stroke="none"></path><path d="M1189.13 421.32C1185.51 422.41 1183.05 421.03 1181.9 419.15" stroke="#151413" stroke-width="4" stroke-linecap="round" stroke-linejoin="round" opacity="1" fill="none"></path><path d="M1115.66 458.06C1108.5 458.78 1104.66 459.72 1097.14 461.74" stroke="#000000" stroke-width="4" stroke-linecap="round" stroke-linejoin="round" opacity="1" fill="none"></path><path d="M1195.85 398.04C1193.9 398.04 1192.53 400.21 1194.04 402.3 1196.14 403.75 1198.31 402.45 1198.31 400.49 1198.38 399.12 1197.3 398.04 1195.85 398.04Z" fill="#231f20" opacity="1" stroke-width="4" stroke="none"></path><path d="M1138.8 477.51C1129.83 472.95 1122.16 466.37 1116.16 458.35 1114.57 456.1 1111.32 450.1 1110.45 447.5" stroke="#000000" stroke-width="4" stroke-linecap="round" stroke-linejoin="round" opacity="1" fill="none"></path><path d="M1162.37 444.32C1162.37 444.32 1160.85 450.1 1156.66 455.67" stroke="#000000" stroke-width="4" stroke-linecap="round" stroke-linejoin="round" opacity="1" fill="none"></path><path d="M1329.34 1021.89C1329.27 1020.73 1327.75 1012.42 1325.58 1008.3L1325.51 1008.22H1214.15C1214.08 1008.22 1214.08 1008.3 1214.08 1008.3 1216.1 1013 1218.34 1017.55 1220.87 1021.96L1329.34 1021.89C1329.34 1021.96 1329.34 1021.96 1329.34 1021.89Z" fill="#7c7c7c" opacity="1" stroke-width="4" stroke="none"></path><path d="M1150.87 1021.89C1150.58 1017.12 1149.14 1012.35 1146.68 1008.3H1146.61 1106.54 1041.89C1041.82 1008.3 1041.82 1008.37 1041.82 1008.37 1043.7 1017.12 1045.44 1022.04 1045.44 1022.04H1150.8C1150.87 1021.96 1150.87 1021.96 1150.87 1021.89Z" fill="#7c7c7c" opacity="1" stroke-width="4" stroke="none"></path></g><g><path d="M172.97 720.54L157.77 697.32 181.36 709.77 189.48 668.04 198.2 712.57 235.55 694.29 208.32 726.32 242.26 759.52 200.71 744.42 197.54 790.81 183 748.7 146.25 769.97 171.95 734.67 134.78 722.83 172.97 720.54Z" fill="#ffa0dc" opacity="1" stroke-width="4" stroke="none"></path></g><g><path d="M441.29 1022.02C443.08 1014.21 446.74 996.78 448.96 982.43 448.96 982.36 448.96 982.36 448.89 982.36 443.73 982.57 425.79 980.64 412.67 991.4V991.47L415.32 1021.88C415.32 1021.95 415.32 1021.95 415.39 1021.95L441.29 1022.02Z" fill="#ffc930" opacity="1" stroke-width="4" stroke="none"></path><path d="M399.69 1009.26C414.25 988.03 435.55 982.79 448.89 982.36 448.89 982.36 448.96 982.36 448.96 982.29 450.04 975.55 450.9 968.8 451.69 962.35 452.48 955.6 453.12 949.01 453.62 942.62 453.62 942.62 453.62 942.55 453.55 942.55L411.59 924.33H411.52L379.31 942.55C379.31 942.55 379.31 942.55 379.24 942.62 379.24 943.55 379.17 944.42 379.17 945.28 378.67 962.49 377.23 972.53 367.62 981.57 357.51 990.68 343.59 998.86 337.5 1008.04 337.28 1008.47 337 1008.83 336.78 1009.26V1009.33C337 1009.76 337.14 1010.12 337.21 1010.19H337.28C339.08 1010.19 397.1 1010.19 398.25 1010.19 398.25 1010.19 398.25 1010.19 398.32 1010.19L399.69 1009.26Z" fill="#ffffff" opacity="1" stroke-width="4" stroke="none"></path><path d="M451.69 962.35C452.48 955.46 453.12 948.79 453.62 942.48H379.31C379.31 943.41 379.24 944.27 379.24 945.28L451.69 962.35Z" fill="#474747" opacity="0.2" stroke-width="4" stroke="none"></path><path d="M573.7 1022.02C575.2 1015.5 579.08 992.33 580.08 982.57 580.08 982.5 580.08 982.5 580.01 982.5 573.77 982.93 558.06 983.44 546.23 993.12V993.19L548.74 1021.88C548.74 1021.95 548.74 1021.95 548.81 1021.95L573.7 1022.02Z" fill="#ffc930" opacity="1" stroke-width="4" stroke="none"></path><path d="M533.09 1009.26C547.51 988.96 565.58 983.58 580 982.5 580 982.5 580.07 982.5 580.07 982.43 580.79 976.48 581.44 970.52 582.01 964.71 582.73 957.11 583.23 949.72 583.59 942.62 583.59 942.55 583.59 942.55 583.52 942.55H508.42C508.35 942.55 508.35 942.62 508.35 942.62 508.49 944.34 508.63 945.92 508.78 947.5 509.92 964.07 508.99 973.68 498.45 983.44 492.78 988.24 487.98 991.9 484.1 994.84 477.43 999.86 473.06 1003.23 469.97 1008.04 469.76 1008.47 469.47 1008.83 469.25 1009.26 469.25 1009.83 469.25 1009.97 469.25 1009.9 470.47 1009.9 530.01 1010.69 531.44 1010.69 531.44 1010.69 531.44 1010.69 531.51 1010.69L533.09 1009.26Z" fill="#ffffff" opacity="1" stroke-width="4" stroke="none"></path><path d="M286 523.66L336.92 493.61C337 493.61 337.07 493.61 337.07 493.68 340.22 499.85 343.95 507.23 347.4 514.12 352.27 523.95 356.72 532.91 358.44 536.43 358.44 536.5 358.59 536.5 358.59 536.43 360.09 534.63 377.09 514.19 390.07 499.27 401.12 487.15 413.6 478.47 427.09 473.45 438.71 469.29 445.52 469.08 449.89 469.08 449.97 469.08 450.04 469 450.04 468.93L450.11 459.54C450.11 459.46 450.18 459.39 450.25 459.39H506.7C506.78 459.39 506.85 459.46 506.85 459.54 506.63 462.19 506.42 467.21 506.42 467.86 506.42 467.93 506.42 467.93 506.49 467.93L506.7 468.07C507.28 468.07 507.85 468.07 508.5 468.07 540.27 469 556.55 486.79 576.78 532.41 594.28 575.66 599.81 597.4 580.01 627.81 575.99 633.91 567.53 641.58 559.06 648.39 571.83 699.11 557.41 747.02 561.93 800.03 564.01 816.45 569.11 832.59 573.41 848.08 576.71 859.92 569.82 883.95 569.82 883.95L567.96 934.09C567.96 934.09 389.86 932.22 389.43 924.91 388.64 912.07 381.61 883.81 381.61 883.81 381.61 883.81 374.29 865.44 373.94 855.76 370.92 762.66 399.4 666.25 436.05 598.47 434.98 594.24 426.15 558.88 425.29 555.44 425.29 555.36 425.15 555.29 425.08 555.44 423.93 557.16 415.04 567.99 403.27 579.11 388.71 592.88 369.56 607.22 354.86 605.64 334.13 604.64 318.06 591.66 305.08 574.08 299.34 556.22 286.71 525.6 285.93 523.73 285.93 523.73 286 523.66 286 523.66Z" fill="#ffc930" opacity="1" stroke-width="4" stroke="none"></path><path d="M582.01 964.71C582.73 957.11 583.23 949.94 583.59 942.84L507.99 938.82C508.13 940.47 508.7 945.85 508.78 947.5L582.01 964.71Z" fill="#474747" opacity="0.2" stroke-width="4" stroke="none"></path><path d="M358.51 536.5C357.65 534.78 356.15 531.62 354.14 527.68 354.07 527.53 353.85 527.53 353.85 527.68L349.4 547.33C349.33 547.47 349.55 547.62 349.69 547.47L358.51 536.64C358.59 536.57 358.59 536.57 358.51 536.5Z" fill="#fdc831" opacity="0.2" stroke-width="4" stroke="none"></path><path d="M335.27 505.58C335.27 505.58 338.49 496.33 337.06 493.46 334.76 488.73 332.4 483.85 329.89 479.12 329.96 469.29 327.59 459.25 322.86 449.13 320.49 444.19 319.34 437.8 318.48 432.71 317.48 427.11 316.69 422.74 314.75 422.67 309.95 422.45 308.08 432.28 306.29 443.61 306.15 444.76 304.71 445.19 303.92 444.4 293.74 434.36 277.74 405.02 265.83 412.77 265.62 412.91 265.33 412.91 265.12 412.84 260.24 411.05 256.15 413.49 256.65 419.01 256.65 419.3 256.51 419.65 256.22 419.8 248.63 424.03 264.83 447.56 265.91 450.28 266.05 450.57 265.69 450.86 265.4 450.71 258.16 445.84 251.92 435.58 248.12 439.59 246.12 442.25 252.78 453.44 265.83 469.86 266.12 470.22 266.34 470.65 266.55 471.08 272.5 487.58 278.17 498.34 285.49 501.07 285.92 501.21 286.28 501.57 286.42 502.07 288.14 508.24 291.66 519.36 292.3 522.94 292.16 522.94 335.27 505.58 335.27 505.58Z" fill="#804a28" opacity="1" stroke-width="4" stroke="none"></path><path d="M506.84 459.46C508.06 439.16 510.64 402.58 510.93 390.53 511.22 381.14 507.77 372.1 501.17 365.07 492.78 355.6 476 356.32 463.3 356.46 445.01 356.75 427.22 376.12 426.15 379.42 422.7 389.96 423.06 402.44 421.48 412.7 419.62 423.96 418.04 432.06 423.13 440.46 428.15 449.42 440.13 453.8 450.25 450.78L450.17 459.46H506.84Z" fill="#804a28" opacity="1" stroke-width="4" stroke="none"></path><path d="M458 388.31C478.44 388.31 509.29 379.2 509.57 379.06 505.13 364.07 491.28 353.45 475.21 352.66 462.81 352.09 450.68 354.38 441.43 359.98 434.19 364.35 428.66 370.81 426.15 379.42 426.22 379.49 431.39 385.94 452.62 388.02 454.2 388.24 455.99 388.31 458 388.31 457.93 388.31 457.93 388.31 458 388.31Z" fill="#ffffff" opacity="1" stroke-width="4" stroke="none"></path><path d="M452.76 408.03C451.42 408.03 450.32 406.94 450.32 405.6 450.32 404.25 451.42 403.16 452.76 403.16 454.11 403.16 455.2 404.25 455.2 405.6 455.2 406.94 454.11 408.03 452.76 408.03Z" fill="#231f20" opacity="1" stroke-width="4" stroke="none"></path><path d="M432.18 404.95C430.83 404.95 429.74 403.86 429.74 402.51 429.74 401.16 430.83 400.07 432.18 400.07 433.52 400.07 434.62 401.16 434.62 402.51 434.62 403.86 433.52 404.95 432.18 404.95Z" fill="#231f20" opacity="1" stroke-width="4" stroke="none"></path><path d="M466.25 731.24C468.4 731.24 470.7 730.24 472.35 728.51 482.39 731.1 484.54 719.69 485.9 709.72 486.12 708.43 486.33 707.14 486.48 705.92 486.55 705.71 486.83 705.71 486.91 705.92 488.99 715.82 492.72 724 497.24 721.05 499.17 719.76 500.75 706.64 497.88 689.35 497.81 688.99 497.95 688.56 498.17 688.28 508.42 675.29 511.37 664.17 511.87 661.88 511.94 661.59 512.08 661.38 512.37 661.23 518.32 657.79 523.34 654.63 527.86 651.62L504.91 619.7C504.91 619.7 494.87 621.42 490.78 625.94 480.31 637.56 465.96 654.99 460.08 668.41 453.41 686.12 445.66 724.57 460.15 726.22 461.59 730.59 464.6 731.24 466.25 731.24Z" fill="#804a28" opacity="1" stroke-width="4" stroke="none"></path><path d="M519.69 594.81L515.24 549.41C515.24 549.05 515.67 548.98 515.81 549.27L531.45 582.4C531.23 582.55 526.21 587.86 519.69 594.81Z" fill="#ffc930" opacity="0.2" stroke-width="4" stroke="none"></path><path d="M510.86 527.25C511.51 527.25 512.15 527.25 512.8 527.25 524.85 526.89 541.2 523.59 550.53 510.25 556.12 502.28 556.55 494.32 556.55 494.25 540.13 470.65 517.53 468.14 508.57 468.14 507.92 468.14 507.35 468.14 506.78 468.14L506.42 467.86C506.42 467.78 506.63 462.19 506.85 459.39H450.18L450.11 469C449.68 469 449.25 469 448.75 469 446.67 469 444.59 469.15 442.58 469.43 442.94 474.96 449.39 489.45 460.51 502.14 470.48 513.62 487.27 527.25 510.86 527.25Z" fill="#ffc930" opacity="0.2" stroke-width="4" stroke="none"></path><path d="M511.72 517.99C526.93 518.28 545.8 513.26 554.98 503.5 562.51 496.04 565.74 486.36 564.44 475.6 563.08 464.91 557.13 457.74 551.25 453.22 545.15 448.49 539.12 446.55 538.19 446.27 538.12 446.27 538.12 446.19 538.12 446.12 543.5 432.06 538.26 423.53 531.09 411.76 526.93 404.95 522.27 397.2 518.61 386.73 510.72 364.21 496.95 352.37 474.86 352.37 460.37 352.37 449.89 354.96 441.65 359.98 441.57 359.98 441.57 360.12 441.65 360.12 443.73 360.69 465.68 367.29 469.76 390.32 471.92 402.58 475.21 421.09 469.76 432.64 462.66 447.7 451.11 451.07 442.36 451.07 437.63 451.07 434.04 449.85 433.97 449.85 433.9 449.92 424.65 459.32 431.75 472.09L439.71 470.08C440.07 470.01 440.43 470.15 440.57 470.51 448.53 490.45 475.57 519.14 511.72 517.99Z" fill="#61ccff" opacity="1" stroke-width="4" stroke="none"></path><path d="M551.03 453.08C547.16 450.14 542.78 447.77 538.12 446.27 537.98 446.19 537.9 446.27 537.83 446.41 537.33 447.92 534.18 457.02 525.14 459.1 524.99 459.18 524.99 459.39 525.14 459.39 529.23 459.32 541.35 458.6 550.96 453.29 551.1 453.29 551.1 453.08 551.03 453.08Z" fill="#292e30" opacity="0.2" stroke-width="4" stroke="none"></path><path d="M583.59 942.84C584.52 923.18 584.23 904.1 581.22 884.81 579.28 872.47 576.85 860.06 573.4 848.08 568.45 846 563.5 844.93 559.27 844.93 533.95 846.08 534.53 871.61 545.57 902.17 545.72 902.67 545.14 903.03 544.78 902.6 535.82 891.84 501.89 856.84 495.79 895.5 495.72 895.93 495.15 896 494.93 895.64 471.62 854.68 428.8 843.21 433.61 909.27 433.68 909.77 432.96 909.99 432.74 909.48 429.01 900.52 417.32 878.35 402.91 891.91 402.69 892.13 402.26 892.05 402.19 891.7 400.75 886.96 391.79 860.35 373.93 855.69 374.21 864.73 375.08 874.19 375.79 884.59 376.65 898.08 377.8 911.49 378.59 924.33 379.02 931.65 379.24 937.6 379.24 942.77 379.59 943.05 583.23 942.69 583.59 942.84Z" fill="#61ccff" opacity="1" stroke-width="4" stroke="none"></path><path d="M487.26 855.9C488.98 855.9 490.56 855.47 491.99 854.68 497.3 851.6 498.59 843.85 494.79 837.33 492.14 832.81 487.54 829.87 483.1 829.87 481.38 829.87 479.8 830.3 478.36 831.09 473.06 834.17 471.76 841.92 475.57 848.44 478.15 852.96 482.74 855.9 487.26 855.9Z" fill="#61ccff" opacity="1" stroke-width="4" stroke="none"></path><path d="M534.31 679.31C556.12 658.87 571.04 642.08 580 627.81 580 627.81 580 627.81 580 627.74 578.28 620.78 571.54 615.97 563.58 615.97 560.42 615.97 557.26 616.76 554.47 618.27 546.29 622.57 539.4 634.05 536.53 639.29 536.03 640.22 534.6 640.07 534.31 639.07 531.94 631.75 523.84 612.89 503.9 611.53 497.8 617.98 493.35 623.29 490.77 625.94L534.31 679.31Z" fill="#61ccff" opacity="1" stroke-width="4" stroke="none"></path><path d="M305.22 574.08C322.72 561.1 317.92 535.64 316.12 528.47 315.91 527.6 316.62 526.74 317.56 526.89 318.99 527.1 320.43 527.17 321.79 527.17 333.7 527.17 343.67 520.58 347.54 514.12 343.59 506.16 339.94 498.99 337.14 493.46L278.97 521.51C278.18 521.87 277.82 522.87 278.11 523.66 286.43 543.67 304.22 572.51 305.15 574.01 305.15 574.08 305.15 574.08 305.22 574.08Z" fill="#61ccff" opacity="1" stroke-width="4" stroke="none"></path><path d="M391.64 1021.95C393.94 1017.58 396.59 1013.35 399.61 1009.33 399.61 1009.26 399.61 1009.19 399.53 1009.19H336.92 336.84C334.84 1012.41 333.69 1018.22 333.83 1021.88 333.83 1021.95 333.83 1021.95 333.9 1021.95 336.34 1022.02 389.92 1022.02 391.64 1021.95 391.64 1022.02 391.64 1022.02 391.64 1021.95Z" fill="#ffc930" opacity="1" stroke-width="4" stroke="none"></path><path d="M525.06 1021.95C527.43 1017.58 530.01 1013.27 533.02 1009.33 533.02 1009.26 533.02 1009.19 532.95 1009.19H469.33C469.33 1009.19 469.25 1009.19 469.25 1009.26 467.25 1012.92 466.24 1016.86 466.24 1021.88 466.24 1021.95 466.24 1021.95 466.31 1021.95H525.06C525.06 1022.02 525.06 1022.02 525.06 1021.95Z" fill="#ffc930" opacity="1" stroke-width="4" stroke="none"></path><path d="M425.29 555.22L420.56 535.71C420.49 535.28 419.91 535.28 419.77 535.64L404.13 577.03C403.92 577.53 404.56 577.89 404.92 577.53 409.58 572.94 423.14 559.17 425.29 555.22Z" fill="#fdc831" opacity="0.2" stroke-width="4" stroke="none"></path><path d="M301.63 479.83C298.33 465.99 302.42 459.89 304.5 453.65 305.29 451.29 306.22 443.9 306.22 443.9" stroke="#000000" stroke-width="4" stroke-linecap="round" stroke-linejoin="round" opacity="1" fill="none"></path><path d="M288.36 441.89C288.36 441.89 277.25 425.54 265.48 413.06" stroke="#000000" stroke-width="4" stroke-linecap="round" stroke-linejoin="round" opacity="1" fill="none"></path><path d="M278.75 448.49C278.75 448.49 261.82 424.96 256.65 419.8" stroke="#000000" stroke-width="4" stroke-linecap="round" stroke-linejoin="round" opacity="1" fill="none"></path><path d="M269.92 455.81L266.19 451.29" stroke="#000000" stroke-width="4" stroke-linecap="round" stroke-linejoin="round" opacity="1" fill="none"></path><path d="M358.58 536.57L368.19 525.09" stroke="#fefbf1" stroke-width="4" stroke-linecap="round" stroke-linejoin="round" opacity="1" fill="none"></path><path d="M436.12 598.47L513.65 598.83" stroke="#fefbf1" stroke-width="4" stroke-linecap="round" stroke-linejoin="round" opacity="1" fill="none"></path><path d="M440.71 415.06L440.5 414.85C439.57 414.06 439.28 412.77 439.64 411.62L440.21 409.54" stroke="#000000" stroke-width="4" stroke-linecap="round" stroke-linejoin="round" opacity="1" fill="none"></path><path d="M446.37 422.17C443.86 425.25 439.56 425.11 438.2 424.17" stroke="#000000" stroke-width="4" stroke-linecap="round" stroke-linejoin="round" opacity="1" fill="none"></path><path d="M515.02 547.69L531.45 582.48" stroke="#fefbf1" stroke-width="4" stroke-linecap="round" stroke-linejoin="round" opacity="1" fill="none"></path><path d="M503.9 611.6L531.37 582.4" stroke="#fefbf1" stroke-width="4" stroke-linecap="round" stroke-linejoin="round" opacity="1" fill="none"></path><path d="M508.63 964.64L524.05 969.74" stroke="#474747" stroke-width="4" stroke-linecap="round" stroke-linejoin="round" opacity="1" fill="none"></path><path d="M505.63 974.9L519.26 984.15" stroke="#474747" stroke-width="4" stroke-linecap="round" stroke-linejoin="round" opacity="1" fill="none"></path><path d="M377.37 964.64L392.79 969.74" stroke="#474747" stroke-width="4" stroke-linecap="round" stroke-linejoin="round" opacity="1" fill="none"></path><path d="M374.15 974.76L387.99 984.15" stroke="#474747" stroke-width="4" stroke-linecap="round" stroke-linejoin="round" opacity="1" fill="none"></path><path d="M425.21 555.29L422.34 543.6" stroke="#fefbf1" stroke-width="4" stroke-linecap="round" stroke-linejoin="round" opacity="1" fill="none"></path><path d="M460.15 726.29C459.43 714.81 461.16 697.24 464.03 685.76" stroke="#000000" stroke-width="4" stroke-linecap="round" stroke-linejoin="round" opacity="1" fill="none"></path><path d="M472.35 728.51C471.63 712.73 474.78 690.07 474.78 690.07" stroke="#000000" stroke-width="4" stroke-linecap="round" stroke-linejoin="round" opacity="1" fill="none"></path><path d="M486.98 693.65L486.69 705.85" stroke="#000000" stroke-width="4" stroke-linecap="round" stroke-linejoin="round" opacity="1" fill="none"></path><path d="M538.04 446.05C535.46 453.94 530.8 457.17 525.2 459.39" stroke="#292e30" stroke-width="4" stroke-linecap="round" stroke-linejoin="round" opacity="1" fill="none"></path><path d="M433.9 449.78C443.94 452.65 453.27 449.42 456.85 447.05" stroke="#292e30" stroke-width="4" stroke-linecap="round" stroke-linejoin="round" opacity="1" fill="none"></path></g><g><path d="M1297.75 162.42C1304.43 164.29 1310.03 168.8 1313.29 175.01L1319.97 187.75 1326.65 175.01C1329.92 168.8 1335.51 164.29 1342.19 162.42 1364.73 156.05 1383.06 181.07 1370.32 200.65L1319.97 277.57 1269.62 200.65C1256.88 181.07 1275.22 156.05 1297.75 162.42Z" fill="#ffa0dc" opacity="1" stroke-width="4" stroke="none"></path></g><g><path d="M295.71 206.91C301.79 208.6 306.89 212.71 309.86 218.37L315.94 229.97 322.03 218.37C325 212.71 330.1 208.6 336.18 206.91 356.7 201.1 373.4 223.89 361.8 241.72L315.94 311.77 270.09 241.72C258.49 223.89 275.19 201.1 295.71 206.91Z" fill="#ffa0dc" opacity="1" stroke-width="4" stroke="none"></path></g><g><path d="M1379.21 893.9L1365.89 858.78 1392.45 882.09 1397.24 858.04 1405.27 880.86 1427.32 860.46 1414.86 889.31 1454 889.72 1414.82 903.2 1444.94 930.57 1406.42 920 1400.07 960.2 1389.78 920.53 1358.93 946.02 1379.34 907.62 1341.55 897.91 1379.21 893.9Z" fill="#ffa0dc" opacity="1" stroke-width="4" stroke="none"></path></g></svg>