<svg xmlns="http://www.w3.org/2000/svg" height="1200" width="1600" version="1.1" xmlns:xlink="http://www.w3.org/1999/xlink" xmlns:svgjs="http://svgjs.com/svgjs"><rect fill="#ffffff" width="1600" height="1200"></rect><g><path d="M354.44 903.35H1253.3L1273.59 818.45C1240.27 818.45 1205.17 761.72 1171.86 761.72 901.46 761.72 657.56 760.64 387.16 760.64 377.83 760.64 343.48 818.45 334.15 818.45 340.96 846.75 347.62 875.05 354.44 903.35Z" fill="#ffffff" opacity="1" stroke-width="4" stroke="none"></path><path d="M803.87 462.7C597.88 462.7 470.24 510.8 337.85 589.64 342.29 608.1 288.39 627.64 292.83 646.1 306.6 703.51 320.38 760.91 334.15 818.45 647.34 818.45 960.39 818.45 1273.59 818.45 1287.21 761.59 1300.84 704.72 1314.46 647.85 1319.05 628.72 1294.17 622.38 1298.76 603.25 1197.47 554.06 1035.17 462.7 803.87 462.7Z" fill="#efdcd7" opacity="1" stroke-width="4" stroke="none"></path><path d="M703.91 845.4H484.75L469.94 903.35H718.72L703.91 845.4Z" fill="#efdcd7" opacity="1" stroke-width="4" stroke="none"></path><path d="M1122.99 845.4H903.82L889.02 903.35H1137.8L1122.99 845.4Z" fill="#efdcd7" opacity="1" stroke-width="4" stroke="none"></path><path d="M592.11 865.62H596.55C619.5 865.62 638.02 882.46 638.02 903.35H550.65C550.65 882.46 569.16 865.62 592.11 865.62Z" fill="#ffffff" opacity="1" stroke-width="4" stroke="none"></path><path d="M1011.19 865.62H1015.63C1038.58 865.62 1057.09 882.46 1057.09 903.35H969.72C969.72 882.46 988.23 865.62 1011.19 865.62Z" fill="#ffffff" opacity="1" stroke-width="4" stroke="none"></path><path d="M279.51 590.58L292.98 647.04C343.03 615.24 402.56 588.15 468.61 567.13 570.19 534.93 685.99 517.81 803.42 517.81 926.19 517.81 1046.43 536.27 1151.42 571.44 1212.73 591.93 1267.81 617.67 1314.61 647.45L1328.23 590.58C1195.99 511.75 1009.85 462.7 803.87 462.7 597.88 462.7 411.89 511.75 279.51 590.58Z" fill="#ffffff" opacity="1" stroke-width="4" stroke="none"></path><path d="M305.57 699.6L327.19 630.74C327.78 628.85 330.45 628.45 331.63 630.06L473.49 815.08C474.68 816.57 477.2 816.43 477.94 814.68L619.06 535.87C619.95 534.12 622.61 533.98 623.65 535.73L801.2 814.14C802.54 816.16 805.65 816.16 806.83 814.14L983.35 536.54C984.53 534.66 987.64 534.79 988.68 536.81L1129.06 812.93C1130.39 815.49 1134.24 815.76 1136.02 813.47L1274.92 631.14C1276.4 629.26 1279.66 629.66 1280.4 631.95L1302.17 699.73" stroke="#353535" stroke-width="4" stroke-linecap="round" stroke-linejoin="round" opacity="1" fill="none"></path><path d="M1278.77 627.23C1278.62 626.83 1278.03 626.69 1277.74 627.1L1134.84 814.68H1134.54C1132.76 814.68 1130.98 814.41 1129.36 813.6L988.97 536.54C987.94 534.39 984.53 534.25 983.2 536.27L947.21 592.74 806.09 815.76C804.76 816.97 803.57 816.97 802.39 816.03L659.64 592.87 624.24 536.68C622.91 534.66 619.65 534.79 618.47 536.95L478.09 814.68C477.64 815.49 476.75 816.03 475.72 816.03H475.27C474.23 816.03 473.35 815.62 472.75 814.81L329.85 627.37C329.41 626.83 328.37 626.96 328.22 627.64L305.72 699.33C305.72 699.46 305.72 699.6 305.72 699.73L320.52 761.72C320.67 762.39 321.71 762.66 322.15 761.99L337.41 742.18C337.7 741.78 338.29 741.64 338.74 742.05L430.11 818.18C430.25 818.32 430.55 818.45 430.7 818.45H470.98 473.64 524.73L630.46 692.19 769.96 818.59H801.8 827.12C828.01 818.59 828.75 818.32 829.34 817.78L976.39 690.97C977.72 689.76 980.09 689.9 981.27 691.38L1084.63 817.37C1085.23 818.18 1086.26 818.59 1087.15 818.59H1126.84 1176.89L1264.56 745.55 1286.62 763.47 1302.02 699.46 1278.77 627.23Z" fill="#353535" opacity="0.3" stroke-width="4" stroke="none"></path></g><g><path d="M1536.2 903.61C1491.72 800.56 1403.37 841.46 1403.37 841.46 1403.37 841.46 1346.19 744.97 1233.21 762.84 1114.28 781.9 1104.95 903.61 1104.95 903.61H1536.2Z" fill="#ffc930" opacity="1" stroke-width="4" stroke="none"></path><path d="M1403.37 841.46C1391.06 848.02 1374.38 862.71 1366.84 874.03" stroke="#000000" stroke-width="4" stroke-linecap="round" stroke-linejoin="round" opacity="1" fill="none"></path><path d="M1156.57 903.61C1178.41 844.05 1230.04 838.09 1253.86 851.99 1284.64 869.86 1295.56 903.61 1295.56 903.61H1156.57Z" fill="#7c631c" opacity="1" stroke-width="4" stroke="none"></path></g><g><path d="M80.05 903.36C93.01 850.12 146.34 856.38 146.34 856.38 146.34 856.38 157.8 810.74 222.59 818.8 222.59 818.8 241.03 766.45 294.36 762.87 354.02 758.89 382.58 818.8 388.56 846.09 388.56 846.09 418.96 834.46 436.9 860.41 436.9 860.41 457.83 849.22 481.26 857.28 501.44 864.21 510.66 879.65 512.56 903.36H80.05Z" fill="#ffc930" opacity="1" stroke-width="4" stroke="none"></path><path d="M481.26 857.28C457.83 849.22 436.9 860.41 436.9 860.41 418.96 834.46 388.56 846.09 388.56 846.09 385.42 831.86 376.2 808.77 359.6 790.47 339.21 800.9 331.24 820.59 330.24 842.96 330.24 842.96 298.85 843.41 292.86 872.49 292.86 872.49 256.48 866.67 248.01 903.36H512.56C510.66 879.65 501.44 864.21 481.26 857.28Z" fill="#5f5f5f" opacity="0.3" stroke-width="4" stroke="none"></path><path d="M146.34 856.38C156.15 857.5 165.77 863.54 165.77 863.54" stroke="#5f5f5f" stroke-width="4" stroke-linecap="round" stroke-linejoin="round" opacity="1" fill="none"></path><path d="M222.59 818.8C221.1 823.27 220.1 827.3 219.3 831.33" stroke="#5f5f5f" stroke-width="4" stroke-linecap="round" stroke-linejoin="round" opacity="1" fill="none"></path><path d="M388.56 846.09C379.58 851.01 377.09 857.28 377.09 857.28" stroke="#5f5f5f" stroke-width="4" stroke-linecap="round" stroke-linejoin="round" opacity="1" fill="none"></path><path d="M436.9 860.41C440.89 866.67 442.38 876.52 442.38 876.52" stroke="#5f5f5f" stroke-width="4" stroke-linecap="round" stroke-linejoin="round" opacity="1" fill="none"></path></g><g><path d="M621.53 260.66C614.58 265.46 600.27 271.08 588.61 259.97 577.08 248.93 575.76 241.01 560.13 234.83 546.59 229.41 529.58 239.13 529.58 239.13L538.6 276.15C538.6 276.15 551.03 270.04 560.76 274.14 577.98 281.43 579.86 300.11 600.41 304.42 616.04 307.68 630 298.17 630 298.17L621.53 260.66Z" fill="#efdcd7" opacity="1" stroke-width="4" stroke="none"></path></g><g><path d="M1220.68 179.29L1179.06 241.43 1239.85 209.44 1251.61 277.66 1270.68 207.52 1324.06 251.74 1296.99 185.94 1349.98 177.36 1291.78 159.05 1314.33 97.68 1265.38 139.59 1245.44 82.17 1236.09 148.65 1169.71 131.11 1220.68 179.29Z" fill="#efdcd7" opacity="1" stroke-width="4" stroke="none"></path></g><g><path d="M385.72 91.96L327.99 120.42 319.88 60.79 295.65 114.29 244.13 90.06 277.46 138.52 231.98 164.82H285.57L274.4 217.33 309.79 178.96 346.09 234.53 340.06 171.85 412.83 175.9 355.19 139.6 385.72 91.96Z" fill="#efdcd7" opacity="1" stroke-width="4" stroke="none"></path></g><g><path d="M1003.44 281.87C1010.39 286.66 1024.7 292.29 1036.37 281.18 1047.9 270.13 1049.22 262.22 1064.85 256.03 1078.39 250.62 1095.41 260.34 1095.41 260.34L1086.38 297.36C1086.38 297.36 1073.94 291.25 1064.22 295.35 1046.99 302.64 1045.12 321.32 1024.56 325.63 1008.93 328.89 994.97 319.38 994.97 319.38L1003.44 281.87Z" fill="#efdcd7" opacity="1" stroke-width="4" stroke="none"></path></g><g><path d="M1432.51 528.16V902.76H1412.6L1412.6 528.16H1432.51Z" fill="#ff4f32" opacity="1" stroke-width="4" stroke="none"></path><path d="M1432.51 528.16V902.76H1425.16V528.16H1432.51Z" fill="#898787" opacity="0.3" stroke-width="4" stroke="none"></path><path d="M1432.51 683.71H1412.6" stroke="#515151" stroke-width="4" stroke-linecap="round" stroke-linejoin="round" opacity="1" fill="none"></path><path d="M1432.51 595.78H1412.6" stroke="#515151" stroke-width="4" stroke-linecap="round" stroke-linejoin="round" opacity="1" fill="none"></path><path d="M1470.81 587.68C1486.87 567.08 1490.79 543.13 1490.79 543.13 1490.79 543.13 1468.54 552.67 1452.41 573.33 1436.28 593.99 1432.44 617.88 1432.44 617.88 1432.44 617.88 1454.75 608.27 1470.81 587.68Z" fill="#ffc930" opacity="1" stroke-width="4" stroke="none"></path><path d="M1470.81 587.68C1486.87 567.08 1490.79 543.13 1490.79 543.13L1432.44 617.88C1432.44 617.88 1454.75 608.27 1470.81 587.68Z" fill="#a3883c" opacity="0.3" stroke-width="4" stroke="none"></path><path d="M1377.04 635.11C1354.73 624.54 1331.94 625.84 1331.94 625.84 1331.94 625.84 1345.26 644.38 1367.57 655.02 1389.88 665.66 1412.67 664.29 1412.67 664.29 1412.67 664.29 1399.35 645.75 1377.04 635.11Z" fill="#ffc930" opacity="1" stroke-width="4" stroke="none"></path><path d="M1331.87 625.84C1331.87 625.84 1345.19 644.38 1367.5 655.02 1389.81 665.66 1412.6 664.29 1412.6 664.29L1331.87 625.84Z" fill="#a3883c" opacity="0.3" stroke-width="4" stroke="none"></path><path d="M1366.81 668.89C1343.54 677.12 1328.37 694.22 1328.37 694.22 1328.37 694.22 1350.95 697.92 1374.23 689.62 1397.5 681.31 1412.67 664.29 1412.67 664.29 1412.67 664.29 1390.08 660.58 1366.81 668.89Z" fill="#ffc930" opacity="1" stroke-width="4" stroke="none"></path><path d="M1328.37 694.22C1328.37 694.22 1350.95 697.92 1374.23 689.62 1397.5 681.31 1412.67 664.29 1412.67 664.29L1328.37 694.22Z" fill="#a3883c" opacity="0.3" stroke-width="4" stroke="none"></path><path d="M1399.14 534C1386.44 512.78 1366.74 501.25 1366.74 501.25 1366.74 501.25 1367.5 524.11 1380.2 545.32 1392.9 566.53 1412.6 578.07 1412.6 578.07 1412.6 578.07 1411.84 555.21 1399.14 534Z" fill="#ffc930" opacity="1" stroke-width="4" stroke="none"></path><path d="M1366.74 501.25C1366.74 501.25 1367.5 524.11 1380.2 545.32 1392.9 566.53 1412.6 578.07 1412.6 578.07L1366.74 501.25Z" fill="#a3883c" opacity="0.3" stroke-width="4" stroke="none"></path><path d="M1371.96 556.44C1348 550.4 1325.9 556.24 1325.9 556.24 1325.9 556.24 1342.65 571.82 1366.54 577.86 1390.43 583.9 1412.6 578.07 1412.6 578.07 1412.6 578.07 1395.92 562.41 1371.96 556.44Z" fill="#ffc930" opacity="1" stroke-width="4" stroke="none"></path><path d="M1325.9 556.17C1325.9 556.17 1342.65 571.75 1366.54 577.79 1390.43 583.83 1412.6 578 1412.6 578L1325.9 556.17Z" fill="#a3883c" opacity="0.3" stroke-width="4" stroke="none"></path><path d="M1432.51 771.72H1412.6" stroke="#515151" stroke-width="4" stroke-linecap="round" stroke-linejoin="round" opacity="1" fill="none"></path><path d="M1432.71 859.65H1412.8" stroke="#515151" stroke-width="4" stroke-linecap="round" stroke-linejoin="round" opacity="1" fill="none"></path><path d="M1480.9 623.65C1506.85 620.42 1526.48 606.28 1526.48 606.28 1526.48 606.28 1504.04 597.29 1478.09 600.51 1452.14 603.74 1432.51 617.88 1432.51 617.88 1432.51 617.88 1454.95 626.87 1480.9 623.65Z" fill="#ffc930" opacity="1" stroke-width="4" stroke="none"></path><path d="M1480.9 623.65C1506.85 620.42 1526.48 606.28 1526.48 606.28L1432.51 617.88C1432.51 617.88 1454.95 626.87 1480.9 623.65Z" fill="#a3883c" opacity="0.3" stroke-width="4" stroke="none"></path><path d="M1480.15 654.95V902.76H1460.24V654.95H1480.15Z" fill="#ff4f32" opacity="1" stroke-width="4" stroke="none"></path><path d="M1480.15 654.95V902.76H1473.08V654.95H1480.15Z" fill="#898787" opacity="0.3" stroke-width="4" stroke="none"></path><path d="M1480.15 782.56H1460.24" stroke="#515151" stroke-width="4" stroke-linecap="round" stroke-linejoin="round" opacity="1" fill="none"></path><path d="M1480.15 694.63H1460.24" stroke="#515151" stroke-width="4" stroke-linecap="round" stroke-linejoin="round" opacity="1" fill="none"></path><path d="M1519.48 716.11C1536.44 696.21 1541.38 672.45 1541.38 672.45 1541.38 672.45 1518.73 681.04 1501.77 700.94 1484.81 720.85 1479.87 744.6 1479.87 744.6 1479.87 744.6 1502.46 736.02 1519.48 716.11Z" fill="#ffc930" opacity="1" stroke-width="4" stroke="none"></path><path d="M1519.48 716.11C1536.44 696.21 1541.38 672.45 1541.38 672.45L1479.94 744.53C1479.87 744.6 1502.46 736.02 1519.48 716.11Z" fill="#a3883c" opacity="0.3" stroke-width="4" stroke="none"></path><path d="M1436.83 757.3C1419.53 739.66 1397.7 733 1397.7 733 1397.7 733 1403.81 755.04 1421.04 772.68 1438.27 790.32 1460.17 796.98 1460.17 796.98 1460.17 796.98 1454.13 775.01 1436.83 757.3Z" fill="#ffc930" opacity="1" stroke-width="4" stroke="none"></path><path d="M1397.77 733C1397.77 733 1403.88 755.04 1421.11 772.68 1438.34 790.32 1460.24 796.98 1460.24 796.98L1397.77 733Z" fill="#a3883c" opacity="0.3" stroke-width="4" stroke="none"></path><path d="M1415.62 785.45C1390.91 785.17 1370.79 795.95 1370.79 795.95 1370.79 795.95 1390.7 807.21 1415.34 807.48 1439.99 807.76 1460.17 796.98 1460.17 796.98 1460.17 796.98 1440.33 785.72 1415.62 785.45Z" fill="#ffc930" opacity="1" stroke-width="4" stroke="none"></path><path d="M1370.79 795.95C1370.79 795.95 1390.7 807.21 1415.34 807.48 1439.99 807.76 1460.17 796.98 1460.17 796.98L1370.79 795.95Z" fill="#a3883c" opacity="0.3" stroke-width="4" stroke="none"></path><path d="M1480.15 870.5H1460.24" stroke="#515151" stroke-width="4" stroke-linecap="round" stroke-linejoin="round" opacity="1" fill="none"></path><path d="M1527.92 752.5C1554.01 750.37 1574.26 737.12 1574.26 737.12 1574.26 737.12 1552.22 727.17 1526.14 729.23 1500.05 731.28 1479.8 744.6 1479.8 744.6 1479.8 744.6 1501.84 754.56 1527.92 752.5Z" fill="#ffc930" opacity="1" stroke-width="4" stroke="none"></path><path d="M1527.92 752.5C1554.01 750.37 1574.26 737.12 1574.26 737.12L1479.8 744.6C1479.8 744.6 1501.84 754.56 1527.92 752.5Z" fill="#a3883c" opacity="0.3" stroke-width="4" stroke="none"></path></g><g><path d="M179.67 529.18L179.67 903.93H159.75L159.75 529.18H179.67Z" fill="#ff4f32" opacity="1" stroke-width="4" stroke="none"></path><path d="M179.67 529.18L179.67 903.93H172.32L172.32 529.18H179.67Z" fill="#898787" opacity="0.3" stroke-width="4" stroke="none"></path><path d="M179.67 684.8H159.75" stroke="#515151" stroke-width="4" stroke-linecap="round" stroke-linejoin="round" opacity="1" fill="none"></path><path d="M179.67 596.83H159.75" stroke="#515151" stroke-width="4" stroke-linecap="round" stroke-linejoin="round" opacity="1" fill="none"></path><path d="M217.99 588.72C234.06 568.12 237.97 544.16 237.97 544.16 237.97 544.16 215.72 553.7 199.58 574.37 183.44 595.04 179.6 618.94 179.6 618.94 179.6 618.94 201.92 609.33 217.99 588.72Z" fill="#ffc930" opacity="1" stroke-width="4" stroke="none"></path><path d="M217.99 588.72C234.06 568.12 237.97 544.16 237.97 544.16L179.6 618.94C179.6 618.94 201.92 609.33 217.99 588.72Z" fill="#a3883c" opacity="0.3" stroke-width="4" stroke="none"></path><path d="M124.18 636.18C101.86 625.6 79.06 626.91 79.06 626.91 79.06 626.91 92.38 645.45 114.7 656.09 137.02 666.74 159.82 665.36 159.82 665.36 159.82 665.36 146.5 646.82 124.18 636.18Z" fill="#ffc930" opacity="1" stroke-width="4" stroke="none"></path><path d="M78.99 626.91C78.99 626.91 92.32 645.45 114.63 656.09 136.95 666.74 159.75 665.36 159.75 665.36L78.99 626.91Z" fill="#a3883c" opacity="0.3" stroke-width="4" stroke="none"></path><path d="M113.95 669.96C90.67 678.2 75.49 695.3 75.49 695.3 75.49 695.3 98.08 699.01 121.36 690.7 144.64 682.39 159.82 665.36 159.82 665.36 159.82 665.36 137.23 661.65 113.95 669.96Z" fill="#ffc930" opacity="1" stroke-width="4" stroke="none"></path><path d="M75.49 695.3C75.49 695.3 98.08 699.01 121.36 690.7 144.64 682.39 159.82 665.36 159.82 665.36L75.49 695.3Z" fill="#a3883c" opacity="0.3" stroke-width="4" stroke="none"></path><path d="M146.29 535.02C133.59 513.8 113.88 502.26 113.88 502.26 113.88 502.26 114.63 525.13 127.34 546.35 140.04 567.57 159.75 579.11 159.75 579.11 159.75 579.11 159 556.24 146.29 535.02Z" fill="#ffc930" opacity="1" stroke-width="4" stroke="none"></path><path d="M113.88 502.26C113.88 502.26 114.63 525.13 127.34 546.35 140.04 567.57 159.75 579.11 159.75 579.11L113.88 502.26Z" fill="#a3883c" opacity="0.3" stroke-width="4" stroke="none"></path><path d="M119.1 557.48C95.13 551.43 73.02 557.27 73.02 557.27 73.02 557.27 89.77 572.86 113.67 578.9 137.57 584.95 159.75 579.11 159.75 579.11 159.75 579.11 143.06 563.45 119.1 557.48Z" fill="#ffc930" opacity="1" stroke-width="4" stroke="none"></path><path d="M73.02 557.2C73.02 557.2 89.77 572.79 113.67 578.83 137.57 584.88 159.75 579.04 159.75 579.04L73.02 557.2Z" fill="#a3883c" opacity="0.3" stroke-width="4" stroke="none"></path><path d="M179.67 772.84H159.75" stroke="#515151" stroke-width="4" stroke-linecap="round" stroke-linejoin="round" opacity="1" fill="none"></path><path d="M179.87 860.8H159.96" stroke="#515151" stroke-width="4" stroke-linecap="round" stroke-linejoin="round" opacity="1" fill="none"></path><path d="M228.08 624.71C254.04 621.48 273.68 607.33 273.68 607.33 273.68 607.33 251.22 598.34 225.27 601.57 199.31 604.79 179.67 618.94 179.67 618.94 179.67 618.94 202.12 627.94 228.08 624.71Z" fill="#ffc930" opacity="1" stroke-width="4" stroke="none"></path><path d="M228.08 624.71C254.04 621.48 273.68 607.33 273.68 607.33L179.67 618.94C179.67 618.94 202.12 627.94 228.08 624.71Z" fill="#a3883c" opacity="0.3" stroke-width="4" stroke="none"></path><path d="M227.33 656.02L227.33 903.93H207.41L207.41 656.02H227.33Z" fill="#ff4f32" opacity="1" stroke-width="4" stroke="none"></path><path d="M227.33 656.02L227.33 903.93H220.25V656.02H227.33Z" fill="#898787" opacity="0.3" stroke-width="4" stroke="none"></path><path d="M227.33 783.69H207.41" stroke="#515151" stroke-width="4" stroke-linecap="round" stroke-linejoin="round" opacity="1" fill="none"></path><path d="M227.33 695.72H207.41" stroke="#515151" stroke-width="4" stroke-linecap="round" stroke-linejoin="round" opacity="1" fill="none"></path><path d="M266.68 717.21C283.64 697.3 288.58 673.53 288.58 673.53 288.58 673.53 265.92 682.12 248.96 702.03 232 721.95 227.05 745.71 227.05 745.71 227.05 745.71 249.64 737.13 266.68 717.21Z" fill="#ffc930" opacity="1" stroke-width="4" stroke="none"></path><path d="M266.68 717.21C283.64 697.3 288.58 673.53 288.58 673.53L227.12 745.64C227.05 745.71 249.64 737.13 266.68 717.21Z" fill="#a3883c" opacity="0.3" stroke-width="4" stroke="none"></path><path d="M183.99 758.41C166.69 740.77 144.85 734.1 144.85 734.1 144.85 734.1 150.96 756.15 168.2 773.8 185.44 791.45 207.34 798.11 207.34 798.11 207.34 798.11 201.3 776.13 183.99 758.41Z" fill="#ffc930" opacity="1" stroke-width="4" stroke="none"></path><path d="M144.92 734.1C144.92 734.1 151.03 756.15 168.27 773.8 185.5 791.45 207.41 798.11 207.41 798.11L144.92 734.1Z" fill="#a3883c" opacity="0.3" stroke-width="4" stroke="none"></path><path d="M162.77 786.57C138.05 786.3 117.93 797.08 117.93 797.08 117.93 797.08 137.85 808.34 162.5 808.61 187.15 808.89 207.34 798.11 207.34 798.11 207.34 798.11 187.5 786.84 162.77 786.57Z" fill="#ffc930" opacity="1" stroke-width="4" stroke="none"></path><path d="M117.93 797.08C117.93 797.08 137.85 808.34 162.5 808.61 187.15 808.89 207.34 798.11 207.34 798.11L117.93 797.08Z" fill="#a3883c" opacity="0.3" stroke-width="4" stroke="none"></path><path d="M227.33 871.66H207.41" stroke="#515151" stroke-width="4" stroke-linecap="round" stroke-linejoin="round" opacity="1" fill="none"></path><path d="M275.12 753.61C301.22 751.48 321.48 738.22 321.48 738.22 321.48 738.22 299.43 728.27 273.34 730.33 247.24 732.39 226.98 745.71 226.98 745.71 226.98 745.71 249.03 755.67 275.12 753.61Z" fill="#ffc930" opacity="1" stroke-width="4" stroke="none"></path><path d="M275.12 753.61C301.22 751.48 321.48 738.22 321.48 738.22L226.98 745.71C226.98 745.71 249.03 755.67 275.12 753.61Z" fill="#a3883c" opacity="0.3" stroke-width="4" stroke="none"></path></g><g><path d="M685.26 394.54C677.48 374.47 669.41 353.8 665.38 345.64 657.02 328.91 647.57 310.9 641.76 309.91 641.57 309.91 641.47 309.91 641.27 309.91 640.38 309.91 639.6 310.31 639.11 311 636.35 314.73 639.6 327.72 640.68 331.56 640.78 331.76 640.48 331.96 640.38 331.76 637.73 330.09 634.48 327.72 630.84 325.07 621.88 318.47 610.76 310.21 603.19 310.21 600.53 310.11 598.07 311.39 596.69 313.55 596.69 313.65 596.59 313.65 596.49 313.65 596 313.55 595.51 313.55 595.02 313.55 591.77 313.55 589.31 314.73 588.13 316.9 587.05 319.06 587.24 321.72 588.62 323.79 588.72 323.89 588.62 324.08 588.52 324.08 587.05 324.67 585.96 326.05 585.57 327.63 584.29 334.32 596.49 346.03 601.02 350.46L601.12 350.56C595.02 347.41 590.59 345.83 587.93 345.83 585.18 345.83 584.88 347.6 584.78 348.29 583.9 354.79 625.13 382.24 628.28 384.31L628.38 384.41C630.74 397.2 633.1 407.93 636.05 419.05L636.84 422.2C636.94 422.49 637.24 422.59 637.43 422.49L687.62 401.53C687.72 401.53 687.62 401.43 687.62 401.24V400.74L685.26 394.54Z" fill="#c65a42" opacity="1" stroke-width="4" stroke="none"></path><path d="M589.21 324.18C589.21 324.18 612.63 343.37 617.55 347.31" stroke="#000000" stroke-width="4" stroke-linecap="round" stroke-linejoin="round" opacity="1" fill="none"></path><path d="M596.7 313.85C607.72 322.71 625.44 336.48 625.44 336.48" stroke="#000000" stroke-width="4" stroke-linecap="round" stroke-linejoin="round" opacity="1" fill="none"></path><path d="M602.3 351.34L610.67 357.15" stroke="#000000" stroke-width="4" stroke-linecap="round" stroke-linejoin="round" opacity="1" fill="none"></path><path d="M973.69 734.35C965.23 734.35 944.47 725.1 930.39 716.54 919.77 709.55 909.63 701.58 900.18 693.02 899.69 692.62 900.18 691.74 899.69 691.25L899.59 689.38 933.64 657.79C933.94 658.18 934.53 658.18 934.82 658.48 938.76 663.59 942.5 668.61 946.24 673.93 947.32 673.83 955.88 672.84 967.79 671.96 969.17 671.86 970.54 671.76 971.92 671.66 978.71 671.07 986.39 670.48 992.1 670.48 997.31 670.48 999.97 670.97 1000.46 672.06 1000.85 672.84 1000.85 673.73 1000.56 674.52 999.77 676.48 997.02 678.26 992.29 679.93 995.54 680.42 1007.45 682.59 1010.2 687.6 1010.89 688.88 1010.99 690.36 1010.4 691.74 1011.29 692.13 1015.22 694.1 1015.22 697.74 1015.22 700.4 1012.37 702.17 1011.38 702.66 1012.07 703.25 1013.94 705.32 1013.84 707.68 1013.75 709.16 1012.86 710.53 1011.19 711.71 1009.02 713.19 1005.28 713.88 999.67 713.88 993.57 713.68 987.37 713.29 981.27 712.5 976.45 712.01 971.92 711.42 968.87 711.42 966.51 711.42 965.13 711.71 964.74 712.3 964.54 712.7 964.64 713.09 964.94 713.39 966.8 716.14 968.87 718.6 971.23 720.87 975.56 725.39 979.4 729.23 976.65 733.27 976.45 733.95 975.27 734.35 973.69 734.35Z" fill="#c65a42" opacity="1" stroke-width="4" stroke="none"></path><path d="M714.29 1071.59C714.19 1071.2 712.81 1066.18 711.14 1058.11V1057.91L812.4 1058.01 812.5 1058.11C814.17 1062.34 815.06 1066.97 814.86 1071.59V1071.79L714.29 1071.59Z" fill="#000000" opacity="1" stroke-width="4" stroke="none"></path><path d="M870.36 1071.59C870.36 1071.59 868.2 1066.67 865.15 1058.21L865.05 1057.91 974.09 1057.42 974.38 1058.01C976.15 1062.24 976.94 1066.87 976.84 1071.49V1071.69L870.36 1071.59Z" fill="#000000" opacity="1" stroke-width="4" stroke="none"></path><path d="M762.12 514.01C761.43 500.73 759.85 468.94 759.66 457.13 759.36 430.96 773.24 414.23 796.66 412.36 799.02 412.16 801.28 412.06 803.45 412.06 821.06 412.06 833.36 417.87 841.04 429.97 845.47 436.96 846.55 446.21 847.53 455.95 848.03 460.38 848.52 465 849.31 469.73L849.5 470.91C851.37 481.14 853.24 491.77 847.44 500.23 842.71 507.22 833.17 508.7 826.08 508.7 823.03 508.7 820.08 508.4 817.13 508.01V548.85L762.12 514.01Z" fill="#c65a42" opacity="1" stroke-width="4" stroke="none"></path><path d="M815.26 528.58C815.16 528.28 808.27 511.65 804.43 503.88L804.14 503.38 804.63 503.68C808.56 505.55 812.89 507.32 817.13 508.01L817.22 529.07 815.26 528.58Z" fill="#000000" opacity="0.3" stroke-width="4" stroke="none"></path><path d="M841.14 429.87C833.46 417.77 821.16 411.96 803.55 411.96 801.38 411.96 799.12 412.06 796.76 412.26 792.33 412.65 788.29 413.54 784.55 414.91 786.13 411.27 787.01 407.24 787.01 402.91 787.01 386.18 773.53 372.7 756.8 372.7 740.07 372.7 726.59 386.18 726.59 402.91 726.59 419.64 740.07 433.12 756.8 433.12 759.66 433.12 762.51 432.73 765.07 431.94 761.43 438.83 759.56 447.29 759.75 457.03 759.75 458.51 759.75 459.3 759.85 460.58 759.95 461.66 759.95 462.94 760.05 465 750.6 462.25 740.86 460.77 731.12 460.77 715.77 460.77 694.12 464.61 677.48 483.01 664.69 497.18 658.1 514.5 659.08 531.82 659.77 545.7 665.58 558.79 674.43 566.76 672.66 569.61 646.29 613.5 679.45 641.65 690.47 651.09 704.55 656.11 719.01 656.02 751.98 656.02 784.55 631.81 790.26 603.37 799.41 555.05 781.01 532.12 773.14 522.28L772.65 521.69C775.11 520.31 777.37 518.44 779.14 516.28 782.29 512.63 786.23 506.04 787.11 495.61V495.51L787.01 495.41C786.82 495.22 766.15 479.77 774.42 466.97 776.88 463.13 780.22 461.17 784.26 461.17 793.21 461.17 803.05 470.61 803.15 470.71L803.25 470.81 803.35 470.71C809.94 464.02 808.56 455.07 808.17 453.1 810.83 454.28 813.68 454.87 816.54 454.97 820.08 454.97 822.93 453.69 824.7 451.33 826.87 448.47 827.36 444.04 825.98 439.02 830.71 441.68 834.84 442.96 838.28 442.96 843.4 442.96 845.17 440.11 845.27 440.01V439.91 439.81C844.38 436.27 843.01 432.92 841.14 429.87Z" fill="#231f20" opacity="1" stroke-width="4" stroke="none"></path><path d="M784.16 415.21C775.99 418.26 769.3 424.26 765.36 431.94" stroke="#231f20" stroke-width="4" stroke-linecap="round" stroke-linejoin="round" opacity="1" fill="none"></path><path d="M793.7 480.85L788.39 477.01" stroke="#000000" stroke-width="4" stroke-linecap="round" stroke-linejoin="round" opacity="1" fill="none"></path><path d="M817.13 508.01C813.29 506.83 809.84 505.75 804.63 503.68" stroke="#000000" stroke-width="4" stroke-linecap="round" stroke-linejoin="round" opacity="1" fill="none"></path><path d="M833.17 468.35L833.95 470.42C834.35 471.6 834.15 472.88 833.26 473.76L833.07 473.96" stroke="#000000" stroke-width="4" stroke-linecap="round" stroke-linejoin="round" opacity="1" fill="none"></path><path d="M836.22 483.8C834.94 484.78 830.61 485.28 827.85 482.32" stroke="#000000" stroke-width="4" stroke-linecap="round" stroke-linejoin="round" opacity="1" fill="none"></path><path d="M821.75 469.24C823.11 469.24 824.21 468.13 824.21 466.78 824.21 465.42 823.11 464.32 821.75 464.32 820.39 464.32 819.29 465.42 819.29 466.78 819.29 468.13 820.39 469.24 821.75 469.24Z" fill="#231f20" opacity="1" stroke-width="4" stroke="none"></path><path d="M841.04 467.46C842.4 467.46 843.5 466.36 843.5 465 843.5 463.65 842.4 462.54 841.04 462.54 839.68 462.54 838.58 463.65 838.58 465 838.58 466.36 839.68 467.46 841.04 467.46Z" fill="#231f20" opacity="1" stroke-width="4" stroke="none"></path><path d="M711.15 1058.11C709.48 1050.04 708.1 1041.58 706.92 1033.12V1032.92H738.9L735.06 1015.7C734.08 1011.27 736.83 1006.94 741.26 1005.96 741.85 1005.86 742.44 1005.76 743.03 1005.76H772.46V1005.96C772.56 1013.34 774.13 1018.85 777.08 1022.98 783.78 1032.03 790.86 1037.25 797.06 1041.97 803.56 1046.79 809.35 1050.34 812.3 1057.42L812.7 1058.6 711.15 1058.11Z" fill="#ffc930" opacity="1" stroke-width="4" stroke="none"></path><path d="M865.35 1058.8L865.15 1058.21C862.3 1050.24 859.84 1041.78 857.47 1033.12L857.28 1032.43 896.44 1033.02 892.61 1015.8C891.62 1011.37 894.38 1007.04 898.8 1006.05 899.4 1005.96 899.99 1005.86 900.58 1005.86L930.89 1005.17 931.57 1006.25C933.25 1013.93 935.31 1019.14 938.27 1023.08 945.06 1032.13 952.24 1037.35 958.64 1041.97 965.33 1046.89 970.64 1049.45 973.69 1056.54L974.48 1058.21C974.58 1058.31 974.48 1058.51 974.28 1058.51L865.35 1058.8Z" fill="#ffc930" opacity="1" stroke-width="4" stroke="none"></path><path d="M857.47 1033.21C852.16 1013.53 848.62 993.36 847.04 972.99L846.94 971.81 885.62 892.19 927.54 971.81C928.62 985.88 929.61 997.1 931.48 1005.96V1006.25L900.67 1006.15C896.34 1006.15 892.9 1009.6 892.9 1013.93 892.9 1014.52 893 1015.01 893.1 1015.6L897.03 1033.31 857.47 1033.21Z" fill="#c65a42" opacity="1" stroke-width="4" stroke="none"></path><path d="M707.02 1033.31C706.92 1033.31 706.92 1033.31 707.02 1033.31 705.84 1025.24 703.47 1004.77 703.47 988.44 703.47 982.53 703.57 977.12 703.87 971.81L748.84 892.98 777.38 971.81V971.91C773.84 987.75 772.36 997.89 772.56 1005.96V1006.15H743.62C739.59 1006.15 736.05 1009.01 735.36 1013.04 735.16 1014.12 735.36 1014.71 735.46 1015.6L739.39 1033.31H707.02Z" fill="#c65a42" opacity="1" stroke-width="4" stroke="none"></path><path d="M847.24 975.84L846.94 971.91C845.86 957.73 845.37 943.96 845.37 929.59 845.37 922.11 845.47 915.52 845.57 909.71 845.66 900.36 845.86 892.98 845.37 886.98 843.7 863.46 836.81 843.29 821.46 817.11 818.01 811.2 814.67 805.2 811.42 799.3 810.04 813.67 808.56 826.85 807.09 838.27 803.55 863.56 798.33 888.55 791.64 913.16 790.16 918.86 788.69 924.18 787.5 929.59 785.83 936.87 784.16 943.66 782.58 950.26 780.71 957.93 778.75 965.8 777.27 972.5L703.86 972.2V972C704.74 955.67 706.91 944.55 709.07 932.84L709.66 929.69C711.24 921.42 712.71 913.94 714.19 906.66 717.04 892.49 719.8 879.11 722.26 861.79 725.61 837.87 723.93 813.07 722.46 789.16 719.7 745.76 716.75 700.99 743.42 660.25L743.52 660.15H845.07L845.17 660.25C845.76 661.53 908.65 788.28 917.8 850.27 922.42 881.27 923.21 898.3 924.39 923.88L924.69 929.59C925.47 939.73 926.16 949.17 926.75 957.54 927.15 962.56 927.34 967.58 927.64 972.1V972.99L847.24 975.84Z" fill="#ffa0dc" opacity="1" stroke-width="4" stroke="none"></path><path d="M847.24 975.84L846.94 971.91C845.86 957.73 845.37 943.96 845.37 929.59 845.37 922.11 845.47 915.52 845.57 909.71 845.66 900.36 845.86 892.98 845.37 886.98 843.7 863.46 836.81 843.29 821.46 817.11 817.91 811.01 814.37 804.81 811.12 798.71V798.61 798.51C811.12 798.31 815.45 774.89 816.44 732.08 816.83 731 817.42 730.51 818.21 730.51 827.66 730.51 856.59 817.7 861.9 845.06 867.12 871.82 866.23 892.59 865.15 916.6 864.46 933.23 863.67 950.45 864.85 971.71L864.95 974.96 847.24 975.84Z" fill="#272727" opacity="0.3" stroke-width="4" stroke="none"></path><path d="M811.42 799.3C813.98 772.83 815.85 744.58 817.32 721.16" stroke="#272727" stroke-width="4" stroke-linecap="round" stroke-linejoin="round" opacity="1" fill="none"></path><path d="M896.64 689.77C872.23 667.43 855.11 643.52 851.96 639.19 853.83 654.54 850.78 659.26 846.45 662.71L741.66 662.9C729.26 651.29 729.55 638.4 729.75 623.25 729.85 609.57 730.04 594.21 721.19 576.4 712.63 559.08 702.59 542.55 691.37 526.9 689.11 523.75 686.94 520.7 684.87 517.75 682.22 514.11 679.76 510.57 677.2 507.02 676.12 505.55 674.94 503.97 673.75 502.3 664.11 489.21 649.35 469.53 636.36 420.52L636.06 418.95 687.63 400.84 687.83 401.33C695.11 420.13 702.59 438.73 705.74 444.04 708.39 448.67 721.38 465.3 737.42 482.03 773.64 519.62 795.49 527.49 807.38 527.49 807.97 527.49 808.56 527.49 809.15 527.4 813.48 527.1 817.03 523.95 817.03 519.62V519.03L818.31 519.33C836.02 523.07 842.91 529.56 851.18 539.6 855.21 544.62 861.02 553.77 868.3 565.28 875.78 577.09 885.13 591.85 895.16 606.02 905.2 620.19 913.07 630.33 921.34 640.96 925.38 646.08 929.41 651.59 933.84 657.49L934.72 658.67 900.28 693.21C900.18 693.31 900.08 693.31 899.99 693.21L896.64 689.77Z" fill="#61ccff" opacity="1" stroke-width="4" stroke="none"></path><path d="M898.71 691.64C872.14 667.23 851.86 638.99 851.67 638.7 851.57 638.3 844.78 606.91 844.78 588.41V588.31L844.88 588.21C845.27 588.01 845.57 588.01 845.96 587.92 848.71 587.92 850.58 592.64 853.93 601.2 858.16 611.93 864.46 628.07 877.55 647.36 893.1 670.38 906.19 684.06 906.38 684.26L907.86 685.64 900.48 693.11C900.38 693.21 900.28 693.21 900.18 693.11L898.71 691.64Z" fill="#000000" opacity="0.3" stroke-width="4" stroke="none"></path><path d="M938.17 1023.08L924.39 1032.03" stroke="#000000" stroke-width="4" stroke-linecap="round" stroke-linejoin="round" opacity="1" fill="none"></path><path d="M945.25 1031.05L935.41 1042.76" stroke="#000000" stroke-width="4" stroke-linecap="round" stroke-linejoin="round" opacity="1" fill="none"></path><path d="M777.37 1023.37L764.08 1032.03" stroke="#000000" stroke-width="4" stroke-linecap="round" stroke-linejoin="round" opacity="1" fill="none"></path><path d="M784.45 1031.54L775.11 1042.76" stroke="#000000" stroke-width="4" stroke-linecap="round" stroke-linejoin="round" opacity="1" fill="none"></path><path d="M739.48 1033.31L746.27 1058.51" stroke="#000000" stroke-width="4" stroke-linecap="round" stroke-linejoin="round" opacity="1" fill="none"></path><path d="M897.03 1033.31L903.43 1058.11" stroke="#000000" stroke-width="4" stroke-linecap="round" stroke-linejoin="round" opacity="1" fill="none"></path><path d="M741.65 662.9L846.45 662.71" stroke="#000000" stroke-width="4" stroke-linecap="round" stroke-linejoin="round" opacity="1" fill="none"></path><path d="M703.86 972.1L777.27 972.5" stroke="#272727" stroke-width="4" stroke-linecap="round" stroke-linejoin="round" opacity="1" fill="none"></path><path d="M847.24 975.84L927.64 972.89" stroke="#272727" stroke-width="4" stroke-linecap="round" stroke-linejoin="round" opacity="1" fill="none"></path><path d="M852.06 639.29C850.09 620.59 844.88 613.99 843.11 588.41" stroke="#000000" stroke-width="4" stroke-linecap="round" stroke-linejoin="round" opacity="1" fill="none"></path><path d="M636.06 419.05L687.63 400.84" stroke="#000000" stroke-width="4" stroke-linecap="round" stroke-linejoin="round" opacity="1" fill="none"></path><path d="M648.26 455.36L701.3 434.79" stroke="#000000" stroke-width="4" stroke-linecap="round" stroke-linejoin="round" opacity="1" fill="none"></path><path d="M671 406.75L684.97 441.09" stroke="#000000" stroke-width="4" stroke-linecap="round" stroke-linejoin="round" opacity="1" fill="none"></path><path d="M652.39 413.34L664 449.26" stroke="#000000" stroke-width="4" stroke-linecap="round" stroke-linejoin="round" opacity="1" fill="none"></path><path d="M900.28 693.21L934.82 658.57" stroke="#000000" stroke-width="4" stroke-linecap="round" stroke-linejoin="round" opacity="1" fill="none"></path><path d="M873.32 665.27L910.71 627.38" stroke="#000000" stroke-width="4" stroke-linecap="round" stroke-linejoin="round" opacity="1" fill="none"></path><path d="M925.77 667.53L900.87 638.6" stroke="#000000" stroke-width="4" stroke-linecap="round" stroke-linejoin="round" opacity="1" fill="none"></path><path d="M884.34 654.15L911.4 681.99" stroke="#000000" stroke-width="4" stroke-linecap="round" stroke-linejoin="round" opacity="1" fill="none"></path><path d="M729.25 689.28H749.42C749.42 689.28 745.78 730.41 721.37 729.03" stroke="#272727" stroke-width="4" stroke-linecap="round" stroke-linejoin="round" opacity="1" fill="none"></path><path d="M1011.19 702.56C997.8 700.2 984.42 698.53 970.84 697.64" stroke="#000000" stroke-width="4" stroke-linecap="round" stroke-linejoin="round" opacity="1" fill="none"></path><path d="M1010.2 691.74C994.46 687.8 970.84 686.82 970.84 686.82" stroke="#000000" stroke-width="4" stroke-linecap="round" stroke-linejoin="round" opacity="1" fill="none"></path><path d="M991.51 679.93C984.72 678.65 977.73 678.06 970.84 677.96" stroke="#000000" stroke-width="4" stroke-linecap="round" stroke-linejoin="round" opacity="1" fill="none"></path><path d="M640.88 332.05L633.79 362.66" stroke="#000000" stroke-width="4" stroke-linecap="round" stroke-linejoin="round" opacity="1" fill="none"></path><path d="M674.63 566.76C681.52 572.66 691.36 576.6 691.36 576.6" stroke="#000000" stroke-width="4" stroke-linecap="round" stroke-linejoin="round" opacity="1" fill="none"></path><path d="M760.15 465.3L760.74 475.34" stroke="#000000" stroke-width="4" stroke-linecap="round" stroke-linejoin="round" opacity="1" fill="none"></path></g></svg>