<svg xmlns="http://www.w3.org/2000/svg" height="1200" width="1600" version="1.1" xmlns:xlink="http://www.w3.org/1999/xlink" xmlns:svgjs="http://svgjs.com/svgjs"><rect fill="#ffffff" width="1600" height="1200"></rect><g><path d="M304.94 355.49C352 195.42 639.83 206.34 735.15 196.51 924.71 190.83 1168.86 164.63 1310.37 316.51 1346.08 358.88 1331.34 655.88 1323.8 692.68 1295.63 839.32 1151.72 928.64 1013.59 929.18 947.86 929.4 317.39 992.84 269.24 703.81 256.35 631.75 294.24 395.02 304.94 355.49Z" fill="#d1f0ff" opacity="1" stroke-width="2" stroke="none"></path></g><g><path d="M1190.06 972C1192.69 967.97 1194.94 963.64 1196.41 959.07 1198.12 953.95 1199.05 948.53 1199.2 942.96 1199.74 912.67 1174.49 887.81 1144.05 887.81H1071.71C1042.27 887.81 1018.26 911.43 1017.72 940.71 1017.18 970.99 1042.43 995.86 1072.87 995.86H1135.45 1145.14C1160.7 995.86 1174.72 989.35 1184.56 978.82" fill="#3d84a8" opacity="1" stroke-width="2" stroke="none"></path><path d="M1190.06 972C1192.69 967.97 1194.94 963.64 1196.41 959.07 1198.12 953.95 1199.05 948.53 1199.2 942.96 1199.74 912.67 1174.49 887.81 1144.05 887.81H1071.71C1042.27 887.81 1018.26 911.43 1017.72 940.71 1017.18 970.99 1042.43 995.86 1072.87 995.86H1135.45 1145.14C1160.7 995.86 1174.72 989.35 1184.56 978.82" stroke="#333333" stroke-width="2" stroke-linecap="round" stroke-linejoin="round" opacity="1" fill="none"></path><path d="M1083.09 974.09H1115.16C1126.93 974.09 1136.54 983.39 1136.93 995.08V995.94" stroke="#333333" stroke-width="2" stroke-linecap="round" stroke-linejoin="round" opacity="1" fill="none"></path><path d="M1199.2 942.96H1261.24C1275.8 942.96 1287.73 954.73 1287.73 969.45 1287.73 984.01 1275.96 995.94 1261.24 995.94H1240.41C1234.44 995.94 1229.56 1000.82 1229.56 1006.78 1229.56 1012.74 1234.44 1017.62 1240.41 1017.62H1267.52" stroke="#333333" stroke-width="2" stroke-linecap="round" stroke-linejoin="round" opacity="1" fill="none"></path><path d="M1042.27 952.02C1046.69 965.5 1059.31 975.18 1074.34 975.18 1092.93 975.18 1108.11 960.07 1108.11 941.41 1108.11 935.83 1106.72 930.72 1104.39 925.99L1108.73 910.19 1094.17 914.06C1088.59 910.04 1081.78 907.71 1074.42 907.71 1067.06 907.71 1060.24 910.04 1054.67 914.06L1040.11 910.19 1044.44 925.99C1042.51 929.87 1041.27 934.2 1040.8 938.77 1040.8 939.62 1040.65 940.48 1040.65 941.41 1040.65 942.8 1040.8 944.19 1040.96 945.43" fill="#78c7e0" opacity="1" stroke-width="2" stroke="none"></path><path d="M1042.27 952.02C1046.69 965.5 1059.31 975.18 1074.34 975.18 1092.93 975.18 1108.11 960.07 1108.11 941.41 1108.11 935.83 1106.72 930.72 1104.39 925.99L1108.73 910.19 1094.17 914.06C1088.59 910.04 1081.78 907.71 1074.42 907.71 1067.06 907.71 1060.24 910.04 1054.67 914.06L1040.11 910.19 1044.44 925.99C1042.51 929.87 1041.27 934.2 1040.8 938.77 1040.8 939.62 1040.65 940.48 1040.65 941.41 1040.65 942.8 1040.8 944.19 1040.96 945.43" stroke="#333333" stroke-width="2" stroke-linecap="round" stroke-linejoin="round" opacity="1" fill="none"></path><path d="M1074.26 947.53L1064.5 937.69H1084.1L1074.26 947.53Z" fill="#48466d" stroke="#333333" stroke-width="2" stroke-linecap="round" stroke-linejoin="round" opacity="1"></path><path d="M1108.5 910.19C1112.68 904.38 1118.1 899.35 1124.3 895.63" stroke="#333333" stroke-width="2" stroke-linecap="round" stroke-linejoin="round" opacity="1" fill="none"></path></g><g><path d="M1143.5 806.18V995.08" stroke="#333333" stroke-width="2" stroke-linecap="round" stroke-linejoin="round" opacity="1" fill="none"></path><path d="M550.2 806.18V995.08" stroke="#333333" stroke-width="2" stroke-linecap="round" stroke-linejoin="round" opacity="1" fill="none"></path><path d="M1166 780.1H527.6V806.18H1166V780.1Z" fill="#78c7e0" stroke="#333333" stroke-width="2" stroke-linecap="round" stroke-linejoin="round" opacity="1"></path></g><g><path d="M956 779.8H828.2C828.2 766 839.3 754.9 853.1 754.9H931.1C944.9 754.9 956 766 956 779.8Z" fill="#abedd8" stroke="#333333" stroke-width="2" stroke-linecap="round" stroke-linejoin="round" opacity="1"></path><path d="M800.1 482.8H1065V670.5H719.3V482.8H761.6" fill="#abedd8" opacity="1" stroke-width="2" stroke="none"></path><path d="M800.1 482.8H1065V670.5H719.3V482.8H761.6" stroke="#333333" stroke-width="2" stroke-linecap="round" stroke-linejoin="round" opacity="1" fill="none"></path><path d="M892 670.5V754.9" stroke="#333333" stroke-width="2" stroke-linecap="round" stroke-linejoin="round" opacity="1" fill="none"></path><path d="M1039.9 656C1043.66 656 1046.7 652.96 1046.7 649.2 1046.7 645.45 1043.66 642.4 1039.9 642.4 1036.14 642.4 1033.1 645.45 1033.1 649.2 1033.1 652.96 1036.14 656 1039.9 656Z" fill="#46cdcf" stroke="#333333" stroke-width="2" stroke-linecap="round" stroke-linejoin="round" opacity="1"></path></g><g><path d="M376 845.3C359 845.3 345.4 831.5 345.4 814.7V749C345.4 732 359.2 718.4 376 718.4 393 718.4 406.6 732.2 406.6 749V814.6C406.7 831.7 392.9 845.3 376 845.3Z" fill="#78c7e0" stroke="#333333" stroke-width="2" stroke-linecap="round" stroke-linejoin="round" opacity="1"></path><path d="M401.6 995H350.2L341.6 917.9H410.2L401.6 995Z" fill="#3d84a8" stroke="#333333" stroke-width="2" stroke-linecap="round" stroke-linejoin="round" opacity="1"></path><path d="M376 882V781.8" stroke="#333333" stroke-width="2" stroke-linecap="round" stroke-linejoin="round" opacity="1" fill="none"></path><path d="M376 917.9V892.8" stroke="#333333" stroke-width="2" stroke-linecap="round" stroke-linejoin="round" opacity="1" fill="none"></path><path d="M387.1 770.5L376 781.7 364.9 770.5" stroke="#333333" stroke-width="2" stroke-linecap="round" stroke-linejoin="round" opacity="1" fill="none"></path><path d="M387.1 789.9L376 801 364.9 789.9" stroke="#333333" stroke-width="2" stroke-linecap="round" stroke-linejoin="round" opacity="1" fill="none"></path></g><g><path d="M971.7 176.41H1043.61V342.62H791.39V307.9 251.5 176.41H862.07" fill="#46cdcf" opacity="1" stroke-width="2" stroke="none"></path><path d="M971.7 176.41H1043.61V342.62H791.39V307.9 251.5 176.41H862.07" stroke="#333333" stroke-width="2" stroke-linecap="round" stroke-linejoin="round" opacity="1" fill="none"></path><path d="M890.09 407.49C905.25 407.49 917.59 395.15 917.59 379.99V342.98" stroke="#333333" stroke-width="2" stroke-linecap="round" stroke-linejoin="round" opacity="1" fill="none"></path></g><g><path d="M479.38 419.25C488.21 425.67 493.98 436.14 493.98 447.91 493.98 467.51 478.09 483.34 458.55 483.34 439.01 483.34 423.12 467.45 423.12 447.91 423.12 428.37 439.01 412.48 458.55 412.48 463.61 412.48 468.38 413.54 472.73 415.43" fill="#3d84a8" opacity="1" stroke-width="2" stroke="none"></path><path d="M479.38 419.25C488.21 425.67 493.98 436.14 493.98 447.91 493.98 467.51 478.09 483.34 458.55 483.34 439.01 483.34 423.12 467.45 423.12 447.91 423.12 428.37 439.01 412.48 458.55 412.48 463.61 412.48 468.38 413.54 472.73 415.43" stroke="#333333" stroke-width="2" stroke-linecap="round" stroke-linejoin="round" opacity="1" fill="none"></path><path d="M445.07 456.56L436.42 447.91 445.07 439.32" stroke="#333333" stroke-width="2" stroke-linecap="round" stroke-linejoin="round" opacity="1" fill="none"></path><path d="M472.03 439.32L480.68 447.91 472.03 456.56" stroke="#333333" stroke-width="2" stroke-linecap="round" stroke-linejoin="round" opacity="1" fill="none"></path><path d="M464.2 439.32L452.9 456.56" stroke="#333333" stroke-width="2" stroke-linecap="round" stroke-linejoin="round" opacity="1" fill="none"></path><path d="M458.55 483.34V530.42" stroke="#333333" stroke-width="2" stroke-linecap="round" stroke-linejoin="round" opacity="1" fill="none"></path></g><g><path d="M1021.83 779.11V635.77H1098.83C1110.06 635.77 1119.67 643.93 1121.61 655L1137.37 748C1140.12 764.32 1127.59 779.19 1111.03 779.19L1021.83 779.11Z" fill="#3d84a8" stroke="#333333" stroke-width="2" stroke-linecap="round" stroke-linejoin="round" opacity="1"></path><path d="M1021.83 779.11V635.77C1033.06 635.77 1042.68 643.93 1044.61 655L1060.37 748C1063.12 764.32 1050.59 779.19 1034.03 779.19L1021.83 779.11Z" fill="#3d84a8" stroke="#333333" stroke-width="2" stroke-linecap="round" stroke-linejoin="round" opacity="1"></path><path d="M1119.03 689.1H1127.35" stroke="#333333" stroke-width="2" stroke-linecap="round" stroke-linejoin="round" opacity="1" fill="none"></path><path d="M1050.35 689.1H1113.21" stroke="#333333" stroke-width="2" stroke-linecap="round" stroke-linejoin="round" opacity="1" fill="none"></path><path d="M1004.22 713.1L992.42 750.67C987.98 764.73 998.48 779.11 1013.27 779.11H1021.91" stroke="#333333" stroke-width="2" stroke-linecap="round" stroke-linejoin="round" opacity="1" fill="none"></path><path d="M1021.83 656.94L1006.4 706.07" stroke="#333333" stroke-width="2" stroke-linecap="round" stroke-linejoin="round" opacity="1" fill="none"></path><path d="M1085.34 677.63H1095.6" stroke="#333333" stroke-width="2" stroke-linecap="round" stroke-linejoin="round" opacity="1" fill="none"></path></g><g><path d="M939.7 566V547.7H983.6C1006.4 547.7 1025 529.2 1025 506.3V384.1H964.4V482.9H893.1 798.8C778.2 482.9 761.5 499.6 761.5 520.2V670.6H939.7V601.1" fill="#ffffff" opacity="1" stroke-width="2" stroke="none"></path><path d="M939.7 566V547.7H983.6C1006.4 547.7 1025 529.2 1025 506.3V384.1H964.4V482.9H893.1 798.8C778.2 482.9 761.5 499.6 761.5 520.2V670.6H939.7V601.1" stroke="#333333" stroke-width="2" stroke-linecap="round" stroke-linejoin="round" opacity="1" fill="none"></path><path d="M939.7 577.5V588.9" stroke="#333333" stroke-width="2" stroke-linecap="round" stroke-linejoin="round" opacity="1" fill="none"></path><path d="M878.2 429.4C835.4 402 798.1 438 798.1 438 795.1 444.6 793.4 452 793.4 459.9 793.4 488.9 816.9 512.4 845.9 512.4 866.7 512.4 884.4 500.4 893 483 893.1 482.8 905.8 447 878.2 429.4Z" fill="#ffffff" stroke="#333333" stroke-width="2" stroke-linecap="round" stroke-linejoin="round" opacity="1"></path><path d="M846 407.2C824.8 407.2 806.4 419.9 798.1 438L874.6 437.8V464.3C874.6 474.5 882.8 482.6 892.9 482.6H893.1C896.5 475.6 898.5 467.7 898.5 459.5 898.5 430.8 874.8 407.2 846 407.2Z" fill="#48466d" stroke="#333333" stroke-width="2" stroke-linecap="round" stroke-linejoin="round" opacity="1"></path><path d="M825.5 453.1V476.5" stroke="#333333" stroke-width="2" stroke-linecap="round" stroke-linejoin="round" opacity="1" fill="none"></path><path d="M838.1 476.5C838.1 480.1 835.2 482.8 831.8 482.8 828.2 482.8 825.5 479.9 825.5 476.5" stroke="#333333" stroke-width="2" stroke-linecap="round" stroke-linejoin="round" opacity="1" fill="none"></path></g><g><path d="M622.05 649.92H450.85L526.38 846.78H697.48L622.05 649.92Z" fill="#46cdcf" stroke="#333333" stroke-width="2" stroke-linecap="round" stroke-linejoin="round" opacity="1"></path><path d="M522.75 836.77H715.74C721.24 836.77 725.7 841.25 725.7 846.78 725.7 852.31 721.24 856.79 715.74 856.79H522.75V836.77Z" fill="#46cdcf" stroke="#333333" stroke-width="2" stroke-linecap="round" stroke-linejoin="round" opacity="1"></path><path d="M546.72 856.89L524.62 995.57" stroke="#333333" stroke-width="2" stroke-linecap="round" stroke-linejoin="round" opacity="1" fill="none"></path><path d="M701.84 856.89L723.94 995.57" stroke="#333333" stroke-width="2" stroke-linecap="round" stroke-linejoin="round" opacity="1" fill="none"></path></g><g><path d="M743.83 757.7H712.36L626.03 742.08 539.69 757.7H496C474.5 757.7 457.11 775.1 457.11 796.59 457.11 818.09 474.5 835.48 496 835.48H594.92 644.91 743.83C765.32 835.48 782.71 818.09 782.71 796.59 782.71 775.17 765.32 757.7 743.83 757.7Z" fill="#48466d" stroke="#333333" stroke-width="2" stroke-linecap="round" stroke-linejoin="round" opacity="1"></path><path d="M712.36 757.7H539.69V633.19C539.69 606.6 561.26 585.04 587.85 585.04H664.28C690.87 585.04 712.43 606.6 712.43 633.19V757.7H712.36Z" fill="#ffffff" stroke="#333333" stroke-width="2" stroke-linecap="round" stroke-linejoin="round" opacity="1"></path><path d="M644.91 757.7V835.55" stroke="#333333" stroke-width="2" stroke-linecap="round" stroke-linejoin="round" opacity="1" fill="none"></path><path d="M599.65 672.86C599.65 678.65 594.99 683.32 589.19 683.32L678.99 707.22 662.72 757.7 568.19 732.11C551.36 727.58 539.76 712.31 539.76 694.92" stroke="#333333" stroke-width="2" stroke-linecap="round" stroke-linejoin="round" opacity="1" fill="none"></path><path d="M693.84 757.7V647.05" stroke="#333333" stroke-width="2" stroke-linecap="round" stroke-linejoin="round" opacity="1" fill="none"></path><path d="M664.28 558.1H605.59L603.75 576.98C603.75 587.09 601.14 593.52 590.89 595.79 597.11 610.78 611.89 621.31 629.14 621.31 652.12 621.31 670.57 602.64 670.57 579.88 670.57 566.65 664.49 558.66 664.28 558.1Z" fill="#ffffff" stroke="#333333" stroke-width="2" stroke-linecap="round" opacity="1"></path><path d="M650.56 574.72V590.27" stroke="#333333" stroke-width="2" stroke-linecap="round" opacity="1" fill="none"></path><path d="M639.39 590.27C639.39 593.31 641.87 595.86 644.98 595.86 648.09 595.86 650.56 593.38 650.56 590.27" stroke="#333333" stroke-width="2" stroke-linecap="round" opacity="1" fill="none"></path><path d="M683.09 544.74C683.09 535.19 675.31 527.41 665.76 527.41 658.41 527.41 652.12 532.01 649.64 538.44H629.21C599.8 538.44 579.57 568.42 590.96 595.79 601.07 595.79 609.2 587.58 609.2 577.54V562.06H666.54C675.73 561.56 683.09 554 683.09 544.74Z" fill="#48466d" stroke="#333333" stroke-width="2" stroke-linecap="round" stroke-linejoin="round" opacity="1"></path></g><g><path d="M462.19 995.35L137.96 995.35" stroke="#333333" stroke-width="2" stroke-linecap="round" stroke-linejoin="round" opacity="1" fill="none"></path><path d="M1462.04 995.35L532.19 995.35" stroke="#333333" stroke-width="2" stroke-linecap="round" stroke-linejoin="round" opacity="1" fill="none"></path></g><g><path d="M934.5 214.45H897.1L915.77 194.91 934.5 214.45Z" fill="#3d84a8" stroke="#333333" stroke-width="2" stroke-linecap="round" stroke-linejoin="round" opacity="1"></path><path d="M829.23 194.91H838.04" stroke="#333333" stroke-width="2" stroke-linecap="round" stroke-linejoin="round" opacity="1" fill="none"></path><path d="M829.23 204.65H869.38" stroke="#333333" stroke-width="2" stroke-linecap="round" stroke-linejoin="round" opacity="1" fill="none"></path><path d="M829.23 214.45H838.04" stroke="#333333" stroke-width="2" stroke-linecap="round" stroke-linejoin="round" opacity="1" fill="none"></path><path d="M844.84 194.91H853.65" stroke="#333333" stroke-width="2" stroke-linecap="round" stroke-linejoin="round" opacity="1" fill="none"></path><path d="M860.58 194.91H869.38" stroke="#333333" stroke-width="2" stroke-linecap="round" stroke-linejoin="round" opacity="1" fill="none"></path><path d="M844.84 214.45H853.65" stroke="#333333" stroke-width="2" stroke-linecap="round" stroke-linejoin="round" opacity="1" fill="none"></path><path d="M860.58 214.45H869.38" stroke="#333333" stroke-width="2" stroke-linecap="round" stroke-linejoin="round" opacity="1" fill="none"></path><path d="M976.35 206.16C977.15 201.19 973.78 196.51 968.81 195.7 963.84 194.9 959.16 198.27 958.35 203.24 957.55 208.21 960.92 212.89 965.89 213.7 970.86 214.5 975.54 211.13 976.35 206.16Z" fill="#abedd8" stroke="#333333" stroke-width="2" stroke-linecap="round" stroke-linejoin="round" opacity="1"></path><path d="M996.19 213.77C1001.22 213.77 1005.3 209.68 1005.3 204.65 1005.3 199.62 1001.22 195.53 996.19 195.53 991.16 195.53 987.07 199.62 987.07 204.65 987.07 209.68 991.16 213.77 996.19 213.77Z" fill="#abedd8" stroke="#333333" stroke-width="2" stroke-linecap="round" stroke-linejoin="round" opacity="1"></path><path d="M967.34 204.65H996.19" stroke="#333333" stroke-width="2" stroke-linecap="round" stroke-linejoin="round" opacity="1" fill="none"></path><path d="M871.07 319.47L830.11 278.57" stroke="#333333" stroke-width="2" stroke-linecap="round" stroke-linejoin="round" opacity="1" fill="none"></path><path d="M856.2 304.64C867.59 293.25 874.31 281.5 871.21 278.41 868.11 275.31 856.37 282.03 844.99 293.42 833.6 304.8 826.88 316.55 829.98 319.64 833.07 322.74 844.81 316.02 856.2 304.64Z" stroke="#333333" stroke-width="2" stroke-linecap="round" stroke-linejoin="round" opacity="1" fill="none"></path><path d="M866.32 287.25C869.32 287.25 871.63 289.69 871.63 292.56 871.63 295.43 869.19 297.87 866.32 297.87 863.45 297.87 861.01 295.43 861.01 292.56 861.01 290.94 861.76 289.5 862.89 288.5" stroke="#333333" stroke-width="2" stroke-linecap="round" stroke-linejoin="round" opacity="1" fill="none"></path><path d="M829.23 253.6H856.08C862.01 253.6 862.01 240.49 868.07 240.49 874 240.49 874 253.6 880.06 253.6 885.99 253.6 885.99 240.49 892.04 240.49 897.98 240.49 897.98 253.6 904.03 253.6 909.96 253.6 909.96 240.49 916.02 240.49H943.43" stroke="#333333" stroke-width="2" stroke-linecap="round" stroke-linejoin="round" opacity="1" fill="none"></path><path d="M995.19 283.07H957.79V320.47H995.19V283.07Z" stroke="#333333" stroke-width="2" stroke-linecap="round" stroke-linejoin="round" opacity="1" fill="none"></path><path d="M1005.74 303.24V309.79H999.12" stroke="#333333" stroke-width="2" stroke-linecap="round" stroke-linejoin="round" opacity="1" fill="none"></path><path d="M991.13 309.79H979.02" stroke="#333333" stroke-width="2" stroke-linecap="round" stroke-linejoin="round" opacity="1" fill="none"></path><path d="M974.96 309.79H968.34V303.24" stroke="#333333" stroke-width="2" stroke-linecap="round" stroke-linejoin="round" opacity="1" fill="none"></path><path d="M968.34 295.18V283.07" stroke="#333333" stroke-width="2" stroke-linecap="round" stroke-linejoin="round" opacity="1" fill="none"></path><path d="M968.34 279.14V272.52H974.96" stroke="#333333" stroke-width="2" stroke-linecap="round" stroke-linejoin="round" opacity="1" fill="none"></path><path d="M983.08 272.52H995.06" stroke="#333333" stroke-width="2" stroke-linecap="round" stroke-linejoin="round" opacity="1" fill="none"></path><path d="M999.12 272.52H1005.74V279.14" stroke="#333333" stroke-width="2" stroke-linecap="round" stroke-linejoin="round" opacity="1" fill="none"></path><path d="M1005.74 287.13V299.24" stroke="#333333" stroke-width="2" stroke-linecap="round" stroke-linejoin="round" opacity="1" fill="none"></path><path d="M995.19 320.47L1005.74 309.79" stroke="#333333" stroke-width="2" stroke-linecap="round" stroke-linejoin="round" opacity="1" fill="none"></path><path d="M957.79 283.07L968.34 272.52" stroke="#333333" stroke-width="2" stroke-linecap="round" stroke-linejoin="round" opacity="1" fill="none"></path><path d="M957.79 320.47L968.34 309.79" stroke="#333333" stroke-width="2" stroke-linecap="round" stroke-linejoin="round" opacity="1" fill="none"></path><path d="M995.19 283.07L1005.74 272.52" stroke="#333333" stroke-width="2" stroke-linecap="round" stroke-linejoin="round" opacity="1" fill="none"></path><path d="M915.77 311.04C923.42 311.04 929.63 304.83 929.63 297.18 929.63 289.53 923.42 283.32 915.77 283.32 908.12 283.32 901.91 289.53 901.91 297.18 901.91 304.83 908.12 311.04 915.77 311.04Z" fill="#abedd8" stroke="#333333" stroke-width="2" stroke-linecap="round" stroke-linejoin="round" opacity="1"></path><path d="M915.77 311.04V283.32" stroke="#333333" stroke-width="2" stroke-linecap="round" stroke-linejoin="round" opacity="1" fill="none"></path></g></svg>