<svg xmlns="http://www.w3.org/2000/svg" height="1227" width="1627" version="1.1" xmlns:xlink="http://www.w3.org/1999/xlink" xmlns:svgjs="http://svgjs.com/svgjs"><rect fill="#ffffff" width="1627" height="1227"></rect><g><path d="M1240.21 539.41C1256.52 618.58 1258.11 702.91 1211.56 744.69 1165.42 786.06 1070.73 784.47 995.94 824.25 921.95 864.03 866.65 944.79 791.06 972.64 715.87 1000.89 619.6 975.43 548.79 916.55 478.37 857.27 433.02 764.98 413.13 664.72 392.84 564.87 398.01 457.85 460.87 406.93 523.33 355.61 643.47 359.59 731.39 345.67 819.31 331.74 875.4 299.52 942.24 290.77 1009.07 282.01 1086.25 296.34 1139.56 340.89 1193.66 385.45 1224.3 459.84 1240.21 539.41Z" fill="#efdcd7" opacity="1" stroke-width="4" stroke="none"></path></g><g><path d="M770.94 895.35L729.14 990.28" stroke="#231f20" stroke-width="4" stroke-linecap="round" stroke-linejoin="round" opacity="1" fill="none"></path></g><g><path d="M851.67 259.2L866.95 193.6" stroke="#231f20" stroke-width="4" stroke-linecap="round" stroke-linejoin="round" opacity="1" fill="none"></path><path d="M870.06 330.26L938.11 249.87" stroke="#231f20" stroke-width="4" stroke-linecap="round" stroke-linejoin="round" opacity="1" fill="none"></path></g><g><path d="M694.47 451.93H342.35C318.5 451.93 299.22 471.2 299.22 495.05V825.88C299.22 849.73 318.5 869.01 342.35 869.01H694.47C718.32 869.01 737.6 849.73 737.6 825.88V495.05C737.6 471.2 718.24 451.93 694.47 451.93Z" fill="#ff9edd" opacity="1" stroke-width="4" stroke="none"></path><path d="M346.38 528.5C356.17 528.5 364.11 520.56 364.11 510.77 364.11 500.97 356.17 493.04 346.38 493.04 336.58 493.04 328.65 500.97 328.65 510.77 328.65 520.56 336.58 528.5 346.38 528.5Z" fill="#f3ebe9" opacity="1" stroke-width="4" stroke="none"></path><path d="M397.86 528.5C407.66 528.5 415.59 520.56 415.59 510.77 415.59 500.97 407.66 493.04 397.86 493.04 388.07 493.04 380.13 500.97 380.13 510.77 380.13 520.56 388.07 528.5 397.86 528.5Z" fill="#f3ebe9" opacity="1" stroke-width="4" stroke="none"></path><path d="M449.43 528.5C459.22 528.5 467.16 520.56 467.16 510.77 467.16 500.97 459.22 493.04 449.43 493.04 439.63 493.04 431.7 500.97 431.7 510.77 431.7 520.56 439.63 528.5 449.43 528.5Z" fill="#f3ebe9" opacity="1" stroke-width="4" stroke="none"></path></g><g><path d="M1287.71 367.11H935.14C911.26 367.11 891.96 386.41 891.96 410.29V741.54C891.96 765.41 911.26 784.72 935.14 784.72H1287.71C1311.59 784.72 1330.89 765.41 1330.89 741.54V410.29C1330.89 386.41 1311.51 367.11 1287.71 367.11Z" fill="#ffc930" opacity="1" stroke-width="4" stroke="none"></path><path d="M939.17 443.78C948.98 443.78 956.92 435.83 956.92 426.02 956.92 416.22 948.98 408.27 939.17 408.27 929.37 408.27 921.42 416.22 921.42 426.02 921.42 435.83 929.37 443.78 939.17 443.78Z" fill="#f3ebe9" opacity="1" stroke-width="4" stroke="none"></path><path d="M990.72 443.78C1000.53 443.78 1008.48 435.83 1008.48 426.02 1008.48 416.22 1000.53 408.27 990.72 408.27 980.92 408.27 972.97 416.22 972.97 426.02 972.97 435.83 980.92 443.78 990.72 443.78Z" fill="#f3ebe9" opacity="1" stroke-width="4" stroke="none"></path><path d="M1042.35 443.78C1052.16 443.78 1060.11 435.83 1060.11 426.02 1060.11 416.22 1052.16 408.27 1042.35 408.27 1032.55 408.27 1024.6 416.22 1024.6 426.02 1024.6 435.83 1032.55 443.78 1042.35 443.78Z" fill="#f3ebe9" opacity="1" stroke-width="4" stroke="none"></path></g><g><path d="M714.08 581.87C714.63 569.16 702.03 568.61 702.03 568.61 698.96 560.39 693.7 559.73 689.86 560.61 689.86 560.5 689.76 560.39 689.76 560.28 689.1 559.07 687.89 558.64 686.36 558.86 688.77 549.32 694.14 523.79 684.39 522.91 677.7 522.37 664.66 558.86 655.35 587.57 655.24 587.78 655.13 588.11 655.02 588.33 653.59 592.5 650.96 600.82 648.55 608.93 643.73 623.4 637.81 645.97 633.21 665.48L701.26 685.97C702.36 675.34 703.01 666.57 704.11 662.19 718.79 650.68 714.41 633.15 713.1 619.23 713.97 619.01 714.96 618.47 715.62 617.81 720.11 614.08 724.6 604.88 724.38 593.92 724.05 580.66 714.08 581.87 714.08 581.87Z" fill="#d9957d" opacity="1" stroke-width="4" stroke="none"></path><path d="M686.14 604.66C694.91 595.89 698.63 586.58 702.58 570.25" stroke="#000000" stroke-width="4" stroke-linecap="round" stroke-linejoin="round" opacity="1" fill="none"></path><path d="M702.91 610.69C707.29 605.21 712.77 592.06 715.18 582.85" stroke="#000000" stroke-width="4" stroke-linecap="round" stroke-linejoin="round" opacity="1" fill="none"></path><path d="M712.88 619.45C707.51 620.44 703.12 618.36 703.12 609.59 703.12 609.59 698.63 615.07 693.15 613.97 688.55 613.1 686.91 609.7 685.37 605.32" stroke="#000000" stroke-width="4" stroke-linecap="round" stroke-linejoin="round" opacity="1" fill="none"></path><path d="M712.99 619.01C712.44 619.34 711.89 619.56 711.34 619.67 705.97 620.66 702.47 619.56 701.59 609.92 699.62 613.32 695.56 615.07 691.73 614.3L690.96 614.85 689.43 614.74C690.85 619.12 687.34 617.37 691.4 619.78 693.04 620.77 697.54 622.3 699.95 619.45 703.23 629.75 713.53 624.06 713.42 622.85 713.1 621.54 712.99 620.33 712.99 619.01Z" fill="#000000" opacity="0.2" stroke-width="4" stroke="none"></path><path d="M658.1 583.29C663.58 573.43 685.27 550.97 689.88 559.18 695.35 569.05 680.01 594.25 680.01 594.25 680.01 594.25 696.34 620.55 692.07 644.66" stroke="#000000" stroke-width="4" stroke-linecap="round" stroke-linejoin="round" opacity="1" fill="none"></path><path d="M543.58 589.98C542.48 585.81 532.95 586.36 532.95 586.36 532.62 584.5 532.4 582.52 531.96 580.55 528.56 563.46 524.95 550.2 514.54 539.9 505.77 531.13 483.42 523.79 456.02 533.76 423.37 548.45 420.41 570.47 421.39 590.52 422.05 602.91 427.53 663.72 427.97 668.11H503.14L501.17 652.66C526.37 655.83 534.59 645.09 538.32 635.78 542.48 625.26 539.85 612.44 536.56 600.71 536.34 600.82 544.67 595.24 543.58 589.98Z" fill="#d9957d" opacity="1" stroke-width="4" stroke="none"></path><path d="M426.43 653.2V652.98C425.67 644.33 421.83 600.82 421.28 590.41 420.3 570.03 423.59 547.02 456.13 532.45 464.46 529.49 472.9 527.95 481.11 527.95 498.1 527.95 510.48 534.2 515.85 539.68 523.85 547.68 527.03 557.43 529.33 566.74V566.85L529.22 566.96C529.22 566.96 525.06 571.02 515.63 571.02 513.22 571.02 510.59 570.69 507.96 570.25 508.51 574.85 507.85 578.25 505.88 580.44 504.35 582.2 502.04 583.07 498.98 583.07 496.02 583.07 493.17 582.2 492.29 581.87 492.51 583.95 493.39 596.11 486.81 604.33L486.7 604.44 486.48 604.33C486.37 604.22 473.88 596.11 462.6 596.11 456.9 596.11 452.62 598.19 449.45 602.14 437.5 617.81 462.71 637.75 463.03 637.97L463.25 638.08 463.14 638.3C451.64 653.09 426.76 653.2 426.43 653.2Z" fill="#000000" opacity="1" stroke-width="4" stroke="none"></path><path d="M501.06 652.66C501.06 652.66 492.29 651.23 479.25 645.09L500.84 666.9 502.81 666.46 501.06 652.66Z" fill="#000000" opacity="0.2" stroke-width="4" stroke="none"></path><path d="M529.66 850.67H370.29V867.98H529.66V850.67Z" fill="#fe4f32" opacity="1" stroke-width="4" stroke="none"></path><path d="M633.43 664.05C627.95 686.63 623.79 705.91 623.79 705.91 548.29 679.5 504.46 677.97 504.46 677.97L503.8 677.75 477.61 669.42 428.74 677.97 407.04 677.75H401.67 399.81C379.97 677.75 353.45 694.95 355.32 728.7 356.19 745.91 359.37 762.67 364.08 778.56 362.66 802.34 358.06 809.03 358.17 829.74 358.17 844.31 370.33 850.78 370.33 850.78L402.22 854.28C409.78 864.15 417.78 872.47 425.45 878.94 452.51 901.51 513.33 892.75 540.18 887.38L547.63 826.01C542.48 825.13 537.22 824.26 532.07 823.49L538.21 774.18C538.21 774.18 621.93 798.73 656.55 786.01 685.92 775.17 697.21 726.4 701.26 685.2L633.43 664.05Z" fill="#ffc930" opacity="1" stroke-width="4" stroke="none"></path><path d="M504.47 677.97L502.93 664.82H478.5 477.62 427.65C427.65 664.82 428.75 676.54 428.86 677.97L463.81 693.2 478.17 671.72 490.22 693.2 504.47 677.97Z" fill="#fe4f32" opacity="1" stroke-width="4" stroke="none"></path><path d="M543.81 745.14L540.3 773.19" stroke="#000000" stroke-width="4" stroke-linecap="round" stroke-linejoin="round" opacity="1" fill="none"></path><path d="M477.83 723.34C482.13 723.34 485.61 719.85 485.61 715.55 485.61 711.25 482.13 707.77 477.83 707.77 473.53 707.77 470.05 711.25 470.05 715.55 470.05 719.85 473.53 723.34 477.83 723.34Z" fill="#000000" opacity="1" stroke-width="4" stroke="none"></path><path d="M680 710.62C684.31 710.62 687.78 707.14 687.78 702.84 687.78 698.54 684.31 695.06 680 695.06 675.71 695.06 672.22 698.54 672.22 702.84 672.22 707.14 675.71 710.62 680 710.62Z" fill="#000000" opacity="1" stroke-width="4" stroke="none"></path><path d="M622.03 706.57L618.53 723.34" stroke="#000000" stroke-width="4" stroke-linecap="round" stroke-linejoin="round" opacity="1" fill="none"></path><path d="M501.07 653.09C496.03 652.22 489.02 650.35 483.32 646.52" stroke="#000000" stroke-width="4" stroke-linecap="round" stroke-linejoin="round" opacity="1" fill="none"></path><path d="M529.22 614.63C527.47 615.73 521 616.6 518.26 611.56" stroke="#000000" stroke-width="4" stroke-linecap="round" stroke-linejoin="round" opacity="1" fill="none"></path><path d="M518.27 593.04C520.03 593.04 521.45 591.62 521.45 589.87 521.45 588.1 520.03 586.69 518.27 586.69 516.51 586.69 515.1 588.1 515.1 589.87 515.1 591.62 516.51 593.04 518.27 593.04Z" fill="#000000" opacity="1" stroke-width="4" stroke="none"></path><path d="M465.24 613.54L475.21 619.23" stroke="#000000" stroke-width="4" stroke-linecap="round" stroke-linejoin="round" opacity="1" fill="none"></path><path d="M477.83 723.34C482.13 723.34 485.61 719.85 485.61 715.55 485.61 711.25 482.13 707.77 477.83 707.77 473.53 707.77 470.05 711.25 470.05 715.55 470.05 719.85 473.53 723.34 477.83 723.34Z" fill="#000000" opacity="1" stroke-width="4" stroke="none"></path><path d="M601.21 841.68C621.27 851.65 639.79 867.1 653.92 885.29 660.28 893.51 674.09 910.72 664.22 912.91 656 914.77 635.84 893.62 635.84 893.62 635.84 893.62 648.33 924.96 641.21 930.88 635.73 935.48 628.5 928.14 628.5 928.14 622.14 941.84 612.17 930 612.17 930 592.45 945.67 580.28 898.12 580.28 898.12 570.86 894.83 562.09 890.23 553.88 884.42 553.88 884.42 539.74 883.87 539.08 883.32L547.41 826.01C567.35 829.63 587.41 834.78 601.21 841.68Z" fill="#d9957d" opacity="1" stroke-width="4" stroke="none"></path><path d="M637.06 895.38C634.1 887.71 633.77 886.5 629.06 876.75" stroke="#000000" stroke-width="4" stroke-linecap="round" stroke-linejoin="round" opacity="1" fill="none"></path><path d="M612.07 882.55C619.74 898.88 625.22 916.96 628.4 928.14" stroke="#000000" stroke-width="4" stroke-linecap="round" stroke-linejoin="round" opacity="1" fill="none"></path><path d="M594.76 888.03C600.46 901.18 606.38 919.05 610.1 930.88" stroke="#000000" stroke-width="4" stroke-linecap="round" stroke-linejoin="round" opacity="1" fill="none"></path><path d="M623.79 705.8C620.17 704.6 616.78 703.39 613.27 702.19L615.79 743.28 623.79 705.8Z" fill="#000000" opacity="0.2" stroke-width="4" stroke="none"></path><path d="M542.48 742.62L538.21 774.18C538.21 774.18 568.12 782.84 599.46 787.33 599.24 787.11 557.27 758.95 542.48 742.62Z" fill="#000000" opacity="0.2" stroke-width="4" stroke="none"></path><path d="M376.36 814.4C373.69 853.91 378.16 851.63 378.83 851.73L399.17 854.25 376.36 814.4C377.34 806.29 376.25 814.29 376.36 814.4Z" fill="#000000" opacity="0.2" stroke-width="4" stroke="none"></path><path d="M444.3 757.74C443.09 764.21 471.58 814.4 471.58 814.4L487.47 815.82 445.39 757.2C445.28 757.2 444.62 756.98 444.3 757.74Z" fill="#000000" opacity="0.2" stroke-width="4" stroke="none"></path><path d="M444.3 757.74L470.81 815.05" stroke="#000000" stroke-width="4" stroke-linecap="round" stroke-linejoin="round" opacity="1" fill="none"></path><path d="M398.82 852.86C393.12 844.86 386.88 835.11 382.38 826.23 378.88 819.33 375.92 812.09 373.51 804.75" stroke="#000000" stroke-width="4" stroke-linecap="round" stroke-linejoin="round" opacity="1" fill="none"></path><path d="M530.77 821.41C498.99 816.59 481.56 816.04 469.73 815.05 461.95 814.4 451.21 814.07 451.21 814.07" stroke="#000000" stroke-width="4" stroke-linecap="round" stroke-linejoin="round" opacity="1" fill="none"></path><path d="M517.82 877.19C522.13 877.19 525.6 873.7 525.6 869.41 525.6 865.1 522.13 861.63 517.82 861.63 513.53 861.63 510.04 865.1 510.04 869.41 510.04 873.7 513.53 877.19 517.82 877.19Z" fill="#000000" opacity="1" stroke-width="4" stroke="none"></path></g><g><path d="M1103.17 580.16L1104.33 558.49C1090.48 561.14 1076.85 557.44 1070.61 548.13 1064.59 538.62 1065.64 526.68 1067.97 513.36 1068.71 509.02 1069.03 503 1069.13 497.61 1069.66 485.34 1070.29 468.54 1076.74 459.02 1087.42 442.96 1104.65 443.38 1130.12 443.38 1143.13 443.38 1149.15 446.97 1158.14 455.75 1166.91 464.41 1178.11 472.03 1178.33 483.76 1178.85 508.81 1172.09 577.94 1172.09 581.32 1172.09 581.32 1185.83 581.85 1188.47 582.28L1173.78 657.54 1106.02 674.35 1082.45 582.17C1089.43 581.22 1103.17 580.16 1103.17 580.16Z" fill="#eaa58b" opacity="1" stroke-width="4" stroke="none"></path><path d="M1120.93 553C1113.42 556.59 1106.87 558.07 1104.97 558.39 1104.65 558.49 1104.33 558.7 1104.33 559.13L1103.7 570.97C1103.7 571.71 1104.54 572.02 1104.97 571.49L1121.77 554.16C1122.41 553.52 1121.67 552.57 1120.93 553Z" fill="#282625" opacity="0.2" stroke-width="4" stroke="none"></path><path d="M1119.87 553C1115.54 555.64 1109.19 557.96 1104.33 558.7" stroke="#282625" stroke-width="4" stroke-linecap="round" stroke-linejoin="round" opacity="1" fill="none"></path><path d="M1136.57 523.72L1146.51 517.06" stroke="#282625" stroke-width="4" stroke-linecap="round" stroke-linejoin="round" opacity="1" fill="none"></path><path d="M1099.05 522.34C1097.36 526.15 1093.02 528.37 1088.79 527.52" stroke="#282625" stroke-width="4" stroke-linecap="round" stroke-linejoin="round" opacity="1" fill="none"></path><path d="M1089.43 514.1C1085.94 512.51 1086.79 509.97 1088.26 506.49" stroke="#282625" stroke-width="4" stroke-linecap="round" stroke-linejoin="round" opacity="1" fill="none"></path><path d="M1104.44 505.85C1106.07 505.85 1107.4 504.53 1107.4 502.89 1107.4 501.25 1106.07 499.93 1104.44 499.93 1102.8 499.93 1101.48 501.25 1101.48 502.89 1101.48 504.53 1102.8 505.85 1104.44 505.85Z" fill="#30242a" opacity="1" stroke-width="4" stroke="none"></path><path d="M1078.65 503.84C1080.27 503.84 1081.61 502.51 1081.61 500.88 1081.61 499.24 1080.27 497.92 1078.65 497.92 1077.01 497.92 1075.69 499.24 1075.69 500.88 1075.69 502.51 1077.01 503.84 1078.65 503.84Z" fill="#30242a" opacity="1" stroke-width="4" stroke="none"></path><path d="M1188.61 433.98C1201.7 420.91 1201.7 399.68 1188.61 386.59 1175.52 373.52 1154.31 373.52 1141.22 386.59 1128.14 399.68 1128.14 420.91 1141.22 433.98 1154.31 447.07 1175.52 447.07 1188.61 433.98Z" fill="#30242a" opacity="1" stroke-width="4" stroke="none"></path><path d="M936.15 571.71C913.64 531.22 894.72 508.28 887.64 511.66 880.13 515.15 887.53 534.39 887.53 534.39 879.5 532.07 868.08 528.9 857.4 528.9H857.3C851.48 529 848.1 530.16 845.78 531.64 836.26 538.51 843.45 547.08 843.45 547.08 843.45 547.08 831.29 549.08 838.17 562.4 838.17 562.4 828.33 569.49 837.53 577.31 837.53 577.31 830.55 581.85 837.43 590.42 844.3 598.98 855.18 602.78 859.84 600.88 860.79 600.35 861.53 599.61 862.05 598.77 866.81 601.62 872.63 604.26 879.39 605.95L887.74 612.72 937.32 579 936.15 571.71Z" fill="#eaa58b" opacity="1" stroke-width="4" stroke="none"></path><path d="M887.53 534.39L891.44 545.49C891.44 545.49 886.58 563.25 890.17 581.85" stroke="#282625" stroke-width="4" stroke-linecap="round" stroke-linejoin="round" opacity="1" fill="none"></path><path d="M1221.88 594.12C1221.88 594.01 1221.88 594.01 1221.88 594.12 1212.57 586.93 1197.14 582.06 1186.78 582.06L1116.38 661.45 1083.51 581.96C1075.16 583.02 1065.33 584.71 1057.72 587.46 1024.52 601.62 975.37 644.75 975.37 644.75 963.43 620.75 949.58 594.75 936.26 571.81L879.39 606.06C879.39 606.06 904.97 732.59 973.05 732.59 1015.12 732.59 1056.45 697.39 1056.45 697.39L1064.69 748.34 1046.51 784.91H1185.09V785.13C1190.69 785.13 1197.35 785.02 1204.44 784.91L1218.92 784.49C1241.43 783.65 1266.17 781.43 1281.6 775.29 1351.89 742 1254.65 616.52 1221.88 594.12ZM1203.59 719.27C1204.86 709.65 1206.23 699.5 1207.71 689.14L1226.53 715.57C1218.39 717.05 1210.99 718.21 1203.59 719.27Z" fill="#fe4f32" opacity="1" stroke-width="4" stroke="none"></path><path d="M1063.95 749.08L1158.66 748.87" stroke="#3e231e" stroke-width="4" stroke-linecap="round" opacity="1" fill="none"></path><path d="M1116.38 661.45L1113 746.97" stroke="#3e231e" stroke-width="4" stroke-linecap="round" opacity="1" fill="none"></path><path d="M1051.8 671.28L1056.45 697.39" stroke="#3e231e" stroke-width="4" stroke-linecap="round" opacity="1" fill="none"></path><path d="M1193.44 669.17L1174.42 725.3 1198.09 720.43 1203.59 719.27C1205.81 698.02 1207.4 688.62 1207.4 688.62L1193.44 669.17Z" fill="#2d1410" opacity="0.2" stroke-width="4" stroke="none"></path><path d="M1034.04 712.93C1046.41 705.63 1054.76 698.76 1056.24 697.6 1056.34 697.5 1056.45 697.28 1056.45 697.18L1052.75 676.78C1052.64 676.35 1052.01 676.25 1051.8 676.67L1033.4 712.4C1033.09 712.72 1033.62 713.14 1034.04 712.93Z" fill="#2d1410" opacity="0.2" stroke-width="4" stroke="none"></path><path d="M975.37 644.64V664.73" stroke="#3e231e" stroke-width="4" stroke-linecap="round" opacity="1" fill="none"></path><path d="M863.11 595.38C863.11 593.59 862.58 591.79 861.42 589.99 861.42 589.99 866.92 590.94 869.24 586.08 872.1 580.16 867.02 574.67 867.02 574.67 867.02 574.67 873.89 575.93 876.01 570.23 877.7 564.09 872.52 559.13 872.52 559.13 872.52 559.13 878.12 555.96 873.89 547.29 870.3 540.31 857.3 536.61 857.3 536.61" stroke="#282625" stroke-width="4" stroke-linecap="round" opacity="1" fill="none"></path><path d="M837.43 577.52C845.14 582.7 853.6 586.93 862.27 590.31" stroke="#282625" stroke-width="4" stroke-linecap="round" opacity="1" fill="none"></path><path d="M838.17 562.3C849.16 569.17 854.34 571.18 867.02 574.67" stroke="#282625" stroke-width="4" stroke-linecap="round" opacity="1" fill="none"></path><path d="M843.45 547.08C853.92 553.31 860.68 556.7 872.52 559.23" stroke="#282625" stroke-width="4" stroke-linecap="round" opacity="1" fill="none"></path><path d="M1174.42 725.3C1147.04 732.38 1119.77 743.16 1110.04 748.97 1101.06 753.94 1072.83 770.96 1073.99 777.73 1076.43 787.35 1108.88 767.79 1108.88 767.79 1108.88 767.79 1082.35 790.3 1083.83 800.56 1084.25 808.49 1094.5 806.69 1094.5 806.69 1096.62 818.42 1109.93 812.93 1109.93 812.93 1122.94 828.99 1155.71 791.15 1155.71 791.15 1165.22 790.62 1179.7 788.61 1185.83 784.39L1176.42 735.87 1174.42 725.3Z" fill="#eaa58b" opacity="1" stroke-width="4" stroke="none"></path><path d="M1109.93 812.93L1141.75 783.75" stroke="#282625" stroke-width="4" stroke-linecap="round" opacity="1" fill="none"></path><path d="M1094.5 806.69L1129.91 771.07" stroke="#282625" stroke-width="4" stroke-linecap="round" opacity="1" fill="none"></path><path d="M1108.88 767.79L1117.23 760.81" stroke="#282625" stroke-width="4" stroke-linecap="round" opacity="1" fill="none"></path><path d="M1207.4 688.62L1193.44 669.17" stroke="#3e231e" stroke-width="4" stroke-linecap="round" opacity="1" fill="none"></path><path d="M1226.42 715.78L1247.77 722.12" stroke="#3e231e" stroke-width="4" stroke-linecap="round" opacity="1" fill="none"></path><path d="M1241.12 598.34C1241.33 539.89 1192.17 535.77 1183.93 497.92 1178.54 468.96 1174.31 455.96 1165.54 447.4 1156.55 438.62 1145.45 433.55 1132.45 433.02 1100 431.65 1080.02 442.53 1071.14 460.29 1066.38 469.81 1064.59 483.34 1064.8 487.25L1126.21 488.41 1130.23 505.01C1130.23 505.01 1155.71 490.52 1163.42 505.32 1174.31 526.78 1139.74 543.06 1139.74 543.06L1146.3 598.24 1241.12 598.34Z" fill="#30242a" opacity="1" stroke-width="4" stroke="none"></path><path d="M1161.31 443.59C1155.28 438.83 1148.52 435.56 1141.01 433.97" stroke="#191416" stroke-width="4" stroke-linecap="round" stroke-linejoin="round" opacity="1" fill="none"></path><path d="M1174.42 725.3L1226.53 715.68" stroke="#3e231e" stroke-width="4" stroke-linecap="round" opacity="1" fill="none"></path></g><g><path d="M844.02 316.75L694.7 353.32 737.49 528.02 886.81 491.45 844.02 316.75Z" fill="#ffffff" opacity="1" stroke-width="4" stroke="none"></path><path d="M731.25 378.66L762.1 371.11C763.36 370.81 764.68 371.01 765.78 371.68 766.88 372.35 767.67 373.43 767.99 374.68V374.68C768.29 375.93 768.08 377.25 767.41 378.35 766.74 379.45 765.67 380.25 764.42 380.56L733.56 388.12C732.31 388.42 730.99 388.21 729.89 387.54 728.78 386.87 727.99 385.8 727.68 384.55V384.55C727.38 383.3 727.58 381.98 728.25 380.87 728.92 379.77 730 378.98 731.25 378.66V378.66Z" fill="#61ccff" opacity="1" stroke-width="4" stroke="none"></path><path d="M781.02 366.47L791.97 363.79C793.22 363.5 794.54 363.7 795.64 364.37 796.75 365.04 797.54 366.11 797.85 367.36V367.36C798.15 368.61 797.95 369.93 797.28 371.04 796.61 372.14 795.53 372.93 794.28 373.25L783.33 375.93C782.08 376.23 780.76 376.02 779.66 375.35 778.55 374.68 777.76 373.61 777.45 372.36V372.36C777.15 371.11 777.36 369.79 778.02 368.68 778.69 367.58 779.77 366.79 781.02 366.47V366.47Z" fill="#ffc930" opacity="1" stroke-width="4" stroke="none"></path><path d="M810.38 359.28L821.33 356.6C822.58 356.3 823.91 356.51 825.01 357.18 826.11 357.84 826.9 358.92 827.22 360.17V360.17C827.51 361.42 827.31 362.74 826.64 363.85 825.97 364.95 824.9 365.74 823.65 366.06L812.7 368.74C811.45 369.03 810.13 368.83 809.02 368.16 807.92 367.49 807.13 366.41 806.81 365.17 806.52 363.92 806.72 362.59 807.39 361.49 808.06 360.39 809.14 359.6 810.38 359.28Z" fill="#fe4f32" opacity="1" stroke-width="4" stroke="none"></path><path d="M749.71 454.07L780.57 446.51C781.82 446.21 783.15 446.42 784.25 447.09 785.35 447.75 786.14 448.83 786.46 450.08V450.08C786.75 451.33 786.55 452.65 785.88 453.76 785.21 454.86 784.14 455.65 782.89 455.97L752.03 463.52C750.78 463.82 749.46 463.62 748.35 462.95 747.25 462.28 746.46 461.2 746.14 459.95V459.95C745.85 458.7 746.05 457.38 746.72 456.28 747.39 455.17 748.47 454.38 749.71 454.07Z" fill="#fe4f32" opacity="1" stroke-width="4" stroke="none"></path><path d="M799.49 441.88L839.8 432C841.05 431.71 842.37 431.91 843.48 432.58 844.58 433.25 845.37 434.33 845.69 435.57V435.57C845.98 436.82 845.78 438.15 845.11 439.25 844.44 440.35 843.36 441.14 842.12 441.46L801.8 451.33C800.55 451.63 799.23 451.43 798.13 450.76 797.02 450.09 796.23 449.01 795.92 447.76V447.76C795.62 446.51 795.82 445.19 796.49 444.09 797.16 442.98 798.24 442.19 799.49 441.88V441.88Z" fill="#61ccff" opacity="1" stroke-width="4" stroke="none"></path><path d="M743.56 428.93L791.34 417.23C792.59 416.93 793.91 417.14 795.01 417.81 796.12 418.48 796.91 419.55 797.22 420.8 797.52 422.05 797.32 423.37 796.65 424.48 795.98 425.58 794.9 426.37 793.65 426.69L745.87 438.39C744.62 438.68 743.3 438.48 742.2 437.81 741.1 437.14 740.3 436.07 739.99 434.82V434.82C739.69 433.57 739.9 432.25 740.56 431.14 741.23 430.04 742.31 429.25 743.56 428.93Z" fill="#ffc930" opacity="1" stroke-width="4" stroke="none"></path><path d="M767.26 396.48L798.12 388.93C799.37 388.63 800.7 388.83 801.8 389.5 802.9 390.17 803.69 391.25 804.01 392.5V392.5C804.31 393.75 804.1 395.07 803.43 396.17 802.76 397.27 801.69 398.07 800.44 398.38L769.58 405.94C768.33 406.24 767.01 406.03 765.9 405.36 764.8 404.69 764.01 403.62 763.69 402.37V402.37C763.4 401.12 763.6 399.8 764.27 398.69 764.94 397.59 766.02 396.8 767.26 396.48V396.48Z" fill="#61ccff" opacity="1" stroke-width="4" stroke="none"></path><path d="M737.4 403.8L748.35 401.12C749.6 400.82 750.92 401.02 752.03 401.69 753.13 402.36 753.92 403.44 754.24 404.69 754.53 405.94 754.33 407.26 753.66 408.36 752.99 409.46 751.91 410.26 750.67 410.57L739.72 413.25C738.47 413.55 737.15 413.35 736.04 412.68 734.94 412.01 734.15 410.93 733.83 409.68V409.68C733.54 408.43 733.74 407.11 734.41 406.01 735.08 404.91 736.16 404.11 737.4 403.8V403.8Z" fill="#ffffff" opacity="1" stroke-width="4" stroke="none"></path><path d="M816.54 384.42L827.49 381.73C828.74 381.44 830.06 381.64 831.16 382.31 832.27 382.98 833.06 384.06 833.37 385.3V385.3C833.67 386.56 833.47 387.88 832.8 388.98 832.13 390.08 831.05 390.87 829.8 391.19L818.85 393.87C817.6 394.17 816.28 393.96 815.18 393.29 814.08 392.63 813.28 391.55 812.97 390.3V390.3C812.67 389.05 812.88 387.73 813.55 386.63 814.21 385.52 815.29 384.73 816.54 384.42Z" fill="#61ccff" opacity="1" stroke-width="4" stroke="none"></path><path d="M785.73 471.89L845.96 457.14C847.21 456.84 848.53 457.05 849.63 457.71 850.74 458.38 851.53 459.46 851.84 460.71V460.71C852.14 461.96 851.93 463.28 851.27 464.38 850.6 465.49 849.52 466.28 848.27 466.59L788.05 481.34C786.8 481.64 785.48 481.44 784.37 480.77 783.27 480.1 782.48 479.02 782.16 477.77V477.77C781.87 476.52 782.07 475.2 782.74 474.1 783.41 472.99 784.49 472.2 785.73 471.89V471.89Z" fill="#61ccff" opacity="1" stroke-width="4" stroke="none"></path><path d="M755.87 479.2L766.82 476.52C768.07 476.22 769.39 476.43 770.5 477.1 771.6 477.77 772.39 478.84 772.71 480.09 773 481.34 772.8 482.66 772.13 483.77 771.46 484.87 770.38 485.66 769.14 485.98L758.19 488.66C756.93 488.95 755.61 488.75 754.51 488.08 753.41 487.41 752.62 486.33 752.3 485.09V485.09C752 483.84 752.21 482.51 752.88 481.41 753.55 480.31 754.62 479.52 755.87 479.2Z" fill="#ffc930" opacity="1" stroke-width="4" stroke="none"></path></g><g><path d="M812.94 867.71L919.06 971.29 841.83 1021.47 812.94 867.71Z" fill="#000000" opacity="0.2" stroke-width="4" stroke="none"></path><path d="M812.94 867.71L952.07 978.98 874.83 1029.16 812.94 867.71Z" fill="#61ccff" opacity="1" stroke-width="4" stroke="none"></path></g><g><path d="M680.69 378.63L636.01 265.25 573.39 307.78 680.69 378.63Z" fill="#000000" opacity="0.2" stroke-width="4" stroke="none"></path><path d="M680.69 378.63L640.69 237.79 578.08 280.33 680.69 378.63Z" fill="#ffc930" opacity="1" stroke-width="4" stroke="none"></path></g><g><path d="M219.72 694.24C235.85 694.24 248.93 681.16 248.93 665.03 248.93 648.9 235.85 635.82 219.72 635.82 203.59 635.82 190.51 648.9 190.51 665.03 190.51 681.16 203.59 694.24 219.72 694.24Z" fill="#61ccff" opacity="1" stroke-width="4" stroke="none"></path></g><g><path d="M1391.22 521.5L1372.95 547.24 1400.99 532.19 1414.36 563 1417.24 530.66 1444.15 542.62 1423.98 518.71 1452.92 499.03 1419.69 504.3 1420.24 467.09 1404.67 501.85 1381.56 481.62 1392.1 509.21 1359.4 515.12 1391.22 521.5Z" fill="#ff9edd" opacity="1" stroke-width="4" stroke="none"></path></g><g><path d="M1296.58 651.25L1344.77 614.45 1314.35 710.88 1428.08 634.67 1411.34 713.91 1453.93 696.07" stroke="#231f20" stroke-width="4" stroke-linecap="round" stroke-linejoin="round" opacity="1" fill="none"></path></g><g><path d="M173.9 425.25L164.58 479.63 267.14 428.28 252.01 552.21 316.77 473.9 376.04 554.44" stroke="#231f20" stroke-width="4" stroke-linecap="round" stroke-linejoin="round" opacity="1" fill="none"></path></g></svg>