<?xml version="1.0" standalone="no"?>
<svg xmlns:xlink="http://www.w3.org/1999/xlink" id="wave" style="transform:rotate(0deg); transition: 0.3s" viewBox="0 0 1440 270" version="1.1" xmlns="http://www.w3.org/2000/svg"><defs><linearGradient id="sw-gradient-0" x1="0" x2="0" y1="1" y2="0"><stop stop-color="rgba(245, 240, 225, 1)" offset="0%"/><stop stop-color="rgba(245, 240, 225, 1)" offset="100%"/></linearGradient></defs><path style="transform:translate(0, 0px); opacity:1" fill="url(#sw-gradient-0)" d="M0,243L48,225C96,207,192,171,288,148.5C384,126,480,117,576,121.5C672,126,768,144,864,148.5C960,153,1056,144,1152,126C1248,108,1344,81,1440,99C1536,117,1632,180,1728,193.5C1824,207,1920,171,2016,166.5C2112,162,2208,189,2304,207C2400,225,2496,234,2592,207C2688,180,2784,117,2880,81C2976,45,3072,36,3168,27C3264,18,3360,9,3456,9C3552,9,3648,18,3744,49.5C3840,81,3936,135,4032,130.5C4128,126,4224,63,4320,31.5C4416,0,4512,0,4608,27C4704,54,4800,108,4896,112.5C4992,117,5088,72,5184,54C5280,36,5376,45,5472,63C5568,81,5664,108,5760,112.5C5856,117,5952,99,6048,108C6144,117,6240,153,6336,148.5C6432,144,6528,99,6624,72C6720,45,6816,36,6864,31.5L6912,27L6912,270L6864,270C6816,270,6720,270,6624,270C6528,270,6432,270,6336,270C6240,270,6144,270,6048,270C5952,270,5856,270,5760,270C5664,270,5568,270,5472,270C5376,270,5280,270,5184,270C5088,270,4992,270,4896,270C4800,270,4704,270,4608,270C4512,270,4416,270,4320,270C4224,270,4128,270,4032,270C3936,270,3840,270,3744,270C3648,270,3552,270,3456,270C3360,270,3264,270,3168,270C3072,270,2976,270,2880,270C2784,270,2688,270,2592,270C2496,270,2400,270,2304,270C2208,270,2112,270,2016,270C1920,270,1824,270,1728,270C1632,270,1536,270,1440,270C1344,270,1248,270,1152,270C1056,270,960,270,864,270C768,270,672,270,576,270C480,270,384,270,288,270C192,270,96,270,48,270L0,270Z"/><defs><linearGradient id="sw-gradient-1" x1="0" x2="0" y1="1" y2="0"><stop stop-color="rgba(255, 110, 64, 1)" offset="0%"/><stop stop-color="rgba(255, 110, 64, 1)" offset="100%"/></linearGradient></defs><path style="transform:translate(0, 50px); opacity:0.9" fill="url(#sw-gradient-1)" d="M0,27L48,31.5C96,36,192,45,288,76.5C384,108,480,162,576,175.5C672,189,768,162,864,144C960,126,1056,117,1152,112.5C1248,108,1344,108,1440,108C1536,108,1632,108,1728,108C1824,108,1920,108,2016,108C2112,108,2208,108,2304,108C2400,108,2496,108,2592,99C2688,90,2784,72,2880,81C2976,90,3072,126,3168,121.5C3264,117,3360,72,3456,58.5C3552,45,3648,63,3744,72C3840,81,3936,81,4032,103.5C4128,126,4224,171,4320,175.5C4416,180,4512,144,4608,121.5C4704,99,4800,90,4896,81C4992,72,5088,63,5184,54C5280,45,5376,36,5472,27C5568,18,5664,9,5760,40.5C5856,72,5952,144,6048,166.5C6144,189,6240,162,6336,157.5C6432,153,6528,171,6624,180C6720,189,6816,189,6864,189L6912,189L6912,270L6864,270C6816,270,6720,270,6624,270C6528,270,6432,270,6336,270C6240,270,6144,270,6048,270C5952,270,5856,270,5760,270C5664,270,5568,270,5472,270C5376,270,5280,270,5184,270C5088,270,4992,270,4896,270C4800,270,4704,270,4608,270C4512,270,4416,270,4320,270C4224,270,4128,270,4032,270C3936,270,3840,270,3744,270C3648,270,3552,270,3456,270C3360,270,3264,270,3168,270C3072,270,2976,270,2880,270C2784,270,2688,270,2592,270C2496,270,2400,270,2304,270C2208,270,2112,270,2016,270C1920,270,1824,270,1728,270C1632,270,1536,270,1440,270C1344,270,1248,270,1152,270C1056,270,960,270,864,270C768,270,672,270,576,270C480,270,384,270,288,270C192,270,96,270,48,270L0,270Z"/><defs><linearGradient id="sw-gradient-2" x1="0" x2="0" y1="1" y2="0"><stop stop-color="rgba(30, 61, 89, 1)" offset="0%"/><stop stop-color="rgba(30, 61, 89, 1)" offset="100%"/></linearGradient></defs><path style="transform:translate(0, 100px); opacity:0.8" fill="url(#sw-gradient-2)" d="M0,27L48,45C96,63,192,99,288,94.5C384,90,480,45,576,45C672,45,768,90,864,117C960,144,1056,153,1152,148.5C1248,144,1344,126,1440,139.5C1536,153,1632,198,1728,211.5C1824,225,1920,207,2016,171C2112,135,2208,81,2304,81C2400,81,2496,135,2592,130.5C2688,126,2784,63,2880,36C2976,9,3072,18,3168,45C3264,72,3360,117,3456,153C3552,189,3648,216,3744,207C3840,198,3936,153,4032,148.5C4128,144,4224,180,4320,198C4416,216,4512,216,4608,184.5C4704,153,4800,90,4896,72C4992,54,5088,81,5184,76.5C5280,72,5376,36,5472,45C5568,54,5664,108,5760,121.5C5856,135,5952,108,6048,117C6144,126,6240,171,6336,157.5C6432,144,6528,72,6624,36C6720,0,6816,0,6864,0L6912,0L6912,270L6864,270C6816,270,6720,270,6624,270C6528,270,6432,270,6336,270C6240,270,6144,270,6048,270C5952,270,5856,270,5760,270C5664,270,5568,270,5472,270C5376,270,5280,270,5184,270C5088,270,4992,270,4896,270C4800,270,4704,270,4608,270C4512,270,4416,270,4320,270C4224,270,4128,270,4032,270C3936,270,3840,270,3744,270C3648,270,3552,270,3456,270C3360,270,3264,270,3168,270C3072,270,2976,270,2880,270C2784,270,2688,270,2592,270C2496,270,2400,270,2304,270C2208,270,2112,270,2016,270C1920,270,1824,270,1728,270C1632,270,1536,270,1440,270C1344,270,1248,270,1152,270C1056,270,960,270,864,270C768,270,672,270,576,270C480,270,384,270,288,270C192,270,96,270,48,270L0,270Z"/><defs><linearGradient id="sw-gradient-3" x1="0" x2="0" y1="1" y2="0"><stop stop-color="rgba(255, 193, 59, 1)" offset="0%"/><stop stop-color="rgba(255, 193, 59, 1)" offset="100%"/></linearGradient></defs><path style="transform:translate(0, 150px); opacity:0.7" fill="url(#sw-gradient-3)" d="M0,189L48,157.5C96,126,192,63,288,63C384,63,480,126,576,153C672,180,768,171,864,171C960,171,1056,180,1152,175.5C1248,171,1344,153,1440,162C1536,171,1632,207,1728,193.5C1824,180,1920,117,2016,112.5C2112,108,2208,162,2304,162C2400,162,2496,108,2592,81C2688,54,2784,54,2880,49.5C2976,45,3072,36,3168,40.5C3264,45,3360,63,3456,76.5C3552,90,3648,99,3744,126C3840,153,3936,198,4032,220.5C4128,243,4224,243,4320,238.5C4416,234,4512,225,4608,193.5C4704,162,4800,108,4896,90C4992,72,5088,90,5184,103.5C5280,117,5376,126,5472,144C5568,162,5664,189,5760,202.5C5856,216,5952,216,6048,189C6144,162,6240,108,6336,85.5C6432,63,6528,72,6624,103.5C6720,135,6816,189,6864,216L6912,243L6912,270L6864,270C6816,270,6720,270,6624,270C6528,270,6432,270,6336,270C6240,270,6144,270,6048,270C5952,270,5856,270,5760,270C5664,270,5568,270,5472,270C5376,270,5280,270,5184,270C5088,270,4992,270,4896,270C4800,270,4704,270,4608,270C4512,270,4416,270,4320,270C4224,270,4128,270,4032,270C3936,270,3840,270,3744,270C3648,270,3552,270,3456,270C3360,270,3264,270,3168,270C3072,270,2976,270,2880,270C2784,270,2688,270,2592,270C2496,270,2400,270,2304,270C2208,270,2112,270,2016,270C1920,270,1824,270,1728,270C1632,270,1536,270,1440,270C1344,270,1248,270,1152,270C1056,270,960,270,864,270C768,270,672,270,576,270C480,270,384,270,288,270C192,270,96,270,48,270L0,270Z"/></svg>